M48
; DRILL file {KiCad 8.0.5} date 2024-10-20T03:08:29+0200
; FORMAT={-:-/ absolute / inch / decimal}
; #@! TF.CreationDate,2024-10-20T03:08:29+02:00
; #@! TF.GenerationSoftware,Kicad,Pcbnew,8.0.5
; #@! TF.FileFunction,Plated,1,4,PTH
FMAT,2
INCH
; #@! TA.AperFunction,Plated,PTH,ViaDrill
T1C0.0118
; #@! TA.AperFunction,Plated,PTH,ComponentDrill
T2C0.0315
; #@! TA.AperFunction,Plated,PTH,ComponentDrill
T3C0.0362
; #@! TA.AperFunction,Plated,PTH,ComponentDrill
T4C0.0394
; #@! TA.AperFunction,Plated,PTH,ComponentDrill
T5C0.0472
; #@! TA.AperFunction,Plated,PTH,ComponentDrill
T6C0.0906
%
G90
G05
T1
X4.7047Y-3.5679
X5.6594Y-3.427
X5.689Y-4.124
X5.7283Y-4.6496
X5.7382Y-4.4094
X5.7638Y-4.7598
X5.7677Y-4.4508
X5.7953Y-4.7598
X5.8169Y-3.3465
X5.8268Y-4.7598
X5.8465Y-4.3799
X5.8583Y-4.7598
X5.8898Y-4.7598
X5.9055Y-4.5669
X5.9213Y-4.7598
X5.9528Y-4.7598
X5.9843Y-4.5472
X5.9843Y-4.7598
X6.0157Y-4.7598
X6.0335Y-4.3898
X6.0472Y-4.7598
X6.0728Y-3.7894
X6.0728Y-4.4193
X6.0906Y-4.6496
X6.2992Y-4.6457
X6.3681Y-4.0945
X6.437Y-3.4843
X6.4665Y-3.061
X6.4665Y-3.9567
X6.4921Y-3.3858
X6.5157Y-3.6319
X6.5157Y-3.8189
X6.5295Y-3.9961
X6.5659Y-3.503
X6.5846Y-3.2874
X6.6043Y-3.376
X6.6142Y-3.9961
X6.6201Y-3.9429
X6.624Y-4.0453
X6.6437Y-3.376
X6.6465Y-3.9601
X6.6634Y-3.6614
X6.6722Y-3.9419
X6.6781Y-3.4892
X6.6831Y-3.002
X6.7Y-3.9568
X6.7362Y-3.942
X6.8012Y-3.622
X6.8012Y-3.6614
X6.811Y-4.3799
X6.8307Y-3.5335
X6.8799Y-3.8878
X6.8898Y-3.2874
X6.8898Y-3.4744
X6.9193Y-4.0945
X7.0374Y-3.2382
X7.0374Y-3.5039
T2
X6.2559Y-3.5531
X6.2559Y-3.7453
T3
X5.176Y-3.0053
X5.176Y-3.0841
X5.2744Y-3.0053
X5.2744Y-3.0841
T4
X5.064Y-3.7075
X5.064Y-3.8075
X5.064Y-4.0126
X5.064Y-4.1126
X5.1008Y-3.2559
X5.1555Y-4.8799
X5.1555Y-4.9799
X5.2008Y-3.2559
X5.2555Y-4.8799
X5.2555Y-4.9799
X5.3008Y-3.2559
X5.3346Y-3.522
X5.3346Y-3.622
X5.3346Y-3.722
X5.3346Y-3.9272
X5.3346Y-4.0272
X5.3346Y-4.1272
X5.3555Y-4.8799
X5.3555Y-4.9799
X5.4555Y-4.8799
X5.4555Y-4.9799
X5.5555Y-4.8799
X5.5555Y-4.9799
X5.6289Y-2.8986
X5.6555Y-4.8799
X5.6555Y-4.9799
X5.7289Y-2.8986
X5.7555Y-4.8799
X5.7555Y-4.9799
X5.8555Y-4.8799
X5.8555Y-4.9799
X5.9555Y-4.8799
X5.9555Y-4.9799
X6.0522Y-2.8986
X6.0555Y-4.8799
X6.0555Y-4.9799
X6.1522Y-2.8986
X6.1555Y-4.8799
X6.1555Y-4.9799
X6.2522Y-2.8986
X6.2555Y-4.8799
X6.2555Y-4.9799
X6.3555Y-4.8799
X6.3555Y-4.9799
X6.4555Y-4.8799
X6.4555Y-4.9799
X6.4665Y-2.8986
X6.5555Y-4.8799
X6.5555Y-4.9799
X6.5665Y-2.8986
X6.652Y-3.1791
X6.6555Y-4.8799
X6.6555Y-4.9799
X6.752Y-3.1791
X6.852Y-3.1791
T5
X4.7736Y-4.3193
X4.7736Y-4.4571
X4.7736Y-4.5949
T6
X4.9882Y-2.8986
X5.4622Y-2.8986
M30
