%TF.GenerationSoftware,KiCad,Pcbnew,8.0.5*%
%TF.CreationDate,2024-10-20T03:08:34+02:00*%
%TF.ProjectId,Kingfisher,4b696e67-6669-4736-9865-722e6b696361,rev?*%
%TF.SameCoordinates,Original*%
%TF.FileFunction,Legend,Top*%
%TF.FilePolarity,Positive*%
%FSLAX46Y46*%
G04 Gerber Fmt 4.6, Leading zero omitted, Abs format (unit mm)*
G04 Created by KiCad (PCBNEW 8.0.5) date 2024-10-20 03:08:34*
%MOMM*%
%LPD*%
G01*
G04 APERTURE LIST*
%ADD10C,0.200000*%
%ADD11C,0.187500*%
%ADD12C,0.150000*%
%ADD13C,0.254000*%
%ADD14C,0.120000*%
%ADD15C,0.100000*%
%ADD16C,0.127000*%
%ADD17C,0.250000*%
G04 APERTURE END LIST*
D10*
X125869673Y-109867219D02*
X125869673Y-108867219D01*
X125869673Y-108867219D02*
X126107768Y-108867219D01*
X126107768Y-108867219D02*
X126250625Y-108914838D01*
X126250625Y-108914838D02*
X126345863Y-109010076D01*
X126345863Y-109010076D02*
X126393482Y-109105314D01*
X126393482Y-109105314D02*
X126441101Y-109295790D01*
X126441101Y-109295790D02*
X126441101Y-109438647D01*
X126441101Y-109438647D02*
X126393482Y-109629123D01*
X126393482Y-109629123D02*
X126345863Y-109724361D01*
X126345863Y-109724361D02*
X126250625Y-109819600D01*
X126250625Y-109819600D02*
X126107768Y-109867219D01*
X126107768Y-109867219D02*
X125869673Y-109867219D01*
X126822054Y-109581504D02*
X127298244Y-109581504D01*
X126726816Y-109867219D02*
X127060149Y-108867219D01*
X127060149Y-108867219D02*
X127393482Y-109867219D01*
X128298244Y-109771980D02*
X128250625Y-109819600D01*
X128250625Y-109819600D02*
X128107768Y-109867219D01*
X128107768Y-109867219D02*
X128012530Y-109867219D01*
X128012530Y-109867219D02*
X127869673Y-109819600D01*
X127869673Y-109819600D02*
X127774435Y-109724361D01*
X127774435Y-109724361D02*
X127726816Y-109629123D01*
X127726816Y-109629123D02*
X127679197Y-109438647D01*
X127679197Y-109438647D02*
X127679197Y-109295790D01*
X127679197Y-109295790D02*
X127726816Y-109105314D01*
X127726816Y-109105314D02*
X127774435Y-109010076D01*
X127774435Y-109010076D02*
X127869673Y-108914838D01*
X127869673Y-108914838D02*
X128012530Y-108867219D01*
X128012530Y-108867219D02*
X128107768Y-108867219D01*
X128107768Y-108867219D02*
X128250625Y-108914838D01*
X128250625Y-108914838D02*
X128298244Y-108962457D01*
X128488721Y-109962457D02*
X129250625Y-109962457D01*
X129345864Y-108867219D02*
X129679197Y-109867219D01*
X129679197Y-109867219D02*
X130012530Y-108867219D01*
X130298245Y-109819600D02*
X130441102Y-109867219D01*
X130441102Y-109867219D02*
X130679197Y-109867219D01*
X130679197Y-109867219D02*
X130774435Y-109819600D01*
X130774435Y-109819600D02*
X130822054Y-109771980D01*
X130822054Y-109771980D02*
X130869673Y-109676742D01*
X130869673Y-109676742D02*
X130869673Y-109581504D01*
X130869673Y-109581504D02*
X130822054Y-109486266D01*
X130822054Y-109486266D02*
X130774435Y-109438647D01*
X130774435Y-109438647D02*
X130679197Y-109391028D01*
X130679197Y-109391028D02*
X130488721Y-109343409D01*
X130488721Y-109343409D02*
X130393483Y-109295790D01*
X130393483Y-109295790D02*
X130345864Y-109248171D01*
X130345864Y-109248171D02*
X130298245Y-109152933D01*
X130298245Y-109152933D02*
X130298245Y-109057695D01*
X130298245Y-109057695D02*
X130345864Y-108962457D01*
X130345864Y-108962457D02*
X130393483Y-108914838D01*
X130393483Y-108914838D02*
X130488721Y-108867219D01*
X130488721Y-108867219D02*
X130726816Y-108867219D01*
X130726816Y-108867219D02*
X130869673Y-108914838D01*
X131250626Y-109819600D02*
X131393483Y-109867219D01*
X131393483Y-109867219D02*
X131631578Y-109867219D01*
X131631578Y-109867219D02*
X131726816Y-109819600D01*
X131726816Y-109819600D02*
X131774435Y-109771980D01*
X131774435Y-109771980D02*
X131822054Y-109676742D01*
X131822054Y-109676742D02*
X131822054Y-109581504D01*
X131822054Y-109581504D02*
X131774435Y-109486266D01*
X131774435Y-109486266D02*
X131726816Y-109438647D01*
X131726816Y-109438647D02*
X131631578Y-109391028D01*
X131631578Y-109391028D02*
X131441102Y-109343409D01*
X131441102Y-109343409D02*
X131345864Y-109295790D01*
X131345864Y-109295790D02*
X131298245Y-109248171D01*
X131298245Y-109248171D02*
X131250626Y-109152933D01*
X131250626Y-109152933D02*
X131250626Y-109057695D01*
X131250626Y-109057695D02*
X131298245Y-108962457D01*
X131298245Y-108962457D02*
X131345864Y-108914838D01*
X131345864Y-108914838D02*
X131441102Y-108867219D01*
X131441102Y-108867219D02*
X131679197Y-108867219D01*
X131679197Y-108867219D02*
X131822054Y-108914838D01*
X163869673Y-75950552D02*
X163869673Y-76617219D01*
X163869673Y-76045790D02*
X163917292Y-75998171D01*
X163917292Y-75998171D02*
X164012530Y-75950552D01*
X164012530Y-75950552D02*
X164155387Y-75950552D01*
X164155387Y-75950552D02*
X164250625Y-75998171D01*
X164250625Y-75998171D02*
X164298244Y-76093409D01*
X164298244Y-76093409D02*
X164298244Y-76617219D01*
X165345863Y-76617219D02*
X165012530Y-76141028D01*
X164774435Y-76617219D02*
X164774435Y-75617219D01*
X164774435Y-75617219D02*
X165155387Y-75617219D01*
X165155387Y-75617219D02*
X165250625Y-75664838D01*
X165250625Y-75664838D02*
X165298244Y-75712457D01*
X165298244Y-75712457D02*
X165345863Y-75807695D01*
X165345863Y-75807695D02*
X165345863Y-75950552D01*
X165345863Y-75950552D02*
X165298244Y-76045790D01*
X165298244Y-76045790D02*
X165250625Y-76093409D01*
X165250625Y-76093409D02*
X165155387Y-76141028D01*
X165155387Y-76141028D02*
X164774435Y-76141028D01*
X165726816Y-76569600D02*
X165869673Y-76617219D01*
X165869673Y-76617219D02*
X166107768Y-76617219D01*
X166107768Y-76617219D02*
X166203006Y-76569600D01*
X166203006Y-76569600D02*
X166250625Y-76521980D01*
X166250625Y-76521980D02*
X166298244Y-76426742D01*
X166298244Y-76426742D02*
X166298244Y-76331504D01*
X166298244Y-76331504D02*
X166250625Y-76236266D01*
X166250625Y-76236266D02*
X166203006Y-76188647D01*
X166203006Y-76188647D02*
X166107768Y-76141028D01*
X166107768Y-76141028D02*
X165917292Y-76093409D01*
X165917292Y-76093409D02*
X165822054Y-76045790D01*
X165822054Y-76045790D02*
X165774435Y-75998171D01*
X165774435Y-75998171D02*
X165726816Y-75902933D01*
X165726816Y-75902933D02*
X165726816Y-75807695D01*
X165726816Y-75807695D02*
X165774435Y-75712457D01*
X165774435Y-75712457D02*
X165822054Y-75664838D01*
X165822054Y-75664838D02*
X165917292Y-75617219D01*
X165917292Y-75617219D02*
X166155387Y-75617219D01*
X166155387Y-75617219D02*
X166298244Y-75664838D01*
X166583959Y-75617219D02*
X167155387Y-75617219D01*
X166869673Y-76617219D02*
X166869673Y-75617219D01*
X130095863Y-84617219D02*
X129619673Y-84617219D01*
X129619673Y-84617219D02*
X129572054Y-85093409D01*
X129572054Y-85093409D02*
X129619673Y-85045790D01*
X129619673Y-85045790D02*
X129714911Y-84998171D01*
X129714911Y-84998171D02*
X129953006Y-84998171D01*
X129953006Y-84998171D02*
X130048244Y-85045790D01*
X130048244Y-85045790D02*
X130095863Y-85093409D01*
X130095863Y-85093409D02*
X130143482Y-85188647D01*
X130143482Y-85188647D02*
X130143482Y-85426742D01*
X130143482Y-85426742D02*
X130095863Y-85521980D01*
X130095863Y-85521980D02*
X130048244Y-85569600D01*
X130048244Y-85569600D02*
X129953006Y-85617219D01*
X129953006Y-85617219D02*
X129714911Y-85617219D01*
X129714911Y-85617219D02*
X129619673Y-85569600D01*
X129619673Y-85569600D02*
X129572054Y-85521980D01*
X130429197Y-84617219D02*
X130762530Y-85617219D01*
X130762530Y-85617219D02*
X131095863Y-84617219D01*
X131191102Y-85712457D02*
X131953006Y-85712457D01*
X132143483Y-85569600D02*
X132286340Y-85617219D01*
X132286340Y-85617219D02*
X132524435Y-85617219D01*
X132524435Y-85617219D02*
X132619673Y-85569600D01*
X132619673Y-85569600D02*
X132667292Y-85521980D01*
X132667292Y-85521980D02*
X132714911Y-85426742D01*
X132714911Y-85426742D02*
X132714911Y-85331504D01*
X132714911Y-85331504D02*
X132667292Y-85236266D01*
X132667292Y-85236266D02*
X132619673Y-85188647D01*
X132619673Y-85188647D02*
X132524435Y-85141028D01*
X132524435Y-85141028D02*
X132333959Y-85093409D01*
X132333959Y-85093409D02*
X132238721Y-85045790D01*
X132238721Y-85045790D02*
X132191102Y-84998171D01*
X132191102Y-84998171D02*
X132143483Y-84902933D01*
X132143483Y-84902933D02*
X132143483Y-84807695D01*
X132143483Y-84807695D02*
X132191102Y-84712457D01*
X132191102Y-84712457D02*
X132238721Y-84664838D01*
X132238721Y-84664838D02*
X132333959Y-84617219D01*
X132333959Y-84617219D02*
X132572054Y-84617219D01*
X132572054Y-84617219D02*
X132714911Y-84664838D01*
X133143483Y-85093409D02*
X133476816Y-85093409D01*
X133619673Y-85617219D02*
X133143483Y-85617219D01*
X133143483Y-85617219D02*
X133143483Y-84617219D01*
X133143483Y-84617219D02*
X133619673Y-84617219D01*
X134524435Y-85617219D02*
X134048245Y-85617219D01*
X134048245Y-85617219D02*
X134048245Y-84617219D01*
X138617219Y-94558898D02*
X138141028Y-94892231D01*
X138617219Y-95130326D02*
X137617219Y-95130326D01*
X137617219Y-95130326D02*
X137617219Y-94749374D01*
X137617219Y-94749374D02*
X137664838Y-94654136D01*
X137664838Y-94654136D02*
X137712457Y-94606517D01*
X137712457Y-94606517D02*
X137807695Y-94558898D01*
X137807695Y-94558898D02*
X137950552Y-94558898D01*
X137950552Y-94558898D02*
X138045790Y-94606517D01*
X138045790Y-94606517D02*
X138093409Y-94654136D01*
X138093409Y-94654136D02*
X138141028Y-94749374D01*
X138141028Y-94749374D02*
X138141028Y-95130326D01*
X138093409Y-94130326D02*
X138093409Y-93796993D01*
X138617219Y-93654136D02*
X138617219Y-94130326D01*
X138617219Y-94130326D02*
X137617219Y-94130326D01*
X137617219Y-94130326D02*
X137617219Y-93654136D01*
X138093409Y-92892231D02*
X138093409Y-93225564D01*
X138617219Y-93225564D02*
X137617219Y-93225564D01*
X137617219Y-93225564D02*
X137617219Y-92749374D01*
X138712457Y-92606517D02*
X138712457Y-91844612D01*
X138569600Y-91654135D02*
X138617219Y-91511278D01*
X138617219Y-91511278D02*
X138617219Y-91273183D01*
X138617219Y-91273183D02*
X138569600Y-91177945D01*
X138569600Y-91177945D02*
X138521980Y-91130326D01*
X138521980Y-91130326D02*
X138426742Y-91082707D01*
X138426742Y-91082707D02*
X138331504Y-91082707D01*
X138331504Y-91082707D02*
X138236266Y-91130326D01*
X138236266Y-91130326D02*
X138188647Y-91177945D01*
X138188647Y-91177945D02*
X138141028Y-91273183D01*
X138141028Y-91273183D02*
X138093409Y-91463659D01*
X138093409Y-91463659D02*
X138045790Y-91558897D01*
X138045790Y-91558897D02*
X137998171Y-91606516D01*
X137998171Y-91606516D02*
X137902933Y-91654135D01*
X137902933Y-91654135D02*
X137807695Y-91654135D01*
X137807695Y-91654135D02*
X137712457Y-91606516D01*
X137712457Y-91606516D02*
X137664838Y-91558897D01*
X137664838Y-91558897D02*
X137617219Y-91463659D01*
X137617219Y-91463659D02*
X137617219Y-91225564D01*
X137617219Y-91225564D02*
X137664838Y-91082707D01*
X138093409Y-90654135D02*
X138093409Y-90320802D01*
X138617219Y-90177945D02*
X138617219Y-90654135D01*
X138617219Y-90654135D02*
X137617219Y-90654135D01*
X137617219Y-90654135D02*
X137617219Y-90177945D01*
X138617219Y-89273183D02*
X138617219Y-89749373D01*
X138617219Y-89749373D02*
X137617219Y-89749373D01*
X154869673Y-75617219D02*
X154869673Y-76426742D01*
X154869673Y-76426742D02*
X154917292Y-76521980D01*
X154917292Y-76521980D02*
X154964911Y-76569600D01*
X154964911Y-76569600D02*
X155060149Y-76617219D01*
X155060149Y-76617219D02*
X155250625Y-76617219D01*
X155250625Y-76617219D02*
X155345863Y-76569600D01*
X155345863Y-76569600D02*
X155393482Y-76521980D01*
X155393482Y-76521980D02*
X155441101Y-76426742D01*
X155441101Y-76426742D02*
X155441101Y-75617219D01*
X155869673Y-76331504D02*
X156345863Y-76331504D01*
X155774435Y-76617219D02*
X156107768Y-75617219D01*
X156107768Y-75617219D02*
X156441101Y-76617219D01*
X157345863Y-76617219D02*
X157012530Y-76141028D01*
X156774435Y-76617219D02*
X156774435Y-75617219D01*
X156774435Y-75617219D02*
X157155387Y-75617219D01*
X157155387Y-75617219D02*
X157250625Y-75664838D01*
X157250625Y-75664838D02*
X157298244Y-75712457D01*
X157298244Y-75712457D02*
X157345863Y-75807695D01*
X157345863Y-75807695D02*
X157345863Y-75950552D01*
X157345863Y-75950552D02*
X157298244Y-76045790D01*
X157298244Y-76045790D02*
X157250625Y-76093409D01*
X157250625Y-76093409D02*
X157155387Y-76141028D01*
X157155387Y-76141028D02*
X156774435Y-76141028D01*
X157631578Y-75617219D02*
X158203006Y-75617219D01*
X157917292Y-76617219D02*
X157917292Y-75617219D01*
X126643482Y-112414838D02*
X126548244Y-112367219D01*
X126548244Y-112367219D02*
X126405387Y-112367219D01*
X126405387Y-112367219D02*
X126262530Y-112414838D01*
X126262530Y-112414838D02*
X126167292Y-112510076D01*
X126167292Y-112510076D02*
X126119673Y-112605314D01*
X126119673Y-112605314D02*
X126072054Y-112795790D01*
X126072054Y-112795790D02*
X126072054Y-112938647D01*
X126072054Y-112938647D02*
X126119673Y-113129123D01*
X126119673Y-113129123D02*
X126167292Y-113224361D01*
X126167292Y-113224361D02*
X126262530Y-113319600D01*
X126262530Y-113319600D02*
X126405387Y-113367219D01*
X126405387Y-113367219D02*
X126500625Y-113367219D01*
X126500625Y-113367219D02*
X126643482Y-113319600D01*
X126643482Y-113319600D02*
X126691101Y-113271980D01*
X126691101Y-113271980D02*
X126691101Y-112938647D01*
X126691101Y-112938647D02*
X126500625Y-112938647D01*
X127119673Y-113367219D02*
X127119673Y-112367219D01*
X127119673Y-112367219D02*
X127691101Y-113367219D01*
X127691101Y-113367219D02*
X127691101Y-112367219D01*
X128167292Y-113367219D02*
X128167292Y-112367219D01*
X128167292Y-112367219D02*
X128405387Y-112367219D01*
X128405387Y-112367219D02*
X128548244Y-112414838D01*
X128548244Y-112414838D02*
X128643482Y-112510076D01*
X128643482Y-112510076D02*
X128691101Y-112605314D01*
X128691101Y-112605314D02*
X128738720Y-112795790D01*
X128738720Y-112795790D02*
X128738720Y-112938647D01*
X128738720Y-112938647D02*
X128691101Y-113129123D01*
X128691101Y-113129123D02*
X128643482Y-113224361D01*
X128643482Y-113224361D02*
X128548244Y-113319600D01*
X128548244Y-113319600D02*
X128405387Y-113367219D01*
X128405387Y-113367219D02*
X128167292Y-113367219D01*
X131093409Y-105880326D02*
X131093409Y-105546993D01*
X131617219Y-105404136D02*
X131617219Y-105880326D01*
X131617219Y-105880326D02*
X130617219Y-105880326D01*
X130617219Y-105880326D02*
X130617219Y-105404136D01*
X130617219Y-105070802D02*
X131617219Y-104404136D01*
X130617219Y-104404136D02*
X131617219Y-105070802D01*
X130617219Y-104166040D02*
X130617219Y-103594612D01*
X131617219Y-103880326D02*
X130617219Y-103880326D01*
X131712457Y-103499374D02*
X131712457Y-102737469D01*
X130617219Y-102642230D02*
X131617219Y-102308897D01*
X131617219Y-102308897D02*
X130617219Y-101975564D01*
X131331504Y-101689849D02*
X131331504Y-101213659D01*
X131617219Y-101785087D02*
X130617219Y-101451754D01*
X130617219Y-101451754D02*
X131617219Y-101118421D01*
X131331504Y-100832706D02*
X131331504Y-100356516D01*
X131617219Y-100927944D02*
X130617219Y-100594611D01*
X130617219Y-100594611D02*
X131617219Y-100261278D01*
X176703006Y-80593409D02*
X176845863Y-80641028D01*
X176845863Y-80641028D02*
X176893482Y-80688647D01*
X176893482Y-80688647D02*
X176941101Y-80783885D01*
X176941101Y-80783885D02*
X176941101Y-80926742D01*
X176941101Y-80926742D02*
X176893482Y-81021980D01*
X176893482Y-81021980D02*
X176845863Y-81069600D01*
X176845863Y-81069600D02*
X176750625Y-81117219D01*
X176750625Y-81117219D02*
X176369673Y-81117219D01*
X176369673Y-81117219D02*
X176369673Y-80117219D01*
X176369673Y-80117219D02*
X176703006Y-80117219D01*
X176703006Y-80117219D02*
X176798244Y-80164838D01*
X176798244Y-80164838D02*
X176845863Y-80212457D01*
X176845863Y-80212457D02*
X176893482Y-80307695D01*
X176893482Y-80307695D02*
X176893482Y-80402933D01*
X176893482Y-80402933D02*
X176845863Y-80498171D01*
X176845863Y-80498171D02*
X176798244Y-80545790D01*
X176798244Y-80545790D02*
X176703006Y-80593409D01*
X176703006Y-80593409D02*
X176369673Y-80593409D01*
X177560149Y-80117219D02*
X177750625Y-80117219D01*
X177750625Y-80117219D02*
X177845863Y-80164838D01*
X177845863Y-80164838D02*
X177941101Y-80260076D01*
X177941101Y-80260076D02*
X177988720Y-80450552D01*
X177988720Y-80450552D02*
X177988720Y-80783885D01*
X177988720Y-80783885D02*
X177941101Y-80974361D01*
X177941101Y-80974361D02*
X177845863Y-81069600D01*
X177845863Y-81069600D02*
X177750625Y-81117219D01*
X177750625Y-81117219D02*
X177560149Y-81117219D01*
X177560149Y-81117219D02*
X177464911Y-81069600D01*
X177464911Y-81069600D02*
X177369673Y-80974361D01*
X177369673Y-80974361D02*
X177322054Y-80783885D01*
X177322054Y-80783885D02*
X177322054Y-80450552D01*
X177322054Y-80450552D02*
X177369673Y-80260076D01*
X177369673Y-80260076D02*
X177464911Y-80164838D01*
X177464911Y-80164838D02*
X177560149Y-80117219D01*
X178607768Y-80117219D02*
X178798244Y-80117219D01*
X178798244Y-80117219D02*
X178893482Y-80164838D01*
X178893482Y-80164838D02*
X178988720Y-80260076D01*
X178988720Y-80260076D02*
X179036339Y-80450552D01*
X179036339Y-80450552D02*
X179036339Y-80783885D01*
X179036339Y-80783885D02*
X178988720Y-80974361D01*
X178988720Y-80974361D02*
X178893482Y-81069600D01*
X178893482Y-81069600D02*
X178798244Y-81117219D01*
X178798244Y-81117219D02*
X178607768Y-81117219D01*
X178607768Y-81117219D02*
X178512530Y-81069600D01*
X178512530Y-81069600D02*
X178417292Y-80974361D01*
X178417292Y-80974361D02*
X178369673Y-80783885D01*
X178369673Y-80783885D02*
X178369673Y-80450552D01*
X178369673Y-80450552D02*
X178417292Y-80260076D01*
X178417292Y-80260076D02*
X178512530Y-80164838D01*
X178512530Y-80164838D02*
X178607768Y-80117219D01*
X179322054Y-80117219D02*
X179893482Y-80117219D01*
X179607768Y-81117219D02*
X179607768Y-80117219D01*
D11*
X180556678Y-126519502D02*
X179056678Y-126519502D01*
X180556678Y-125662359D02*
X179699535Y-126305216D01*
X179056678Y-125662359D02*
X179913821Y-126519502D01*
X180556678Y-125019502D02*
X179556678Y-125019502D01*
X179056678Y-125019502D02*
X179128107Y-125090930D01*
X179128107Y-125090930D02*
X179199535Y-125019502D01*
X179199535Y-125019502D02*
X179128107Y-124948073D01*
X179128107Y-124948073D02*
X179056678Y-125019502D01*
X179056678Y-125019502D02*
X179199535Y-125019502D01*
X179556678Y-124305216D02*
X180556678Y-124305216D01*
X179699535Y-124305216D02*
X179628107Y-124233787D01*
X179628107Y-124233787D02*
X179556678Y-124090930D01*
X179556678Y-124090930D02*
X179556678Y-123876644D01*
X179556678Y-123876644D02*
X179628107Y-123733787D01*
X179628107Y-123733787D02*
X179770964Y-123662359D01*
X179770964Y-123662359D02*
X180556678Y-123662359D01*
X179556678Y-122305216D02*
X180770964Y-122305216D01*
X180770964Y-122305216D02*
X180913821Y-122376644D01*
X180913821Y-122376644D02*
X180985250Y-122448073D01*
X180985250Y-122448073D02*
X181056678Y-122590930D01*
X181056678Y-122590930D02*
X181056678Y-122805216D01*
X181056678Y-122805216D02*
X180985250Y-122948073D01*
X180485250Y-122305216D02*
X180556678Y-122448073D01*
X180556678Y-122448073D02*
X180556678Y-122733787D01*
X180556678Y-122733787D02*
X180485250Y-122876644D01*
X180485250Y-122876644D02*
X180413821Y-122948073D01*
X180413821Y-122948073D02*
X180270964Y-123019501D01*
X180270964Y-123019501D02*
X179842392Y-123019501D01*
X179842392Y-123019501D02*
X179699535Y-122948073D01*
X179699535Y-122948073D02*
X179628107Y-122876644D01*
X179628107Y-122876644D02*
X179556678Y-122733787D01*
X179556678Y-122733787D02*
X179556678Y-122448073D01*
X179556678Y-122448073D02*
X179628107Y-122305216D01*
X179556678Y-121805215D02*
X179556678Y-121233787D01*
X180556678Y-121590930D02*
X179270964Y-121590930D01*
X179270964Y-121590930D02*
X179128107Y-121519501D01*
X179128107Y-121519501D02*
X179056678Y-121376644D01*
X179056678Y-121376644D02*
X179056678Y-121233787D01*
X180556678Y-120733787D02*
X179556678Y-120733787D01*
X179056678Y-120733787D02*
X179128107Y-120805215D01*
X179128107Y-120805215D02*
X179199535Y-120733787D01*
X179199535Y-120733787D02*
X179128107Y-120662358D01*
X179128107Y-120662358D02*
X179056678Y-120733787D01*
X179056678Y-120733787D02*
X179199535Y-120733787D01*
X180485250Y-120090929D02*
X180556678Y-119948072D01*
X180556678Y-119948072D02*
X180556678Y-119662358D01*
X180556678Y-119662358D02*
X180485250Y-119519501D01*
X180485250Y-119519501D02*
X180342392Y-119448072D01*
X180342392Y-119448072D02*
X180270964Y-119448072D01*
X180270964Y-119448072D02*
X180128107Y-119519501D01*
X180128107Y-119519501D02*
X180056678Y-119662358D01*
X180056678Y-119662358D02*
X180056678Y-119876644D01*
X180056678Y-119876644D02*
X179985250Y-120019501D01*
X179985250Y-120019501D02*
X179842392Y-120090929D01*
X179842392Y-120090929D02*
X179770964Y-120090929D01*
X179770964Y-120090929D02*
X179628107Y-120019501D01*
X179628107Y-120019501D02*
X179556678Y-119876644D01*
X179556678Y-119876644D02*
X179556678Y-119662358D01*
X179556678Y-119662358D02*
X179628107Y-119519501D01*
X180556678Y-118805215D02*
X179056678Y-118805215D01*
X180556678Y-118162358D02*
X179770964Y-118162358D01*
X179770964Y-118162358D02*
X179628107Y-118233786D01*
X179628107Y-118233786D02*
X179556678Y-118376643D01*
X179556678Y-118376643D02*
X179556678Y-118590929D01*
X179556678Y-118590929D02*
X179628107Y-118733786D01*
X179628107Y-118733786D02*
X179699535Y-118805215D01*
X180485250Y-116876643D02*
X180556678Y-117019500D01*
X180556678Y-117019500D02*
X180556678Y-117305215D01*
X180556678Y-117305215D02*
X180485250Y-117448072D01*
X180485250Y-117448072D02*
X180342392Y-117519500D01*
X180342392Y-117519500D02*
X179770964Y-117519500D01*
X179770964Y-117519500D02*
X179628107Y-117448072D01*
X179628107Y-117448072D02*
X179556678Y-117305215D01*
X179556678Y-117305215D02*
X179556678Y-117019500D01*
X179556678Y-117019500D02*
X179628107Y-116876643D01*
X179628107Y-116876643D02*
X179770964Y-116805215D01*
X179770964Y-116805215D02*
X179913821Y-116805215D01*
X179913821Y-116805215D02*
X180056678Y-117519500D01*
X180556678Y-116162358D02*
X179556678Y-116162358D01*
X179842392Y-116162358D02*
X179699535Y-116090929D01*
X179699535Y-116090929D02*
X179628107Y-116019501D01*
X179628107Y-116019501D02*
X179556678Y-115876643D01*
X179556678Y-115876643D02*
X179556678Y-115733786D01*
X180556678Y-114090930D02*
X179056678Y-114090930D01*
X179056678Y-114090930D02*
X179056678Y-113733787D01*
X179056678Y-113733787D02*
X179128107Y-113519501D01*
X179128107Y-113519501D02*
X179270964Y-113376644D01*
X179270964Y-113376644D02*
X179413821Y-113305215D01*
X179413821Y-113305215D02*
X179699535Y-113233787D01*
X179699535Y-113233787D02*
X179913821Y-113233787D01*
X179913821Y-113233787D02*
X180199535Y-113305215D01*
X180199535Y-113305215D02*
X180342392Y-113376644D01*
X180342392Y-113376644D02*
X180485250Y-113519501D01*
X180485250Y-113519501D02*
X180556678Y-113733787D01*
X180556678Y-113733787D02*
X180556678Y-114090930D01*
X180128107Y-112662358D02*
X180128107Y-111948073D01*
X180556678Y-112805215D02*
X179056678Y-112305215D01*
X179056678Y-112305215D02*
X180556678Y-111805215D01*
X180413821Y-110448073D02*
X180485250Y-110519501D01*
X180485250Y-110519501D02*
X180556678Y-110733787D01*
X180556678Y-110733787D02*
X180556678Y-110876644D01*
X180556678Y-110876644D02*
X180485250Y-111090930D01*
X180485250Y-111090930D02*
X180342392Y-111233787D01*
X180342392Y-111233787D02*
X180199535Y-111305216D01*
X180199535Y-111305216D02*
X179913821Y-111376644D01*
X179913821Y-111376644D02*
X179699535Y-111376644D01*
X179699535Y-111376644D02*
X179413821Y-111305216D01*
X179413821Y-111305216D02*
X179270964Y-111233787D01*
X179270964Y-111233787D02*
X179128107Y-111090930D01*
X179128107Y-111090930D02*
X179056678Y-110876644D01*
X179056678Y-110876644D02*
X179056678Y-110733787D01*
X179056678Y-110733787D02*
X179128107Y-110519501D01*
X179128107Y-110519501D02*
X179199535Y-110448073D01*
X180556678Y-109019501D02*
X180556678Y-109876644D01*
X180556678Y-109448073D02*
X179056678Y-109448073D01*
X179056678Y-109448073D02*
X179270964Y-109590930D01*
X179270964Y-109590930D02*
X179413821Y-109733787D01*
X179413821Y-109733787D02*
X179485250Y-109876644D01*
X179056678Y-107733788D02*
X179056678Y-108019502D01*
X179056678Y-108019502D02*
X179128107Y-108162359D01*
X179128107Y-108162359D02*
X179199535Y-108233788D01*
X179199535Y-108233788D02*
X179413821Y-108376645D01*
X179413821Y-108376645D02*
X179699535Y-108448073D01*
X179699535Y-108448073D02*
X180270964Y-108448073D01*
X180270964Y-108448073D02*
X180413821Y-108376645D01*
X180413821Y-108376645D02*
X180485250Y-108305216D01*
X180485250Y-108305216D02*
X180556678Y-108162359D01*
X180556678Y-108162359D02*
X180556678Y-107876645D01*
X180556678Y-107876645D02*
X180485250Y-107733788D01*
X180485250Y-107733788D02*
X180413821Y-107662359D01*
X180413821Y-107662359D02*
X180270964Y-107590930D01*
X180270964Y-107590930D02*
X179913821Y-107590930D01*
X179913821Y-107590930D02*
X179770964Y-107662359D01*
X179770964Y-107662359D02*
X179699535Y-107733788D01*
X179699535Y-107733788D02*
X179628107Y-107876645D01*
X179628107Y-107876645D02*
X179628107Y-108162359D01*
X179628107Y-108162359D02*
X179699535Y-108305216D01*
X179699535Y-108305216D02*
X179770964Y-108376645D01*
X179770964Y-108376645D02*
X179913821Y-108448073D01*
D10*
X141869673Y-76093409D02*
X142203006Y-76093409D01*
X142345863Y-76617219D02*
X141869673Y-76617219D01*
X141869673Y-76617219D02*
X141869673Y-75617219D01*
X141869673Y-75617219D02*
X142345863Y-75617219D01*
X142679197Y-75617219D02*
X143345863Y-76617219D01*
X143345863Y-75617219D02*
X142679197Y-76617219D01*
X143583959Y-75617219D02*
X144155387Y-75617219D01*
X143869673Y-76617219D02*
X143869673Y-75617219D01*
X144250626Y-76712457D02*
X145012530Y-76712457D01*
X145726816Y-75617219D02*
X145250626Y-75617219D01*
X145250626Y-75617219D02*
X145203007Y-76093409D01*
X145203007Y-76093409D02*
X145250626Y-76045790D01*
X145250626Y-76045790D02*
X145345864Y-75998171D01*
X145345864Y-75998171D02*
X145583959Y-75998171D01*
X145583959Y-75998171D02*
X145679197Y-76045790D01*
X145679197Y-76045790D02*
X145726816Y-76093409D01*
X145726816Y-76093409D02*
X145774435Y-76188647D01*
X145774435Y-76188647D02*
X145774435Y-76426742D01*
X145774435Y-76426742D02*
X145726816Y-76521980D01*
X145726816Y-76521980D02*
X145679197Y-76569600D01*
X145679197Y-76569600D02*
X145583959Y-76617219D01*
X145583959Y-76617219D02*
X145345864Y-76617219D01*
X145345864Y-76617219D02*
X145250626Y-76569600D01*
X145250626Y-76569600D02*
X145203007Y-76521980D01*
X146060150Y-75617219D02*
X146393483Y-76617219D01*
X146393483Y-76617219D02*
X146726816Y-75617219D01*
X126119673Y-117117219D02*
X126119673Y-116117219D01*
X126119673Y-116117219D02*
X126357768Y-116117219D01*
X126357768Y-116117219D02*
X126500625Y-116164838D01*
X126500625Y-116164838D02*
X126595863Y-116260076D01*
X126595863Y-116260076D02*
X126643482Y-116355314D01*
X126643482Y-116355314D02*
X126691101Y-116545790D01*
X126691101Y-116545790D02*
X126691101Y-116688647D01*
X126691101Y-116688647D02*
X126643482Y-116879123D01*
X126643482Y-116879123D02*
X126595863Y-116974361D01*
X126595863Y-116974361D02*
X126500625Y-117069600D01*
X126500625Y-117069600D02*
X126357768Y-117117219D01*
X126357768Y-117117219D02*
X126119673Y-117117219D01*
X127072054Y-116831504D02*
X127548244Y-116831504D01*
X126976816Y-117117219D02*
X127310149Y-116117219D01*
X127310149Y-116117219D02*
X127643482Y-117117219D01*
X128548244Y-117021980D02*
X128500625Y-117069600D01*
X128500625Y-117069600D02*
X128357768Y-117117219D01*
X128357768Y-117117219D02*
X128262530Y-117117219D01*
X128262530Y-117117219D02*
X128119673Y-117069600D01*
X128119673Y-117069600D02*
X128024435Y-116974361D01*
X128024435Y-116974361D02*
X127976816Y-116879123D01*
X127976816Y-116879123D02*
X127929197Y-116688647D01*
X127929197Y-116688647D02*
X127929197Y-116545790D01*
X127929197Y-116545790D02*
X127976816Y-116355314D01*
X127976816Y-116355314D02*
X128024435Y-116260076D01*
X128024435Y-116260076D02*
X128119673Y-116164838D01*
X128119673Y-116164838D02*
X128262530Y-116117219D01*
X128262530Y-116117219D02*
X128357768Y-116117219D01*
X128357768Y-116117219D02*
X128500625Y-116164838D01*
X128500625Y-116164838D02*
X128548244Y-116212457D01*
X128738721Y-117212457D02*
X129500625Y-117212457D01*
X129595864Y-116117219D02*
X129929197Y-117117219D01*
X129929197Y-117117219D02*
X130262530Y-116117219D01*
X131167292Y-117021980D02*
X131119673Y-117069600D01*
X131119673Y-117069600D02*
X130976816Y-117117219D01*
X130976816Y-117117219D02*
X130881578Y-117117219D01*
X130881578Y-117117219D02*
X130738721Y-117069600D01*
X130738721Y-117069600D02*
X130643483Y-116974361D01*
X130643483Y-116974361D02*
X130595864Y-116879123D01*
X130595864Y-116879123D02*
X130548245Y-116688647D01*
X130548245Y-116688647D02*
X130548245Y-116545790D01*
X130548245Y-116545790D02*
X130595864Y-116355314D01*
X130595864Y-116355314D02*
X130643483Y-116260076D01*
X130643483Y-116260076D02*
X130738721Y-116164838D01*
X130738721Y-116164838D02*
X130881578Y-116117219D01*
X130881578Y-116117219D02*
X130976816Y-116117219D01*
X130976816Y-116117219D02*
X131119673Y-116164838D01*
X131119673Y-116164838D02*
X131167292Y-116212457D01*
X132167292Y-117021980D02*
X132119673Y-117069600D01*
X132119673Y-117069600D02*
X131976816Y-117117219D01*
X131976816Y-117117219D02*
X131881578Y-117117219D01*
X131881578Y-117117219D02*
X131738721Y-117069600D01*
X131738721Y-117069600D02*
X131643483Y-116974361D01*
X131643483Y-116974361D02*
X131595864Y-116879123D01*
X131595864Y-116879123D02*
X131548245Y-116688647D01*
X131548245Y-116688647D02*
X131548245Y-116545790D01*
X131548245Y-116545790D02*
X131595864Y-116355314D01*
X131595864Y-116355314D02*
X131643483Y-116260076D01*
X131643483Y-116260076D02*
X131738721Y-116164838D01*
X131738721Y-116164838D02*
X131881578Y-116117219D01*
X131881578Y-116117219D02*
X131976816Y-116117219D01*
X131976816Y-116117219D02*
X132119673Y-116164838D01*
X132119673Y-116164838D02*
X132167292Y-116212457D01*
X137617219Y-104773183D02*
X138617219Y-104439850D01*
X138617219Y-104439850D02*
X137617219Y-104106517D01*
X138331504Y-103820802D02*
X138331504Y-103344612D01*
X138617219Y-103916040D02*
X137617219Y-103582707D01*
X137617219Y-103582707D02*
X138617219Y-103249374D01*
X138331504Y-102963659D02*
X138331504Y-102487469D01*
X138617219Y-103058897D02*
X137617219Y-102725564D01*
X137617219Y-102725564D02*
X138617219Y-102392231D01*
X138712457Y-102296993D02*
X138712457Y-101535088D01*
X138569600Y-101344611D02*
X138617219Y-101201754D01*
X138617219Y-101201754D02*
X138617219Y-100963659D01*
X138617219Y-100963659D02*
X138569600Y-100868421D01*
X138569600Y-100868421D02*
X138521980Y-100820802D01*
X138521980Y-100820802D02*
X138426742Y-100773183D01*
X138426742Y-100773183D02*
X138331504Y-100773183D01*
X138331504Y-100773183D02*
X138236266Y-100820802D01*
X138236266Y-100820802D02*
X138188647Y-100868421D01*
X138188647Y-100868421D02*
X138141028Y-100963659D01*
X138141028Y-100963659D02*
X138093409Y-101154135D01*
X138093409Y-101154135D02*
X138045790Y-101249373D01*
X138045790Y-101249373D02*
X137998171Y-101296992D01*
X137998171Y-101296992D02*
X137902933Y-101344611D01*
X137902933Y-101344611D02*
X137807695Y-101344611D01*
X137807695Y-101344611D02*
X137712457Y-101296992D01*
X137712457Y-101296992D02*
X137664838Y-101249373D01*
X137664838Y-101249373D02*
X137617219Y-101154135D01*
X137617219Y-101154135D02*
X137617219Y-100916040D01*
X137617219Y-100916040D02*
X137664838Y-100773183D01*
X138093409Y-100344611D02*
X138093409Y-100011278D01*
X138617219Y-99868421D02*
X138617219Y-100344611D01*
X138617219Y-100344611D02*
X137617219Y-100344611D01*
X137617219Y-100344611D02*
X137617219Y-99868421D01*
X138617219Y-98963659D02*
X138617219Y-99439849D01*
X138617219Y-99439849D02*
X137617219Y-99439849D01*
X131093409Y-98130326D02*
X131093409Y-97796993D01*
X131617219Y-97654136D02*
X131617219Y-98130326D01*
X131617219Y-98130326D02*
X130617219Y-98130326D01*
X130617219Y-98130326D02*
X130617219Y-97654136D01*
X130617219Y-97320802D02*
X131617219Y-96654136D01*
X130617219Y-96654136D02*
X131617219Y-97320802D01*
X130617219Y-96416040D02*
X130617219Y-95844612D01*
X131617219Y-96130326D02*
X130617219Y-96130326D01*
X131712457Y-95749374D02*
X131712457Y-94987469D01*
X131617219Y-94177945D02*
X131141028Y-94511278D01*
X131617219Y-94749373D02*
X130617219Y-94749373D01*
X130617219Y-94749373D02*
X130617219Y-94368421D01*
X130617219Y-94368421D02*
X130664838Y-94273183D01*
X130664838Y-94273183D02*
X130712457Y-94225564D01*
X130712457Y-94225564D02*
X130807695Y-94177945D01*
X130807695Y-94177945D02*
X130950552Y-94177945D01*
X130950552Y-94177945D02*
X131045790Y-94225564D01*
X131045790Y-94225564D02*
X131093409Y-94273183D01*
X131093409Y-94273183D02*
X131141028Y-94368421D01*
X131141028Y-94368421D02*
X131141028Y-94749373D01*
X131093409Y-93749373D02*
X131093409Y-93416040D01*
X131617219Y-93273183D02*
X131617219Y-93749373D01*
X131617219Y-93749373D02*
X130617219Y-93749373D01*
X130617219Y-93749373D02*
X130617219Y-93273183D01*
X131093409Y-92511278D02*
X131093409Y-92844611D01*
X131617219Y-92844611D02*
X130617219Y-92844611D01*
X130617219Y-92844611D02*
X130617219Y-92368421D01*
D11*
X179617869Y-102531406D02*
X180617869Y-102198073D01*
X180617869Y-102198073D02*
X179617869Y-101864740D01*
X180617869Y-101007597D02*
X180617869Y-101579025D01*
X180617869Y-101293311D02*
X179617869Y-101293311D01*
X179617869Y-101293311D02*
X179760726Y-101388549D01*
X179760726Y-101388549D02*
X179855964Y-101483787D01*
X179855964Y-101483787D02*
X179903583Y-101579025D01*
X180617869Y-99245692D02*
X180141678Y-99579025D01*
X180617869Y-99817120D02*
X179617869Y-99817120D01*
X179617869Y-99817120D02*
X179617869Y-99436168D01*
X179617869Y-99436168D02*
X179665488Y-99340930D01*
X179665488Y-99340930D02*
X179713107Y-99293311D01*
X179713107Y-99293311D02*
X179808345Y-99245692D01*
X179808345Y-99245692D02*
X179951202Y-99245692D01*
X179951202Y-99245692D02*
X180046440Y-99293311D01*
X180046440Y-99293311D02*
X180094059Y-99340930D01*
X180094059Y-99340930D02*
X180141678Y-99436168D01*
X180141678Y-99436168D02*
X180141678Y-99817120D01*
X180570250Y-98436168D02*
X180617869Y-98531406D01*
X180617869Y-98531406D02*
X180617869Y-98721882D01*
X180617869Y-98721882D02*
X180570250Y-98817120D01*
X180570250Y-98817120D02*
X180475011Y-98864739D01*
X180475011Y-98864739D02*
X180094059Y-98864739D01*
X180094059Y-98864739D02*
X179998821Y-98817120D01*
X179998821Y-98817120D02*
X179951202Y-98721882D01*
X179951202Y-98721882D02*
X179951202Y-98531406D01*
X179951202Y-98531406D02*
X179998821Y-98436168D01*
X179998821Y-98436168D02*
X180094059Y-98388549D01*
X180094059Y-98388549D02*
X180189297Y-98388549D01*
X180189297Y-98388549D02*
X180284535Y-98864739D01*
X179951202Y-98055215D02*
X180617869Y-97817120D01*
X180617869Y-97817120D02*
X179951202Y-97579025D01*
X180094059Y-96102834D02*
X180141678Y-95959977D01*
X180141678Y-95959977D02*
X180189297Y-95912358D01*
X180189297Y-95912358D02*
X180284535Y-95864739D01*
X180284535Y-95864739D02*
X180427392Y-95864739D01*
X180427392Y-95864739D02*
X180522630Y-95912358D01*
X180522630Y-95912358D02*
X180570250Y-95959977D01*
X180570250Y-95959977D02*
X180617869Y-96055215D01*
X180617869Y-96055215D02*
X180617869Y-96436167D01*
X180617869Y-96436167D02*
X179617869Y-96436167D01*
X179617869Y-96436167D02*
X179617869Y-96102834D01*
X179617869Y-96102834D02*
X179665488Y-96007596D01*
X179665488Y-96007596D02*
X179713107Y-95959977D01*
X179713107Y-95959977D02*
X179808345Y-95912358D01*
X179808345Y-95912358D02*
X179903583Y-95912358D01*
X179903583Y-95912358D02*
X179998821Y-95959977D01*
X179998821Y-95959977D02*
X180046440Y-96007596D01*
X180046440Y-96007596D02*
X180094059Y-96102834D01*
X180094059Y-96102834D02*
X180094059Y-96436167D01*
D12*
X159507142Y-110759580D02*
X159459523Y-110807200D01*
X159459523Y-110807200D02*
X159316666Y-110854819D01*
X159316666Y-110854819D02*
X159221428Y-110854819D01*
X159221428Y-110854819D02*
X159078571Y-110807200D01*
X159078571Y-110807200D02*
X158983333Y-110711961D01*
X158983333Y-110711961D02*
X158935714Y-110616723D01*
X158935714Y-110616723D02*
X158888095Y-110426247D01*
X158888095Y-110426247D02*
X158888095Y-110283390D01*
X158888095Y-110283390D02*
X158935714Y-110092914D01*
X158935714Y-110092914D02*
X158983333Y-109997676D01*
X158983333Y-109997676D02*
X159078571Y-109902438D01*
X159078571Y-109902438D02*
X159221428Y-109854819D01*
X159221428Y-109854819D02*
X159316666Y-109854819D01*
X159316666Y-109854819D02*
X159459523Y-109902438D01*
X159459523Y-109902438D02*
X159507142Y-109950057D01*
X159888095Y-109950057D02*
X159935714Y-109902438D01*
X159935714Y-109902438D02*
X160030952Y-109854819D01*
X160030952Y-109854819D02*
X160269047Y-109854819D01*
X160269047Y-109854819D02*
X160364285Y-109902438D01*
X160364285Y-109902438D02*
X160411904Y-109950057D01*
X160411904Y-109950057D02*
X160459523Y-110045295D01*
X160459523Y-110045295D02*
X160459523Y-110140533D01*
X160459523Y-110140533D02*
X160411904Y-110283390D01*
X160411904Y-110283390D02*
X159840476Y-110854819D01*
X159840476Y-110854819D02*
X160459523Y-110854819D01*
X161078571Y-109854819D02*
X161173809Y-109854819D01*
X161173809Y-109854819D02*
X161269047Y-109902438D01*
X161269047Y-109902438D02*
X161316666Y-109950057D01*
X161316666Y-109950057D02*
X161364285Y-110045295D01*
X161364285Y-110045295D02*
X161411904Y-110235771D01*
X161411904Y-110235771D02*
X161411904Y-110473866D01*
X161411904Y-110473866D02*
X161364285Y-110664342D01*
X161364285Y-110664342D02*
X161316666Y-110759580D01*
X161316666Y-110759580D02*
X161269047Y-110807200D01*
X161269047Y-110807200D02*
X161173809Y-110854819D01*
X161173809Y-110854819D02*
X161078571Y-110854819D01*
X161078571Y-110854819D02*
X160983333Y-110807200D01*
X160983333Y-110807200D02*
X160935714Y-110759580D01*
X160935714Y-110759580D02*
X160888095Y-110664342D01*
X160888095Y-110664342D02*
X160840476Y-110473866D01*
X160840476Y-110473866D02*
X160840476Y-110235771D01*
X160840476Y-110235771D02*
X160888095Y-110045295D01*
X160888095Y-110045295D02*
X160935714Y-109950057D01*
X160935714Y-109950057D02*
X160983333Y-109902438D01*
X160983333Y-109902438D02*
X161078571Y-109854819D01*
X177938095Y-70754819D02*
X177938095Y-69754819D01*
X177938095Y-70231009D02*
X178509523Y-70231009D01*
X178509523Y-70754819D02*
X178509523Y-69754819D01*
X179414285Y-70088152D02*
X179414285Y-70754819D01*
X179176190Y-69707200D02*
X178938095Y-70421485D01*
X178938095Y-70421485D02*
X179557142Y-70421485D01*
X142413095Y-100207819D02*
X142984523Y-100207819D01*
X142698809Y-101207819D02*
X142698809Y-100207819D01*
X143317857Y-101207819D02*
X143317857Y-100207819D01*
X143317857Y-100207819D02*
X143698809Y-100207819D01*
X143698809Y-100207819D02*
X143794047Y-100255438D01*
X143794047Y-100255438D02*
X143841666Y-100303057D01*
X143841666Y-100303057D02*
X143889285Y-100398295D01*
X143889285Y-100398295D02*
X143889285Y-100541152D01*
X143889285Y-100541152D02*
X143841666Y-100636390D01*
X143841666Y-100636390D02*
X143794047Y-100684009D01*
X143794047Y-100684009D02*
X143698809Y-100731628D01*
X143698809Y-100731628D02*
X143317857Y-100731628D01*
X144222619Y-100207819D02*
X144841666Y-100207819D01*
X144841666Y-100207819D02*
X144508333Y-100588771D01*
X144508333Y-100588771D02*
X144651190Y-100588771D01*
X144651190Y-100588771D02*
X144746428Y-100636390D01*
X144746428Y-100636390D02*
X144794047Y-100684009D01*
X144794047Y-100684009D02*
X144841666Y-100779247D01*
X144841666Y-100779247D02*
X144841666Y-101017342D01*
X144841666Y-101017342D02*
X144794047Y-101112580D01*
X144794047Y-101112580D02*
X144746428Y-101160200D01*
X144746428Y-101160200D02*
X144651190Y-101207819D01*
X144651190Y-101207819D02*
X144365476Y-101207819D01*
X144365476Y-101207819D02*
X144270238Y-101160200D01*
X144270238Y-101160200D02*
X144222619Y-101112580D01*
X150359580Y-106542857D02*
X150407200Y-106590476D01*
X150407200Y-106590476D02*
X150454819Y-106733333D01*
X150454819Y-106733333D02*
X150454819Y-106828571D01*
X150454819Y-106828571D02*
X150407200Y-106971428D01*
X150407200Y-106971428D02*
X150311961Y-107066666D01*
X150311961Y-107066666D02*
X150216723Y-107114285D01*
X150216723Y-107114285D02*
X150026247Y-107161904D01*
X150026247Y-107161904D02*
X149883390Y-107161904D01*
X149883390Y-107161904D02*
X149692914Y-107114285D01*
X149692914Y-107114285D02*
X149597676Y-107066666D01*
X149597676Y-107066666D02*
X149502438Y-106971428D01*
X149502438Y-106971428D02*
X149454819Y-106828571D01*
X149454819Y-106828571D02*
X149454819Y-106733333D01*
X149454819Y-106733333D02*
X149502438Y-106590476D01*
X149502438Y-106590476D02*
X149550057Y-106542857D01*
X149454819Y-106209523D02*
X149454819Y-105590476D01*
X149454819Y-105590476D02*
X149835771Y-105923809D01*
X149835771Y-105923809D02*
X149835771Y-105780952D01*
X149835771Y-105780952D02*
X149883390Y-105685714D01*
X149883390Y-105685714D02*
X149931009Y-105638095D01*
X149931009Y-105638095D02*
X150026247Y-105590476D01*
X150026247Y-105590476D02*
X150264342Y-105590476D01*
X150264342Y-105590476D02*
X150359580Y-105638095D01*
X150359580Y-105638095D02*
X150407200Y-105685714D01*
X150407200Y-105685714D02*
X150454819Y-105780952D01*
X150454819Y-105780952D02*
X150454819Y-106066666D01*
X150454819Y-106066666D02*
X150407200Y-106161904D01*
X150407200Y-106161904D02*
X150359580Y-106209523D01*
X149454819Y-104971428D02*
X149454819Y-104876190D01*
X149454819Y-104876190D02*
X149502438Y-104780952D01*
X149502438Y-104780952D02*
X149550057Y-104733333D01*
X149550057Y-104733333D02*
X149645295Y-104685714D01*
X149645295Y-104685714D02*
X149835771Y-104638095D01*
X149835771Y-104638095D02*
X150073866Y-104638095D01*
X150073866Y-104638095D02*
X150264342Y-104685714D01*
X150264342Y-104685714D02*
X150359580Y-104733333D01*
X150359580Y-104733333D02*
X150407200Y-104780952D01*
X150407200Y-104780952D02*
X150454819Y-104876190D01*
X150454819Y-104876190D02*
X150454819Y-104971428D01*
X150454819Y-104971428D02*
X150407200Y-105066666D01*
X150407200Y-105066666D02*
X150359580Y-105114285D01*
X150359580Y-105114285D02*
X150264342Y-105161904D01*
X150264342Y-105161904D02*
X150073866Y-105209523D01*
X150073866Y-105209523D02*
X149835771Y-105209523D01*
X149835771Y-105209523D02*
X149645295Y-105161904D01*
X149645295Y-105161904D02*
X149550057Y-105114285D01*
X149550057Y-105114285D02*
X149502438Y-105066666D01*
X149502438Y-105066666D02*
X149454819Y-104971428D01*
X161434819Y-69573333D02*
X162149104Y-69573333D01*
X162149104Y-69573333D02*
X162291961Y-69620952D01*
X162291961Y-69620952D02*
X162387200Y-69716190D01*
X162387200Y-69716190D02*
X162434819Y-69859047D01*
X162434819Y-69859047D02*
X162434819Y-69954285D01*
X161434819Y-69192380D02*
X161434819Y-68573333D01*
X161434819Y-68573333D02*
X161815771Y-68906666D01*
X161815771Y-68906666D02*
X161815771Y-68763809D01*
X161815771Y-68763809D02*
X161863390Y-68668571D01*
X161863390Y-68668571D02*
X161911009Y-68620952D01*
X161911009Y-68620952D02*
X162006247Y-68573333D01*
X162006247Y-68573333D02*
X162244342Y-68573333D01*
X162244342Y-68573333D02*
X162339580Y-68620952D01*
X162339580Y-68620952D02*
X162387200Y-68668571D01*
X162387200Y-68668571D02*
X162434819Y-68763809D01*
X162434819Y-68763809D02*
X162434819Y-69049523D01*
X162434819Y-69049523D02*
X162387200Y-69144761D01*
X162387200Y-69144761D02*
X162339580Y-69192380D01*
X140132142Y-98364580D02*
X140084523Y-98412200D01*
X140084523Y-98412200D02*
X139941666Y-98459819D01*
X139941666Y-98459819D02*
X139846428Y-98459819D01*
X139846428Y-98459819D02*
X139703571Y-98412200D01*
X139703571Y-98412200D02*
X139608333Y-98316961D01*
X139608333Y-98316961D02*
X139560714Y-98221723D01*
X139560714Y-98221723D02*
X139513095Y-98031247D01*
X139513095Y-98031247D02*
X139513095Y-97888390D01*
X139513095Y-97888390D02*
X139560714Y-97697914D01*
X139560714Y-97697914D02*
X139608333Y-97602676D01*
X139608333Y-97602676D02*
X139703571Y-97507438D01*
X139703571Y-97507438D02*
X139846428Y-97459819D01*
X139846428Y-97459819D02*
X139941666Y-97459819D01*
X139941666Y-97459819D02*
X140084523Y-97507438D01*
X140084523Y-97507438D02*
X140132142Y-97555057D01*
X141084523Y-98459819D02*
X140513095Y-98459819D01*
X140798809Y-98459819D02*
X140798809Y-97459819D01*
X140798809Y-97459819D02*
X140703571Y-97602676D01*
X140703571Y-97602676D02*
X140608333Y-97697914D01*
X140608333Y-97697914D02*
X140513095Y-97745533D01*
X141989285Y-97459819D02*
X141513095Y-97459819D01*
X141513095Y-97459819D02*
X141465476Y-97936009D01*
X141465476Y-97936009D02*
X141513095Y-97888390D01*
X141513095Y-97888390D02*
X141608333Y-97840771D01*
X141608333Y-97840771D02*
X141846428Y-97840771D01*
X141846428Y-97840771D02*
X141941666Y-97888390D01*
X141941666Y-97888390D02*
X141989285Y-97936009D01*
X141989285Y-97936009D02*
X142036904Y-98031247D01*
X142036904Y-98031247D02*
X142036904Y-98269342D01*
X142036904Y-98269342D02*
X141989285Y-98364580D01*
X141989285Y-98364580D02*
X141941666Y-98412200D01*
X141941666Y-98412200D02*
X141846428Y-98459819D01*
X141846428Y-98459819D02*
X141608333Y-98459819D01*
X141608333Y-98459819D02*
X141513095Y-98412200D01*
X141513095Y-98412200D02*
X141465476Y-98364580D01*
X148288095Y-81901819D02*
X148859523Y-81901819D01*
X148573809Y-82901819D02*
X148573809Y-81901819D01*
X149192857Y-82901819D02*
X149192857Y-81901819D01*
X149192857Y-81901819D02*
X149573809Y-81901819D01*
X149573809Y-81901819D02*
X149669047Y-81949438D01*
X149669047Y-81949438D02*
X149716666Y-81997057D01*
X149716666Y-81997057D02*
X149764285Y-82092295D01*
X149764285Y-82092295D02*
X149764285Y-82235152D01*
X149764285Y-82235152D02*
X149716666Y-82330390D01*
X149716666Y-82330390D02*
X149669047Y-82378009D01*
X149669047Y-82378009D02*
X149573809Y-82425628D01*
X149573809Y-82425628D02*
X149192857Y-82425628D01*
X150145238Y-81997057D02*
X150192857Y-81949438D01*
X150192857Y-81949438D02*
X150288095Y-81901819D01*
X150288095Y-81901819D02*
X150526190Y-81901819D01*
X150526190Y-81901819D02*
X150621428Y-81949438D01*
X150621428Y-81949438D02*
X150669047Y-81997057D01*
X150669047Y-81997057D02*
X150716666Y-82092295D01*
X150716666Y-82092295D02*
X150716666Y-82187533D01*
X150716666Y-82187533D02*
X150669047Y-82330390D01*
X150669047Y-82330390D02*
X150097619Y-82901819D01*
X150097619Y-82901819D02*
X150716666Y-82901819D01*
X143579580Y-120892857D02*
X143627200Y-120940476D01*
X143627200Y-120940476D02*
X143674819Y-121083333D01*
X143674819Y-121083333D02*
X143674819Y-121178571D01*
X143674819Y-121178571D02*
X143627200Y-121321428D01*
X143627200Y-121321428D02*
X143531961Y-121416666D01*
X143531961Y-121416666D02*
X143436723Y-121464285D01*
X143436723Y-121464285D02*
X143246247Y-121511904D01*
X143246247Y-121511904D02*
X143103390Y-121511904D01*
X143103390Y-121511904D02*
X142912914Y-121464285D01*
X142912914Y-121464285D02*
X142817676Y-121416666D01*
X142817676Y-121416666D02*
X142722438Y-121321428D01*
X142722438Y-121321428D02*
X142674819Y-121178571D01*
X142674819Y-121178571D02*
X142674819Y-121083333D01*
X142674819Y-121083333D02*
X142722438Y-120940476D01*
X142722438Y-120940476D02*
X142770057Y-120892857D01*
X142770057Y-120511904D02*
X142722438Y-120464285D01*
X142722438Y-120464285D02*
X142674819Y-120369047D01*
X142674819Y-120369047D02*
X142674819Y-120130952D01*
X142674819Y-120130952D02*
X142722438Y-120035714D01*
X142722438Y-120035714D02*
X142770057Y-119988095D01*
X142770057Y-119988095D02*
X142865295Y-119940476D01*
X142865295Y-119940476D02*
X142960533Y-119940476D01*
X142960533Y-119940476D02*
X143103390Y-119988095D01*
X143103390Y-119988095D02*
X143674819Y-120559523D01*
X143674819Y-120559523D02*
X143674819Y-119940476D01*
X143674819Y-118988095D02*
X143674819Y-119559523D01*
X143674819Y-119273809D02*
X142674819Y-119273809D01*
X142674819Y-119273809D02*
X142817676Y-119369047D01*
X142817676Y-119369047D02*
X142912914Y-119464285D01*
X142912914Y-119464285D02*
X142960533Y-119559523D01*
X177429580Y-91716666D02*
X177477200Y-91764285D01*
X177477200Y-91764285D02*
X177524819Y-91907142D01*
X177524819Y-91907142D02*
X177524819Y-92002380D01*
X177524819Y-92002380D02*
X177477200Y-92145237D01*
X177477200Y-92145237D02*
X177381961Y-92240475D01*
X177381961Y-92240475D02*
X177286723Y-92288094D01*
X177286723Y-92288094D02*
X177096247Y-92335713D01*
X177096247Y-92335713D02*
X176953390Y-92335713D01*
X176953390Y-92335713D02*
X176762914Y-92288094D01*
X176762914Y-92288094D02*
X176667676Y-92240475D01*
X176667676Y-92240475D02*
X176572438Y-92145237D01*
X176572438Y-92145237D02*
X176524819Y-92002380D01*
X176524819Y-92002380D02*
X176524819Y-91907142D01*
X176524819Y-91907142D02*
X176572438Y-91764285D01*
X176572438Y-91764285D02*
X176620057Y-91716666D01*
X176524819Y-91383332D02*
X176524819Y-90716666D01*
X176524819Y-90716666D02*
X177524819Y-91145237D01*
X128440476Y-106704819D02*
X128440476Y-107419104D01*
X128440476Y-107419104D02*
X128392857Y-107561961D01*
X128392857Y-107561961D02*
X128297619Y-107657200D01*
X128297619Y-107657200D02*
X128154762Y-107704819D01*
X128154762Y-107704819D02*
X128059524Y-107704819D01*
X129440476Y-107704819D02*
X128869048Y-107704819D01*
X129154762Y-107704819D02*
X129154762Y-106704819D01*
X129154762Y-106704819D02*
X129059524Y-106847676D01*
X129059524Y-106847676D02*
X128964286Y-106942914D01*
X128964286Y-106942914D02*
X128869048Y-106990533D01*
X129821429Y-106800057D02*
X129869048Y-106752438D01*
X129869048Y-106752438D02*
X129964286Y-106704819D01*
X129964286Y-106704819D02*
X130202381Y-106704819D01*
X130202381Y-106704819D02*
X130297619Y-106752438D01*
X130297619Y-106752438D02*
X130345238Y-106800057D01*
X130345238Y-106800057D02*
X130392857Y-106895295D01*
X130392857Y-106895295D02*
X130392857Y-106990533D01*
X130392857Y-106990533D02*
X130345238Y-107133390D01*
X130345238Y-107133390D02*
X129773810Y-107704819D01*
X129773810Y-107704819D02*
X130392857Y-107704819D01*
X151632142Y-92664580D02*
X151584523Y-92712200D01*
X151584523Y-92712200D02*
X151441666Y-92759819D01*
X151441666Y-92759819D02*
X151346428Y-92759819D01*
X151346428Y-92759819D02*
X151203571Y-92712200D01*
X151203571Y-92712200D02*
X151108333Y-92616961D01*
X151108333Y-92616961D02*
X151060714Y-92521723D01*
X151060714Y-92521723D02*
X151013095Y-92331247D01*
X151013095Y-92331247D02*
X151013095Y-92188390D01*
X151013095Y-92188390D02*
X151060714Y-91997914D01*
X151060714Y-91997914D02*
X151108333Y-91902676D01*
X151108333Y-91902676D02*
X151203571Y-91807438D01*
X151203571Y-91807438D02*
X151346428Y-91759819D01*
X151346428Y-91759819D02*
X151441666Y-91759819D01*
X151441666Y-91759819D02*
X151584523Y-91807438D01*
X151584523Y-91807438D02*
X151632142Y-91855057D01*
X152584523Y-92759819D02*
X152013095Y-92759819D01*
X152298809Y-92759819D02*
X152298809Y-91759819D01*
X152298809Y-91759819D02*
X152203571Y-91902676D01*
X152203571Y-91902676D02*
X152108333Y-91997914D01*
X152108333Y-91997914D02*
X152013095Y-92045533D01*
X153536904Y-92759819D02*
X152965476Y-92759819D01*
X153251190Y-92759819D02*
X153251190Y-91759819D01*
X153251190Y-91759819D02*
X153155952Y-91902676D01*
X153155952Y-91902676D02*
X153060714Y-91997914D01*
X153060714Y-91997914D02*
X152965476Y-92045533D01*
X159083333Y-102429580D02*
X159035714Y-102477200D01*
X159035714Y-102477200D02*
X158892857Y-102524819D01*
X158892857Y-102524819D02*
X158797619Y-102524819D01*
X158797619Y-102524819D02*
X158654762Y-102477200D01*
X158654762Y-102477200D02*
X158559524Y-102381961D01*
X158559524Y-102381961D02*
X158511905Y-102286723D01*
X158511905Y-102286723D02*
X158464286Y-102096247D01*
X158464286Y-102096247D02*
X158464286Y-101953390D01*
X158464286Y-101953390D02*
X158511905Y-101762914D01*
X158511905Y-101762914D02*
X158559524Y-101667676D01*
X158559524Y-101667676D02*
X158654762Y-101572438D01*
X158654762Y-101572438D02*
X158797619Y-101524819D01*
X158797619Y-101524819D02*
X158892857Y-101524819D01*
X158892857Y-101524819D02*
X159035714Y-101572438D01*
X159035714Y-101572438D02*
X159083333Y-101620057D01*
X159940476Y-101524819D02*
X159750000Y-101524819D01*
X159750000Y-101524819D02*
X159654762Y-101572438D01*
X159654762Y-101572438D02*
X159607143Y-101620057D01*
X159607143Y-101620057D02*
X159511905Y-101762914D01*
X159511905Y-101762914D02*
X159464286Y-101953390D01*
X159464286Y-101953390D02*
X159464286Y-102334342D01*
X159464286Y-102334342D02*
X159511905Y-102429580D01*
X159511905Y-102429580D02*
X159559524Y-102477200D01*
X159559524Y-102477200D02*
X159654762Y-102524819D01*
X159654762Y-102524819D02*
X159845238Y-102524819D01*
X159845238Y-102524819D02*
X159940476Y-102477200D01*
X159940476Y-102477200D02*
X159988095Y-102429580D01*
X159988095Y-102429580D02*
X160035714Y-102334342D01*
X160035714Y-102334342D02*
X160035714Y-102096247D01*
X160035714Y-102096247D02*
X159988095Y-102001009D01*
X159988095Y-102001009D02*
X159940476Y-101953390D01*
X159940476Y-101953390D02*
X159845238Y-101905771D01*
X159845238Y-101905771D02*
X159654762Y-101905771D01*
X159654762Y-101905771D02*
X159559524Y-101953390D01*
X159559524Y-101953390D02*
X159511905Y-102001009D01*
X159511905Y-102001009D02*
X159464286Y-102096247D01*
X145488095Y-98354819D02*
X145488095Y-99164342D01*
X145488095Y-99164342D02*
X145535714Y-99259580D01*
X145535714Y-99259580D02*
X145583333Y-99307200D01*
X145583333Y-99307200D02*
X145678571Y-99354819D01*
X145678571Y-99354819D02*
X145869047Y-99354819D01*
X145869047Y-99354819D02*
X145964285Y-99307200D01*
X145964285Y-99307200D02*
X146011904Y-99259580D01*
X146011904Y-99259580D02*
X146059523Y-99164342D01*
X146059523Y-99164342D02*
X146059523Y-98354819D01*
X146488095Y-98450057D02*
X146535714Y-98402438D01*
X146535714Y-98402438D02*
X146630952Y-98354819D01*
X146630952Y-98354819D02*
X146869047Y-98354819D01*
X146869047Y-98354819D02*
X146964285Y-98402438D01*
X146964285Y-98402438D02*
X147011904Y-98450057D01*
X147011904Y-98450057D02*
X147059523Y-98545295D01*
X147059523Y-98545295D02*
X147059523Y-98640533D01*
X147059523Y-98640533D02*
X147011904Y-98783390D01*
X147011904Y-98783390D02*
X146440476Y-99354819D01*
X146440476Y-99354819D02*
X147059523Y-99354819D01*
X146231009Y-106683333D02*
X146231009Y-107016666D01*
X146754819Y-107016666D02*
X145754819Y-107016666D01*
X145754819Y-107016666D02*
X145754819Y-106540476D01*
X146231009Y-105826190D02*
X146278628Y-105683333D01*
X146278628Y-105683333D02*
X146326247Y-105635714D01*
X146326247Y-105635714D02*
X146421485Y-105588095D01*
X146421485Y-105588095D02*
X146564342Y-105588095D01*
X146564342Y-105588095D02*
X146659580Y-105635714D01*
X146659580Y-105635714D02*
X146707200Y-105683333D01*
X146707200Y-105683333D02*
X146754819Y-105778571D01*
X146754819Y-105778571D02*
X146754819Y-106159523D01*
X146754819Y-106159523D02*
X145754819Y-106159523D01*
X145754819Y-106159523D02*
X145754819Y-105826190D01*
X145754819Y-105826190D02*
X145802438Y-105730952D01*
X145802438Y-105730952D02*
X145850057Y-105683333D01*
X145850057Y-105683333D02*
X145945295Y-105635714D01*
X145945295Y-105635714D02*
X146040533Y-105635714D01*
X146040533Y-105635714D02*
X146135771Y-105683333D01*
X146135771Y-105683333D02*
X146183390Y-105730952D01*
X146183390Y-105730952D02*
X146231009Y-105826190D01*
X146231009Y-105826190D02*
X146231009Y-106159523D01*
X145754819Y-105254761D02*
X145754819Y-104635714D01*
X145754819Y-104635714D02*
X146135771Y-104969047D01*
X146135771Y-104969047D02*
X146135771Y-104826190D01*
X146135771Y-104826190D02*
X146183390Y-104730952D01*
X146183390Y-104730952D02*
X146231009Y-104683333D01*
X146231009Y-104683333D02*
X146326247Y-104635714D01*
X146326247Y-104635714D02*
X146564342Y-104635714D01*
X146564342Y-104635714D02*
X146659580Y-104683333D01*
X146659580Y-104683333D02*
X146707200Y-104730952D01*
X146707200Y-104730952D02*
X146754819Y-104826190D01*
X146754819Y-104826190D02*
X146754819Y-105111904D01*
X146754819Y-105111904D02*
X146707200Y-105207142D01*
X146707200Y-105207142D02*
X146659580Y-105254761D01*
X175109580Y-84916666D02*
X175157200Y-84964285D01*
X175157200Y-84964285D02*
X175204819Y-85107142D01*
X175204819Y-85107142D02*
X175204819Y-85202380D01*
X175204819Y-85202380D02*
X175157200Y-85345237D01*
X175157200Y-85345237D02*
X175061961Y-85440475D01*
X175061961Y-85440475D02*
X174966723Y-85488094D01*
X174966723Y-85488094D02*
X174776247Y-85535713D01*
X174776247Y-85535713D02*
X174633390Y-85535713D01*
X174633390Y-85535713D02*
X174442914Y-85488094D01*
X174442914Y-85488094D02*
X174347676Y-85440475D01*
X174347676Y-85440475D02*
X174252438Y-85345237D01*
X174252438Y-85345237D02*
X174204819Y-85202380D01*
X174204819Y-85202380D02*
X174204819Y-85107142D01*
X174204819Y-85107142D02*
X174252438Y-84964285D01*
X174252438Y-84964285D02*
X174300057Y-84916666D01*
X174300057Y-84535713D02*
X174252438Y-84488094D01*
X174252438Y-84488094D02*
X174204819Y-84392856D01*
X174204819Y-84392856D02*
X174204819Y-84154761D01*
X174204819Y-84154761D02*
X174252438Y-84059523D01*
X174252438Y-84059523D02*
X174300057Y-84011904D01*
X174300057Y-84011904D02*
X174395295Y-83964285D01*
X174395295Y-83964285D02*
X174490533Y-83964285D01*
X174490533Y-83964285D02*
X174633390Y-84011904D01*
X174633390Y-84011904D02*
X175204819Y-84583332D01*
X175204819Y-84583332D02*
X175204819Y-83964285D01*
X169458333Y-75889819D02*
X169125000Y-75413628D01*
X168886905Y-75889819D02*
X168886905Y-74889819D01*
X168886905Y-74889819D02*
X169267857Y-74889819D01*
X169267857Y-74889819D02*
X169363095Y-74937438D01*
X169363095Y-74937438D02*
X169410714Y-74985057D01*
X169410714Y-74985057D02*
X169458333Y-75080295D01*
X169458333Y-75080295D02*
X169458333Y-75223152D01*
X169458333Y-75223152D02*
X169410714Y-75318390D01*
X169410714Y-75318390D02*
X169363095Y-75366009D01*
X169363095Y-75366009D02*
X169267857Y-75413628D01*
X169267857Y-75413628D02*
X168886905Y-75413628D01*
X169839286Y-74985057D02*
X169886905Y-74937438D01*
X169886905Y-74937438D02*
X169982143Y-74889819D01*
X169982143Y-74889819D02*
X170220238Y-74889819D01*
X170220238Y-74889819D02*
X170315476Y-74937438D01*
X170315476Y-74937438D02*
X170363095Y-74985057D01*
X170363095Y-74985057D02*
X170410714Y-75080295D01*
X170410714Y-75080295D02*
X170410714Y-75175533D01*
X170410714Y-75175533D02*
X170363095Y-75318390D01*
X170363095Y-75318390D02*
X169791667Y-75889819D01*
X169791667Y-75889819D02*
X170410714Y-75889819D01*
X152459580Y-106492857D02*
X152507200Y-106540476D01*
X152507200Y-106540476D02*
X152554819Y-106683333D01*
X152554819Y-106683333D02*
X152554819Y-106778571D01*
X152554819Y-106778571D02*
X152507200Y-106921428D01*
X152507200Y-106921428D02*
X152411961Y-107016666D01*
X152411961Y-107016666D02*
X152316723Y-107064285D01*
X152316723Y-107064285D02*
X152126247Y-107111904D01*
X152126247Y-107111904D02*
X151983390Y-107111904D01*
X151983390Y-107111904D02*
X151792914Y-107064285D01*
X151792914Y-107064285D02*
X151697676Y-107016666D01*
X151697676Y-107016666D02*
X151602438Y-106921428D01*
X151602438Y-106921428D02*
X151554819Y-106778571D01*
X151554819Y-106778571D02*
X151554819Y-106683333D01*
X151554819Y-106683333D02*
X151602438Y-106540476D01*
X151602438Y-106540476D02*
X151650057Y-106492857D01*
X151650057Y-106111904D02*
X151602438Y-106064285D01*
X151602438Y-106064285D02*
X151554819Y-105969047D01*
X151554819Y-105969047D02*
X151554819Y-105730952D01*
X151554819Y-105730952D02*
X151602438Y-105635714D01*
X151602438Y-105635714D02*
X151650057Y-105588095D01*
X151650057Y-105588095D02*
X151745295Y-105540476D01*
X151745295Y-105540476D02*
X151840533Y-105540476D01*
X151840533Y-105540476D02*
X151983390Y-105588095D01*
X151983390Y-105588095D02*
X152554819Y-106159523D01*
X152554819Y-106159523D02*
X152554819Y-105540476D01*
X151554819Y-104683333D02*
X151554819Y-104873809D01*
X151554819Y-104873809D02*
X151602438Y-104969047D01*
X151602438Y-104969047D02*
X151650057Y-105016666D01*
X151650057Y-105016666D02*
X151792914Y-105111904D01*
X151792914Y-105111904D02*
X151983390Y-105159523D01*
X151983390Y-105159523D02*
X152364342Y-105159523D01*
X152364342Y-105159523D02*
X152459580Y-105111904D01*
X152459580Y-105111904D02*
X152507200Y-105064285D01*
X152507200Y-105064285D02*
X152554819Y-104969047D01*
X152554819Y-104969047D02*
X152554819Y-104778571D01*
X152554819Y-104778571D02*
X152507200Y-104683333D01*
X152507200Y-104683333D02*
X152459580Y-104635714D01*
X152459580Y-104635714D02*
X152364342Y-104588095D01*
X152364342Y-104588095D02*
X152126247Y-104588095D01*
X152126247Y-104588095D02*
X152031009Y-104635714D01*
X152031009Y-104635714D02*
X151983390Y-104683333D01*
X151983390Y-104683333D02*
X151935771Y-104778571D01*
X151935771Y-104778571D02*
X151935771Y-104969047D01*
X151935771Y-104969047D02*
X151983390Y-105064285D01*
X151983390Y-105064285D02*
X152031009Y-105111904D01*
X152031009Y-105111904D02*
X152126247Y-105159523D01*
X156859580Y-100642857D02*
X156907200Y-100690476D01*
X156907200Y-100690476D02*
X156954819Y-100833333D01*
X156954819Y-100833333D02*
X156954819Y-100928571D01*
X156954819Y-100928571D02*
X156907200Y-101071428D01*
X156907200Y-101071428D02*
X156811961Y-101166666D01*
X156811961Y-101166666D02*
X156716723Y-101214285D01*
X156716723Y-101214285D02*
X156526247Y-101261904D01*
X156526247Y-101261904D02*
X156383390Y-101261904D01*
X156383390Y-101261904D02*
X156192914Y-101214285D01*
X156192914Y-101214285D02*
X156097676Y-101166666D01*
X156097676Y-101166666D02*
X156002438Y-101071428D01*
X156002438Y-101071428D02*
X155954819Y-100928571D01*
X155954819Y-100928571D02*
X155954819Y-100833333D01*
X155954819Y-100833333D02*
X156002438Y-100690476D01*
X156002438Y-100690476D02*
X156050057Y-100642857D01*
X156954819Y-99690476D02*
X156954819Y-100261904D01*
X156954819Y-99976190D02*
X155954819Y-99976190D01*
X155954819Y-99976190D02*
X156097676Y-100071428D01*
X156097676Y-100071428D02*
X156192914Y-100166666D01*
X156192914Y-100166666D02*
X156240533Y-100261904D01*
X156383390Y-99119047D02*
X156335771Y-99214285D01*
X156335771Y-99214285D02*
X156288152Y-99261904D01*
X156288152Y-99261904D02*
X156192914Y-99309523D01*
X156192914Y-99309523D02*
X156145295Y-99309523D01*
X156145295Y-99309523D02*
X156050057Y-99261904D01*
X156050057Y-99261904D02*
X156002438Y-99214285D01*
X156002438Y-99214285D02*
X155954819Y-99119047D01*
X155954819Y-99119047D02*
X155954819Y-98928571D01*
X155954819Y-98928571D02*
X156002438Y-98833333D01*
X156002438Y-98833333D02*
X156050057Y-98785714D01*
X156050057Y-98785714D02*
X156145295Y-98738095D01*
X156145295Y-98738095D02*
X156192914Y-98738095D01*
X156192914Y-98738095D02*
X156288152Y-98785714D01*
X156288152Y-98785714D02*
X156335771Y-98833333D01*
X156335771Y-98833333D02*
X156383390Y-98928571D01*
X156383390Y-98928571D02*
X156383390Y-99119047D01*
X156383390Y-99119047D02*
X156431009Y-99214285D01*
X156431009Y-99214285D02*
X156478628Y-99261904D01*
X156478628Y-99261904D02*
X156573866Y-99309523D01*
X156573866Y-99309523D02*
X156764342Y-99309523D01*
X156764342Y-99309523D02*
X156859580Y-99261904D01*
X156859580Y-99261904D02*
X156907200Y-99214285D01*
X156907200Y-99214285D02*
X156954819Y-99119047D01*
X156954819Y-99119047D02*
X156954819Y-98928571D01*
X156954819Y-98928571D02*
X156907200Y-98833333D01*
X156907200Y-98833333D02*
X156859580Y-98785714D01*
X156859580Y-98785714D02*
X156764342Y-98738095D01*
X156764342Y-98738095D02*
X156573866Y-98738095D01*
X156573866Y-98738095D02*
X156478628Y-98785714D01*
X156478628Y-98785714D02*
X156431009Y-98833333D01*
X156431009Y-98833333D02*
X156383390Y-98928571D01*
X121454819Y-88041666D02*
X120978628Y-88374999D01*
X121454819Y-88613094D02*
X120454819Y-88613094D01*
X120454819Y-88613094D02*
X120454819Y-88232142D01*
X120454819Y-88232142D02*
X120502438Y-88136904D01*
X120502438Y-88136904D02*
X120550057Y-88089285D01*
X120550057Y-88089285D02*
X120645295Y-88041666D01*
X120645295Y-88041666D02*
X120788152Y-88041666D01*
X120788152Y-88041666D02*
X120883390Y-88089285D01*
X120883390Y-88089285D02*
X120931009Y-88136904D01*
X120931009Y-88136904D02*
X120978628Y-88232142D01*
X120978628Y-88232142D02*
X120978628Y-88613094D01*
X121454819Y-87089285D02*
X121454819Y-87660713D01*
X121454819Y-87374999D02*
X120454819Y-87374999D01*
X120454819Y-87374999D02*
X120597676Y-87470237D01*
X120597676Y-87470237D02*
X120692914Y-87565475D01*
X120692914Y-87565475D02*
X120740533Y-87660713D01*
X151141666Y-97536009D02*
X150808333Y-97536009D01*
X150808333Y-98059819D02*
X150808333Y-97059819D01*
X150808333Y-97059819D02*
X151284523Y-97059819D01*
X151998809Y-97536009D02*
X152141666Y-97583628D01*
X152141666Y-97583628D02*
X152189285Y-97631247D01*
X152189285Y-97631247D02*
X152236904Y-97726485D01*
X152236904Y-97726485D02*
X152236904Y-97869342D01*
X152236904Y-97869342D02*
X152189285Y-97964580D01*
X152189285Y-97964580D02*
X152141666Y-98012200D01*
X152141666Y-98012200D02*
X152046428Y-98059819D01*
X152046428Y-98059819D02*
X151665476Y-98059819D01*
X151665476Y-98059819D02*
X151665476Y-97059819D01*
X151665476Y-97059819D02*
X151998809Y-97059819D01*
X151998809Y-97059819D02*
X152094047Y-97107438D01*
X152094047Y-97107438D02*
X152141666Y-97155057D01*
X152141666Y-97155057D02*
X152189285Y-97250295D01*
X152189285Y-97250295D02*
X152189285Y-97345533D01*
X152189285Y-97345533D02*
X152141666Y-97440771D01*
X152141666Y-97440771D02*
X152094047Y-97488390D01*
X152094047Y-97488390D02*
X151998809Y-97536009D01*
X151998809Y-97536009D02*
X151665476Y-97536009D01*
X153189285Y-98059819D02*
X152617857Y-98059819D01*
X152903571Y-98059819D02*
X152903571Y-97059819D01*
X152903571Y-97059819D02*
X152808333Y-97202676D01*
X152808333Y-97202676D02*
X152713095Y-97297914D01*
X152713095Y-97297914D02*
X152617857Y-97345533D01*
X120538095Y-70754819D02*
X120538095Y-69754819D01*
X120538095Y-70231009D02*
X121109523Y-70231009D01*
X121109523Y-70754819D02*
X121109523Y-69754819D01*
X122109523Y-70754819D02*
X121538095Y-70754819D01*
X121823809Y-70754819D02*
X121823809Y-69754819D01*
X121823809Y-69754819D02*
X121728571Y-69897676D01*
X121728571Y-69897676D02*
X121633333Y-69992914D01*
X121633333Y-69992914D02*
X121538095Y-70040533D01*
X159407142Y-112759580D02*
X159359523Y-112807200D01*
X159359523Y-112807200D02*
X159216666Y-112854819D01*
X159216666Y-112854819D02*
X159121428Y-112854819D01*
X159121428Y-112854819D02*
X158978571Y-112807200D01*
X158978571Y-112807200D02*
X158883333Y-112711961D01*
X158883333Y-112711961D02*
X158835714Y-112616723D01*
X158835714Y-112616723D02*
X158788095Y-112426247D01*
X158788095Y-112426247D02*
X158788095Y-112283390D01*
X158788095Y-112283390D02*
X158835714Y-112092914D01*
X158835714Y-112092914D02*
X158883333Y-111997676D01*
X158883333Y-111997676D02*
X158978571Y-111902438D01*
X158978571Y-111902438D02*
X159121428Y-111854819D01*
X159121428Y-111854819D02*
X159216666Y-111854819D01*
X159216666Y-111854819D02*
X159359523Y-111902438D01*
X159359523Y-111902438D02*
X159407142Y-111950057D01*
X160359523Y-112854819D02*
X159788095Y-112854819D01*
X160073809Y-112854819D02*
X160073809Y-111854819D01*
X160073809Y-111854819D02*
X159978571Y-111997676D01*
X159978571Y-111997676D02*
X159883333Y-112092914D01*
X159883333Y-112092914D02*
X159788095Y-112140533D01*
X160835714Y-112854819D02*
X161026190Y-112854819D01*
X161026190Y-112854819D02*
X161121428Y-112807200D01*
X161121428Y-112807200D02*
X161169047Y-112759580D01*
X161169047Y-112759580D02*
X161264285Y-112616723D01*
X161264285Y-112616723D02*
X161311904Y-112426247D01*
X161311904Y-112426247D02*
X161311904Y-112045295D01*
X161311904Y-112045295D02*
X161264285Y-111950057D01*
X161264285Y-111950057D02*
X161216666Y-111902438D01*
X161216666Y-111902438D02*
X161121428Y-111854819D01*
X161121428Y-111854819D02*
X160930952Y-111854819D01*
X160930952Y-111854819D02*
X160835714Y-111902438D01*
X160835714Y-111902438D02*
X160788095Y-111950057D01*
X160788095Y-111950057D02*
X160740476Y-112045295D01*
X160740476Y-112045295D02*
X160740476Y-112283390D01*
X160740476Y-112283390D02*
X160788095Y-112378628D01*
X160788095Y-112378628D02*
X160835714Y-112426247D01*
X160835714Y-112426247D02*
X160930952Y-112473866D01*
X160930952Y-112473866D02*
X161121428Y-112473866D01*
X161121428Y-112473866D02*
X161216666Y-112426247D01*
X161216666Y-112426247D02*
X161264285Y-112378628D01*
X161264285Y-112378628D02*
X161311904Y-112283390D01*
X138407142Y-88854580D02*
X138359523Y-88902200D01*
X138359523Y-88902200D02*
X138216666Y-88949819D01*
X138216666Y-88949819D02*
X138121428Y-88949819D01*
X138121428Y-88949819D02*
X137978571Y-88902200D01*
X137978571Y-88902200D02*
X137883333Y-88806961D01*
X137883333Y-88806961D02*
X137835714Y-88711723D01*
X137835714Y-88711723D02*
X137788095Y-88521247D01*
X137788095Y-88521247D02*
X137788095Y-88378390D01*
X137788095Y-88378390D02*
X137835714Y-88187914D01*
X137835714Y-88187914D02*
X137883333Y-88092676D01*
X137883333Y-88092676D02*
X137978571Y-87997438D01*
X137978571Y-87997438D02*
X138121428Y-87949819D01*
X138121428Y-87949819D02*
X138216666Y-87949819D01*
X138216666Y-87949819D02*
X138359523Y-87997438D01*
X138359523Y-87997438D02*
X138407142Y-88045057D01*
X139359523Y-88949819D02*
X138788095Y-88949819D01*
X139073809Y-88949819D02*
X139073809Y-87949819D01*
X139073809Y-87949819D02*
X138978571Y-88092676D01*
X138978571Y-88092676D02*
X138883333Y-88187914D01*
X138883333Y-88187914D02*
X138788095Y-88235533D01*
X139978571Y-87949819D02*
X140073809Y-87949819D01*
X140073809Y-87949819D02*
X140169047Y-87997438D01*
X140169047Y-87997438D02*
X140216666Y-88045057D01*
X140216666Y-88045057D02*
X140264285Y-88140295D01*
X140264285Y-88140295D02*
X140311904Y-88330771D01*
X140311904Y-88330771D02*
X140311904Y-88568866D01*
X140311904Y-88568866D02*
X140264285Y-88759342D01*
X140264285Y-88759342D02*
X140216666Y-88854580D01*
X140216666Y-88854580D02*
X140169047Y-88902200D01*
X140169047Y-88902200D02*
X140073809Y-88949819D01*
X140073809Y-88949819D02*
X139978571Y-88949819D01*
X139978571Y-88949819D02*
X139883333Y-88902200D01*
X139883333Y-88902200D02*
X139835714Y-88854580D01*
X139835714Y-88854580D02*
X139788095Y-88759342D01*
X139788095Y-88759342D02*
X139740476Y-88568866D01*
X139740476Y-88568866D02*
X139740476Y-88330771D01*
X139740476Y-88330771D02*
X139788095Y-88140295D01*
X139788095Y-88140295D02*
X139835714Y-88045057D01*
X139835714Y-88045057D02*
X139883333Y-87997438D01*
X139883333Y-87997438D02*
X139978571Y-87949819D01*
X148559580Y-106542857D02*
X148607200Y-106590476D01*
X148607200Y-106590476D02*
X148654819Y-106733333D01*
X148654819Y-106733333D02*
X148654819Y-106828571D01*
X148654819Y-106828571D02*
X148607200Y-106971428D01*
X148607200Y-106971428D02*
X148511961Y-107066666D01*
X148511961Y-107066666D02*
X148416723Y-107114285D01*
X148416723Y-107114285D02*
X148226247Y-107161904D01*
X148226247Y-107161904D02*
X148083390Y-107161904D01*
X148083390Y-107161904D02*
X147892914Y-107114285D01*
X147892914Y-107114285D02*
X147797676Y-107066666D01*
X147797676Y-107066666D02*
X147702438Y-106971428D01*
X147702438Y-106971428D02*
X147654819Y-106828571D01*
X147654819Y-106828571D02*
X147654819Y-106733333D01*
X147654819Y-106733333D02*
X147702438Y-106590476D01*
X147702438Y-106590476D02*
X147750057Y-106542857D01*
X147750057Y-106161904D02*
X147702438Y-106114285D01*
X147702438Y-106114285D02*
X147654819Y-106019047D01*
X147654819Y-106019047D02*
X147654819Y-105780952D01*
X147654819Y-105780952D02*
X147702438Y-105685714D01*
X147702438Y-105685714D02*
X147750057Y-105638095D01*
X147750057Y-105638095D02*
X147845295Y-105590476D01*
X147845295Y-105590476D02*
X147940533Y-105590476D01*
X147940533Y-105590476D02*
X148083390Y-105638095D01*
X148083390Y-105638095D02*
X148654819Y-106209523D01*
X148654819Y-106209523D02*
X148654819Y-105590476D01*
X147654819Y-105257142D02*
X147654819Y-104638095D01*
X147654819Y-104638095D02*
X148035771Y-104971428D01*
X148035771Y-104971428D02*
X148035771Y-104828571D01*
X148035771Y-104828571D02*
X148083390Y-104733333D01*
X148083390Y-104733333D02*
X148131009Y-104685714D01*
X148131009Y-104685714D02*
X148226247Y-104638095D01*
X148226247Y-104638095D02*
X148464342Y-104638095D01*
X148464342Y-104638095D02*
X148559580Y-104685714D01*
X148559580Y-104685714D02*
X148607200Y-104733333D01*
X148607200Y-104733333D02*
X148654819Y-104828571D01*
X148654819Y-104828571D02*
X148654819Y-105114285D01*
X148654819Y-105114285D02*
X148607200Y-105209523D01*
X148607200Y-105209523D02*
X148559580Y-105257142D01*
X140159819Y-69573333D02*
X140874104Y-69573333D01*
X140874104Y-69573333D02*
X141016961Y-69620952D01*
X141016961Y-69620952D02*
X141112200Y-69716190D01*
X141112200Y-69716190D02*
X141159819Y-69859047D01*
X141159819Y-69859047D02*
X141159819Y-69954285D01*
X141159819Y-68573333D02*
X141159819Y-69144761D01*
X141159819Y-68859047D02*
X140159819Y-68859047D01*
X140159819Y-68859047D02*
X140302676Y-68954285D01*
X140302676Y-68954285D02*
X140397914Y-69049523D01*
X140397914Y-69049523D02*
X140445533Y-69144761D01*
D13*
X166804318Y-107173332D02*
X167711461Y-107173332D01*
X167711461Y-107173332D02*
X167892889Y-107233809D01*
X167892889Y-107233809D02*
X168013842Y-107354761D01*
X168013842Y-107354761D02*
X168074318Y-107536190D01*
X168074318Y-107536190D02*
X168074318Y-107657142D01*
X166804318Y-106689523D02*
X166804318Y-105842856D01*
X166804318Y-105842856D02*
X168074318Y-106387142D01*
D12*
X164783333Y-83429580D02*
X164735714Y-83477200D01*
X164735714Y-83477200D02*
X164592857Y-83524819D01*
X164592857Y-83524819D02*
X164497619Y-83524819D01*
X164497619Y-83524819D02*
X164354762Y-83477200D01*
X164354762Y-83477200D02*
X164259524Y-83381961D01*
X164259524Y-83381961D02*
X164211905Y-83286723D01*
X164211905Y-83286723D02*
X164164286Y-83096247D01*
X164164286Y-83096247D02*
X164164286Y-82953390D01*
X164164286Y-82953390D02*
X164211905Y-82762914D01*
X164211905Y-82762914D02*
X164259524Y-82667676D01*
X164259524Y-82667676D02*
X164354762Y-82572438D01*
X164354762Y-82572438D02*
X164497619Y-82524819D01*
X164497619Y-82524819D02*
X164592857Y-82524819D01*
X164592857Y-82524819D02*
X164735714Y-82572438D01*
X164735714Y-82572438D02*
X164783333Y-82620057D01*
X165735714Y-83524819D02*
X165164286Y-83524819D01*
X165450000Y-83524819D02*
X165450000Y-82524819D01*
X165450000Y-82524819D02*
X165354762Y-82667676D01*
X165354762Y-82667676D02*
X165259524Y-82762914D01*
X165259524Y-82762914D02*
X165164286Y-82810533D01*
X156609580Y-85892857D02*
X156657200Y-85940476D01*
X156657200Y-85940476D02*
X156704819Y-86083333D01*
X156704819Y-86083333D02*
X156704819Y-86178571D01*
X156704819Y-86178571D02*
X156657200Y-86321428D01*
X156657200Y-86321428D02*
X156561961Y-86416666D01*
X156561961Y-86416666D02*
X156466723Y-86464285D01*
X156466723Y-86464285D02*
X156276247Y-86511904D01*
X156276247Y-86511904D02*
X156133390Y-86511904D01*
X156133390Y-86511904D02*
X155942914Y-86464285D01*
X155942914Y-86464285D02*
X155847676Y-86416666D01*
X155847676Y-86416666D02*
X155752438Y-86321428D01*
X155752438Y-86321428D02*
X155704819Y-86178571D01*
X155704819Y-86178571D02*
X155704819Y-86083333D01*
X155704819Y-86083333D02*
X155752438Y-85940476D01*
X155752438Y-85940476D02*
X155800057Y-85892857D01*
X156704819Y-84940476D02*
X156704819Y-85511904D01*
X156704819Y-85226190D02*
X155704819Y-85226190D01*
X155704819Y-85226190D02*
X155847676Y-85321428D01*
X155847676Y-85321428D02*
X155942914Y-85416666D01*
X155942914Y-85416666D02*
X155990533Y-85511904D01*
X155704819Y-84607142D02*
X155704819Y-83940476D01*
X155704819Y-83940476D02*
X156704819Y-84369047D01*
X139757142Y-112859580D02*
X139709523Y-112907200D01*
X139709523Y-112907200D02*
X139566666Y-112954819D01*
X139566666Y-112954819D02*
X139471428Y-112954819D01*
X139471428Y-112954819D02*
X139328571Y-112907200D01*
X139328571Y-112907200D02*
X139233333Y-112811961D01*
X139233333Y-112811961D02*
X139185714Y-112716723D01*
X139185714Y-112716723D02*
X139138095Y-112526247D01*
X139138095Y-112526247D02*
X139138095Y-112383390D01*
X139138095Y-112383390D02*
X139185714Y-112192914D01*
X139185714Y-112192914D02*
X139233333Y-112097676D01*
X139233333Y-112097676D02*
X139328571Y-112002438D01*
X139328571Y-112002438D02*
X139471428Y-111954819D01*
X139471428Y-111954819D02*
X139566666Y-111954819D01*
X139566666Y-111954819D02*
X139709523Y-112002438D01*
X139709523Y-112002438D02*
X139757142Y-112050057D01*
X140138095Y-112050057D02*
X140185714Y-112002438D01*
X140185714Y-112002438D02*
X140280952Y-111954819D01*
X140280952Y-111954819D02*
X140519047Y-111954819D01*
X140519047Y-111954819D02*
X140614285Y-112002438D01*
X140614285Y-112002438D02*
X140661904Y-112050057D01*
X140661904Y-112050057D02*
X140709523Y-112145295D01*
X140709523Y-112145295D02*
X140709523Y-112240533D01*
X140709523Y-112240533D02*
X140661904Y-112383390D01*
X140661904Y-112383390D02*
X140090476Y-112954819D01*
X140090476Y-112954819D02*
X140709523Y-112954819D01*
X141185714Y-112954819D02*
X141376190Y-112954819D01*
X141376190Y-112954819D02*
X141471428Y-112907200D01*
X141471428Y-112907200D02*
X141519047Y-112859580D01*
X141519047Y-112859580D02*
X141614285Y-112716723D01*
X141614285Y-112716723D02*
X141661904Y-112526247D01*
X141661904Y-112526247D02*
X141661904Y-112145295D01*
X141661904Y-112145295D02*
X141614285Y-112050057D01*
X141614285Y-112050057D02*
X141566666Y-112002438D01*
X141566666Y-112002438D02*
X141471428Y-111954819D01*
X141471428Y-111954819D02*
X141280952Y-111954819D01*
X141280952Y-111954819D02*
X141185714Y-112002438D01*
X141185714Y-112002438D02*
X141138095Y-112050057D01*
X141138095Y-112050057D02*
X141090476Y-112145295D01*
X141090476Y-112145295D02*
X141090476Y-112383390D01*
X141090476Y-112383390D02*
X141138095Y-112478628D01*
X141138095Y-112478628D02*
X141185714Y-112526247D01*
X141185714Y-112526247D02*
X141280952Y-112573866D01*
X141280952Y-112573866D02*
X141471428Y-112573866D01*
X141471428Y-112573866D02*
X141566666Y-112526247D01*
X141566666Y-112526247D02*
X141614285Y-112478628D01*
X141614285Y-112478628D02*
X141661904Y-112383390D01*
X127634819Y-130409523D02*
X128349104Y-130409523D01*
X128349104Y-130409523D02*
X128491961Y-130457142D01*
X128491961Y-130457142D02*
X128587200Y-130552380D01*
X128587200Y-130552380D02*
X128634819Y-130695237D01*
X128634819Y-130695237D02*
X128634819Y-130790475D01*
X128634819Y-129409523D02*
X128634819Y-129980951D01*
X128634819Y-129695237D02*
X127634819Y-129695237D01*
X127634819Y-129695237D02*
X127777676Y-129790475D01*
X127777676Y-129790475D02*
X127872914Y-129885713D01*
X127872914Y-129885713D02*
X127920533Y-129980951D01*
X128634819Y-128457142D02*
X128634819Y-129028570D01*
X128634819Y-128742856D02*
X127634819Y-128742856D01*
X127634819Y-128742856D02*
X127777676Y-128838094D01*
X127777676Y-128838094D02*
X127872914Y-128933332D01*
X127872914Y-128933332D02*
X127920533Y-129028570D01*
X172109580Y-71392857D02*
X172157200Y-71440476D01*
X172157200Y-71440476D02*
X172204819Y-71583333D01*
X172204819Y-71583333D02*
X172204819Y-71678571D01*
X172204819Y-71678571D02*
X172157200Y-71821428D01*
X172157200Y-71821428D02*
X172061961Y-71916666D01*
X172061961Y-71916666D02*
X171966723Y-71964285D01*
X171966723Y-71964285D02*
X171776247Y-72011904D01*
X171776247Y-72011904D02*
X171633390Y-72011904D01*
X171633390Y-72011904D02*
X171442914Y-71964285D01*
X171442914Y-71964285D02*
X171347676Y-71916666D01*
X171347676Y-71916666D02*
X171252438Y-71821428D01*
X171252438Y-71821428D02*
X171204819Y-71678571D01*
X171204819Y-71678571D02*
X171204819Y-71583333D01*
X171204819Y-71583333D02*
X171252438Y-71440476D01*
X171252438Y-71440476D02*
X171300057Y-71392857D01*
X172204819Y-70440476D02*
X172204819Y-71011904D01*
X172204819Y-70726190D02*
X171204819Y-70726190D01*
X171204819Y-70726190D02*
X171347676Y-70821428D01*
X171347676Y-70821428D02*
X171442914Y-70916666D01*
X171442914Y-70916666D02*
X171490533Y-71011904D01*
X171204819Y-69583333D02*
X171204819Y-69773809D01*
X171204819Y-69773809D02*
X171252438Y-69869047D01*
X171252438Y-69869047D02*
X171300057Y-69916666D01*
X171300057Y-69916666D02*
X171442914Y-70011904D01*
X171442914Y-70011904D02*
X171633390Y-70059523D01*
X171633390Y-70059523D02*
X172014342Y-70059523D01*
X172014342Y-70059523D02*
X172109580Y-70011904D01*
X172109580Y-70011904D02*
X172157200Y-69964285D01*
X172157200Y-69964285D02*
X172204819Y-69869047D01*
X172204819Y-69869047D02*
X172204819Y-69678571D01*
X172204819Y-69678571D02*
X172157200Y-69583333D01*
X172157200Y-69583333D02*
X172109580Y-69535714D01*
X172109580Y-69535714D02*
X172014342Y-69488095D01*
X172014342Y-69488095D02*
X171776247Y-69488095D01*
X171776247Y-69488095D02*
X171681009Y-69535714D01*
X171681009Y-69535714D02*
X171633390Y-69583333D01*
X171633390Y-69583333D02*
X171585771Y-69678571D01*
X171585771Y-69678571D02*
X171585771Y-69869047D01*
X171585771Y-69869047D02*
X171633390Y-69964285D01*
X171633390Y-69964285D02*
X171681009Y-70011904D01*
X171681009Y-70011904D02*
X171776247Y-70059523D01*
X177179580Y-84866666D02*
X177227200Y-84914285D01*
X177227200Y-84914285D02*
X177274819Y-85057142D01*
X177274819Y-85057142D02*
X177274819Y-85152380D01*
X177274819Y-85152380D02*
X177227200Y-85295237D01*
X177227200Y-85295237D02*
X177131961Y-85390475D01*
X177131961Y-85390475D02*
X177036723Y-85438094D01*
X177036723Y-85438094D02*
X176846247Y-85485713D01*
X176846247Y-85485713D02*
X176703390Y-85485713D01*
X176703390Y-85485713D02*
X176512914Y-85438094D01*
X176512914Y-85438094D02*
X176417676Y-85390475D01*
X176417676Y-85390475D02*
X176322438Y-85295237D01*
X176322438Y-85295237D02*
X176274819Y-85152380D01*
X176274819Y-85152380D02*
X176274819Y-85057142D01*
X176274819Y-85057142D02*
X176322438Y-84914285D01*
X176322438Y-84914285D02*
X176370057Y-84866666D01*
X176274819Y-84533332D02*
X176274819Y-83914285D01*
X176274819Y-83914285D02*
X176655771Y-84247618D01*
X176655771Y-84247618D02*
X176655771Y-84104761D01*
X176655771Y-84104761D02*
X176703390Y-84009523D01*
X176703390Y-84009523D02*
X176751009Y-83961904D01*
X176751009Y-83961904D02*
X176846247Y-83914285D01*
X176846247Y-83914285D02*
X177084342Y-83914285D01*
X177084342Y-83914285D02*
X177179580Y-83961904D01*
X177179580Y-83961904D02*
X177227200Y-84009523D01*
X177227200Y-84009523D02*
X177274819Y-84104761D01*
X177274819Y-84104761D02*
X177274819Y-84390475D01*
X177274819Y-84390475D02*
X177227200Y-84485713D01*
X177227200Y-84485713D02*
X177179580Y-84533332D01*
X138911905Y-86749819D02*
X138911905Y-85749819D01*
X138911905Y-85749819D02*
X139150000Y-85749819D01*
X139150000Y-85749819D02*
X139292857Y-85797438D01*
X139292857Y-85797438D02*
X139388095Y-85892676D01*
X139388095Y-85892676D02*
X139435714Y-85987914D01*
X139435714Y-85987914D02*
X139483333Y-86178390D01*
X139483333Y-86178390D02*
X139483333Y-86321247D01*
X139483333Y-86321247D02*
X139435714Y-86511723D01*
X139435714Y-86511723D02*
X139388095Y-86606961D01*
X139388095Y-86606961D02*
X139292857Y-86702200D01*
X139292857Y-86702200D02*
X139150000Y-86749819D01*
X139150000Y-86749819D02*
X138911905Y-86749819D01*
X139864286Y-85845057D02*
X139911905Y-85797438D01*
X139911905Y-85797438D02*
X140007143Y-85749819D01*
X140007143Y-85749819D02*
X140245238Y-85749819D01*
X140245238Y-85749819D02*
X140340476Y-85797438D01*
X140340476Y-85797438D02*
X140388095Y-85845057D01*
X140388095Y-85845057D02*
X140435714Y-85940295D01*
X140435714Y-85940295D02*
X140435714Y-86035533D01*
X140435714Y-86035533D02*
X140388095Y-86178390D01*
X140388095Y-86178390D02*
X139816667Y-86749819D01*
X139816667Y-86749819D02*
X140435714Y-86749819D01*
X173429580Y-101116666D02*
X173477200Y-101164285D01*
X173477200Y-101164285D02*
X173524819Y-101307142D01*
X173524819Y-101307142D02*
X173524819Y-101402380D01*
X173524819Y-101402380D02*
X173477200Y-101545237D01*
X173477200Y-101545237D02*
X173381961Y-101640475D01*
X173381961Y-101640475D02*
X173286723Y-101688094D01*
X173286723Y-101688094D02*
X173096247Y-101735713D01*
X173096247Y-101735713D02*
X172953390Y-101735713D01*
X172953390Y-101735713D02*
X172762914Y-101688094D01*
X172762914Y-101688094D02*
X172667676Y-101640475D01*
X172667676Y-101640475D02*
X172572438Y-101545237D01*
X172572438Y-101545237D02*
X172524819Y-101402380D01*
X172524819Y-101402380D02*
X172524819Y-101307142D01*
X172524819Y-101307142D02*
X172572438Y-101164285D01*
X172572438Y-101164285D02*
X172620057Y-101116666D01*
X172953390Y-100545237D02*
X172905771Y-100640475D01*
X172905771Y-100640475D02*
X172858152Y-100688094D01*
X172858152Y-100688094D02*
X172762914Y-100735713D01*
X172762914Y-100735713D02*
X172715295Y-100735713D01*
X172715295Y-100735713D02*
X172620057Y-100688094D01*
X172620057Y-100688094D02*
X172572438Y-100640475D01*
X172572438Y-100640475D02*
X172524819Y-100545237D01*
X172524819Y-100545237D02*
X172524819Y-100354761D01*
X172524819Y-100354761D02*
X172572438Y-100259523D01*
X172572438Y-100259523D02*
X172620057Y-100211904D01*
X172620057Y-100211904D02*
X172715295Y-100164285D01*
X172715295Y-100164285D02*
X172762914Y-100164285D01*
X172762914Y-100164285D02*
X172858152Y-100211904D01*
X172858152Y-100211904D02*
X172905771Y-100259523D01*
X172905771Y-100259523D02*
X172953390Y-100354761D01*
X172953390Y-100354761D02*
X172953390Y-100545237D01*
X172953390Y-100545237D02*
X173001009Y-100640475D01*
X173001009Y-100640475D02*
X173048628Y-100688094D01*
X173048628Y-100688094D02*
X173143866Y-100735713D01*
X173143866Y-100735713D02*
X173334342Y-100735713D01*
X173334342Y-100735713D02*
X173429580Y-100688094D01*
X173429580Y-100688094D02*
X173477200Y-100640475D01*
X173477200Y-100640475D02*
X173524819Y-100545237D01*
X173524819Y-100545237D02*
X173524819Y-100354761D01*
X173524819Y-100354761D02*
X173477200Y-100259523D01*
X173477200Y-100259523D02*
X173429580Y-100211904D01*
X173429580Y-100211904D02*
X173334342Y-100164285D01*
X173334342Y-100164285D02*
X173143866Y-100164285D01*
X173143866Y-100164285D02*
X173048628Y-100211904D01*
X173048628Y-100211904D02*
X173001009Y-100259523D01*
X173001009Y-100259523D02*
X172953390Y-100354761D01*
X139607142Y-108659580D02*
X139559523Y-108707200D01*
X139559523Y-108707200D02*
X139416666Y-108754819D01*
X139416666Y-108754819D02*
X139321428Y-108754819D01*
X139321428Y-108754819D02*
X139178571Y-108707200D01*
X139178571Y-108707200D02*
X139083333Y-108611961D01*
X139083333Y-108611961D02*
X139035714Y-108516723D01*
X139035714Y-108516723D02*
X138988095Y-108326247D01*
X138988095Y-108326247D02*
X138988095Y-108183390D01*
X138988095Y-108183390D02*
X139035714Y-107992914D01*
X139035714Y-107992914D02*
X139083333Y-107897676D01*
X139083333Y-107897676D02*
X139178571Y-107802438D01*
X139178571Y-107802438D02*
X139321428Y-107754819D01*
X139321428Y-107754819D02*
X139416666Y-107754819D01*
X139416666Y-107754819D02*
X139559523Y-107802438D01*
X139559523Y-107802438D02*
X139607142Y-107850057D01*
X139988095Y-107850057D02*
X140035714Y-107802438D01*
X140035714Y-107802438D02*
X140130952Y-107754819D01*
X140130952Y-107754819D02*
X140369047Y-107754819D01*
X140369047Y-107754819D02*
X140464285Y-107802438D01*
X140464285Y-107802438D02*
X140511904Y-107850057D01*
X140511904Y-107850057D02*
X140559523Y-107945295D01*
X140559523Y-107945295D02*
X140559523Y-108040533D01*
X140559523Y-108040533D02*
X140511904Y-108183390D01*
X140511904Y-108183390D02*
X139940476Y-108754819D01*
X139940476Y-108754819D02*
X140559523Y-108754819D01*
X141464285Y-107754819D02*
X140988095Y-107754819D01*
X140988095Y-107754819D02*
X140940476Y-108231009D01*
X140940476Y-108231009D02*
X140988095Y-108183390D01*
X140988095Y-108183390D02*
X141083333Y-108135771D01*
X141083333Y-108135771D02*
X141321428Y-108135771D01*
X141321428Y-108135771D02*
X141416666Y-108183390D01*
X141416666Y-108183390D02*
X141464285Y-108231009D01*
X141464285Y-108231009D02*
X141511904Y-108326247D01*
X141511904Y-108326247D02*
X141511904Y-108564342D01*
X141511904Y-108564342D02*
X141464285Y-108659580D01*
X141464285Y-108659580D02*
X141416666Y-108707200D01*
X141416666Y-108707200D02*
X141321428Y-108754819D01*
X141321428Y-108754819D02*
X141083333Y-108754819D01*
X141083333Y-108754819D02*
X140988095Y-108707200D01*
X140988095Y-108707200D02*
X140940476Y-108659580D01*
X119256819Y-122261904D02*
X119256819Y-121690476D01*
X120256819Y-121976190D02*
X119256819Y-121976190D01*
X120256819Y-121357142D02*
X119256819Y-121357142D01*
X119256819Y-121357142D02*
X119256819Y-120976190D01*
X119256819Y-120976190D02*
X119304438Y-120880952D01*
X119304438Y-120880952D02*
X119352057Y-120833333D01*
X119352057Y-120833333D02*
X119447295Y-120785714D01*
X119447295Y-120785714D02*
X119590152Y-120785714D01*
X119590152Y-120785714D02*
X119685390Y-120833333D01*
X119685390Y-120833333D02*
X119733009Y-120880952D01*
X119733009Y-120880952D02*
X119780628Y-120976190D01*
X119780628Y-120976190D02*
X119780628Y-121357142D01*
X119256819Y-119928571D02*
X119256819Y-120119047D01*
X119256819Y-120119047D02*
X119304438Y-120214285D01*
X119304438Y-120214285D02*
X119352057Y-120261904D01*
X119352057Y-120261904D02*
X119494914Y-120357142D01*
X119494914Y-120357142D02*
X119685390Y-120404761D01*
X119685390Y-120404761D02*
X120066342Y-120404761D01*
X120066342Y-120404761D02*
X120161580Y-120357142D01*
X120161580Y-120357142D02*
X120209200Y-120309523D01*
X120209200Y-120309523D02*
X120256819Y-120214285D01*
X120256819Y-120214285D02*
X120256819Y-120023809D01*
X120256819Y-120023809D02*
X120209200Y-119928571D01*
X120209200Y-119928571D02*
X120161580Y-119880952D01*
X120161580Y-119880952D02*
X120066342Y-119833333D01*
X120066342Y-119833333D02*
X119828247Y-119833333D01*
X119828247Y-119833333D02*
X119733009Y-119880952D01*
X119733009Y-119880952D02*
X119685390Y-119928571D01*
X119685390Y-119928571D02*
X119637771Y-120023809D01*
X119637771Y-120023809D02*
X119637771Y-120214285D01*
X119637771Y-120214285D02*
X119685390Y-120309523D01*
X119685390Y-120309523D02*
X119733009Y-120357142D01*
X119733009Y-120357142D02*
X119828247Y-120404761D01*
X119256819Y-125471904D02*
X119256819Y-124900476D01*
X120256819Y-125186190D02*
X119256819Y-125186190D01*
X120256819Y-124567142D02*
X119256819Y-124567142D01*
X119256819Y-124567142D02*
X119256819Y-124186190D01*
X119256819Y-124186190D02*
X119304438Y-124090952D01*
X119304438Y-124090952D02*
X119352057Y-124043333D01*
X119352057Y-124043333D02*
X119447295Y-123995714D01*
X119447295Y-123995714D02*
X119590152Y-123995714D01*
X119590152Y-123995714D02*
X119685390Y-124043333D01*
X119685390Y-124043333D02*
X119733009Y-124090952D01*
X119733009Y-124090952D02*
X119780628Y-124186190D01*
X119780628Y-124186190D02*
X119780628Y-124567142D01*
X119590152Y-123138571D02*
X120256819Y-123138571D01*
X119209200Y-123376666D02*
X119923485Y-123614761D01*
X119923485Y-123614761D02*
X119923485Y-122995714D01*
X166084819Y-81083333D02*
X166799104Y-81083333D01*
X166799104Y-81083333D02*
X166941961Y-81130952D01*
X166941961Y-81130952D02*
X167037200Y-81226190D01*
X167037200Y-81226190D02*
X167084819Y-81369047D01*
X167084819Y-81369047D02*
X167084819Y-81464285D01*
X166418152Y-80178571D02*
X167084819Y-80178571D01*
X166037200Y-80416666D02*
X166751485Y-80654761D01*
X166751485Y-80654761D02*
X166751485Y-80035714D01*
X140032142Y-92664580D02*
X139984523Y-92712200D01*
X139984523Y-92712200D02*
X139841666Y-92759819D01*
X139841666Y-92759819D02*
X139746428Y-92759819D01*
X139746428Y-92759819D02*
X139603571Y-92712200D01*
X139603571Y-92712200D02*
X139508333Y-92616961D01*
X139508333Y-92616961D02*
X139460714Y-92521723D01*
X139460714Y-92521723D02*
X139413095Y-92331247D01*
X139413095Y-92331247D02*
X139413095Y-92188390D01*
X139413095Y-92188390D02*
X139460714Y-91997914D01*
X139460714Y-91997914D02*
X139508333Y-91902676D01*
X139508333Y-91902676D02*
X139603571Y-91807438D01*
X139603571Y-91807438D02*
X139746428Y-91759819D01*
X139746428Y-91759819D02*
X139841666Y-91759819D01*
X139841666Y-91759819D02*
X139984523Y-91807438D01*
X139984523Y-91807438D02*
X140032142Y-91855057D01*
X140984523Y-92759819D02*
X140413095Y-92759819D01*
X140698809Y-92759819D02*
X140698809Y-91759819D01*
X140698809Y-91759819D02*
X140603571Y-91902676D01*
X140603571Y-91902676D02*
X140508333Y-91997914D01*
X140508333Y-91997914D02*
X140413095Y-92045533D01*
X141317857Y-91759819D02*
X141936904Y-91759819D01*
X141936904Y-91759819D02*
X141603571Y-92140771D01*
X141603571Y-92140771D02*
X141746428Y-92140771D01*
X141746428Y-92140771D02*
X141841666Y-92188390D01*
X141841666Y-92188390D02*
X141889285Y-92236009D01*
X141889285Y-92236009D02*
X141936904Y-92331247D01*
X141936904Y-92331247D02*
X141936904Y-92569342D01*
X141936904Y-92569342D02*
X141889285Y-92664580D01*
X141889285Y-92664580D02*
X141841666Y-92712200D01*
X141841666Y-92712200D02*
X141746428Y-92759819D01*
X141746428Y-92759819D02*
X141460714Y-92759819D01*
X141460714Y-92759819D02*
X141365476Y-92712200D01*
X141365476Y-92712200D02*
X141317857Y-92664580D01*
X155657200Y-92285714D02*
X155704819Y-92380952D01*
X155704819Y-92380952D02*
X155704819Y-92571428D01*
X155704819Y-92571428D02*
X155657200Y-92666666D01*
X155657200Y-92666666D02*
X155561961Y-92714285D01*
X155561961Y-92714285D02*
X155181009Y-92714285D01*
X155181009Y-92714285D02*
X155085771Y-92666666D01*
X155085771Y-92666666D02*
X155038152Y-92571428D01*
X155038152Y-92571428D02*
X155038152Y-92380952D01*
X155038152Y-92380952D02*
X155085771Y-92285714D01*
X155085771Y-92285714D02*
X155181009Y-92238095D01*
X155181009Y-92238095D02*
X155276247Y-92238095D01*
X155276247Y-92238095D02*
X155371485Y-92714285D01*
X155704819Y-91285714D02*
X155704819Y-91857142D01*
X155704819Y-91571428D02*
X154704819Y-91571428D01*
X154704819Y-91571428D02*
X154847676Y-91666666D01*
X154847676Y-91666666D02*
X154942914Y-91761904D01*
X154942914Y-91761904D02*
X154990533Y-91857142D01*
X126684819Y-83033333D02*
X127399104Y-83033333D01*
X127399104Y-83033333D02*
X127541961Y-83080952D01*
X127541961Y-83080952D02*
X127637200Y-83176190D01*
X127637200Y-83176190D02*
X127684819Y-83319047D01*
X127684819Y-83319047D02*
X127684819Y-83414285D01*
X126780057Y-82604761D02*
X126732438Y-82557142D01*
X126732438Y-82557142D02*
X126684819Y-82461904D01*
X126684819Y-82461904D02*
X126684819Y-82223809D01*
X126684819Y-82223809D02*
X126732438Y-82128571D01*
X126732438Y-82128571D02*
X126780057Y-82080952D01*
X126780057Y-82080952D02*
X126875295Y-82033333D01*
X126875295Y-82033333D02*
X126970533Y-82033333D01*
X126970533Y-82033333D02*
X127113390Y-82080952D01*
X127113390Y-82080952D02*
X127684819Y-82652380D01*
X127684819Y-82652380D02*
X127684819Y-82033333D01*
X134690476Y-96874819D02*
X134690476Y-97589104D01*
X134690476Y-97589104D02*
X134642857Y-97731961D01*
X134642857Y-97731961D02*
X134547619Y-97827200D01*
X134547619Y-97827200D02*
X134404762Y-97874819D01*
X134404762Y-97874819D02*
X134309524Y-97874819D01*
X135690476Y-97874819D02*
X135119048Y-97874819D01*
X135404762Y-97874819D02*
X135404762Y-96874819D01*
X135404762Y-96874819D02*
X135309524Y-97017676D01*
X135309524Y-97017676D02*
X135214286Y-97112914D01*
X135214286Y-97112914D02*
X135119048Y-97160533D01*
X136023810Y-96874819D02*
X136642857Y-96874819D01*
X136642857Y-96874819D02*
X136309524Y-97255771D01*
X136309524Y-97255771D02*
X136452381Y-97255771D01*
X136452381Y-97255771D02*
X136547619Y-97303390D01*
X136547619Y-97303390D02*
X136595238Y-97351009D01*
X136595238Y-97351009D02*
X136642857Y-97446247D01*
X136642857Y-97446247D02*
X136642857Y-97684342D01*
X136642857Y-97684342D02*
X136595238Y-97779580D01*
X136595238Y-97779580D02*
X136547619Y-97827200D01*
X136547619Y-97827200D02*
X136452381Y-97874819D01*
X136452381Y-97874819D02*
X136166667Y-97874819D01*
X136166667Y-97874819D02*
X136071429Y-97827200D01*
X136071429Y-97827200D02*
X136023810Y-97779580D01*
X135211691Y-79714900D02*
X135211691Y-80429197D01*
X135211691Y-80429197D02*
X135164072Y-80572057D01*
X135164072Y-80572057D02*
X135068832Y-80667297D01*
X135068832Y-80667297D02*
X134925973Y-80714916D01*
X134925973Y-80714916D02*
X134830733Y-80714916D01*
X136116468Y-79714900D02*
X135925989Y-79714900D01*
X135925989Y-79714900D02*
X135830749Y-79762520D01*
X135830749Y-79762520D02*
X135783129Y-79810140D01*
X135783129Y-79810140D02*
X135687890Y-79952999D01*
X135687890Y-79952999D02*
X135640270Y-80143479D01*
X135640270Y-80143479D02*
X135640270Y-80524437D01*
X135640270Y-80524437D02*
X135687890Y-80619677D01*
X135687890Y-80619677D02*
X135735509Y-80667297D01*
X135735509Y-80667297D02*
X135830749Y-80714916D01*
X135830749Y-80714916D02*
X136021228Y-80714916D01*
X136021228Y-80714916D02*
X136116468Y-80667297D01*
X136116468Y-80667297D02*
X136164088Y-80619677D01*
X136164088Y-80619677D02*
X136211707Y-80524437D01*
X136211707Y-80524437D02*
X136211707Y-80286338D01*
X136211707Y-80286338D02*
X136164088Y-80191098D01*
X136164088Y-80191098D02*
X136116468Y-80143479D01*
X136116468Y-80143479D02*
X136021228Y-80095859D01*
X136021228Y-80095859D02*
X135830749Y-80095859D01*
X135830749Y-80095859D02*
X135735509Y-80143479D01*
X135735509Y-80143479D02*
X135687890Y-80191098D01*
X135687890Y-80191098D02*
X135640270Y-80286338D01*
X139807142Y-110959580D02*
X139759523Y-111007200D01*
X139759523Y-111007200D02*
X139616666Y-111054819D01*
X139616666Y-111054819D02*
X139521428Y-111054819D01*
X139521428Y-111054819D02*
X139378571Y-111007200D01*
X139378571Y-111007200D02*
X139283333Y-110911961D01*
X139283333Y-110911961D02*
X139235714Y-110816723D01*
X139235714Y-110816723D02*
X139188095Y-110626247D01*
X139188095Y-110626247D02*
X139188095Y-110483390D01*
X139188095Y-110483390D02*
X139235714Y-110292914D01*
X139235714Y-110292914D02*
X139283333Y-110197676D01*
X139283333Y-110197676D02*
X139378571Y-110102438D01*
X139378571Y-110102438D02*
X139521428Y-110054819D01*
X139521428Y-110054819D02*
X139616666Y-110054819D01*
X139616666Y-110054819D02*
X139759523Y-110102438D01*
X139759523Y-110102438D02*
X139807142Y-110150057D01*
X140188095Y-110150057D02*
X140235714Y-110102438D01*
X140235714Y-110102438D02*
X140330952Y-110054819D01*
X140330952Y-110054819D02*
X140569047Y-110054819D01*
X140569047Y-110054819D02*
X140664285Y-110102438D01*
X140664285Y-110102438D02*
X140711904Y-110150057D01*
X140711904Y-110150057D02*
X140759523Y-110245295D01*
X140759523Y-110245295D02*
X140759523Y-110340533D01*
X140759523Y-110340533D02*
X140711904Y-110483390D01*
X140711904Y-110483390D02*
X140140476Y-111054819D01*
X140140476Y-111054819D02*
X140759523Y-111054819D01*
X141092857Y-110054819D02*
X141759523Y-110054819D01*
X141759523Y-110054819D02*
X141330952Y-111054819D01*
X160859580Y-79166666D02*
X160907200Y-79214285D01*
X160907200Y-79214285D02*
X160954819Y-79357142D01*
X160954819Y-79357142D02*
X160954819Y-79452380D01*
X160954819Y-79452380D02*
X160907200Y-79595237D01*
X160907200Y-79595237D02*
X160811961Y-79690475D01*
X160811961Y-79690475D02*
X160716723Y-79738094D01*
X160716723Y-79738094D02*
X160526247Y-79785713D01*
X160526247Y-79785713D02*
X160383390Y-79785713D01*
X160383390Y-79785713D02*
X160192914Y-79738094D01*
X160192914Y-79738094D02*
X160097676Y-79690475D01*
X160097676Y-79690475D02*
X160002438Y-79595237D01*
X160002438Y-79595237D02*
X159954819Y-79452380D01*
X159954819Y-79452380D02*
X159954819Y-79357142D01*
X159954819Y-79357142D02*
X160002438Y-79214285D01*
X160002438Y-79214285D02*
X160050057Y-79166666D01*
X159954819Y-78261904D02*
X159954819Y-78738094D01*
X159954819Y-78738094D02*
X160431009Y-78785713D01*
X160431009Y-78785713D02*
X160383390Y-78738094D01*
X160383390Y-78738094D02*
X160335771Y-78642856D01*
X160335771Y-78642856D02*
X160335771Y-78404761D01*
X160335771Y-78404761D02*
X160383390Y-78309523D01*
X160383390Y-78309523D02*
X160431009Y-78261904D01*
X160431009Y-78261904D02*
X160526247Y-78214285D01*
X160526247Y-78214285D02*
X160764342Y-78214285D01*
X160764342Y-78214285D02*
X160859580Y-78261904D01*
X160859580Y-78261904D02*
X160907200Y-78309523D01*
X160907200Y-78309523D02*
X160954819Y-78404761D01*
X160954819Y-78404761D02*
X160954819Y-78642856D01*
X160954819Y-78642856D02*
X160907200Y-78738094D01*
X160907200Y-78738094D02*
X160859580Y-78785713D01*
X128238095Y-87204819D02*
X128809523Y-87204819D01*
X128523809Y-88204819D02*
X128523809Y-87204819D01*
X129142857Y-88204819D02*
X129142857Y-87204819D01*
X129142857Y-87204819D02*
X129523809Y-87204819D01*
X129523809Y-87204819D02*
X129619047Y-87252438D01*
X129619047Y-87252438D02*
X129666666Y-87300057D01*
X129666666Y-87300057D02*
X129714285Y-87395295D01*
X129714285Y-87395295D02*
X129714285Y-87538152D01*
X129714285Y-87538152D02*
X129666666Y-87633390D01*
X129666666Y-87633390D02*
X129619047Y-87681009D01*
X129619047Y-87681009D02*
X129523809Y-87728628D01*
X129523809Y-87728628D02*
X129142857Y-87728628D01*
X130666666Y-88204819D02*
X130095238Y-88204819D01*
X130380952Y-88204819D02*
X130380952Y-87204819D01*
X130380952Y-87204819D02*
X130285714Y-87347676D01*
X130285714Y-87347676D02*
X130190476Y-87442914D01*
X130190476Y-87442914D02*
X130095238Y-87490533D01*
X128238095Y-89204819D02*
X128809523Y-89204819D01*
X128523809Y-90204819D02*
X128523809Y-89204819D01*
X129142857Y-90204819D02*
X129142857Y-89204819D01*
X129142857Y-89204819D02*
X129523809Y-89204819D01*
X129523809Y-89204819D02*
X129619047Y-89252438D01*
X129619047Y-89252438D02*
X129666666Y-89300057D01*
X129666666Y-89300057D02*
X129714285Y-89395295D01*
X129714285Y-89395295D02*
X129714285Y-89538152D01*
X129714285Y-89538152D02*
X129666666Y-89633390D01*
X129666666Y-89633390D02*
X129619047Y-89681009D01*
X129619047Y-89681009D02*
X129523809Y-89728628D01*
X129523809Y-89728628D02*
X129142857Y-89728628D01*
X130619047Y-89204819D02*
X130142857Y-89204819D01*
X130142857Y-89204819D02*
X130095238Y-89681009D01*
X130095238Y-89681009D02*
X130142857Y-89633390D01*
X130142857Y-89633390D02*
X130238095Y-89585771D01*
X130238095Y-89585771D02*
X130476190Y-89585771D01*
X130476190Y-89585771D02*
X130571428Y-89633390D01*
X130571428Y-89633390D02*
X130619047Y-89681009D01*
X130619047Y-89681009D02*
X130666666Y-89776247D01*
X130666666Y-89776247D02*
X130666666Y-90014342D01*
X130666666Y-90014342D02*
X130619047Y-90109580D01*
X130619047Y-90109580D02*
X130571428Y-90157200D01*
X130571428Y-90157200D02*
X130476190Y-90204819D01*
X130476190Y-90204819D02*
X130238095Y-90204819D01*
X130238095Y-90204819D02*
X130142857Y-90157200D01*
X130142857Y-90157200D02*
X130095238Y-90109580D01*
X145488095Y-84304819D02*
X145488095Y-85114342D01*
X145488095Y-85114342D02*
X145535714Y-85209580D01*
X145535714Y-85209580D02*
X145583333Y-85257200D01*
X145583333Y-85257200D02*
X145678571Y-85304819D01*
X145678571Y-85304819D02*
X145869047Y-85304819D01*
X145869047Y-85304819D02*
X145964285Y-85257200D01*
X145964285Y-85257200D02*
X146011904Y-85209580D01*
X146011904Y-85209580D02*
X146059523Y-85114342D01*
X146059523Y-85114342D02*
X146059523Y-84304819D01*
X147059523Y-85304819D02*
X146488095Y-85304819D01*
X146773809Y-85304819D02*
X146773809Y-84304819D01*
X146773809Y-84304819D02*
X146678571Y-84447676D01*
X146678571Y-84447676D02*
X146583333Y-84542914D01*
X146583333Y-84542914D02*
X146488095Y-84590533D01*
X154659580Y-106592857D02*
X154707200Y-106640476D01*
X154707200Y-106640476D02*
X154754819Y-106783333D01*
X154754819Y-106783333D02*
X154754819Y-106878571D01*
X154754819Y-106878571D02*
X154707200Y-107021428D01*
X154707200Y-107021428D02*
X154611961Y-107116666D01*
X154611961Y-107116666D02*
X154516723Y-107164285D01*
X154516723Y-107164285D02*
X154326247Y-107211904D01*
X154326247Y-107211904D02*
X154183390Y-107211904D01*
X154183390Y-107211904D02*
X153992914Y-107164285D01*
X153992914Y-107164285D02*
X153897676Y-107116666D01*
X153897676Y-107116666D02*
X153802438Y-107021428D01*
X153802438Y-107021428D02*
X153754819Y-106878571D01*
X153754819Y-106878571D02*
X153754819Y-106783333D01*
X153754819Y-106783333D02*
X153802438Y-106640476D01*
X153802438Y-106640476D02*
X153850057Y-106592857D01*
X153850057Y-106211904D02*
X153802438Y-106164285D01*
X153802438Y-106164285D02*
X153754819Y-106069047D01*
X153754819Y-106069047D02*
X153754819Y-105830952D01*
X153754819Y-105830952D02*
X153802438Y-105735714D01*
X153802438Y-105735714D02*
X153850057Y-105688095D01*
X153850057Y-105688095D02*
X153945295Y-105640476D01*
X153945295Y-105640476D02*
X154040533Y-105640476D01*
X154040533Y-105640476D02*
X154183390Y-105688095D01*
X154183390Y-105688095D02*
X154754819Y-106259523D01*
X154754819Y-106259523D02*
X154754819Y-105640476D01*
X154183390Y-105069047D02*
X154135771Y-105164285D01*
X154135771Y-105164285D02*
X154088152Y-105211904D01*
X154088152Y-105211904D02*
X153992914Y-105259523D01*
X153992914Y-105259523D02*
X153945295Y-105259523D01*
X153945295Y-105259523D02*
X153850057Y-105211904D01*
X153850057Y-105211904D02*
X153802438Y-105164285D01*
X153802438Y-105164285D02*
X153754819Y-105069047D01*
X153754819Y-105069047D02*
X153754819Y-104878571D01*
X153754819Y-104878571D02*
X153802438Y-104783333D01*
X153802438Y-104783333D02*
X153850057Y-104735714D01*
X153850057Y-104735714D02*
X153945295Y-104688095D01*
X153945295Y-104688095D02*
X153992914Y-104688095D01*
X153992914Y-104688095D02*
X154088152Y-104735714D01*
X154088152Y-104735714D02*
X154135771Y-104783333D01*
X154135771Y-104783333D02*
X154183390Y-104878571D01*
X154183390Y-104878571D02*
X154183390Y-105069047D01*
X154183390Y-105069047D02*
X154231009Y-105164285D01*
X154231009Y-105164285D02*
X154278628Y-105211904D01*
X154278628Y-105211904D02*
X154373866Y-105259523D01*
X154373866Y-105259523D02*
X154564342Y-105259523D01*
X154564342Y-105259523D02*
X154659580Y-105211904D01*
X154659580Y-105211904D02*
X154707200Y-105164285D01*
X154707200Y-105164285D02*
X154754819Y-105069047D01*
X154754819Y-105069047D02*
X154754819Y-104878571D01*
X154754819Y-104878571D02*
X154707200Y-104783333D01*
X154707200Y-104783333D02*
X154659580Y-104735714D01*
X154659580Y-104735714D02*
X154564342Y-104688095D01*
X154564342Y-104688095D02*
X154373866Y-104688095D01*
X154373866Y-104688095D02*
X154278628Y-104735714D01*
X154278628Y-104735714D02*
X154231009Y-104783333D01*
X154231009Y-104783333D02*
X154183390Y-104878571D01*
X152907142Y-88554580D02*
X152859523Y-88602200D01*
X152859523Y-88602200D02*
X152716666Y-88649819D01*
X152716666Y-88649819D02*
X152621428Y-88649819D01*
X152621428Y-88649819D02*
X152478571Y-88602200D01*
X152478571Y-88602200D02*
X152383333Y-88506961D01*
X152383333Y-88506961D02*
X152335714Y-88411723D01*
X152335714Y-88411723D02*
X152288095Y-88221247D01*
X152288095Y-88221247D02*
X152288095Y-88078390D01*
X152288095Y-88078390D02*
X152335714Y-87887914D01*
X152335714Y-87887914D02*
X152383333Y-87792676D01*
X152383333Y-87792676D02*
X152478571Y-87697438D01*
X152478571Y-87697438D02*
X152621428Y-87649819D01*
X152621428Y-87649819D02*
X152716666Y-87649819D01*
X152716666Y-87649819D02*
X152859523Y-87697438D01*
X152859523Y-87697438D02*
X152907142Y-87745057D01*
X153859523Y-88649819D02*
X153288095Y-88649819D01*
X153573809Y-88649819D02*
X153573809Y-87649819D01*
X153573809Y-87649819D02*
X153478571Y-87792676D01*
X153478571Y-87792676D02*
X153383333Y-87887914D01*
X153383333Y-87887914D02*
X153288095Y-87935533D01*
X154240476Y-87745057D02*
X154288095Y-87697438D01*
X154288095Y-87697438D02*
X154383333Y-87649819D01*
X154383333Y-87649819D02*
X154621428Y-87649819D01*
X154621428Y-87649819D02*
X154716666Y-87697438D01*
X154716666Y-87697438D02*
X154764285Y-87745057D01*
X154764285Y-87745057D02*
X154811904Y-87840295D01*
X154811904Y-87840295D02*
X154811904Y-87935533D01*
X154811904Y-87935533D02*
X154764285Y-88078390D01*
X154764285Y-88078390D02*
X154192857Y-88649819D01*
X154192857Y-88649819D02*
X154811904Y-88649819D01*
X157004819Y-120354166D02*
X156528628Y-120687499D01*
X157004819Y-120925594D02*
X156004819Y-120925594D01*
X156004819Y-120925594D02*
X156004819Y-120544642D01*
X156004819Y-120544642D02*
X156052438Y-120449404D01*
X156052438Y-120449404D02*
X156100057Y-120401785D01*
X156100057Y-120401785D02*
X156195295Y-120354166D01*
X156195295Y-120354166D02*
X156338152Y-120354166D01*
X156338152Y-120354166D02*
X156433390Y-120401785D01*
X156433390Y-120401785D02*
X156481009Y-120449404D01*
X156481009Y-120449404D02*
X156528628Y-120544642D01*
X156528628Y-120544642D02*
X156528628Y-120925594D01*
X156338152Y-119497023D02*
X157004819Y-119497023D01*
X155957200Y-119735118D02*
X156671485Y-119973213D01*
X156671485Y-119973213D02*
X156671485Y-119354166D01*
X150909819Y-69573333D02*
X151624104Y-69573333D01*
X151624104Y-69573333D02*
X151766961Y-69620952D01*
X151766961Y-69620952D02*
X151862200Y-69716190D01*
X151862200Y-69716190D02*
X151909819Y-69859047D01*
X151909819Y-69859047D02*
X151909819Y-69954285D01*
X150909819Y-68620952D02*
X150909819Y-69097142D01*
X150909819Y-69097142D02*
X151386009Y-69144761D01*
X151386009Y-69144761D02*
X151338390Y-69097142D01*
X151338390Y-69097142D02*
X151290771Y-69001904D01*
X151290771Y-69001904D02*
X151290771Y-68763809D01*
X151290771Y-68763809D02*
X151338390Y-68668571D01*
X151338390Y-68668571D02*
X151386009Y-68620952D01*
X151386009Y-68620952D02*
X151481247Y-68573333D01*
X151481247Y-68573333D02*
X151719342Y-68573333D01*
X151719342Y-68573333D02*
X151814580Y-68620952D01*
X151814580Y-68620952D02*
X151862200Y-68668571D01*
X151862200Y-68668571D02*
X151909819Y-68763809D01*
X151909819Y-68763809D02*
X151909819Y-69001904D01*
X151909819Y-69001904D02*
X151862200Y-69097142D01*
X151862200Y-69097142D02*
X151814580Y-69144761D01*
X120019819Y-81113094D02*
X119019819Y-81113094D01*
X119019819Y-81113094D02*
X119019819Y-80874999D01*
X119019819Y-80874999D02*
X119067438Y-80732142D01*
X119067438Y-80732142D02*
X119162676Y-80636904D01*
X119162676Y-80636904D02*
X119257914Y-80589285D01*
X119257914Y-80589285D02*
X119448390Y-80541666D01*
X119448390Y-80541666D02*
X119591247Y-80541666D01*
X119591247Y-80541666D02*
X119781723Y-80589285D01*
X119781723Y-80589285D02*
X119876961Y-80636904D01*
X119876961Y-80636904D02*
X119972200Y-80732142D01*
X119972200Y-80732142D02*
X120019819Y-80874999D01*
X120019819Y-80874999D02*
X120019819Y-81113094D01*
X120019819Y-79589285D02*
X120019819Y-80160713D01*
X120019819Y-79874999D02*
X119019819Y-79874999D01*
X119019819Y-79874999D02*
X119162676Y-79970237D01*
X119162676Y-79970237D02*
X119257914Y-80065475D01*
X119257914Y-80065475D02*
X119305533Y-80160713D01*
D13*
X145324318Y-116739762D02*
X144054318Y-116739762D01*
X145203365Y-115409285D02*
X145263842Y-115469761D01*
X145263842Y-115469761D02*
X145324318Y-115651190D01*
X145324318Y-115651190D02*
X145324318Y-115772142D01*
X145324318Y-115772142D02*
X145263842Y-115953571D01*
X145263842Y-115953571D02*
X145142889Y-116074523D01*
X145142889Y-116074523D02*
X145021937Y-116135000D01*
X145021937Y-116135000D02*
X144780032Y-116195476D01*
X144780032Y-116195476D02*
X144598603Y-116195476D01*
X144598603Y-116195476D02*
X144356699Y-116135000D01*
X144356699Y-116135000D02*
X144235746Y-116074523D01*
X144235746Y-116074523D02*
X144114794Y-115953571D01*
X144114794Y-115953571D02*
X144054318Y-115772142D01*
X144054318Y-115772142D02*
X144054318Y-115651190D01*
X144054318Y-115651190D02*
X144114794Y-115469761D01*
X144114794Y-115469761D02*
X144175270Y-115409285D01*
X145324318Y-114199761D02*
X145324318Y-114925476D01*
X145324318Y-114562619D02*
X144054318Y-114562619D01*
X144054318Y-114562619D02*
X144235746Y-114683571D01*
X144235746Y-114683571D02*
X144356699Y-114804523D01*
X144356699Y-114804523D02*
X144417175Y-114925476D01*
D12*
X177938095Y-130154819D02*
X177938095Y-129154819D01*
X177938095Y-129631009D02*
X178509523Y-129631009D01*
X178509523Y-130154819D02*
X178509523Y-129154819D01*
X178890476Y-129154819D02*
X179509523Y-129154819D01*
X179509523Y-129154819D02*
X179176190Y-129535771D01*
X179176190Y-129535771D02*
X179319047Y-129535771D01*
X179319047Y-129535771D02*
X179414285Y-129583390D01*
X179414285Y-129583390D02*
X179461904Y-129631009D01*
X179461904Y-129631009D02*
X179509523Y-129726247D01*
X179509523Y-129726247D02*
X179509523Y-129964342D01*
X179509523Y-129964342D02*
X179461904Y-130059580D01*
X179461904Y-130059580D02*
X179414285Y-130107200D01*
X179414285Y-130107200D02*
X179319047Y-130154819D01*
X179319047Y-130154819D02*
X179033333Y-130154819D01*
X179033333Y-130154819D02*
X178938095Y-130107200D01*
X178938095Y-130107200D02*
X178890476Y-130059580D01*
X129166666Y-91204819D02*
X129166666Y-91919104D01*
X129166666Y-91919104D02*
X129119047Y-92061961D01*
X129119047Y-92061961D02*
X129023809Y-92157200D01*
X129023809Y-92157200D02*
X128880952Y-92204819D01*
X128880952Y-92204819D02*
X128785714Y-92204819D01*
X129785714Y-91633390D02*
X129690476Y-91585771D01*
X129690476Y-91585771D02*
X129642857Y-91538152D01*
X129642857Y-91538152D02*
X129595238Y-91442914D01*
X129595238Y-91442914D02*
X129595238Y-91395295D01*
X129595238Y-91395295D02*
X129642857Y-91300057D01*
X129642857Y-91300057D02*
X129690476Y-91252438D01*
X129690476Y-91252438D02*
X129785714Y-91204819D01*
X129785714Y-91204819D02*
X129976190Y-91204819D01*
X129976190Y-91204819D02*
X130071428Y-91252438D01*
X130071428Y-91252438D02*
X130119047Y-91300057D01*
X130119047Y-91300057D02*
X130166666Y-91395295D01*
X130166666Y-91395295D02*
X130166666Y-91442914D01*
X130166666Y-91442914D02*
X130119047Y-91538152D01*
X130119047Y-91538152D02*
X130071428Y-91585771D01*
X130071428Y-91585771D02*
X129976190Y-91633390D01*
X129976190Y-91633390D02*
X129785714Y-91633390D01*
X129785714Y-91633390D02*
X129690476Y-91681009D01*
X129690476Y-91681009D02*
X129642857Y-91728628D01*
X129642857Y-91728628D02*
X129595238Y-91823866D01*
X129595238Y-91823866D02*
X129595238Y-92014342D01*
X129595238Y-92014342D02*
X129642857Y-92109580D01*
X129642857Y-92109580D02*
X129690476Y-92157200D01*
X129690476Y-92157200D02*
X129785714Y-92204819D01*
X129785714Y-92204819D02*
X129976190Y-92204819D01*
X129976190Y-92204819D02*
X130071428Y-92157200D01*
X130071428Y-92157200D02*
X130119047Y-92109580D01*
X130119047Y-92109580D02*
X130166666Y-92014342D01*
X130166666Y-92014342D02*
X130166666Y-91823866D01*
X130166666Y-91823866D02*
X130119047Y-91728628D01*
X130119047Y-91728628D02*
X130071428Y-91681009D01*
X130071428Y-91681009D02*
X129976190Y-91633390D01*
X162066666Y-101701009D02*
X161733333Y-101701009D01*
X161733333Y-102224819D02*
X161733333Y-101224819D01*
X161733333Y-101224819D02*
X162209523Y-101224819D01*
X162923809Y-101701009D02*
X163066666Y-101748628D01*
X163066666Y-101748628D02*
X163114285Y-101796247D01*
X163114285Y-101796247D02*
X163161904Y-101891485D01*
X163161904Y-101891485D02*
X163161904Y-102034342D01*
X163161904Y-102034342D02*
X163114285Y-102129580D01*
X163114285Y-102129580D02*
X163066666Y-102177200D01*
X163066666Y-102177200D02*
X162971428Y-102224819D01*
X162971428Y-102224819D02*
X162590476Y-102224819D01*
X162590476Y-102224819D02*
X162590476Y-101224819D01*
X162590476Y-101224819D02*
X162923809Y-101224819D01*
X162923809Y-101224819D02*
X163019047Y-101272438D01*
X163019047Y-101272438D02*
X163066666Y-101320057D01*
X163066666Y-101320057D02*
X163114285Y-101415295D01*
X163114285Y-101415295D02*
X163114285Y-101510533D01*
X163114285Y-101510533D02*
X163066666Y-101605771D01*
X163066666Y-101605771D02*
X163019047Y-101653390D01*
X163019047Y-101653390D02*
X162923809Y-101701009D01*
X162923809Y-101701009D02*
X162590476Y-101701009D01*
X163542857Y-101320057D02*
X163590476Y-101272438D01*
X163590476Y-101272438D02*
X163685714Y-101224819D01*
X163685714Y-101224819D02*
X163923809Y-101224819D01*
X163923809Y-101224819D02*
X164019047Y-101272438D01*
X164019047Y-101272438D02*
X164066666Y-101320057D01*
X164066666Y-101320057D02*
X164114285Y-101415295D01*
X164114285Y-101415295D02*
X164114285Y-101510533D01*
X164114285Y-101510533D02*
X164066666Y-101653390D01*
X164066666Y-101653390D02*
X163495238Y-102224819D01*
X163495238Y-102224819D02*
X164114285Y-102224819D01*
X164039580Y-117166666D02*
X164087200Y-117214285D01*
X164087200Y-117214285D02*
X164134819Y-117357142D01*
X164134819Y-117357142D02*
X164134819Y-117452380D01*
X164134819Y-117452380D02*
X164087200Y-117595237D01*
X164087200Y-117595237D02*
X163991961Y-117690475D01*
X163991961Y-117690475D02*
X163896723Y-117738094D01*
X163896723Y-117738094D02*
X163706247Y-117785713D01*
X163706247Y-117785713D02*
X163563390Y-117785713D01*
X163563390Y-117785713D02*
X163372914Y-117738094D01*
X163372914Y-117738094D02*
X163277676Y-117690475D01*
X163277676Y-117690475D02*
X163182438Y-117595237D01*
X163182438Y-117595237D02*
X163134819Y-117452380D01*
X163134819Y-117452380D02*
X163134819Y-117357142D01*
X163134819Y-117357142D02*
X163182438Y-117214285D01*
X163182438Y-117214285D02*
X163230057Y-117166666D01*
X163468152Y-116309523D02*
X164134819Y-116309523D01*
X163087200Y-116547618D02*
X163801485Y-116785713D01*
X163801485Y-116785713D02*
X163801485Y-116166666D01*
X123954819Y-120333333D02*
X124669104Y-120333333D01*
X124669104Y-120333333D02*
X124811961Y-120380952D01*
X124811961Y-120380952D02*
X124907200Y-120476190D01*
X124907200Y-120476190D02*
X124954819Y-120619047D01*
X124954819Y-120619047D02*
X124954819Y-120714285D01*
X124954819Y-119809523D02*
X124954819Y-119619047D01*
X124954819Y-119619047D02*
X124907200Y-119523809D01*
X124907200Y-119523809D02*
X124859580Y-119476190D01*
X124859580Y-119476190D02*
X124716723Y-119380952D01*
X124716723Y-119380952D02*
X124526247Y-119333333D01*
X124526247Y-119333333D02*
X124145295Y-119333333D01*
X124145295Y-119333333D02*
X124050057Y-119380952D01*
X124050057Y-119380952D02*
X124002438Y-119428571D01*
X124002438Y-119428571D02*
X123954819Y-119523809D01*
X123954819Y-119523809D02*
X123954819Y-119714285D01*
X123954819Y-119714285D02*
X124002438Y-119809523D01*
X124002438Y-119809523D02*
X124050057Y-119857142D01*
X124050057Y-119857142D02*
X124145295Y-119904761D01*
X124145295Y-119904761D02*
X124383390Y-119904761D01*
X124383390Y-119904761D02*
X124478628Y-119857142D01*
X124478628Y-119857142D02*
X124526247Y-119809523D01*
X124526247Y-119809523D02*
X124573866Y-119714285D01*
X124573866Y-119714285D02*
X124573866Y-119523809D01*
X124573866Y-119523809D02*
X124526247Y-119428571D01*
X124526247Y-119428571D02*
X124478628Y-119380952D01*
X124478628Y-119380952D02*
X124383390Y-119333333D01*
X169458333Y-77889819D02*
X169125000Y-77413628D01*
X168886905Y-77889819D02*
X168886905Y-76889819D01*
X168886905Y-76889819D02*
X169267857Y-76889819D01*
X169267857Y-76889819D02*
X169363095Y-76937438D01*
X169363095Y-76937438D02*
X169410714Y-76985057D01*
X169410714Y-76985057D02*
X169458333Y-77080295D01*
X169458333Y-77080295D02*
X169458333Y-77223152D01*
X169458333Y-77223152D02*
X169410714Y-77318390D01*
X169410714Y-77318390D02*
X169363095Y-77366009D01*
X169363095Y-77366009D02*
X169267857Y-77413628D01*
X169267857Y-77413628D02*
X168886905Y-77413628D01*
X169791667Y-76889819D02*
X170410714Y-76889819D01*
X170410714Y-76889819D02*
X170077381Y-77270771D01*
X170077381Y-77270771D02*
X170220238Y-77270771D01*
X170220238Y-77270771D02*
X170315476Y-77318390D01*
X170315476Y-77318390D02*
X170363095Y-77366009D01*
X170363095Y-77366009D02*
X170410714Y-77461247D01*
X170410714Y-77461247D02*
X170410714Y-77699342D01*
X170410714Y-77699342D02*
X170363095Y-77794580D01*
X170363095Y-77794580D02*
X170315476Y-77842200D01*
X170315476Y-77842200D02*
X170220238Y-77889819D01*
X170220238Y-77889819D02*
X169934524Y-77889819D01*
X169934524Y-77889819D02*
X169839286Y-77842200D01*
X169839286Y-77842200D02*
X169791667Y-77794580D01*
X120538095Y-130154819D02*
X120538095Y-129154819D01*
X120538095Y-129631009D02*
X121109523Y-129631009D01*
X121109523Y-130154819D02*
X121109523Y-129154819D01*
X121538095Y-129250057D02*
X121585714Y-129202438D01*
X121585714Y-129202438D02*
X121680952Y-129154819D01*
X121680952Y-129154819D02*
X121919047Y-129154819D01*
X121919047Y-129154819D02*
X122014285Y-129202438D01*
X122014285Y-129202438D02*
X122061904Y-129250057D01*
X122061904Y-129250057D02*
X122109523Y-129345295D01*
X122109523Y-129345295D02*
X122109523Y-129440533D01*
X122109523Y-129440533D02*
X122061904Y-129583390D01*
X122061904Y-129583390D02*
X121490476Y-130154819D01*
X121490476Y-130154819D02*
X122109523Y-130154819D01*
X159457142Y-108859580D02*
X159409523Y-108907200D01*
X159409523Y-108907200D02*
X159266666Y-108954819D01*
X159266666Y-108954819D02*
X159171428Y-108954819D01*
X159171428Y-108954819D02*
X159028571Y-108907200D01*
X159028571Y-108907200D02*
X158933333Y-108811961D01*
X158933333Y-108811961D02*
X158885714Y-108716723D01*
X158885714Y-108716723D02*
X158838095Y-108526247D01*
X158838095Y-108526247D02*
X158838095Y-108383390D01*
X158838095Y-108383390D02*
X158885714Y-108192914D01*
X158885714Y-108192914D02*
X158933333Y-108097676D01*
X158933333Y-108097676D02*
X159028571Y-108002438D01*
X159028571Y-108002438D02*
X159171428Y-107954819D01*
X159171428Y-107954819D02*
X159266666Y-107954819D01*
X159266666Y-107954819D02*
X159409523Y-108002438D01*
X159409523Y-108002438D02*
X159457142Y-108050057D01*
X159838095Y-108050057D02*
X159885714Y-108002438D01*
X159885714Y-108002438D02*
X159980952Y-107954819D01*
X159980952Y-107954819D02*
X160219047Y-107954819D01*
X160219047Y-107954819D02*
X160314285Y-108002438D01*
X160314285Y-108002438D02*
X160361904Y-108050057D01*
X160361904Y-108050057D02*
X160409523Y-108145295D01*
X160409523Y-108145295D02*
X160409523Y-108240533D01*
X160409523Y-108240533D02*
X160361904Y-108383390D01*
X160361904Y-108383390D02*
X159790476Y-108954819D01*
X159790476Y-108954819D02*
X160409523Y-108954819D01*
X161266666Y-108288152D02*
X161266666Y-108954819D01*
X161028571Y-107907200D02*
X160790476Y-108621485D01*
X160790476Y-108621485D02*
X161409523Y-108621485D01*
X152907142Y-86354580D02*
X152859523Y-86402200D01*
X152859523Y-86402200D02*
X152716666Y-86449819D01*
X152716666Y-86449819D02*
X152621428Y-86449819D01*
X152621428Y-86449819D02*
X152478571Y-86402200D01*
X152478571Y-86402200D02*
X152383333Y-86306961D01*
X152383333Y-86306961D02*
X152335714Y-86211723D01*
X152335714Y-86211723D02*
X152288095Y-86021247D01*
X152288095Y-86021247D02*
X152288095Y-85878390D01*
X152288095Y-85878390D02*
X152335714Y-85687914D01*
X152335714Y-85687914D02*
X152383333Y-85592676D01*
X152383333Y-85592676D02*
X152478571Y-85497438D01*
X152478571Y-85497438D02*
X152621428Y-85449819D01*
X152621428Y-85449819D02*
X152716666Y-85449819D01*
X152716666Y-85449819D02*
X152859523Y-85497438D01*
X152859523Y-85497438D02*
X152907142Y-85545057D01*
X153859523Y-86449819D02*
X153288095Y-86449819D01*
X153573809Y-86449819D02*
X153573809Y-85449819D01*
X153573809Y-85449819D02*
X153478571Y-85592676D01*
X153478571Y-85592676D02*
X153383333Y-85687914D01*
X153383333Y-85687914D02*
X153288095Y-85735533D01*
X154716666Y-85783152D02*
X154716666Y-86449819D01*
X154478571Y-85402200D02*
X154240476Y-86116485D01*
X154240476Y-86116485D02*
X154859523Y-86116485D01*
X139607142Y-106609580D02*
X139559523Y-106657200D01*
X139559523Y-106657200D02*
X139416666Y-106704819D01*
X139416666Y-106704819D02*
X139321428Y-106704819D01*
X139321428Y-106704819D02*
X139178571Y-106657200D01*
X139178571Y-106657200D02*
X139083333Y-106561961D01*
X139083333Y-106561961D02*
X139035714Y-106466723D01*
X139035714Y-106466723D02*
X138988095Y-106276247D01*
X138988095Y-106276247D02*
X138988095Y-106133390D01*
X138988095Y-106133390D02*
X139035714Y-105942914D01*
X139035714Y-105942914D02*
X139083333Y-105847676D01*
X139083333Y-105847676D02*
X139178571Y-105752438D01*
X139178571Y-105752438D02*
X139321428Y-105704819D01*
X139321428Y-105704819D02*
X139416666Y-105704819D01*
X139416666Y-105704819D02*
X139559523Y-105752438D01*
X139559523Y-105752438D02*
X139607142Y-105800057D01*
X139988095Y-105800057D02*
X140035714Y-105752438D01*
X140035714Y-105752438D02*
X140130952Y-105704819D01*
X140130952Y-105704819D02*
X140369047Y-105704819D01*
X140369047Y-105704819D02*
X140464285Y-105752438D01*
X140464285Y-105752438D02*
X140511904Y-105800057D01*
X140511904Y-105800057D02*
X140559523Y-105895295D01*
X140559523Y-105895295D02*
X140559523Y-105990533D01*
X140559523Y-105990533D02*
X140511904Y-106133390D01*
X140511904Y-106133390D02*
X139940476Y-106704819D01*
X139940476Y-106704819D02*
X140559523Y-106704819D01*
X140940476Y-105800057D02*
X140988095Y-105752438D01*
X140988095Y-105752438D02*
X141083333Y-105704819D01*
X141083333Y-105704819D02*
X141321428Y-105704819D01*
X141321428Y-105704819D02*
X141416666Y-105752438D01*
X141416666Y-105752438D02*
X141464285Y-105800057D01*
X141464285Y-105800057D02*
X141511904Y-105895295D01*
X141511904Y-105895295D02*
X141511904Y-105990533D01*
X141511904Y-105990533D02*
X141464285Y-106133390D01*
X141464285Y-106133390D02*
X140892857Y-106704819D01*
X140892857Y-106704819D02*
X141511904Y-106704819D01*
X134690476Y-86584819D02*
X134690476Y-87299104D01*
X134690476Y-87299104D02*
X134642857Y-87441961D01*
X134642857Y-87441961D02*
X134547619Y-87537200D01*
X134547619Y-87537200D02*
X134404762Y-87584819D01*
X134404762Y-87584819D02*
X134309524Y-87584819D01*
X135690476Y-87584819D02*
X135119048Y-87584819D01*
X135404762Y-87584819D02*
X135404762Y-86584819D01*
X135404762Y-86584819D02*
X135309524Y-86727676D01*
X135309524Y-86727676D02*
X135214286Y-86822914D01*
X135214286Y-86822914D02*
X135119048Y-86870533D01*
X136309524Y-86584819D02*
X136404762Y-86584819D01*
X136404762Y-86584819D02*
X136500000Y-86632438D01*
X136500000Y-86632438D02*
X136547619Y-86680057D01*
X136547619Y-86680057D02*
X136595238Y-86775295D01*
X136595238Y-86775295D02*
X136642857Y-86965771D01*
X136642857Y-86965771D02*
X136642857Y-87203866D01*
X136642857Y-87203866D02*
X136595238Y-87394342D01*
X136595238Y-87394342D02*
X136547619Y-87489580D01*
X136547619Y-87489580D02*
X136500000Y-87537200D01*
X136500000Y-87537200D02*
X136404762Y-87584819D01*
X136404762Y-87584819D02*
X136309524Y-87584819D01*
X136309524Y-87584819D02*
X136214286Y-87537200D01*
X136214286Y-87537200D02*
X136166667Y-87489580D01*
X136166667Y-87489580D02*
X136119048Y-87394342D01*
X136119048Y-87394342D02*
X136071429Y-87203866D01*
X136071429Y-87203866D02*
X136071429Y-86965771D01*
X136071429Y-86965771D02*
X136119048Y-86775295D01*
X136119048Y-86775295D02*
X136166667Y-86680057D01*
X136166667Y-86680057D02*
X136214286Y-86632438D01*
X136214286Y-86632438D02*
X136309524Y-86584819D01*
X139383333Y-84654580D02*
X139335714Y-84702200D01*
X139335714Y-84702200D02*
X139192857Y-84749819D01*
X139192857Y-84749819D02*
X139097619Y-84749819D01*
X139097619Y-84749819D02*
X138954762Y-84702200D01*
X138954762Y-84702200D02*
X138859524Y-84606961D01*
X138859524Y-84606961D02*
X138811905Y-84511723D01*
X138811905Y-84511723D02*
X138764286Y-84321247D01*
X138764286Y-84321247D02*
X138764286Y-84178390D01*
X138764286Y-84178390D02*
X138811905Y-83987914D01*
X138811905Y-83987914D02*
X138859524Y-83892676D01*
X138859524Y-83892676D02*
X138954762Y-83797438D01*
X138954762Y-83797438D02*
X139097619Y-83749819D01*
X139097619Y-83749819D02*
X139192857Y-83749819D01*
X139192857Y-83749819D02*
X139335714Y-83797438D01*
X139335714Y-83797438D02*
X139383333Y-83845057D01*
X139859524Y-84749819D02*
X140050000Y-84749819D01*
X140050000Y-84749819D02*
X140145238Y-84702200D01*
X140145238Y-84702200D02*
X140192857Y-84654580D01*
X140192857Y-84654580D02*
X140288095Y-84511723D01*
X140288095Y-84511723D02*
X140335714Y-84321247D01*
X140335714Y-84321247D02*
X140335714Y-83940295D01*
X140335714Y-83940295D02*
X140288095Y-83845057D01*
X140288095Y-83845057D02*
X140240476Y-83797438D01*
X140240476Y-83797438D02*
X140145238Y-83749819D01*
X140145238Y-83749819D02*
X139954762Y-83749819D01*
X139954762Y-83749819D02*
X139859524Y-83797438D01*
X139859524Y-83797438D02*
X139811905Y-83845057D01*
X139811905Y-83845057D02*
X139764286Y-83940295D01*
X139764286Y-83940295D02*
X139764286Y-84178390D01*
X139764286Y-84178390D02*
X139811905Y-84273628D01*
X139811905Y-84273628D02*
X139859524Y-84321247D01*
X139859524Y-84321247D02*
X139954762Y-84368866D01*
X139954762Y-84368866D02*
X140145238Y-84368866D01*
X140145238Y-84368866D02*
X140240476Y-84321247D01*
X140240476Y-84321247D02*
X140288095Y-84273628D01*
X140288095Y-84273628D02*
X140335714Y-84178390D01*
X168538095Y-85024819D02*
X168538095Y-85834342D01*
X168538095Y-85834342D02*
X168585714Y-85929580D01*
X168585714Y-85929580D02*
X168633333Y-85977200D01*
X168633333Y-85977200D02*
X168728571Y-86024819D01*
X168728571Y-86024819D02*
X168919047Y-86024819D01*
X168919047Y-86024819D02*
X169014285Y-85977200D01*
X169014285Y-85977200D02*
X169061904Y-85929580D01*
X169061904Y-85929580D02*
X169109523Y-85834342D01*
X169109523Y-85834342D02*
X169109523Y-85024819D01*
X169490476Y-85024819D02*
X170109523Y-85024819D01*
X170109523Y-85024819D02*
X169776190Y-85405771D01*
X169776190Y-85405771D02*
X169919047Y-85405771D01*
X169919047Y-85405771D02*
X170014285Y-85453390D01*
X170014285Y-85453390D02*
X170061904Y-85501009D01*
X170061904Y-85501009D02*
X170109523Y-85596247D01*
X170109523Y-85596247D02*
X170109523Y-85834342D01*
X170109523Y-85834342D02*
X170061904Y-85929580D01*
X170061904Y-85929580D02*
X170014285Y-85977200D01*
X170014285Y-85977200D02*
X169919047Y-86024819D01*
X169919047Y-86024819D02*
X169633333Y-86024819D01*
X169633333Y-86024819D02*
X169538095Y-85977200D01*
X169538095Y-85977200D02*
X169490476Y-85929580D01*
D14*
%TO.C,C20*%
X157211252Y-109665000D02*
X156688748Y-109665000D01*
X157211252Y-111135000D02*
X156688748Y-111135000D01*
%TO.C,TP3*%
X142975000Y-98605000D02*
X144375000Y-98605000D01*
X142975000Y-100005000D02*
X142975000Y-98605000D01*
X144375000Y-98605000D02*
X144375000Y-100005000D01*
X144375000Y-100005000D02*
X142975000Y-100005000D01*
%TO.C,C30*%
X149365000Y-108838748D02*
X149365000Y-109361252D01*
X150835000Y-108838748D02*
X150835000Y-109361252D01*
%TO.C,J3*%
X162920000Y-69525000D02*
X162920000Y-72185000D01*
X162920000Y-72185000D02*
X168120000Y-72185000D01*
X162980000Y-74895000D02*
X162980000Y-73625000D01*
X163870000Y-63525000D02*
X164630000Y-63525000D01*
X163870000Y-69525000D02*
X163870000Y-63525000D01*
X163870000Y-72515000D02*
X163870000Y-72185000D01*
X163930000Y-69525000D02*
X163930000Y-63525000D01*
X164050000Y-69525000D02*
X164050000Y-63525000D01*
X164170000Y-69525000D02*
X164170000Y-63525000D01*
X164250000Y-74895000D02*
X162980000Y-74895000D01*
X164290000Y-69525000D02*
X164290000Y-63525000D01*
X164410000Y-69525000D02*
X164410000Y-63525000D01*
X164530000Y-69525000D02*
X164530000Y-63525000D01*
X164630000Y-63525000D02*
X164630000Y-69525000D01*
X164630000Y-72515000D02*
X164630000Y-72185000D01*
X165520000Y-72185000D02*
X165520000Y-69525000D01*
X166410000Y-63525000D02*
X167170000Y-63525000D01*
X166410000Y-69525000D02*
X166410000Y-63525000D01*
X166410000Y-72582071D02*
X166410000Y-72185000D01*
X167170000Y-63525000D02*
X167170000Y-69525000D01*
X167170000Y-72582071D02*
X167170000Y-72185000D01*
X168120000Y-69525000D02*
X162920000Y-69525000D01*
X168120000Y-72185000D02*
X168120000Y-69525000D01*
%TO.C,C15*%
X140363748Y-95470000D02*
X140886252Y-95470000D01*
X140363748Y-96940000D02*
X140886252Y-96940000D01*
%TO.C,TP2*%
X148850000Y-83195000D02*
X150250000Y-83195000D01*
X148850000Y-84595000D02*
X148850000Y-83195000D01*
X150250000Y-83195000D02*
X150250000Y-84595000D01*
X150250000Y-84595000D02*
X148850000Y-84595000D01*
%TO.C,C21*%
X144165000Y-120511252D02*
X144165000Y-119988748D01*
X145635000Y-120511252D02*
X145635000Y-119988748D01*
%TO.C,C7*%
X178015000Y-91811252D02*
X178015000Y-91288748D01*
X179485000Y-91811252D02*
X179485000Y-91288748D01*
%TO.C,J12*%
X118525000Y-101540000D02*
X124525000Y-101540000D01*
X118525000Y-102300000D02*
X118525000Y-101540000D01*
X118525000Y-104080000D02*
X124525000Y-104080000D01*
X118525000Y-104840000D02*
X118525000Y-104080000D01*
X124525000Y-100590000D02*
X124525000Y-105790000D01*
X124525000Y-102300000D02*
X118525000Y-102300000D01*
X124525000Y-104180000D02*
X118525000Y-104180000D01*
X124525000Y-104300000D02*
X118525000Y-104300000D01*
X124525000Y-104420000D02*
X118525000Y-104420000D01*
X124525000Y-104540000D02*
X118525000Y-104540000D01*
X124525000Y-104660000D02*
X118525000Y-104660000D01*
X124525000Y-104780000D02*
X118525000Y-104780000D01*
X124525000Y-104840000D02*
X118525000Y-104840000D01*
X124525000Y-105790000D02*
X127185000Y-105790000D01*
X127185000Y-100590000D02*
X124525000Y-100590000D01*
X127185000Y-103190000D02*
X124525000Y-103190000D01*
X127185000Y-105790000D02*
X127185000Y-100590000D01*
X127515000Y-104080000D02*
X127185000Y-104080000D01*
X127515000Y-104840000D02*
X127185000Y-104840000D01*
X127582071Y-101540000D02*
X127185000Y-101540000D01*
X127582071Y-102300000D02*
X127185000Y-102300000D01*
X129895000Y-104460000D02*
X129895000Y-105730000D01*
X129895000Y-105730000D02*
X128625000Y-105730000D01*
%TO.C,C11*%
X152236252Y-93370000D02*
X151713748Y-93370000D01*
X152236252Y-94840000D02*
X151713748Y-94840000D01*
%TO.C,C6*%
X158988748Y-103015000D02*
X159511252Y-103015000D01*
X158988748Y-104485000D02*
X159511252Y-104485000D01*
%TO.C,U2*%
X146250000Y-92940000D02*
X144300000Y-92940000D01*
X146250000Y-92940000D02*
X148200000Y-92940000D01*
X146250000Y-98060000D02*
X144300000Y-98060000D01*
X146250000Y-98060000D02*
X148200000Y-98060000D01*
X149190000Y-98295000D02*
X148710000Y-98295000D01*
X148950000Y-97965000D01*
X149190000Y-98295000D01*
G36*
X149190000Y-98295000D02*
G01*
X148710000Y-98295000D01*
X148950000Y-97965000D01*
X149190000Y-98295000D01*
G37*
%TO.C,FB3*%
X145640000Y-109449622D02*
X145640000Y-108650378D01*
X146760000Y-109449622D02*
X146760000Y-108650378D01*
%TO.C,C2*%
X171988748Y-84015000D02*
X172511252Y-84015000D01*
X171988748Y-85485000D02*
X172511252Y-85485000D01*
%TO.C,R2*%
X172147936Y-74700000D02*
X172602064Y-74700000D01*
X172147936Y-76170000D02*
X172602064Y-76170000D01*
%TO.C,C26*%
X151365000Y-108838748D02*
X151365000Y-109361252D01*
X152835000Y-108838748D02*
X152835000Y-109361252D01*
%TO.C,C18*%
X158638748Y-99335000D02*
X159161252Y-99335000D01*
X158638748Y-100805000D02*
X159161252Y-100805000D01*
%TO.C,R1*%
X118765000Y-87647936D02*
X118765000Y-88102064D01*
X120235000Y-87647936D02*
X120235000Y-88102064D01*
%TO.C,FB1*%
X152374622Y-95545000D02*
X151575378Y-95545000D01*
X152374622Y-96665000D02*
X151575378Y-96665000D01*
%TO.C,C19*%
X157211252Y-111665000D02*
X156688748Y-111665000D01*
X157211252Y-113135000D02*
X156688748Y-113135000D01*
%TO.C,C10*%
X141938748Y-87660000D02*
X142461252Y-87660000D01*
X141938748Y-89130000D02*
X142461252Y-89130000D01*
%TO.C,C23*%
X147365000Y-108838748D02*
X147365000Y-109361252D01*
X148835000Y-108838748D02*
X148835000Y-109361252D01*
%TO.C,J1*%
X141645000Y-69525000D02*
X141645000Y-72185000D01*
X141645000Y-72185000D02*
X146845000Y-72185000D01*
X141705000Y-74895000D02*
X141705000Y-73625000D01*
X142595000Y-63525000D02*
X143355000Y-63525000D01*
X142595000Y-69525000D02*
X142595000Y-63525000D01*
X142595000Y-72515000D02*
X142595000Y-72185000D01*
X142655000Y-69525000D02*
X142655000Y-63525000D01*
X142775000Y-69525000D02*
X142775000Y-63525000D01*
X142895000Y-69525000D02*
X142895000Y-63525000D01*
X142975000Y-74895000D02*
X141705000Y-74895000D01*
X143015000Y-69525000D02*
X143015000Y-63525000D01*
X143135000Y-69525000D02*
X143135000Y-63525000D01*
X143255000Y-69525000D02*
X143255000Y-63525000D01*
X143355000Y-63525000D02*
X143355000Y-69525000D01*
X143355000Y-72515000D02*
X143355000Y-72185000D01*
X144245000Y-72185000D02*
X144245000Y-69525000D01*
X145135000Y-63525000D02*
X145895000Y-63525000D01*
X145135000Y-69525000D02*
X145135000Y-63525000D01*
X145135000Y-72582071D02*
X145135000Y-72185000D01*
X145895000Y-63525000D02*
X145895000Y-69525000D01*
X145895000Y-72582071D02*
X145895000Y-72185000D01*
X146845000Y-69525000D02*
X141645000Y-69525000D01*
X146845000Y-72185000D02*
X146845000Y-69525000D01*
D15*
%TO.C,J7*%
X171150000Y-104625000D02*
X174580000Y-104625000D01*
X174580000Y-110975000D02*
X171150000Y-110975000D01*
D10*
X176700000Y-110390000D02*
G75*
G02*
X176600000Y-110390000I-50000J0D01*
G01*
X176600000Y-110390000D02*
G75*
G02*
X176700000Y-110390000I50000J0D01*
G01*
D14*
%TO.C,C1*%
X164688748Y-84015000D02*
X165211252Y-84015000D01*
X164688748Y-85485000D02*
X165211252Y-85485000D01*
%TO.C,C17*%
X158538748Y-84535000D02*
X159061252Y-84535000D01*
X158538748Y-86005000D02*
X159061252Y-86005000D01*
%TO.C,C29*%
X143338748Y-111665000D02*
X143861252Y-111665000D01*
X143338748Y-113135000D02*
X143861252Y-113135000D01*
%TO.C,J11*%
X129620000Y-122840000D02*
X130950000Y-122840000D01*
X129620000Y-123950000D02*
X129620000Y-122840000D01*
X129620000Y-127950000D02*
X170380000Y-127950000D01*
X129620000Y-136580000D02*
X129620000Y-127950000D01*
X129620000Y-136580000D02*
X170380000Y-136580000D01*
X129740000Y-136580000D02*
X129740000Y-127950000D01*
X129858095Y-136580000D02*
X129858095Y-127950000D01*
X129976190Y-136580000D02*
X129976190Y-127950000D01*
X130094285Y-136580000D02*
X130094285Y-127950000D01*
X130212380Y-136580000D02*
X130212380Y-127950000D01*
X130330475Y-136580000D02*
X130330475Y-127950000D01*
X130448570Y-136580000D02*
X130448570Y-127950000D01*
X130566665Y-136580000D02*
X130566665Y-127950000D01*
X130590000Y-125440000D02*
X130590000Y-125060000D01*
X130590000Y-127950000D02*
X130590000Y-127540000D01*
X130684760Y-136580000D02*
X130684760Y-127950000D01*
X130802855Y-136580000D02*
X130802855Y-127950000D01*
X130920950Y-136580000D02*
X130920950Y-127950000D01*
X131039045Y-136580000D02*
X131039045Y-127950000D01*
X131157140Y-136580000D02*
X131157140Y-127950000D01*
X131275235Y-136580000D02*
X131275235Y-127950000D01*
X131310000Y-125440000D02*
X131310000Y-125060000D01*
X131310000Y-127950000D02*
X131310000Y-127540000D01*
X131393330Y-136580000D02*
X131393330Y-127950000D01*
X131511425Y-136580000D02*
X131511425Y-127950000D01*
X131629520Y-136580000D02*
X131629520Y-127950000D01*
X131747615Y-136580000D02*
X131747615Y-127950000D01*
X131865710Y-136580000D02*
X131865710Y-127950000D01*
X131983805Y-136580000D02*
X131983805Y-127950000D01*
X132101900Y-136580000D02*
X132101900Y-127950000D01*
X132220000Y-136580000D02*
X132220000Y-127950000D01*
X133130000Y-125440000D02*
X133130000Y-125000000D01*
X133130000Y-127950000D02*
X133130000Y-127540000D01*
X133850000Y-125440000D02*
X133850000Y-125000000D01*
X133850000Y-127950000D02*
X133850000Y-127540000D01*
X134760000Y-136580000D02*
X134760000Y-127950000D01*
X135670000Y-125440000D02*
X135670000Y-125000000D01*
X135670000Y-127950000D02*
X135670000Y-127540000D01*
X136390000Y-125440000D02*
X136390000Y-125000000D01*
X136390000Y-127950000D02*
X136390000Y-127540000D01*
X137300000Y-136580000D02*
X137300000Y-127950000D01*
X138210000Y-125440000D02*
X138210000Y-125000000D01*
X138210000Y-127950000D02*
X138210000Y-127540000D01*
X138930000Y-125440000D02*
X138930000Y-125000000D01*
X138930000Y-127950000D02*
X138930000Y-127540000D01*
X139840000Y-136580000D02*
X139840000Y-127950000D01*
X140750000Y-125440000D02*
X140750000Y-125000000D01*
X140750000Y-127950000D02*
X140750000Y-127540000D01*
X141470000Y-125440000D02*
X141470000Y-125000000D01*
X141470000Y-127950000D02*
X141470000Y-127540000D01*
X142380000Y-136580000D02*
X142380000Y-127950000D01*
X143290000Y-125440000D02*
X143290000Y-125000000D01*
X143290000Y-127950000D02*
X143290000Y-127540000D01*
X144010000Y-125440000D02*
X144010000Y-125000000D01*
X144010000Y-127950000D02*
X144010000Y-127540000D01*
X144920000Y-136580000D02*
X144920000Y-127950000D01*
X145830000Y-125440000D02*
X145830000Y-125000000D01*
X145830000Y-127950000D02*
X145830000Y-127540000D01*
X146550000Y-125440000D02*
X146550000Y-125000000D01*
X146550000Y-127950000D02*
X146550000Y-127540000D01*
X147460000Y-136580000D02*
X147460000Y-127950000D01*
X148370000Y-125440000D02*
X148370000Y-125000000D01*
X148370000Y-127950000D02*
X148370000Y-127540000D01*
X149090000Y-125440000D02*
X149090000Y-125000000D01*
X149090000Y-127950000D02*
X149090000Y-127540000D01*
X150000000Y-136580000D02*
X150000000Y-127950000D01*
X150910000Y-125440000D02*
X150910000Y-125000000D01*
X150910000Y-127950000D02*
X150910000Y-127540000D01*
X151630000Y-125440000D02*
X151630000Y-125000000D01*
X151630000Y-127950000D02*
X151630000Y-127540000D01*
X152540000Y-136580000D02*
X152540000Y-127950000D01*
X153450000Y-125440000D02*
X153450000Y-125000000D01*
X153450000Y-127950000D02*
X153450000Y-127540000D01*
X154170000Y-125440000D02*
X154170000Y-125000000D01*
X154170000Y-127950000D02*
X154170000Y-127540000D01*
X155080000Y-136580000D02*
X155080000Y-127950000D01*
X155990000Y-125440000D02*
X155990000Y-125000000D01*
X155990000Y-127950000D02*
X155990000Y-127540000D01*
X156710000Y-125440000D02*
X156710000Y-125000000D01*
X156710000Y-127950000D02*
X156710000Y-127540000D01*
X157620000Y-136580000D02*
X157620000Y-127950000D01*
X158530000Y-125440000D02*
X158530000Y-125000000D01*
X158530000Y-127950000D02*
X158530000Y-127540000D01*
X159250000Y-125440000D02*
X159250000Y-125000000D01*
X159250000Y-127950000D02*
X159250000Y-127540000D01*
X160160000Y-136580000D02*
X160160000Y-127950000D01*
X161070000Y-125440000D02*
X161070000Y-125000000D01*
X161070000Y-127950000D02*
X161070000Y-127540000D01*
X161790000Y-125440000D02*
X161790000Y-125000000D01*
X161790000Y-127950000D02*
X161790000Y-127540000D01*
X162700000Y-136580000D02*
X162700000Y-127950000D01*
X163610000Y-125440000D02*
X163610000Y-125000000D01*
X163610000Y-127950000D02*
X163610000Y-127540000D01*
X164330000Y-125440000D02*
X164330000Y-125000000D01*
X164330000Y-127950000D02*
X164330000Y-127540000D01*
X165240000Y-136580000D02*
X165240000Y-127950000D01*
X166150000Y-125440000D02*
X166150000Y-125000000D01*
X166150000Y-127950000D02*
X166150000Y-127540000D01*
X166870000Y-125440000D02*
X166870000Y-125000000D01*
X166870000Y-127950000D02*
X166870000Y-127540000D01*
X167780000Y-136580000D02*
X167780000Y-127950000D01*
X168690000Y-125440000D02*
X168690000Y-125000000D01*
X168690000Y-127950000D02*
X168690000Y-127540000D01*
X169410000Y-125440000D02*
X169410000Y-125000000D01*
X169410000Y-127950000D02*
X169410000Y-127540000D01*
X170380000Y-136580000D02*
X170380000Y-127950000D01*
%TO.C,C16*%
X169265000Y-70788748D02*
X169265000Y-71311252D01*
X170735000Y-70788748D02*
X170735000Y-71311252D01*
%TO.C,C3*%
X177765000Y-84961252D02*
X177765000Y-84438748D01*
X179235000Y-84961252D02*
X179235000Y-84438748D01*
%TO.C,D2*%
X143910000Y-85445000D02*
X141250000Y-85445000D01*
X143910000Y-87145000D02*
X141250000Y-87145000D01*
X143910000Y-87145000D02*
X143910000Y-85445000D01*
%TO.C,C8*%
X174015000Y-101211252D02*
X174015000Y-100688748D01*
X175485000Y-101211252D02*
X175485000Y-100688748D01*
%TO.C,C25*%
X143288748Y-107565000D02*
X143811252Y-107565000D01*
X143288748Y-109035000D02*
X143811252Y-109035000D01*
%TO.C,TP6*%
X120550000Y-120510000D02*
X121950000Y-120510000D01*
X120550000Y-121910000D02*
X120550000Y-120510000D01*
X121950000Y-120510000D02*
X121950000Y-121910000D01*
X121950000Y-121910000D02*
X120550000Y-121910000D01*
%TO.C,TP4*%
X120550000Y-123510000D02*
X121950000Y-123510000D01*
X120550000Y-124910000D02*
X120550000Y-123510000D01*
X121950000Y-123510000D02*
X121950000Y-124910000D01*
X121950000Y-124910000D02*
X120550000Y-124910000D01*
%TO.C,J4*%
X167630000Y-82080000D02*
X167630000Y-80750000D01*
X168960000Y-82080000D02*
X167630000Y-82080000D01*
X170230000Y-79420000D02*
X175370000Y-79420000D01*
X170230000Y-82080000D02*
X170230000Y-79420000D01*
X170230000Y-82080000D02*
X175370000Y-82080000D01*
X175370000Y-82080000D02*
X175370000Y-79420000D01*
%TO.C,C13*%
X140413748Y-93370000D02*
X140936252Y-93370000D01*
X140413748Y-94840000D02*
X140936252Y-94840000D01*
%TO.C,e1*%
X156375000Y-89490000D02*
X156375000Y-95890000D01*
X161425000Y-89490000D02*
X161425000Y-95890000D01*
X156375000Y-89490000D02*
G75*
G02*
X161425000Y-89490000I2525000J0D01*
G01*
X161425000Y-95890000D02*
G75*
G02*
X156375000Y-95890000I-2525000J0D01*
G01*
%TO.C,J2*%
X128230000Y-84030000D02*
X128230000Y-82700000D01*
X129560000Y-84030000D02*
X128230000Y-84030000D01*
X130830000Y-81370000D02*
X135970000Y-81370000D01*
X130830000Y-84030000D02*
X130830000Y-81370000D01*
X130830000Y-84030000D02*
X135970000Y-84030000D01*
X135970000Y-84030000D02*
X135970000Y-81370000D01*
%TO.C,J13*%
X134170000Y-98420000D02*
X135500000Y-98420000D01*
X134170000Y-99750000D02*
X134170000Y-98420000D01*
X134170000Y-101020000D02*
X134170000Y-106160000D01*
X134170000Y-101020000D02*
X136830000Y-101020000D01*
X134170000Y-106160000D02*
X136830000Y-106160000D01*
X136830000Y-101020000D02*
X136830000Y-106160000D01*
D16*
%TO.C,J6*%
X126705000Y-63345000D02*
X138735000Y-63345000D01*
X126705000Y-71847000D02*
X126705000Y-63345000D01*
X126705000Y-79055000D02*
X126705000Y-75403000D01*
X130560000Y-79055000D02*
X126705000Y-79055000D01*
X134880000Y-79055000D02*
X138735000Y-79055000D01*
X138735000Y-71593000D02*
X138735000Y-63345000D01*
X138735000Y-79055000D02*
X138735000Y-75403000D01*
X130258488Y-78385000D02*
G75*
G02*
X130061512Y-78385000I-98488J0D01*
G01*
X130061512Y-78385000D02*
G75*
G02*
X130258488Y-78385000I98488J0D01*
G01*
D14*
%TO.C,C27*%
X143338748Y-109665000D02*
X143861252Y-109665000D01*
X143338748Y-111135000D02*
X143861252Y-111135000D01*
%TO.C,C5*%
X162738748Y-78265000D02*
X163261252Y-78265000D01*
X162738748Y-79735000D02*
X163261252Y-79735000D01*
%TO.C,TP1*%
X131300000Y-86800000D02*
X132700000Y-86800000D01*
X131300000Y-88200000D02*
X131300000Y-86800000D01*
X132700000Y-86800000D02*
X132700000Y-88200000D01*
X132700000Y-88200000D02*
X131300000Y-88200000D01*
%TO.C,TP5*%
X131300000Y-89050000D02*
X132700000Y-89050000D01*
X131300000Y-90450000D02*
X131300000Y-89050000D01*
X132700000Y-89050000D02*
X132700000Y-90450000D01*
X132700000Y-90450000D02*
X131300000Y-90450000D01*
%TO.C,U1*%
X146250000Y-85690000D02*
X145450000Y-85690000D01*
X146250000Y-85690000D02*
X147050000Y-85690000D01*
X146250000Y-88810000D02*
X145450000Y-88810000D01*
X146250000Y-88810000D02*
X147050000Y-88810000D01*
X144950000Y-85740000D02*
X144710000Y-85410000D01*
X145190000Y-85410000D01*
X144950000Y-85740000D01*
G36*
X144950000Y-85740000D02*
G01*
X144710000Y-85410000D01*
X145190000Y-85410000D01*
X144950000Y-85740000D01*
G37*
%TO.C,C28*%
X153365000Y-109411252D02*
X153365000Y-108888748D01*
X154835000Y-109411252D02*
X154835000Y-108888748D01*
%TO.C,C12*%
X150411252Y-87360000D02*
X149888748Y-87360000D01*
X150411252Y-88830000D02*
X149888748Y-88830000D01*
%TO.C,R4*%
X154165000Y-119960436D02*
X154165000Y-120414564D01*
X155635000Y-119960436D02*
X155635000Y-120414564D01*
%TO.C,J5*%
X152395000Y-69525000D02*
X152395000Y-72185000D01*
X152395000Y-72185000D02*
X160135000Y-72185000D01*
X152455000Y-74895000D02*
X152455000Y-73625000D01*
X153345000Y-63525000D02*
X154105000Y-63525000D01*
X153345000Y-69525000D02*
X153345000Y-63525000D01*
X153345000Y-72515000D02*
X153345000Y-72185000D01*
X153405000Y-69525000D02*
X153405000Y-63525000D01*
X153525000Y-69525000D02*
X153525000Y-63525000D01*
X153645000Y-69525000D02*
X153645000Y-63525000D01*
X153725000Y-74895000D02*
X152455000Y-74895000D01*
X153765000Y-69525000D02*
X153765000Y-63525000D01*
X153885000Y-69525000D02*
X153885000Y-63525000D01*
X154005000Y-69525000D02*
X154005000Y-63525000D01*
X154105000Y-63525000D02*
X154105000Y-69525000D01*
X154105000Y-72515000D02*
X154105000Y-72185000D01*
X154995000Y-72185000D02*
X154995000Y-69525000D01*
X155885000Y-63525000D02*
X156645000Y-63525000D01*
X155885000Y-69525000D02*
X155885000Y-63525000D01*
X155885000Y-72582071D02*
X155885000Y-72185000D01*
X156645000Y-63525000D02*
X156645000Y-69525000D01*
X156645000Y-72582071D02*
X156645000Y-72185000D01*
X157535000Y-72185000D02*
X157535000Y-69525000D01*
X158425000Y-63525000D02*
X159185000Y-63525000D01*
X158425000Y-69525000D02*
X158425000Y-63525000D01*
X158425000Y-72582071D02*
X158425000Y-72185000D01*
X159185000Y-63525000D02*
X159185000Y-69525000D01*
X159185000Y-72582071D02*
X159185000Y-72185000D01*
X160135000Y-69525000D02*
X152395000Y-69525000D01*
X160135000Y-72185000D02*
X160135000Y-69525000D01*
%TO.C,D1*%
X118540000Y-81502500D02*
X118540000Y-84187500D01*
X120460000Y-81502500D02*
X118540000Y-81502500D01*
X120460000Y-84187500D02*
X120460000Y-81502500D01*
D17*
%TO.C,IC1*%
X146725000Y-113000000D02*
G75*
G02*
X146475000Y-113000000I-125000J0D01*
G01*
X146475000Y-113000000D02*
G75*
G02*
X146725000Y-113000000I125000J0D01*
G01*
D14*
%TO.C,J8*%
X118525000Y-93790000D02*
X124525000Y-93790000D01*
X118525000Y-94550000D02*
X118525000Y-93790000D01*
X118525000Y-96330000D02*
X124525000Y-96330000D01*
X118525000Y-97090000D02*
X118525000Y-96330000D01*
X124525000Y-92840000D02*
X124525000Y-98040000D01*
X124525000Y-94550000D02*
X118525000Y-94550000D01*
X124525000Y-96430000D02*
X118525000Y-96430000D01*
X124525000Y-96550000D02*
X118525000Y-96550000D01*
X124525000Y-96670000D02*
X118525000Y-96670000D01*
X124525000Y-96790000D02*
X118525000Y-96790000D01*
X124525000Y-96910000D02*
X118525000Y-96910000D01*
X124525000Y-97030000D02*
X118525000Y-97030000D01*
X124525000Y-97090000D02*
X118525000Y-97090000D01*
X124525000Y-98040000D02*
X127185000Y-98040000D01*
X127185000Y-92840000D02*
X124525000Y-92840000D01*
X127185000Y-95440000D02*
X124525000Y-95440000D01*
X127185000Y-98040000D02*
X127185000Y-92840000D01*
X127515000Y-96330000D02*
X127185000Y-96330000D01*
X127515000Y-97090000D02*
X127185000Y-97090000D01*
X127582071Y-93790000D02*
X127185000Y-93790000D01*
X127582071Y-94550000D02*
X127185000Y-94550000D01*
X129895000Y-96710000D02*
X129895000Y-97980000D01*
X129895000Y-97980000D02*
X128625000Y-97980000D01*
%TO.C,FB2*%
X162440000Y-99569622D02*
X162440000Y-98770378D01*
X163560000Y-99569622D02*
X163560000Y-98770378D01*
%TO.C,C4*%
X161265000Y-116738748D02*
X161265000Y-117261252D01*
X162735000Y-116738748D02*
X162735000Y-117261252D01*
%TO.C,J9*%
X118390000Y-107900000D02*
X125010000Y-107900000D01*
X118390000Y-118520000D02*
X118390000Y-107900000D01*
X118390000Y-118520000D02*
X125010000Y-118520000D01*
X120070000Y-108720000D02*
X120124000Y-108774000D01*
X120070000Y-112220000D02*
X120124000Y-112274000D01*
X120260000Y-108530000D02*
X120336000Y-108606000D01*
X120260000Y-112030000D02*
X120336000Y-112106000D01*
X122164000Y-110813000D02*
X122240000Y-110889000D01*
X122164000Y-114313000D02*
X122240000Y-114389000D01*
X122375000Y-110645000D02*
X122430000Y-110699000D01*
X122375000Y-114145000D02*
X122430000Y-114199000D01*
X123450000Y-118520000D02*
X123450000Y-107900000D01*
X123510000Y-118760000D02*
X125250000Y-118760000D01*
X125010000Y-118520000D02*
X125010000Y-107900000D01*
X125250000Y-118760000D02*
X125250000Y-117260000D01*
X119863355Y-117415733D02*
G75*
G02*
X119864000Y-116003000I1386645J705733D01*
G01*
X120544267Y-115323355D02*
G75*
G02*
X121957000Y-115324000I705734J-1386646D01*
G01*
X121955733Y-118096645D02*
G75*
G02*
X120543000Y-118096000I-705733J1386645D01*
G01*
X122635515Y-116004045D02*
G75*
G02*
X122805000Y-116710000I-1385523J-705957D01*
G01*
X122805682Y-116683556D02*
G75*
G02*
X122636000Y-117417000I-1555677J-26445D01*
G01*
X122805000Y-109710000D02*
G75*
G02*
X119695000Y-109710000I-1555000J0D01*
G01*
X119695000Y-109710000D02*
G75*
G02*
X122805000Y-109710000I1555000J0D01*
G01*
X122805000Y-113210000D02*
G75*
G02*
X119695000Y-113210000I-1555000J0D01*
G01*
X119695000Y-113210000D02*
G75*
G02*
X122805000Y-113210000I1555000J0D01*
G01*
%TO.C,R3*%
X172147936Y-76700000D02*
X172602064Y-76700000D01*
X172147936Y-78170000D02*
X172602064Y-78170000D01*
%TO.C,C24*%
X157161252Y-107665000D02*
X156638748Y-107665000D01*
X157161252Y-109135000D02*
X156638748Y-109135000D01*
%TO.C,C14*%
X150461252Y-85260000D02*
X149938748Y-85260000D01*
X150461252Y-86730000D02*
X149938748Y-86730000D01*
%TO.C,C22*%
X143238748Y-105515000D02*
X143761252Y-105515000D01*
X143238748Y-106985000D02*
X143761252Y-106985000D01*
%TO.C,J10*%
X134170000Y-88130000D02*
X135500000Y-88130000D01*
X134170000Y-89460000D02*
X134170000Y-88130000D01*
X134170000Y-90730000D02*
X134170000Y-95870000D01*
X134170000Y-90730000D02*
X136830000Y-90730000D01*
X134170000Y-95870000D02*
X136830000Y-95870000D01*
X136830000Y-90730000D02*
X136830000Y-95870000D01*
%TO.C,C9*%
X142038748Y-83460000D02*
X142561252Y-83460000D01*
X142038748Y-84930000D02*
X142561252Y-84930000D01*
%TO.C,U3*%
X164190000Y-87860000D02*
X164190000Y-88810000D01*
X164190000Y-98080000D02*
X164190000Y-97130000D01*
X165140000Y-87860000D02*
X164190000Y-87860000D01*
X165140000Y-98080000D02*
X164190000Y-98080000D01*
X173460000Y-87860000D02*
X174410000Y-87860000D01*
X173460000Y-98080000D02*
X174410000Y-98080000D01*
X174410000Y-87860000D02*
X174410000Y-88810000D01*
X174410000Y-98080000D02*
X174410000Y-97130000D01*
X163575000Y-88810000D02*
X163235000Y-88340000D01*
X163915000Y-88340000D01*
X163575000Y-88810000D01*
G36*
X163575000Y-88810000D02*
G01*
X163235000Y-88340000D01*
X163915000Y-88340000D01*
X163575000Y-88810000D01*
G37*
%TD*%
M02*
