%TF.GenerationSoftware,KiCad,Pcbnew,8.0.5*%
%TF.CreationDate,2024-10-20T03:08:29+02:00*%
%TF.ProjectId,Kingfisher,4b696e67-6669-4736-9865-722e6b696361,rev?*%
%TF.SameCoordinates,Original*%
%TF.FileFunction,Drillmap*%
%TF.FilePolarity,Positive*%
%FSLAX45Y45*%
G04 Gerber Fmt 4.5, Leading zero omitted, Abs format (unit mm)*
G04 Created by KiCad (PCBNEW 8.0.5) date 2024-10-20 03:08:29*
%MOMM*%
%LPD*%
G01*
G04 APERTURE LIST*
%ADD10C,0.050000*%
%ADD11C,0.200000*%
%ADD12C,0.300000*%
G04 APERTURE END LIST*
D10*
X12130000Y-6300000D02*
X17870000Y-6300000D01*
X17870000Y-6300000D02*
G75*
G02*
X18200000Y-6630000I0J-330000D01*
G01*
X18200000Y-13370000D02*
G75*
G02*
X17870000Y-13700000I-330000J0D01*
G01*
X11800000Y-13370000D02*
X11800000Y-6630000D01*
X12130000Y-13700000D02*
X17870000Y-13700000D01*
X12130000Y-13700000D02*
G75*
G02*
X11800000Y-13370000I0J330000D01*
G01*
X11800000Y-6630000D02*
G75*
G02*
X12130000Y-6300000I330000J0D01*
G01*
X18200000Y-6630000D02*
X18200000Y-13370000D01*
D11*
D12*
X11980000Y-6480000D02*
X12280000Y-6780000D01*
X12280000Y-6480000D02*
X11980000Y-6780000D01*
X11980000Y-13220000D02*
X12280000Y-13520000D01*
X12280000Y-13220000D02*
X11980000Y-13520000D01*
X17720000Y-6480000D02*
X18020000Y-6780000D01*
X18020000Y-6480000D02*
X17720000Y-6780000D01*
X17720000Y-13220000D02*
X18020000Y-13520000D01*
X18020000Y-13220000D02*
X17720000Y-13520000D01*
D11*
X12058277Y-14013984D02*
X12058277Y-13813984D01*
X12058277Y-13813984D02*
X12105896Y-13813984D01*
X12105896Y-13813984D02*
X12134467Y-13823508D01*
X12134467Y-13823508D02*
X12153515Y-13842555D01*
X12153515Y-13842555D02*
X12163039Y-13861603D01*
X12163039Y-13861603D02*
X12172562Y-13899698D01*
X12172562Y-13899698D02*
X12172562Y-13928269D01*
X12172562Y-13928269D02*
X12163039Y-13966365D01*
X12163039Y-13966365D02*
X12153515Y-13985412D01*
X12153515Y-13985412D02*
X12134467Y-14004460D01*
X12134467Y-14004460D02*
X12105896Y-14013984D01*
X12105896Y-14013984D02*
X12058277Y-14013984D01*
X12258277Y-14013984D02*
X12258277Y-13880650D01*
X12258277Y-13918746D02*
X12267801Y-13899698D01*
X12267801Y-13899698D02*
X12277324Y-13890174D01*
X12277324Y-13890174D02*
X12296372Y-13880650D01*
X12296372Y-13880650D02*
X12315420Y-13880650D01*
X12382086Y-14013984D02*
X12382086Y-13880650D01*
X12382086Y-13813984D02*
X12372562Y-13823508D01*
X12372562Y-13823508D02*
X12382086Y-13833031D01*
X12382086Y-13833031D02*
X12391610Y-13823508D01*
X12391610Y-13823508D02*
X12382086Y-13813984D01*
X12382086Y-13813984D02*
X12382086Y-13833031D01*
X12505896Y-14013984D02*
X12486848Y-14004460D01*
X12486848Y-14004460D02*
X12477324Y-13985412D01*
X12477324Y-13985412D02*
X12477324Y-13813984D01*
X12610658Y-14013984D02*
X12591610Y-14004460D01*
X12591610Y-14004460D02*
X12582086Y-13985412D01*
X12582086Y-13985412D02*
X12582086Y-13813984D01*
X12839229Y-14013984D02*
X12839229Y-13813984D01*
X12839229Y-13813984D02*
X12905896Y-13956841D01*
X12905896Y-13956841D02*
X12972562Y-13813984D01*
X12972562Y-13813984D02*
X12972562Y-14013984D01*
X13153515Y-14013984D02*
X13153515Y-13909222D01*
X13153515Y-13909222D02*
X13143991Y-13890174D01*
X13143991Y-13890174D02*
X13124943Y-13880650D01*
X13124943Y-13880650D02*
X13086848Y-13880650D01*
X13086848Y-13880650D02*
X13067801Y-13890174D01*
X13153515Y-14004460D02*
X13134467Y-14013984D01*
X13134467Y-14013984D02*
X13086848Y-14013984D01*
X13086848Y-14013984D02*
X13067801Y-14004460D01*
X13067801Y-14004460D02*
X13058277Y-13985412D01*
X13058277Y-13985412D02*
X13058277Y-13966365D01*
X13058277Y-13966365D02*
X13067801Y-13947317D01*
X13067801Y-13947317D02*
X13086848Y-13937793D01*
X13086848Y-13937793D02*
X13134467Y-13937793D01*
X13134467Y-13937793D02*
X13153515Y-13928269D01*
X13248753Y-13880650D02*
X13248753Y-14080650D01*
X13248753Y-13890174D02*
X13267801Y-13880650D01*
X13267801Y-13880650D02*
X13305896Y-13880650D01*
X13305896Y-13880650D02*
X13324943Y-13890174D01*
X13324943Y-13890174D02*
X13334467Y-13899698D01*
X13334467Y-13899698D02*
X13343991Y-13918746D01*
X13343991Y-13918746D02*
X13343991Y-13975888D01*
X13343991Y-13975888D02*
X13334467Y-13994936D01*
X13334467Y-13994936D02*
X13324943Y-14004460D01*
X13324943Y-14004460D02*
X13305896Y-14013984D01*
X13305896Y-14013984D02*
X13267801Y-14013984D01*
X13267801Y-14013984D02*
X13248753Y-14004460D01*
X13429705Y-13994936D02*
X13439229Y-14004460D01*
X13439229Y-14004460D02*
X13429705Y-14013984D01*
X13429705Y-14013984D02*
X13420182Y-14004460D01*
X13420182Y-14004460D02*
X13429705Y-13994936D01*
X13429705Y-13994936D02*
X13429705Y-14013984D01*
X13429705Y-13890174D02*
X13439229Y-13899698D01*
X13439229Y-13899698D02*
X13429705Y-13909222D01*
X13429705Y-13909222D02*
X13420182Y-13899698D01*
X13420182Y-13899698D02*
X13429705Y-13890174D01*
X13429705Y-13890174D02*
X13429705Y-13909222D01*
X11597500Y-14242500D02*
X11797500Y-14442500D01*
X11797500Y-14242500D02*
X11597500Y-14442500D01*
X12039229Y-14233984D02*
X12163039Y-14233984D01*
X12163039Y-14233984D02*
X12096372Y-14310174D01*
X12096372Y-14310174D02*
X12124943Y-14310174D01*
X12124943Y-14310174D02*
X12143991Y-14319698D01*
X12143991Y-14319698D02*
X12153515Y-14329222D01*
X12153515Y-14329222D02*
X12163039Y-14348269D01*
X12163039Y-14348269D02*
X12163039Y-14395888D01*
X12163039Y-14395888D02*
X12153515Y-14414936D01*
X12153515Y-14414936D02*
X12143991Y-14424460D01*
X12143991Y-14424460D02*
X12124943Y-14433984D01*
X12124943Y-14433984D02*
X12067801Y-14433984D01*
X12067801Y-14433984D02*
X12048753Y-14424460D01*
X12048753Y-14424460D02*
X12039229Y-14414936D01*
X12248753Y-14414936D02*
X12258277Y-14424460D01*
X12258277Y-14424460D02*
X12248753Y-14433984D01*
X12248753Y-14433984D02*
X12239229Y-14424460D01*
X12239229Y-14424460D02*
X12248753Y-14414936D01*
X12248753Y-14414936D02*
X12248753Y-14433984D01*
X12382086Y-14233984D02*
X12401134Y-14233984D01*
X12401134Y-14233984D02*
X12420182Y-14243508D01*
X12420182Y-14243508D02*
X12429705Y-14253031D01*
X12429705Y-14253031D02*
X12439229Y-14272079D01*
X12439229Y-14272079D02*
X12448753Y-14310174D01*
X12448753Y-14310174D02*
X12448753Y-14357793D01*
X12448753Y-14357793D02*
X12439229Y-14395888D01*
X12439229Y-14395888D02*
X12429705Y-14414936D01*
X12429705Y-14414936D02*
X12420182Y-14424460D01*
X12420182Y-14424460D02*
X12401134Y-14433984D01*
X12401134Y-14433984D02*
X12382086Y-14433984D01*
X12382086Y-14433984D02*
X12363039Y-14424460D01*
X12363039Y-14424460D02*
X12353515Y-14414936D01*
X12353515Y-14414936D02*
X12343991Y-14395888D01*
X12343991Y-14395888D02*
X12334467Y-14357793D01*
X12334467Y-14357793D02*
X12334467Y-14310174D01*
X12334467Y-14310174D02*
X12343991Y-14272079D01*
X12343991Y-14272079D02*
X12353515Y-14253031D01*
X12353515Y-14253031D02*
X12363039Y-14243508D01*
X12363039Y-14243508D02*
X12382086Y-14233984D01*
X12572562Y-14233984D02*
X12591610Y-14233984D01*
X12591610Y-14233984D02*
X12610658Y-14243508D01*
X12610658Y-14243508D02*
X12620182Y-14253031D01*
X12620182Y-14253031D02*
X12629705Y-14272079D01*
X12629705Y-14272079D02*
X12639229Y-14310174D01*
X12639229Y-14310174D02*
X12639229Y-14357793D01*
X12639229Y-14357793D02*
X12629705Y-14395888D01*
X12629705Y-14395888D02*
X12620182Y-14414936D01*
X12620182Y-14414936D02*
X12610658Y-14424460D01*
X12610658Y-14424460D02*
X12591610Y-14433984D01*
X12591610Y-14433984D02*
X12572562Y-14433984D01*
X12572562Y-14433984D02*
X12553515Y-14424460D01*
X12553515Y-14424460D02*
X12543991Y-14414936D01*
X12543991Y-14414936D02*
X12534467Y-14395888D01*
X12534467Y-14395888D02*
X12524943Y-14357793D01*
X12524943Y-14357793D02*
X12524943Y-14310174D01*
X12524943Y-14310174D02*
X12534467Y-14272079D01*
X12534467Y-14272079D02*
X12543991Y-14253031D01*
X12543991Y-14253031D02*
X12553515Y-14243508D01*
X12553515Y-14243508D02*
X12572562Y-14233984D01*
X12763039Y-14233984D02*
X12782086Y-14233984D01*
X12782086Y-14233984D02*
X12801134Y-14243508D01*
X12801134Y-14243508D02*
X12810658Y-14253031D01*
X12810658Y-14253031D02*
X12820182Y-14272079D01*
X12820182Y-14272079D02*
X12829705Y-14310174D01*
X12829705Y-14310174D02*
X12829705Y-14357793D01*
X12829705Y-14357793D02*
X12820182Y-14395888D01*
X12820182Y-14395888D02*
X12810658Y-14414936D01*
X12810658Y-14414936D02*
X12801134Y-14424460D01*
X12801134Y-14424460D02*
X12782086Y-14433984D01*
X12782086Y-14433984D02*
X12763039Y-14433984D01*
X12763039Y-14433984D02*
X12743991Y-14424460D01*
X12743991Y-14424460D02*
X12734467Y-14414936D01*
X12734467Y-14414936D02*
X12724943Y-14395888D01*
X12724943Y-14395888D02*
X12715420Y-14357793D01*
X12715420Y-14357793D02*
X12715420Y-14310174D01*
X12715420Y-14310174D02*
X12724943Y-14272079D01*
X12724943Y-14272079D02*
X12734467Y-14253031D01*
X12734467Y-14253031D02*
X12743991Y-14243508D01*
X12743991Y-14243508D02*
X12763039Y-14233984D01*
X12915420Y-14433984D02*
X12915420Y-14300650D01*
X12915420Y-14319698D02*
X12924943Y-14310174D01*
X12924943Y-14310174D02*
X12943991Y-14300650D01*
X12943991Y-14300650D02*
X12972563Y-14300650D01*
X12972563Y-14300650D02*
X12991610Y-14310174D01*
X12991610Y-14310174D02*
X13001134Y-14329222D01*
X13001134Y-14329222D02*
X13001134Y-14433984D01*
X13001134Y-14329222D02*
X13010658Y-14310174D01*
X13010658Y-14310174D02*
X13029705Y-14300650D01*
X13029705Y-14300650D02*
X13058277Y-14300650D01*
X13058277Y-14300650D02*
X13077324Y-14310174D01*
X13077324Y-14310174D02*
X13086848Y-14329222D01*
X13086848Y-14329222D02*
X13086848Y-14433984D01*
X13182086Y-14433984D02*
X13182086Y-14300650D01*
X13182086Y-14319698D02*
X13191610Y-14310174D01*
X13191610Y-14310174D02*
X13210658Y-14300650D01*
X13210658Y-14300650D02*
X13239229Y-14300650D01*
X13239229Y-14300650D02*
X13258277Y-14310174D01*
X13258277Y-14310174D02*
X13267801Y-14329222D01*
X13267801Y-14329222D02*
X13267801Y-14433984D01*
X13267801Y-14329222D02*
X13277324Y-14310174D01*
X13277324Y-14310174D02*
X13296372Y-14300650D01*
X13296372Y-14300650D02*
X13324943Y-14300650D01*
X13324943Y-14300650D02*
X13343991Y-14310174D01*
X13343991Y-14310174D02*
X13353515Y-14329222D01*
X13353515Y-14329222D02*
X13353515Y-14433984D01*
X13743991Y-14224460D02*
X13572563Y-14481603D01*
X14001134Y-14233984D02*
X14020182Y-14233984D01*
X14020182Y-14233984D02*
X14039229Y-14243508D01*
X14039229Y-14243508D02*
X14048753Y-14253031D01*
X14048753Y-14253031D02*
X14058277Y-14272079D01*
X14058277Y-14272079D02*
X14067801Y-14310174D01*
X14067801Y-14310174D02*
X14067801Y-14357793D01*
X14067801Y-14357793D02*
X14058277Y-14395888D01*
X14058277Y-14395888D02*
X14048753Y-14414936D01*
X14048753Y-14414936D02*
X14039229Y-14424460D01*
X14039229Y-14424460D02*
X14020182Y-14433984D01*
X14020182Y-14433984D02*
X14001134Y-14433984D01*
X14001134Y-14433984D02*
X13982086Y-14424460D01*
X13982086Y-14424460D02*
X13972563Y-14414936D01*
X13972563Y-14414936D02*
X13963039Y-14395888D01*
X13963039Y-14395888D02*
X13953515Y-14357793D01*
X13953515Y-14357793D02*
X13953515Y-14310174D01*
X13953515Y-14310174D02*
X13963039Y-14272079D01*
X13963039Y-14272079D02*
X13972563Y-14253031D01*
X13972563Y-14253031D02*
X13982086Y-14243508D01*
X13982086Y-14243508D02*
X14001134Y-14233984D01*
X14153515Y-14414936D02*
X14163039Y-14424460D01*
X14163039Y-14424460D02*
X14153515Y-14433984D01*
X14153515Y-14433984D02*
X14143991Y-14424460D01*
X14143991Y-14424460D02*
X14153515Y-14414936D01*
X14153515Y-14414936D02*
X14153515Y-14433984D01*
X14353515Y-14433984D02*
X14239229Y-14433984D01*
X14296372Y-14433984D02*
X14296372Y-14233984D01*
X14296372Y-14233984D02*
X14277325Y-14262555D01*
X14277325Y-14262555D02*
X14258277Y-14281603D01*
X14258277Y-14281603D02*
X14239229Y-14291127D01*
X14543991Y-14433984D02*
X14429706Y-14433984D01*
X14486848Y-14433984D02*
X14486848Y-14233984D01*
X14486848Y-14233984D02*
X14467801Y-14262555D01*
X14467801Y-14262555D02*
X14448753Y-14281603D01*
X14448753Y-14281603D02*
X14429706Y-14291127D01*
X14658277Y-14319698D02*
X14639229Y-14310174D01*
X14639229Y-14310174D02*
X14629706Y-14300650D01*
X14629706Y-14300650D02*
X14620182Y-14281603D01*
X14620182Y-14281603D02*
X14620182Y-14272079D01*
X14620182Y-14272079D02*
X14629706Y-14253031D01*
X14629706Y-14253031D02*
X14639229Y-14243508D01*
X14639229Y-14243508D02*
X14658277Y-14233984D01*
X14658277Y-14233984D02*
X14696372Y-14233984D01*
X14696372Y-14233984D02*
X14715420Y-14243508D01*
X14715420Y-14243508D02*
X14724944Y-14253031D01*
X14724944Y-14253031D02*
X14734467Y-14272079D01*
X14734467Y-14272079D02*
X14734467Y-14281603D01*
X14734467Y-14281603D02*
X14724944Y-14300650D01*
X14724944Y-14300650D02*
X14715420Y-14310174D01*
X14715420Y-14310174D02*
X14696372Y-14319698D01*
X14696372Y-14319698D02*
X14658277Y-14319698D01*
X14658277Y-14319698D02*
X14639229Y-14329222D01*
X14639229Y-14329222D02*
X14629706Y-14338746D01*
X14629706Y-14338746D02*
X14620182Y-14357793D01*
X14620182Y-14357793D02*
X14620182Y-14395888D01*
X14620182Y-14395888D02*
X14629706Y-14414936D01*
X14629706Y-14414936D02*
X14639229Y-14424460D01*
X14639229Y-14424460D02*
X14658277Y-14433984D01*
X14658277Y-14433984D02*
X14696372Y-14433984D01*
X14696372Y-14433984D02*
X14715420Y-14424460D01*
X14715420Y-14424460D02*
X14724944Y-14414936D01*
X14724944Y-14414936D02*
X14734467Y-14395888D01*
X14734467Y-14395888D02*
X14734467Y-14357793D01*
X14734467Y-14357793D02*
X14724944Y-14338746D01*
X14724944Y-14338746D02*
X14715420Y-14329222D01*
X14715420Y-14329222D02*
X14696372Y-14319698D01*
X14924944Y-14433984D02*
X14810658Y-14433984D01*
X14867801Y-14433984D02*
X14867801Y-14233984D01*
X14867801Y-14233984D02*
X14848753Y-14262555D01*
X14848753Y-14262555D02*
X14829706Y-14281603D01*
X14829706Y-14281603D02*
X14810658Y-14291127D01*
X15001134Y-14233984D02*
X15001134Y-14272079D01*
X15077325Y-14233984D02*
X15077325Y-14272079D01*
X15372563Y-14510174D02*
X15363039Y-14500650D01*
X15363039Y-14500650D02*
X15343991Y-14472079D01*
X15343991Y-14472079D02*
X15334468Y-14453031D01*
X15334468Y-14453031D02*
X15324944Y-14424460D01*
X15324944Y-14424460D02*
X15315420Y-14376841D01*
X15315420Y-14376841D02*
X15315420Y-14338746D01*
X15315420Y-14338746D02*
X15324944Y-14291127D01*
X15324944Y-14291127D02*
X15334468Y-14262555D01*
X15334468Y-14262555D02*
X15343991Y-14243508D01*
X15343991Y-14243508D02*
X15363039Y-14214936D01*
X15363039Y-14214936D02*
X15372563Y-14205412D01*
X15534468Y-14300650D02*
X15534468Y-14433984D01*
X15486848Y-14224460D02*
X15439229Y-14367317D01*
X15439229Y-14367317D02*
X15563039Y-14367317D01*
X15791610Y-14433984D02*
X15791610Y-14233984D01*
X15877325Y-14433984D02*
X15877325Y-14329222D01*
X15877325Y-14329222D02*
X15867801Y-14310174D01*
X15867801Y-14310174D02*
X15848753Y-14300650D01*
X15848753Y-14300650D02*
X15820182Y-14300650D01*
X15820182Y-14300650D02*
X15801134Y-14310174D01*
X15801134Y-14310174D02*
X15791610Y-14319698D01*
X16001134Y-14433984D02*
X15982087Y-14424460D01*
X15982087Y-14424460D02*
X15972563Y-14414936D01*
X15972563Y-14414936D02*
X15963039Y-14395888D01*
X15963039Y-14395888D02*
X15963039Y-14338746D01*
X15963039Y-14338746D02*
X15972563Y-14319698D01*
X15972563Y-14319698D02*
X15982087Y-14310174D01*
X15982087Y-14310174D02*
X16001134Y-14300650D01*
X16001134Y-14300650D02*
X16029706Y-14300650D01*
X16029706Y-14300650D02*
X16048753Y-14310174D01*
X16048753Y-14310174D02*
X16058277Y-14319698D01*
X16058277Y-14319698D02*
X16067801Y-14338746D01*
X16067801Y-14338746D02*
X16067801Y-14395888D01*
X16067801Y-14395888D02*
X16058277Y-14414936D01*
X16058277Y-14414936D02*
X16048753Y-14424460D01*
X16048753Y-14424460D02*
X16029706Y-14433984D01*
X16029706Y-14433984D02*
X16001134Y-14433984D01*
X16182087Y-14433984D02*
X16163039Y-14424460D01*
X16163039Y-14424460D02*
X16153515Y-14405412D01*
X16153515Y-14405412D02*
X16153515Y-14233984D01*
X16334468Y-14424460D02*
X16315420Y-14433984D01*
X16315420Y-14433984D02*
X16277325Y-14433984D01*
X16277325Y-14433984D02*
X16258277Y-14424460D01*
X16258277Y-14424460D02*
X16248753Y-14405412D01*
X16248753Y-14405412D02*
X16248753Y-14329222D01*
X16248753Y-14329222D02*
X16258277Y-14310174D01*
X16258277Y-14310174D02*
X16277325Y-14300650D01*
X16277325Y-14300650D02*
X16315420Y-14300650D01*
X16315420Y-14300650D02*
X16334468Y-14310174D01*
X16334468Y-14310174D02*
X16343991Y-14329222D01*
X16343991Y-14329222D02*
X16343991Y-14348269D01*
X16343991Y-14348269D02*
X16248753Y-14367317D01*
X16420182Y-14424460D02*
X16439230Y-14433984D01*
X16439230Y-14433984D02*
X16477325Y-14433984D01*
X16477325Y-14433984D02*
X16496372Y-14424460D01*
X16496372Y-14424460D02*
X16505896Y-14405412D01*
X16505896Y-14405412D02*
X16505896Y-14395888D01*
X16505896Y-14395888D02*
X16496372Y-14376841D01*
X16496372Y-14376841D02*
X16477325Y-14367317D01*
X16477325Y-14367317D02*
X16448753Y-14367317D01*
X16448753Y-14367317D02*
X16429706Y-14357793D01*
X16429706Y-14357793D02*
X16420182Y-14338746D01*
X16420182Y-14338746D02*
X16420182Y-14329222D01*
X16420182Y-14329222D02*
X16429706Y-14310174D01*
X16429706Y-14310174D02*
X16448753Y-14300650D01*
X16448753Y-14300650D02*
X16477325Y-14300650D01*
X16477325Y-14300650D02*
X16496372Y-14310174D01*
X16572563Y-14510174D02*
X16582087Y-14500650D01*
X16582087Y-14500650D02*
X16601134Y-14472079D01*
X16601134Y-14472079D02*
X16610658Y-14453031D01*
X16610658Y-14453031D02*
X16620182Y-14424460D01*
X16620182Y-14424460D02*
X16629706Y-14376841D01*
X16629706Y-14376841D02*
X16629706Y-14338746D01*
X16629706Y-14338746D02*
X16620182Y-14291127D01*
X16620182Y-14291127D02*
X16610658Y-14262555D01*
X16610658Y-14262555D02*
X16601134Y-14243508D01*
X16601134Y-14243508D02*
X16582087Y-14214936D01*
X16582087Y-14214936D02*
X16572563Y-14205412D01*
X16934468Y-14510174D02*
X16924944Y-14500650D01*
X16924944Y-14500650D02*
X16905896Y-14472079D01*
X16905896Y-14472079D02*
X16896373Y-14453031D01*
X16896373Y-14453031D02*
X16886849Y-14424460D01*
X16886849Y-14424460D02*
X16877325Y-14376841D01*
X16877325Y-14376841D02*
X16877325Y-14338746D01*
X16877325Y-14338746D02*
X16886849Y-14291127D01*
X16886849Y-14291127D02*
X16896373Y-14262555D01*
X16896373Y-14262555D02*
X16905896Y-14243508D01*
X16905896Y-14243508D02*
X16924944Y-14214936D01*
X16924944Y-14214936D02*
X16934468Y-14205412D01*
X17010658Y-14300650D02*
X17010658Y-14433984D01*
X17010658Y-14319698D02*
X17020182Y-14310174D01*
X17020182Y-14310174D02*
X17039230Y-14300650D01*
X17039230Y-14300650D02*
X17067801Y-14300650D01*
X17067801Y-14300650D02*
X17086849Y-14310174D01*
X17086849Y-14310174D02*
X17096373Y-14329222D01*
X17096373Y-14329222D02*
X17096373Y-14433984D01*
X17220182Y-14433984D02*
X17201134Y-14424460D01*
X17201134Y-14424460D02*
X17191611Y-14414936D01*
X17191611Y-14414936D02*
X17182087Y-14395888D01*
X17182087Y-14395888D02*
X17182087Y-14338746D01*
X17182087Y-14338746D02*
X17191611Y-14319698D01*
X17191611Y-14319698D02*
X17201134Y-14310174D01*
X17201134Y-14310174D02*
X17220182Y-14300650D01*
X17220182Y-14300650D02*
X17248754Y-14300650D01*
X17248754Y-14300650D02*
X17267801Y-14310174D01*
X17267801Y-14310174D02*
X17277325Y-14319698D01*
X17277325Y-14319698D02*
X17286849Y-14338746D01*
X17286849Y-14338746D02*
X17286849Y-14395888D01*
X17286849Y-14395888D02*
X17277325Y-14414936D01*
X17277325Y-14414936D02*
X17267801Y-14424460D01*
X17267801Y-14424460D02*
X17248754Y-14433984D01*
X17248754Y-14433984D02*
X17220182Y-14433984D01*
X17343992Y-14300650D02*
X17420182Y-14300650D01*
X17372563Y-14233984D02*
X17372563Y-14405412D01*
X17372563Y-14405412D02*
X17382087Y-14424460D01*
X17382087Y-14424460D02*
X17401134Y-14433984D01*
X17401134Y-14433984D02*
X17420182Y-14433984D01*
X17639230Y-14300650D02*
X17639230Y-14500650D01*
X17639230Y-14310174D02*
X17658277Y-14300650D01*
X17658277Y-14300650D02*
X17696373Y-14300650D01*
X17696373Y-14300650D02*
X17715420Y-14310174D01*
X17715420Y-14310174D02*
X17724944Y-14319698D01*
X17724944Y-14319698D02*
X17734468Y-14338746D01*
X17734468Y-14338746D02*
X17734468Y-14395888D01*
X17734468Y-14395888D02*
X17724944Y-14414936D01*
X17724944Y-14414936D02*
X17715420Y-14424460D01*
X17715420Y-14424460D02*
X17696373Y-14433984D01*
X17696373Y-14433984D02*
X17658277Y-14433984D01*
X17658277Y-14433984D02*
X17639230Y-14424460D01*
X17848754Y-14433984D02*
X17829706Y-14424460D01*
X17829706Y-14424460D02*
X17820182Y-14405412D01*
X17820182Y-14405412D02*
X17820182Y-14233984D01*
X18010658Y-14433984D02*
X18010658Y-14329222D01*
X18010658Y-14329222D02*
X18001135Y-14310174D01*
X18001135Y-14310174D02*
X17982087Y-14300650D01*
X17982087Y-14300650D02*
X17943992Y-14300650D01*
X17943992Y-14300650D02*
X17924944Y-14310174D01*
X18010658Y-14424460D02*
X17991611Y-14433984D01*
X17991611Y-14433984D02*
X17943992Y-14433984D01*
X17943992Y-14433984D02*
X17924944Y-14424460D01*
X17924944Y-14424460D02*
X17915420Y-14405412D01*
X17915420Y-14405412D02*
X17915420Y-14386365D01*
X17915420Y-14386365D02*
X17924944Y-14367317D01*
X17924944Y-14367317D02*
X17943992Y-14357793D01*
X17943992Y-14357793D02*
X17991611Y-14357793D01*
X17991611Y-14357793D02*
X18010658Y-14348269D01*
X18077325Y-14300650D02*
X18153515Y-14300650D01*
X18105896Y-14233984D02*
X18105896Y-14405412D01*
X18105896Y-14405412D02*
X18115420Y-14424460D01*
X18115420Y-14424460D02*
X18134468Y-14433984D01*
X18134468Y-14433984D02*
X18153515Y-14433984D01*
X18296373Y-14424460D02*
X18277325Y-14433984D01*
X18277325Y-14433984D02*
X18239230Y-14433984D01*
X18239230Y-14433984D02*
X18220182Y-14424460D01*
X18220182Y-14424460D02*
X18210658Y-14405412D01*
X18210658Y-14405412D02*
X18210658Y-14329222D01*
X18210658Y-14329222D02*
X18220182Y-14310174D01*
X18220182Y-14310174D02*
X18239230Y-14300650D01*
X18239230Y-14300650D02*
X18277325Y-14300650D01*
X18277325Y-14300650D02*
X18296373Y-14310174D01*
X18296373Y-14310174D02*
X18305896Y-14329222D01*
X18305896Y-14329222D02*
X18305896Y-14348269D01*
X18305896Y-14348269D02*
X18210658Y-14367317D01*
X18477325Y-14433984D02*
X18477325Y-14233984D01*
X18477325Y-14424460D02*
X18458277Y-14433984D01*
X18458277Y-14433984D02*
X18420182Y-14433984D01*
X18420182Y-14433984D02*
X18401135Y-14424460D01*
X18401135Y-14424460D02*
X18391611Y-14414936D01*
X18391611Y-14414936D02*
X18382087Y-14395888D01*
X18382087Y-14395888D02*
X18382087Y-14338746D01*
X18382087Y-14338746D02*
X18391611Y-14319698D01*
X18391611Y-14319698D02*
X18401135Y-14310174D01*
X18401135Y-14310174D02*
X18420182Y-14300650D01*
X18420182Y-14300650D02*
X18458277Y-14300650D01*
X18458277Y-14300650D02*
X18477325Y-14310174D01*
X18553516Y-14510174D02*
X18563039Y-14500650D01*
X18563039Y-14500650D02*
X18582087Y-14472079D01*
X18582087Y-14472079D02*
X18591611Y-14453031D01*
X18591611Y-14453031D02*
X18601135Y-14424460D01*
X18601135Y-14424460D02*
X18610658Y-14376841D01*
X18610658Y-14376841D02*
X18610658Y-14338746D01*
X18610658Y-14338746D02*
X18601135Y-14291127D01*
X18601135Y-14291127D02*
X18591611Y-14262555D01*
X18591611Y-14262555D02*
X18582087Y-14243508D01*
X18582087Y-14243508D02*
X18563039Y-14214936D01*
X18563039Y-14214936D02*
X18553516Y-14205412D01*
M02*
