%TF.GenerationSoftware,KiCad,Pcbnew,8.0.5*%
%TF.CreationDate,2024-10-20T03:08:34+02:00*%
%TF.ProjectId,Kingfisher,4b696e67-6669-4736-9865-722e6b696361,rev?*%
%TF.SameCoordinates,Original*%
%TF.FileFunction,Soldermask,Top*%
%TF.FilePolarity,Negative*%
%FSLAX46Y46*%
G04 Gerber Fmt 4.6, Leading zero omitted, Abs format (unit mm)*
G04 Created by KiCad (PCBNEW 8.0.5) date 2024-10-20 03:08:34*
%MOMM*%
%LPD*%
G01*
G04 APERTURE LIST*
G04 Aperture macros list*
%AMRoundRect*
0 Rectangle with rounded corners*
0 $1 Rounding radius*
0 $2 $3 $4 $5 $6 $7 $8 $9 X,Y pos of 4 corners*
0 Add a 4 corners polygon primitive as box body*
4,1,4,$2,$3,$4,$5,$6,$7,$8,$9,$2,$3,0*
0 Add four circle primitives for the rounded corners*
1,1,$1+$1,$2,$3*
1,1,$1+$1,$4,$5*
1,1,$1+$1,$6,$7*
1,1,$1+$1,$8,$9*
0 Add four rect primitives between the rounded corners*
20,1,$1+$1,$2,$3,$4,$5,0*
20,1,$1+$1,$4,$5,$6,$7,0*
20,1,$1+$1,$6,$7,$8,$9,0*
20,1,$1+$1,$8,$9,$2,$3,0*%
G04 Aperture macros list end*
%ADD10RoundRect,0.250000X0.250000X0.475000X-0.250000X0.475000X-0.250000X-0.475000X0.250000X-0.475000X0*%
%ADD11C,3.000000*%
%ADD12R,1.000000X1.000000*%
%ADD13RoundRect,0.250000X-0.475000X0.250000X-0.475000X-0.250000X0.475000X-0.250000X0.475000X0.250000X0*%
%ADD14R,1.700000X1.700000*%
%ADD15O,1.700000X1.700000*%
%ADD16RoundRect,0.250000X-0.250000X-0.475000X0.250000X-0.475000X0.250000X0.475000X-0.250000X0.475000X0*%
%ADD17RoundRect,0.250000X0.475000X-0.250000X0.475000X0.250000X-0.475000X0.250000X-0.475000X-0.250000X0*%
%ADD18RoundRect,0.150000X0.825000X0.150000X-0.825000X0.150000X-0.825000X-0.150000X0.825000X-0.150000X0*%
%ADD19RoundRect,0.218750X0.381250X-0.218750X0.381250X0.218750X-0.381250X0.218750X-0.381250X-0.218750X0*%
%ADD20RoundRect,0.250000X-0.262500X-0.450000X0.262500X-0.450000X0.262500X0.450000X-0.262500X0.450000X0*%
%ADD21RoundRect,0.250000X-0.450000X0.262500X-0.450000X-0.262500X0.450000X-0.262500X0.450000X0.262500X0*%
%ADD22RoundRect,0.218750X0.218750X0.381250X-0.218750X0.381250X-0.218750X-0.381250X0.218750X-0.381250X0*%
%ADD23R,2.790000X0.740000*%
%ADD24RoundRect,0.112500X0.187500X0.112500X-0.187500X0.112500X-0.187500X-0.112500X0.187500X-0.112500X0*%
%ADD25C,1.500000*%
%ADD26C,3.316000*%
%ADD27C,1.428000*%
%ADD28RoundRect,0.150000X-0.512500X-0.150000X0.512500X-0.150000X0.512500X0.150000X-0.512500X0.150000X0*%
%ADD29RoundRect,0.243750X-0.456250X0.243750X-0.456250X-0.243750X0.456250X-0.243750X0.456250X0.243750X0*%
%ADD30R,0.900000X0.300000*%
%ADD31R,0.300000X0.900000*%
%ADD32R,3.000000X3.000000*%
%ADD33R,2.300000X2.300000*%
%ADD34C,2.300000*%
%ADD35RoundRect,0.075000X-0.700000X-0.075000X0.700000X-0.075000X0.700000X0.075000X-0.700000X0.075000X0*%
%ADD36RoundRect,0.075000X-0.075000X-0.700000X0.075000X-0.700000X0.075000X0.700000X-0.075000X0.700000X0*%
G04 APERTURE END LIST*
D10*
%TO.C,C20*%
X157900000Y-110400000D03*
X156000000Y-110400000D03*
%TD*%
D11*
%TO.C,H4*%
X178700000Y-66300000D03*
%TD*%
D12*
%TO.C,TP3*%
X143675000Y-99305000D03*
%TD*%
D13*
%TO.C,C30*%
X150100000Y-108150000D03*
X150100000Y-110050000D03*
%TD*%
D14*
%TO.C,J3*%
X164250000Y-73625000D03*
D15*
X166790000Y-73625000D03*
%TD*%
D16*
%TO.C,C15*%
X139675000Y-96205000D03*
X141575000Y-96205000D03*
%TD*%
D12*
%TO.C,TP2*%
X149550000Y-83895000D03*
%TD*%
D17*
%TO.C,C21*%
X144900000Y-121200000D03*
X144900000Y-119300000D03*
%TD*%
%TO.C,C7*%
X178750000Y-92500000D03*
X178750000Y-90600000D03*
%TD*%
D14*
%TO.C,J12*%
X128625000Y-104460000D03*
D15*
X128625000Y-101920000D03*
%TD*%
D10*
%TO.C,C11*%
X152925000Y-94105000D03*
X151025000Y-94105000D03*
%TD*%
D16*
%TO.C,C6*%
X158300000Y-103750000D03*
X160200000Y-103750000D03*
%TD*%
D18*
%TO.C,U2*%
X148725000Y-97405000D03*
X148725000Y-96135000D03*
X148725000Y-94865000D03*
X148725000Y-93595000D03*
X143775000Y-93595000D03*
X143775000Y-94865000D03*
X143775000Y-96135000D03*
X143775000Y-97405000D03*
%TD*%
D19*
%TO.C,FB3*%
X146200000Y-110112500D03*
X146200000Y-107987500D03*
%TD*%
D16*
%TO.C,C2*%
X171300000Y-84750000D03*
X173200000Y-84750000D03*
%TD*%
D20*
%TO.C,R2*%
X171462500Y-75435000D03*
X173287500Y-75435000D03*
%TD*%
D13*
%TO.C,C26*%
X152100000Y-108150000D03*
X152100000Y-110050000D03*
%TD*%
D16*
%TO.C,C18*%
X157950000Y-100070000D03*
X159850000Y-100070000D03*
%TD*%
D21*
%TO.C,R1*%
X119500000Y-86962500D03*
X119500000Y-88787500D03*
%TD*%
D22*
%TO.C,FB1*%
X153037500Y-96105000D03*
X150912500Y-96105000D03*
%TD*%
D11*
%TO.C,H1*%
X121300000Y-66300000D03*
%TD*%
D10*
%TO.C,C19*%
X157900000Y-112400000D03*
X156000000Y-112400000D03*
%TD*%
D16*
%TO.C,C10*%
X141250000Y-88395000D03*
X143150000Y-88395000D03*
%TD*%
D13*
%TO.C,C23*%
X148100000Y-108150000D03*
X148100000Y-110050000D03*
%TD*%
D14*
%TO.C,J1*%
X142975000Y-73625000D03*
D15*
X145515000Y-73625000D03*
%TD*%
D23*
%TO.C,J7*%
X174900000Y-110340000D03*
X170830000Y-110340000D03*
X174900000Y-109070000D03*
X170830000Y-109070000D03*
X174900000Y-107800000D03*
X170830000Y-107800000D03*
X174900000Y-106530000D03*
X170830000Y-106530000D03*
X174900000Y-105260000D03*
X170830000Y-105260000D03*
%TD*%
D16*
%TO.C,C1*%
X164000000Y-84750000D03*
X165900000Y-84750000D03*
%TD*%
%TO.C,C17*%
X157850000Y-85270000D03*
X159750000Y-85270000D03*
%TD*%
%TO.C,C29*%
X142650000Y-112400000D03*
X144550000Y-112400000D03*
%TD*%
D14*
%TO.C,J11*%
X130950000Y-123950000D03*
D15*
X130950000Y-126490000D03*
X133490000Y-123950000D03*
X133490000Y-126490000D03*
X136030000Y-123950000D03*
X136030000Y-126490000D03*
X138570000Y-123950000D03*
X138570000Y-126490000D03*
X141110000Y-123950000D03*
X141110000Y-126490000D03*
X143650000Y-123950000D03*
X143650000Y-126490000D03*
X146190000Y-123950000D03*
X146190000Y-126490000D03*
X148730000Y-123950000D03*
X148730000Y-126490000D03*
X151270000Y-123950000D03*
X151270000Y-126490000D03*
X153810000Y-123950000D03*
X153810000Y-126490000D03*
X156350000Y-123950000D03*
X156350000Y-126490000D03*
X158890000Y-123950000D03*
X158890000Y-126490000D03*
X161430000Y-123950000D03*
X161430000Y-126490000D03*
X163970000Y-123950000D03*
X163970000Y-126490000D03*
X166510000Y-123950000D03*
X166510000Y-126490000D03*
X169050000Y-123950000D03*
X169050000Y-126490000D03*
%TD*%
D13*
%TO.C,C16*%
X170000000Y-70100000D03*
X170000000Y-72000000D03*
%TD*%
D17*
%TO.C,C3*%
X178500000Y-85650000D03*
X178500000Y-83750000D03*
%TD*%
D24*
%TO.C,D2*%
X143350000Y-86295000D03*
X141250000Y-86295000D03*
%TD*%
D17*
%TO.C,C8*%
X174750000Y-101900000D03*
X174750000Y-100000000D03*
%TD*%
D16*
%TO.C,C25*%
X142600000Y-108300000D03*
X144500000Y-108300000D03*
%TD*%
D12*
%TO.C,TP6*%
X121250000Y-121210000D03*
%TD*%
%TO.C,TP4*%
X121250000Y-124210000D03*
%TD*%
D14*
%TO.C,J4*%
X168960000Y-80750000D03*
D15*
X171500000Y-80750000D03*
X174040000Y-80750000D03*
%TD*%
D16*
%TO.C,C13*%
X139725000Y-94105000D03*
X141625000Y-94105000D03*
%TD*%
D25*
%TO.C,e1*%
X158900000Y-90250000D03*
X158900000Y-95130000D03*
%TD*%
D14*
%TO.C,J2*%
X129560000Y-82700000D03*
D15*
X132100000Y-82700000D03*
X134640000Y-82700000D03*
%TD*%
D14*
%TO.C,J13*%
X135500000Y-99750000D03*
D15*
X135500000Y-102290000D03*
X135500000Y-104830000D03*
%TD*%
D26*
%TO.C,J6*%
X138740000Y-73625000D03*
X126700000Y-73625000D03*
D27*
X131470000Y-78335000D03*
X133970000Y-78335000D03*
X133970000Y-76335000D03*
X131470000Y-76335000D03*
%TD*%
D16*
%TO.C,C27*%
X142650000Y-110400000D03*
X144550000Y-110400000D03*
%TD*%
%TO.C,C5*%
X162050000Y-79000000D03*
X163950000Y-79000000D03*
%TD*%
D12*
%TO.C,TP1*%
X132000000Y-87500000D03*
%TD*%
%TO.C,TP5*%
X132000000Y-89750000D03*
%TD*%
D28*
%TO.C,U1*%
X145112500Y-86300000D03*
X145112500Y-87250000D03*
X145112500Y-88200000D03*
X147387500Y-88200000D03*
X147387500Y-86300000D03*
%TD*%
D17*
%TO.C,C28*%
X154100000Y-110100000D03*
X154100000Y-108200000D03*
%TD*%
D10*
%TO.C,C12*%
X151100000Y-88095000D03*
X149200000Y-88095000D03*
%TD*%
D21*
%TO.C,R4*%
X154900000Y-119275000D03*
X154900000Y-121100000D03*
%TD*%
D14*
%TO.C,J5*%
X153725000Y-73625000D03*
D15*
X156265000Y-73625000D03*
X158805000Y-73625000D03*
%TD*%
D29*
%TO.C,D1*%
X119500000Y-82250000D03*
X119500000Y-84125000D03*
%TD*%
D30*
%TO.C,IC1*%
X147050000Y-113750000D03*
X147050000Y-114250000D03*
X147050000Y-114750000D03*
X147050000Y-115250000D03*
X147050000Y-115750000D03*
X147050000Y-116250000D03*
X147050000Y-116750000D03*
X147050000Y-117250000D03*
X147050000Y-117750000D03*
X147050000Y-118250000D03*
D31*
X147750000Y-118950000D03*
X148250000Y-118950000D03*
X148750000Y-118950000D03*
X149250000Y-118950000D03*
X149750000Y-118950000D03*
X150250000Y-118950000D03*
X150750000Y-118950000D03*
X151250000Y-118950000D03*
X151750000Y-118950000D03*
X152250000Y-118950000D03*
D30*
X152950000Y-118250000D03*
X152950000Y-117750000D03*
X152950000Y-117250000D03*
X152950000Y-116750000D03*
X152950000Y-116250000D03*
X152950000Y-115750000D03*
X152950000Y-115250000D03*
X152950000Y-114750000D03*
X152950000Y-114250000D03*
X152950000Y-113750000D03*
D31*
X152250000Y-113050000D03*
X151750000Y-113050000D03*
X151250000Y-113050000D03*
X150750000Y-113050000D03*
X150250000Y-113050000D03*
X149750000Y-113050000D03*
X149250000Y-113050000D03*
X148750000Y-113050000D03*
X148250000Y-113050000D03*
X147750000Y-113050000D03*
D32*
X150000000Y-116000000D03*
%TD*%
D11*
%TO.C,H3*%
X178700000Y-133700000D03*
%TD*%
D14*
%TO.C,J8*%
X128625000Y-96710000D03*
D15*
X128625000Y-94170000D03*
%TD*%
D19*
%TO.C,FB2*%
X163000000Y-100232500D03*
X163000000Y-98107500D03*
%TD*%
D13*
%TO.C,C4*%
X162000000Y-116050000D03*
X162000000Y-117950000D03*
%TD*%
D33*
%TO.C,J9*%
X121250000Y-116710000D03*
D34*
X121250000Y-113210000D03*
X121250000Y-109710000D03*
%TD*%
D20*
%TO.C,R3*%
X171462500Y-77435000D03*
X173287500Y-77435000D03*
%TD*%
D11*
%TO.C,H2*%
X121300000Y-133700000D03*
%TD*%
D10*
%TO.C,C24*%
X157850000Y-108400000D03*
X155950000Y-108400000D03*
%TD*%
%TO.C,C14*%
X151150000Y-85995000D03*
X149250000Y-85995000D03*
%TD*%
D16*
%TO.C,C22*%
X142550000Y-106250000D03*
X144450000Y-106250000D03*
%TD*%
D14*
%TO.C,J10*%
X135500000Y-89460000D03*
D15*
X135500000Y-92000000D03*
X135500000Y-94540000D03*
%TD*%
D16*
%TO.C,C9*%
X141350000Y-84195000D03*
X143250000Y-84195000D03*
%TD*%
D35*
%TO.C,U3*%
X163625000Y-89220000D03*
X163625000Y-89720000D03*
X163625000Y-90220000D03*
X163625000Y-90720000D03*
X163625000Y-91220000D03*
X163625000Y-91720000D03*
X163625000Y-92220000D03*
X163625000Y-92720000D03*
X163625000Y-93220000D03*
X163625000Y-93720000D03*
X163625000Y-94220000D03*
X163625000Y-94720000D03*
X163625000Y-95220000D03*
X163625000Y-95720000D03*
X163625000Y-96220000D03*
X163625000Y-96720000D03*
D36*
X165550000Y-98645000D03*
X166050000Y-98645000D03*
X166550000Y-98645000D03*
X167050000Y-98645000D03*
X167550000Y-98645000D03*
X168050000Y-98645000D03*
X168550000Y-98645000D03*
X169050000Y-98645000D03*
X169550000Y-98645000D03*
X170050000Y-98645000D03*
X170550000Y-98645000D03*
X171050000Y-98645000D03*
X171550000Y-98645000D03*
X172050000Y-98645000D03*
X172550000Y-98645000D03*
X173050000Y-98645000D03*
D35*
X174975000Y-96720000D03*
X174975000Y-96220000D03*
X174975000Y-95720000D03*
X174975000Y-95220000D03*
X174975000Y-94720000D03*
X174975000Y-94220000D03*
X174975000Y-93720000D03*
X174975000Y-93220000D03*
X174975000Y-92720000D03*
X174975000Y-92220000D03*
X174975000Y-91720000D03*
X174975000Y-91220000D03*
X174975000Y-90720000D03*
X174975000Y-90220000D03*
X174975000Y-89720000D03*
X174975000Y-89220000D03*
D36*
X173050000Y-87295000D03*
X172550000Y-87295000D03*
X172050000Y-87295000D03*
X171550000Y-87295000D03*
X171050000Y-87295000D03*
X170550000Y-87295000D03*
X170050000Y-87295000D03*
X169550000Y-87295000D03*
X169050000Y-87295000D03*
X168550000Y-87295000D03*
X168050000Y-87295000D03*
X167550000Y-87295000D03*
X167050000Y-87295000D03*
X166550000Y-87295000D03*
X166050000Y-87295000D03*
X165550000Y-87295000D03*
%TD*%
M02*
