%TF.GenerationSoftware,KiCad,Pcbnew,8.0.5*%
%TF.CreationDate,2024-10-20T03:08:29+02:00*%
%TF.ProjectId,Kingfisher,4b696e67-6669-4736-9865-722e6b696361,rev?*%
%TF.SameCoordinates,Original*%
%TF.FileFunction,Drillmap*%
%TF.FilePolarity,Positive*%
%FSLAX45Y45*%
G04 Gerber Fmt 4.5, Leading zero omitted, Abs format (unit mm)*
G04 Created by KiCad (PCBNEW 8.0.5) date 2024-10-20 03:08:29*
%MOMM*%
%LPD*%
G01*
G04 APERTURE LIST*
%ADD10C,0.050000*%
%ADD11C,0.200000*%
%ADD12C,0.100000*%
%ADD13C,0.120000*%
%ADD14C,0.230000*%
G04 APERTURE END LIST*
D10*
X12130000Y-6300000D02*
X17870000Y-6300000D01*
X17870000Y-6300000D02*
G75*
G02*
X18200000Y-6630000I0J-330000D01*
G01*
X18200000Y-13370000D02*
G75*
G02*
X17870000Y-13700000I-330000J0D01*
G01*
X11800000Y-13370000D02*
X11800000Y-6630000D01*
X12130000Y-13700000D02*
X17870000Y-13700000D01*
X12130000Y-13700000D02*
G75*
G02*
X11800000Y-13370000I0J330000D01*
G01*
X11800000Y-6630000D02*
G75*
G02*
X12130000Y-6300000I330000J0D01*
G01*
X18200000Y-6630000D02*
X18200000Y-13370000D01*
D11*
D12*
X11935000Y-9047500D02*
X11965000Y-9077500D01*
X11965000Y-9047500D02*
X11935000Y-9077500D01*
X14360000Y-8689500D02*
X14390000Y-8719500D01*
X14390000Y-8689500D02*
X14360000Y-8719500D01*
X14435000Y-10460000D02*
X14465000Y-10490000D01*
X14465000Y-10460000D02*
X14435000Y-10490000D01*
X14535000Y-11795000D02*
X14565000Y-11825000D01*
X14565000Y-11795000D02*
X14535000Y-11825000D01*
X14560000Y-11185000D02*
X14590000Y-11215000D01*
X14590000Y-11185000D02*
X14560000Y-11215000D01*
X14624999Y-12075000D02*
X14654999Y-12105000D01*
X14654999Y-12075000D02*
X14624999Y-12105000D01*
X14635000Y-11290000D02*
X14665000Y-11320000D01*
X14665000Y-11290000D02*
X14635000Y-11320000D01*
X14705000Y-12075000D02*
X14735000Y-12105000D01*
X14735000Y-12075000D02*
X14705000Y-12105000D01*
X14760000Y-8485000D02*
X14790000Y-8515000D01*
X14790000Y-8485000D02*
X14760000Y-8515000D01*
X14785000Y-12075000D02*
X14815000Y-12105000D01*
X14815000Y-12075000D02*
X14785000Y-12105000D01*
X14835000Y-11110000D02*
X14865000Y-11140000D01*
X14865000Y-11110000D02*
X14835000Y-11140000D01*
X14865000Y-12075000D02*
X14895000Y-12105000D01*
X14895000Y-12075000D02*
X14865000Y-12105000D01*
X14945000Y-12075000D02*
X14975000Y-12105000D01*
X14975000Y-12075000D02*
X14945000Y-12105000D01*
X14985000Y-11585000D02*
X15015000Y-11615000D01*
X15015000Y-11585000D02*
X14985000Y-11615000D01*
X15025000Y-12075000D02*
X15055000Y-12105000D01*
X15055000Y-12075000D02*
X15025000Y-12105000D01*
X15105000Y-12075000D02*
X15135000Y-12105000D01*
X15135000Y-12075000D02*
X15105000Y-12105000D01*
X15185000Y-11535000D02*
X15215000Y-11565000D01*
X15215000Y-11535000D02*
X15185000Y-11565000D01*
X15185000Y-12075000D02*
X15215000Y-12105000D01*
X15215000Y-12075000D02*
X15185000Y-12105000D01*
X15265001Y-12075000D02*
X15295001Y-12105000D01*
X15295001Y-12075000D02*
X15265001Y-12105000D01*
X15310000Y-11135000D02*
X15340000Y-11165000D01*
X15340000Y-11135000D02*
X15310000Y-11165000D01*
X15345001Y-12075000D02*
X15375001Y-12105000D01*
X15375001Y-12075000D02*
X15345001Y-12105000D01*
X15410000Y-9610000D02*
X15440000Y-9640000D01*
X15440000Y-9610000D02*
X15410000Y-9640000D01*
X15410000Y-11210000D02*
X15440000Y-11240000D01*
X15440000Y-11210000D02*
X15410000Y-11240000D01*
X15455000Y-11795000D02*
X15485000Y-11825000D01*
X15485000Y-11795000D02*
X15455000Y-11825000D01*
X15985000Y-11785000D02*
X16015000Y-11815000D01*
X16015000Y-11785000D02*
X15985000Y-11815000D01*
X16160000Y-10385000D02*
X16190000Y-10415000D01*
X16190000Y-10385000D02*
X16160000Y-10415000D01*
X16335000Y-8835000D02*
X16365000Y-8865000D01*
X16365000Y-8835000D02*
X16335000Y-8865000D01*
X16410000Y-7760000D02*
X16440000Y-7790000D01*
X16440000Y-7760000D02*
X16410000Y-7790000D01*
X16410000Y-10035000D02*
X16440000Y-10065000D01*
X16440000Y-10035000D02*
X16410000Y-10065000D01*
X16475000Y-8585000D02*
X16505000Y-8615000D01*
X16505000Y-8585000D02*
X16475000Y-8615000D01*
X16535000Y-9210000D02*
X16565000Y-9240000D01*
X16565000Y-9210000D02*
X16535000Y-9240000D01*
X16535000Y-9685000D02*
X16565000Y-9715000D01*
X16565000Y-9685000D02*
X16535000Y-9715000D01*
X16570000Y-10135000D02*
X16600000Y-10165000D01*
X16600000Y-10135000D02*
X16570000Y-10165000D01*
X16662306Y-8882694D02*
X16692306Y-8912694D01*
X16692306Y-8882694D02*
X16662306Y-8912694D01*
X16710000Y-8335000D02*
X16740000Y-8365000D01*
X16740000Y-8335000D02*
X16710000Y-8365000D01*
X16760000Y-8560000D02*
X16790000Y-8590000D01*
X16790000Y-8560000D02*
X16760000Y-8590000D01*
X16785000Y-10135000D02*
X16815000Y-10165000D01*
X16815000Y-10135000D02*
X16785000Y-10165000D01*
X16800000Y-10000000D02*
X16830000Y-10030000D01*
X16830000Y-10000000D02*
X16800000Y-10030000D01*
X16810000Y-10260000D02*
X16840000Y-10290000D01*
X16840000Y-10260000D02*
X16810000Y-10290000D01*
X16860000Y-8560000D02*
X16890000Y-8590000D01*
X16890000Y-8560000D02*
X16860000Y-8590000D01*
X16867096Y-10043568D02*
X16897096Y-10073568D01*
X16897096Y-10043568D02*
X16867096Y-10073568D01*
X16910000Y-9285000D02*
X16940000Y-9315000D01*
X16940000Y-9285000D02*
X16910000Y-9315000D01*
X16932500Y-9997500D02*
X16962500Y-10027500D01*
X16962500Y-9997500D02*
X16932500Y-10027500D01*
X16947500Y-8847500D02*
X16977500Y-8877500D01*
X16977500Y-8847500D02*
X16947500Y-8877500D01*
X16960000Y-7610000D02*
X16990000Y-7640000D01*
X16990000Y-7610000D02*
X16960000Y-7640000D01*
X17003001Y-10035310D02*
X17033001Y-10065310D01*
X17033001Y-10035310D02*
X17003001Y-10065310D01*
X17095000Y-9997653D02*
X17125000Y-10027653D01*
X17125000Y-9997653D02*
X17095000Y-10027653D01*
X17260000Y-9185000D02*
X17290000Y-9215000D01*
X17290000Y-9185000D02*
X17260000Y-9215000D01*
X17260000Y-9285000D02*
X17290000Y-9315000D01*
X17290000Y-9285000D02*
X17260000Y-9315000D01*
X17285000Y-11110000D02*
X17315000Y-11140000D01*
X17315000Y-11110000D02*
X17285000Y-11140000D01*
X17335000Y-8960000D02*
X17365000Y-8990000D01*
X17365000Y-8960000D02*
X17335000Y-8990000D01*
X17460000Y-9860000D02*
X17490000Y-9890000D01*
X17490000Y-9860000D02*
X17460000Y-9890000D01*
X17485000Y-8335000D02*
X17515000Y-8365000D01*
X17515000Y-8335000D02*
X17485000Y-8365000D01*
X17485000Y-8810000D02*
X17515000Y-8840000D01*
X17515000Y-8810000D02*
X17485000Y-8840000D01*
X17560000Y-10385000D02*
X17590000Y-10415000D01*
X17590000Y-10385000D02*
X17560000Y-10415000D01*
X17860000Y-8210000D02*
X17890000Y-8240000D01*
X17890000Y-8210000D02*
X17860000Y-8240000D01*
X17860000Y-8885000D02*
X17890000Y-8915000D01*
X17890000Y-8885000D02*
X17860000Y-8915000D01*
X15930000Y-9025000D02*
G75*
G02*
X15850000Y-9025000I-40000J0D01*
G01*
X15850000Y-9025000D02*
G75*
G02*
X15930000Y-9025000I40000J0D01*
G01*
X15930000Y-9513000D02*
G75*
G02*
X15850000Y-9513000I-40000J0D01*
G01*
X15850000Y-9513000D02*
G75*
G02*
X15930000Y-9513000I40000J0D01*
G01*
X13147000Y-7587500D02*
X13147000Y-7679500D01*
X13101000Y-7633500D02*
X13193000Y-7633500D01*
X13147000Y-7787500D02*
X13147000Y-7879500D01*
X13101000Y-7833500D02*
X13193000Y-7833500D01*
X13397000Y-7587500D02*
X13397000Y-7679500D01*
X13351000Y-7633500D02*
X13443000Y-7633500D01*
X13397000Y-7787500D02*
X13397000Y-7879500D01*
X13351000Y-7833500D02*
X13443000Y-7833500D01*
X12897856Y-9452356D02*
X12897856Y-9381644D01*
X12827144Y-9381644D01*
X12827144Y-9452356D01*
X12897856Y-9452356D01*
X12897856Y-9706356D02*
X12897856Y-9635644D01*
X12827144Y-9635644D01*
X12827144Y-9706356D01*
X12897856Y-9706356D01*
X12897856Y-10227356D02*
X12897856Y-10156644D01*
X12827144Y-10156644D01*
X12827144Y-10227356D01*
X12897856Y-10227356D01*
X12897856Y-10481356D02*
X12897856Y-10410644D01*
X12827144Y-10410644D01*
X12827144Y-10481356D01*
X12897856Y-10481356D01*
X12991356Y-8305356D02*
X12991356Y-8234644D01*
X12920644Y-8234644D01*
X12920644Y-8305356D01*
X12991356Y-8305356D01*
X13130356Y-12430356D02*
X13130356Y-12359644D01*
X13059644Y-12359644D01*
X13059644Y-12430356D01*
X13130356Y-12430356D01*
X13130356Y-12684356D02*
X13130356Y-12613644D01*
X13059644Y-12613644D01*
X13059644Y-12684356D01*
X13130356Y-12684356D01*
X13245356Y-8305356D02*
X13245356Y-8234644D01*
X13174644Y-8234644D01*
X13174644Y-8305356D01*
X13245356Y-8305356D01*
X13384356Y-12430356D02*
X13384356Y-12359644D01*
X13313644Y-12359644D01*
X13313644Y-12430356D01*
X13384356Y-12430356D01*
X13384356Y-12684356D02*
X13384356Y-12613644D01*
X13313644Y-12613644D01*
X13313644Y-12684356D01*
X13384356Y-12684356D01*
X13499356Y-8305356D02*
X13499356Y-8234644D01*
X13428644Y-8234644D01*
X13428644Y-8305356D01*
X13499356Y-8305356D01*
X13585356Y-8981356D02*
X13585356Y-8910644D01*
X13514644Y-8910644D01*
X13514644Y-8981356D01*
X13585356Y-8981356D01*
X13585356Y-9235356D02*
X13585356Y-9164644D01*
X13514644Y-9164644D01*
X13514644Y-9235356D01*
X13585356Y-9235356D01*
X13585356Y-9489356D02*
X13585356Y-9418644D01*
X13514644Y-9418644D01*
X13514644Y-9489356D01*
X13585356Y-9489356D01*
X13585356Y-10010356D02*
X13585356Y-9939644D01*
X13514644Y-9939644D01*
X13514644Y-10010356D01*
X13585356Y-10010356D01*
X13585356Y-10264356D02*
X13585356Y-10193644D01*
X13514644Y-10193644D01*
X13514644Y-10264356D01*
X13585356Y-10264356D01*
X13585356Y-10518356D02*
X13585356Y-10447644D01*
X13514644Y-10447644D01*
X13514644Y-10518356D01*
X13585356Y-10518356D01*
X13638356Y-12430356D02*
X13638356Y-12359644D01*
X13567644Y-12359644D01*
X13567644Y-12430356D01*
X13638356Y-12430356D01*
X13638356Y-12684356D02*
X13638356Y-12613644D01*
X13567644Y-12613644D01*
X13567644Y-12684356D01*
X13638356Y-12684356D01*
X13892356Y-12430356D02*
X13892356Y-12359644D01*
X13821644Y-12359644D01*
X13821644Y-12430356D01*
X13892356Y-12430356D01*
X13892356Y-12684356D02*
X13892356Y-12613644D01*
X13821644Y-12613644D01*
X13821644Y-12684356D01*
X13892356Y-12684356D01*
X14146356Y-12430356D02*
X14146356Y-12359644D01*
X14075644Y-12359644D01*
X14075644Y-12430356D01*
X14146356Y-12430356D01*
X14146356Y-12684356D02*
X14146356Y-12613644D01*
X14075644Y-12613644D01*
X14075644Y-12684356D01*
X14146356Y-12684356D01*
X14332856Y-7397856D02*
X14332856Y-7327144D01*
X14262144Y-7327144D01*
X14262144Y-7397856D01*
X14332856Y-7397856D01*
X14400356Y-12430356D02*
X14400356Y-12359644D01*
X14329644Y-12359644D01*
X14329644Y-12430356D01*
X14400356Y-12430356D01*
X14400356Y-12684356D02*
X14400356Y-12613644D01*
X14329644Y-12613644D01*
X14329644Y-12684356D01*
X14400356Y-12684356D01*
X14586856Y-7397856D02*
X14586856Y-7327144D01*
X14516144Y-7327144D01*
X14516144Y-7397856D01*
X14586856Y-7397856D01*
X14654356Y-12430356D02*
X14654356Y-12359644D01*
X14583644Y-12359644D01*
X14583644Y-12430356D01*
X14654356Y-12430356D01*
X14654356Y-12684356D02*
X14654356Y-12613644D01*
X14583644Y-12613644D01*
X14583644Y-12684356D01*
X14654356Y-12684356D01*
X14908356Y-12430356D02*
X14908356Y-12359644D01*
X14837644Y-12359644D01*
X14837644Y-12430356D01*
X14908356Y-12430356D01*
X14908356Y-12684356D02*
X14908356Y-12613644D01*
X14837644Y-12613644D01*
X14837644Y-12684356D01*
X14908356Y-12684356D01*
X15162356Y-12430356D02*
X15162356Y-12359644D01*
X15091644Y-12359644D01*
X15091644Y-12430356D01*
X15162356Y-12430356D01*
X15162356Y-12684356D02*
X15162356Y-12613644D01*
X15091644Y-12613644D01*
X15091644Y-12684356D01*
X15162356Y-12684356D01*
X15407856Y-7397856D02*
X15407856Y-7327144D01*
X15337144Y-7327144D01*
X15337144Y-7397856D01*
X15407856Y-7397856D01*
X15416356Y-12430356D02*
X15416356Y-12359644D01*
X15345644Y-12359644D01*
X15345644Y-12430356D01*
X15416356Y-12430356D01*
X15416356Y-12684356D02*
X15416356Y-12613644D01*
X15345644Y-12613644D01*
X15345644Y-12684356D01*
X15416356Y-12684356D01*
X15661856Y-7397856D02*
X15661856Y-7327144D01*
X15591144Y-7327144D01*
X15591144Y-7397856D01*
X15661856Y-7397856D01*
X15670356Y-12430356D02*
X15670356Y-12359644D01*
X15599644Y-12359644D01*
X15599644Y-12430356D01*
X15670356Y-12430356D01*
X15670356Y-12684356D02*
X15670356Y-12613644D01*
X15599644Y-12613644D01*
X15599644Y-12684356D01*
X15670356Y-12684356D01*
X15915856Y-7397856D02*
X15915856Y-7327144D01*
X15845144Y-7327144D01*
X15845144Y-7397856D01*
X15915856Y-7397856D01*
X15924356Y-12430356D02*
X15924356Y-12359644D01*
X15853644Y-12359644D01*
X15853644Y-12430356D01*
X15924356Y-12430356D01*
X15924356Y-12684356D02*
X15924356Y-12613644D01*
X15853644Y-12613644D01*
X15853644Y-12684356D01*
X15924356Y-12684356D01*
X16178356Y-12430356D02*
X16178356Y-12359644D01*
X16107644Y-12359644D01*
X16107644Y-12430356D01*
X16178356Y-12430356D01*
X16178356Y-12684356D02*
X16178356Y-12613644D01*
X16107644Y-12613644D01*
X16107644Y-12684356D01*
X16178356Y-12684356D01*
X16432356Y-12430356D02*
X16432356Y-12359644D01*
X16361644Y-12359644D01*
X16361644Y-12430356D01*
X16432356Y-12430356D01*
X16432356Y-12684356D02*
X16432356Y-12613644D01*
X16361644Y-12613644D01*
X16361644Y-12684356D01*
X16432356Y-12684356D01*
X16460356Y-7397856D02*
X16460356Y-7327144D01*
X16389644Y-7327144D01*
X16389644Y-7397856D01*
X16460356Y-7397856D01*
X16686356Y-12430356D02*
X16686356Y-12359644D01*
X16615644Y-12359644D01*
X16615644Y-12430356D01*
X16686356Y-12430356D01*
X16686356Y-12684356D02*
X16686356Y-12613644D01*
X16615644Y-12613644D01*
X16615644Y-12684356D01*
X16686356Y-12684356D01*
X16714356Y-7397856D02*
X16714356Y-7327144D01*
X16643644Y-7327144D01*
X16643644Y-7397856D01*
X16714356Y-7397856D01*
X16931356Y-8110356D02*
X16931356Y-8039644D01*
X16860644Y-8039644D01*
X16860644Y-8110356D01*
X16931356Y-8110356D01*
X16940356Y-12430356D02*
X16940356Y-12359644D01*
X16869644Y-12359644D01*
X16869644Y-12430356D01*
X16940356Y-12430356D01*
X16940356Y-12684356D02*
X16940356Y-12613644D01*
X16869644Y-12613644D01*
X16869644Y-12684356D01*
X16940356Y-12684356D01*
X17185356Y-8110356D02*
X17185356Y-8039644D01*
X17114644Y-8039644D01*
X17114644Y-8110356D01*
X17185356Y-8110356D01*
X17439356Y-8110356D02*
X17439356Y-8039644D01*
X17368644Y-8039644D01*
X17368644Y-8110356D01*
X17439356Y-8110356D01*
D13*
X12125000Y-11031000D02*
X12185000Y-10971000D01*
X12125000Y-10911000D01*
X12065000Y-10971000D01*
X12125000Y-11031000D01*
X12125000Y-11381000D02*
X12185000Y-11321000D01*
X12125000Y-11261000D01*
X12065000Y-11321000D01*
X12125000Y-11381000D01*
X12125000Y-11731000D02*
X12185000Y-11671000D01*
X12125000Y-11611000D01*
X12065000Y-11671000D01*
X12125000Y-11731000D01*
D14*
X12555000Y-7247500D02*
X12785000Y-7477500D01*
X12785000Y-7247500D02*
X12555000Y-7477500D01*
X12785000Y-7362500D02*
G75*
G02*
X12555000Y-7362500I-115000J0D01*
G01*
X12555000Y-7362500D02*
G75*
G02*
X12785000Y-7362500I115000J0D01*
G01*
X13759000Y-7247500D02*
X13989000Y-7477500D01*
X13989000Y-7247500D02*
X13759000Y-7477500D01*
X13989000Y-7362500D02*
G75*
G02*
X13759000Y-7362500I-115000J0D01*
G01*
X13759000Y-7362500D02*
G75*
G02*
X13989000Y-7362500I115000J0D01*
G01*
D11*
X12058277Y-14013984D02*
X12058277Y-13813984D01*
X12058277Y-13813984D02*
X12105896Y-13813984D01*
X12105896Y-13813984D02*
X12134467Y-13823508D01*
X12134467Y-13823508D02*
X12153515Y-13842555D01*
X12153515Y-13842555D02*
X12163039Y-13861603D01*
X12163039Y-13861603D02*
X12172562Y-13899698D01*
X12172562Y-13899698D02*
X12172562Y-13928269D01*
X12172562Y-13928269D02*
X12163039Y-13966365D01*
X12163039Y-13966365D02*
X12153515Y-13985412D01*
X12153515Y-13985412D02*
X12134467Y-14004460D01*
X12134467Y-14004460D02*
X12105896Y-14013984D01*
X12105896Y-14013984D02*
X12058277Y-14013984D01*
X12258277Y-14013984D02*
X12258277Y-13880650D01*
X12258277Y-13918746D02*
X12267801Y-13899698D01*
X12267801Y-13899698D02*
X12277324Y-13890174D01*
X12277324Y-13890174D02*
X12296372Y-13880650D01*
X12296372Y-13880650D02*
X12315420Y-13880650D01*
X12382086Y-14013984D02*
X12382086Y-13880650D01*
X12382086Y-13813984D02*
X12372562Y-13823508D01*
X12372562Y-13823508D02*
X12382086Y-13833031D01*
X12382086Y-13833031D02*
X12391610Y-13823508D01*
X12391610Y-13823508D02*
X12382086Y-13813984D01*
X12382086Y-13813984D02*
X12382086Y-13833031D01*
X12505896Y-14013984D02*
X12486848Y-14004460D01*
X12486848Y-14004460D02*
X12477324Y-13985412D01*
X12477324Y-13985412D02*
X12477324Y-13813984D01*
X12610658Y-14013984D02*
X12591610Y-14004460D01*
X12591610Y-14004460D02*
X12582086Y-13985412D01*
X12582086Y-13985412D02*
X12582086Y-13813984D01*
X12839229Y-14013984D02*
X12839229Y-13813984D01*
X12839229Y-13813984D02*
X12905896Y-13956841D01*
X12905896Y-13956841D02*
X12972562Y-13813984D01*
X12972562Y-13813984D02*
X12972562Y-14013984D01*
X13153515Y-14013984D02*
X13153515Y-13909222D01*
X13153515Y-13909222D02*
X13143991Y-13890174D01*
X13143991Y-13890174D02*
X13124943Y-13880650D01*
X13124943Y-13880650D02*
X13086848Y-13880650D01*
X13086848Y-13880650D02*
X13067801Y-13890174D01*
X13153515Y-14004460D02*
X13134467Y-14013984D01*
X13134467Y-14013984D02*
X13086848Y-14013984D01*
X13086848Y-14013984D02*
X13067801Y-14004460D01*
X13067801Y-14004460D02*
X13058277Y-13985412D01*
X13058277Y-13985412D02*
X13058277Y-13966365D01*
X13058277Y-13966365D02*
X13067801Y-13947317D01*
X13067801Y-13947317D02*
X13086848Y-13937793D01*
X13086848Y-13937793D02*
X13134467Y-13937793D01*
X13134467Y-13937793D02*
X13153515Y-13928269D01*
X13248753Y-13880650D02*
X13248753Y-14080650D01*
X13248753Y-13890174D02*
X13267801Y-13880650D01*
X13267801Y-13880650D02*
X13305896Y-13880650D01*
X13305896Y-13880650D02*
X13324943Y-13890174D01*
X13324943Y-13890174D02*
X13334467Y-13899698D01*
X13334467Y-13899698D02*
X13343991Y-13918746D01*
X13343991Y-13918746D02*
X13343991Y-13975888D01*
X13343991Y-13975888D02*
X13334467Y-13994936D01*
X13334467Y-13994936D02*
X13324943Y-14004460D01*
X13324943Y-14004460D02*
X13305896Y-14013984D01*
X13305896Y-14013984D02*
X13267801Y-14013984D01*
X13267801Y-14013984D02*
X13248753Y-14004460D01*
X13429705Y-13994936D02*
X13439229Y-14004460D01*
X13439229Y-14004460D02*
X13429705Y-14013984D01*
X13429705Y-14013984D02*
X13420182Y-14004460D01*
X13420182Y-14004460D02*
X13429705Y-13994936D01*
X13429705Y-13994936D02*
X13429705Y-14013984D01*
X13429705Y-13890174D02*
X13439229Y-13899698D01*
X13439229Y-13899698D02*
X13429705Y-13909222D01*
X13429705Y-13909222D02*
X13420182Y-13899698D01*
X13420182Y-13899698D02*
X13429705Y-13890174D01*
X13429705Y-13890174D02*
X13429705Y-13909222D01*
D12*
X11767500Y-14327500D02*
X11797500Y-14357500D01*
X11797500Y-14327500D02*
X11767500Y-14357500D01*
D11*
X12096372Y-14233984D02*
X12115420Y-14233984D01*
X12115420Y-14233984D02*
X12134467Y-14243508D01*
X12134467Y-14243508D02*
X12143991Y-14253031D01*
X12143991Y-14253031D02*
X12153515Y-14272079D01*
X12153515Y-14272079D02*
X12163039Y-14310174D01*
X12163039Y-14310174D02*
X12163039Y-14357793D01*
X12163039Y-14357793D02*
X12153515Y-14395888D01*
X12153515Y-14395888D02*
X12143991Y-14414936D01*
X12143991Y-14414936D02*
X12134467Y-14424460D01*
X12134467Y-14424460D02*
X12115420Y-14433984D01*
X12115420Y-14433984D02*
X12096372Y-14433984D01*
X12096372Y-14433984D02*
X12077324Y-14424460D01*
X12077324Y-14424460D02*
X12067801Y-14414936D01*
X12067801Y-14414936D02*
X12058277Y-14395888D01*
X12058277Y-14395888D02*
X12048753Y-14357793D01*
X12048753Y-14357793D02*
X12048753Y-14310174D01*
X12048753Y-14310174D02*
X12058277Y-14272079D01*
X12058277Y-14272079D02*
X12067801Y-14253031D01*
X12067801Y-14253031D02*
X12077324Y-14243508D01*
X12077324Y-14243508D02*
X12096372Y-14233984D01*
X12248753Y-14414936D02*
X12258277Y-14424460D01*
X12258277Y-14424460D02*
X12248753Y-14433984D01*
X12248753Y-14433984D02*
X12239229Y-14424460D01*
X12239229Y-14424460D02*
X12248753Y-14414936D01*
X12248753Y-14414936D02*
X12248753Y-14433984D01*
X12324943Y-14233984D02*
X12448753Y-14233984D01*
X12448753Y-14233984D02*
X12382086Y-14310174D01*
X12382086Y-14310174D02*
X12410658Y-14310174D01*
X12410658Y-14310174D02*
X12429705Y-14319698D01*
X12429705Y-14319698D02*
X12439229Y-14329222D01*
X12439229Y-14329222D02*
X12448753Y-14348269D01*
X12448753Y-14348269D02*
X12448753Y-14395888D01*
X12448753Y-14395888D02*
X12439229Y-14414936D01*
X12439229Y-14414936D02*
X12429705Y-14424460D01*
X12429705Y-14424460D02*
X12410658Y-14433984D01*
X12410658Y-14433984D02*
X12353515Y-14433984D01*
X12353515Y-14433984D02*
X12334467Y-14424460D01*
X12334467Y-14424460D02*
X12324943Y-14414936D01*
X12572562Y-14233984D02*
X12591610Y-14233984D01*
X12591610Y-14233984D02*
X12610658Y-14243508D01*
X12610658Y-14243508D02*
X12620182Y-14253031D01*
X12620182Y-14253031D02*
X12629705Y-14272079D01*
X12629705Y-14272079D02*
X12639229Y-14310174D01*
X12639229Y-14310174D02*
X12639229Y-14357793D01*
X12639229Y-14357793D02*
X12629705Y-14395888D01*
X12629705Y-14395888D02*
X12620182Y-14414936D01*
X12620182Y-14414936D02*
X12610658Y-14424460D01*
X12610658Y-14424460D02*
X12591610Y-14433984D01*
X12591610Y-14433984D02*
X12572562Y-14433984D01*
X12572562Y-14433984D02*
X12553515Y-14424460D01*
X12553515Y-14424460D02*
X12543991Y-14414936D01*
X12543991Y-14414936D02*
X12534467Y-14395888D01*
X12534467Y-14395888D02*
X12524943Y-14357793D01*
X12524943Y-14357793D02*
X12524943Y-14310174D01*
X12524943Y-14310174D02*
X12534467Y-14272079D01*
X12534467Y-14272079D02*
X12543991Y-14253031D01*
X12543991Y-14253031D02*
X12553515Y-14243508D01*
X12553515Y-14243508D02*
X12572562Y-14233984D01*
X12763039Y-14233984D02*
X12782086Y-14233984D01*
X12782086Y-14233984D02*
X12801134Y-14243508D01*
X12801134Y-14243508D02*
X12810658Y-14253031D01*
X12810658Y-14253031D02*
X12820182Y-14272079D01*
X12820182Y-14272079D02*
X12829705Y-14310174D01*
X12829705Y-14310174D02*
X12829705Y-14357793D01*
X12829705Y-14357793D02*
X12820182Y-14395888D01*
X12820182Y-14395888D02*
X12810658Y-14414936D01*
X12810658Y-14414936D02*
X12801134Y-14424460D01*
X12801134Y-14424460D02*
X12782086Y-14433984D01*
X12782086Y-14433984D02*
X12763039Y-14433984D01*
X12763039Y-14433984D02*
X12743991Y-14424460D01*
X12743991Y-14424460D02*
X12734467Y-14414936D01*
X12734467Y-14414936D02*
X12724943Y-14395888D01*
X12724943Y-14395888D02*
X12715420Y-14357793D01*
X12715420Y-14357793D02*
X12715420Y-14310174D01*
X12715420Y-14310174D02*
X12724943Y-14272079D01*
X12724943Y-14272079D02*
X12734467Y-14253031D01*
X12734467Y-14253031D02*
X12743991Y-14243508D01*
X12743991Y-14243508D02*
X12763039Y-14233984D01*
X12915420Y-14433984D02*
X12915420Y-14300650D01*
X12915420Y-14319698D02*
X12924943Y-14310174D01*
X12924943Y-14310174D02*
X12943991Y-14300650D01*
X12943991Y-14300650D02*
X12972563Y-14300650D01*
X12972563Y-14300650D02*
X12991610Y-14310174D01*
X12991610Y-14310174D02*
X13001134Y-14329222D01*
X13001134Y-14329222D02*
X13001134Y-14433984D01*
X13001134Y-14329222D02*
X13010658Y-14310174D01*
X13010658Y-14310174D02*
X13029705Y-14300650D01*
X13029705Y-14300650D02*
X13058277Y-14300650D01*
X13058277Y-14300650D02*
X13077324Y-14310174D01*
X13077324Y-14310174D02*
X13086848Y-14329222D01*
X13086848Y-14329222D02*
X13086848Y-14433984D01*
X13182086Y-14433984D02*
X13182086Y-14300650D01*
X13182086Y-14319698D02*
X13191610Y-14310174D01*
X13191610Y-14310174D02*
X13210658Y-14300650D01*
X13210658Y-14300650D02*
X13239229Y-14300650D01*
X13239229Y-14300650D02*
X13258277Y-14310174D01*
X13258277Y-14310174D02*
X13267801Y-14329222D01*
X13267801Y-14329222D02*
X13267801Y-14433984D01*
X13267801Y-14329222D02*
X13277324Y-14310174D01*
X13277324Y-14310174D02*
X13296372Y-14300650D01*
X13296372Y-14300650D02*
X13324943Y-14300650D01*
X13324943Y-14300650D02*
X13343991Y-14310174D01*
X13343991Y-14310174D02*
X13353515Y-14329222D01*
X13353515Y-14329222D02*
X13353515Y-14433984D01*
X13743991Y-14224460D02*
X13572563Y-14481603D01*
X14001134Y-14233984D02*
X14020182Y-14233984D01*
X14020182Y-14233984D02*
X14039229Y-14243508D01*
X14039229Y-14243508D02*
X14048753Y-14253031D01*
X14048753Y-14253031D02*
X14058277Y-14272079D01*
X14058277Y-14272079D02*
X14067801Y-14310174D01*
X14067801Y-14310174D02*
X14067801Y-14357793D01*
X14067801Y-14357793D02*
X14058277Y-14395888D01*
X14058277Y-14395888D02*
X14048753Y-14414936D01*
X14048753Y-14414936D02*
X14039229Y-14424460D01*
X14039229Y-14424460D02*
X14020182Y-14433984D01*
X14020182Y-14433984D02*
X14001134Y-14433984D01*
X14001134Y-14433984D02*
X13982086Y-14424460D01*
X13982086Y-14424460D02*
X13972563Y-14414936D01*
X13972563Y-14414936D02*
X13963039Y-14395888D01*
X13963039Y-14395888D02*
X13953515Y-14357793D01*
X13953515Y-14357793D02*
X13953515Y-14310174D01*
X13953515Y-14310174D02*
X13963039Y-14272079D01*
X13963039Y-14272079D02*
X13972563Y-14253031D01*
X13972563Y-14253031D02*
X13982086Y-14243508D01*
X13982086Y-14243508D02*
X14001134Y-14233984D01*
X14153515Y-14414936D02*
X14163039Y-14424460D01*
X14163039Y-14424460D02*
X14153515Y-14433984D01*
X14153515Y-14433984D02*
X14143991Y-14424460D01*
X14143991Y-14424460D02*
X14153515Y-14414936D01*
X14153515Y-14414936D02*
X14153515Y-14433984D01*
X14286848Y-14233984D02*
X14305896Y-14233984D01*
X14305896Y-14233984D02*
X14324944Y-14243508D01*
X14324944Y-14243508D02*
X14334467Y-14253031D01*
X14334467Y-14253031D02*
X14343991Y-14272079D01*
X14343991Y-14272079D02*
X14353515Y-14310174D01*
X14353515Y-14310174D02*
X14353515Y-14357793D01*
X14353515Y-14357793D02*
X14343991Y-14395888D01*
X14343991Y-14395888D02*
X14334467Y-14414936D01*
X14334467Y-14414936D02*
X14324944Y-14424460D01*
X14324944Y-14424460D02*
X14305896Y-14433984D01*
X14305896Y-14433984D02*
X14286848Y-14433984D01*
X14286848Y-14433984D02*
X14267801Y-14424460D01*
X14267801Y-14424460D02*
X14258277Y-14414936D01*
X14258277Y-14414936D02*
X14248753Y-14395888D01*
X14248753Y-14395888D02*
X14239229Y-14357793D01*
X14239229Y-14357793D02*
X14239229Y-14310174D01*
X14239229Y-14310174D02*
X14248753Y-14272079D01*
X14248753Y-14272079D02*
X14258277Y-14253031D01*
X14258277Y-14253031D02*
X14267801Y-14243508D01*
X14267801Y-14243508D02*
X14286848Y-14233984D01*
X14543991Y-14433984D02*
X14429706Y-14433984D01*
X14486848Y-14433984D02*
X14486848Y-14233984D01*
X14486848Y-14233984D02*
X14467801Y-14262555D01*
X14467801Y-14262555D02*
X14448753Y-14281603D01*
X14448753Y-14281603D02*
X14429706Y-14291127D01*
X14734467Y-14433984D02*
X14620182Y-14433984D01*
X14677325Y-14433984D02*
X14677325Y-14233984D01*
X14677325Y-14233984D02*
X14658277Y-14262555D01*
X14658277Y-14262555D02*
X14639229Y-14281603D01*
X14639229Y-14281603D02*
X14620182Y-14291127D01*
X14848753Y-14319698D02*
X14829706Y-14310174D01*
X14829706Y-14310174D02*
X14820182Y-14300650D01*
X14820182Y-14300650D02*
X14810658Y-14281603D01*
X14810658Y-14281603D02*
X14810658Y-14272079D01*
X14810658Y-14272079D02*
X14820182Y-14253031D01*
X14820182Y-14253031D02*
X14829706Y-14243508D01*
X14829706Y-14243508D02*
X14848753Y-14233984D01*
X14848753Y-14233984D02*
X14886848Y-14233984D01*
X14886848Y-14233984D02*
X14905896Y-14243508D01*
X14905896Y-14243508D02*
X14915420Y-14253031D01*
X14915420Y-14253031D02*
X14924944Y-14272079D01*
X14924944Y-14272079D02*
X14924944Y-14281603D01*
X14924944Y-14281603D02*
X14915420Y-14300650D01*
X14915420Y-14300650D02*
X14905896Y-14310174D01*
X14905896Y-14310174D02*
X14886848Y-14319698D01*
X14886848Y-14319698D02*
X14848753Y-14319698D01*
X14848753Y-14319698D02*
X14829706Y-14329222D01*
X14829706Y-14329222D02*
X14820182Y-14338746D01*
X14820182Y-14338746D02*
X14810658Y-14357793D01*
X14810658Y-14357793D02*
X14810658Y-14395888D01*
X14810658Y-14395888D02*
X14820182Y-14414936D01*
X14820182Y-14414936D02*
X14829706Y-14424460D01*
X14829706Y-14424460D02*
X14848753Y-14433984D01*
X14848753Y-14433984D02*
X14886848Y-14433984D01*
X14886848Y-14433984D02*
X14905896Y-14424460D01*
X14905896Y-14424460D02*
X14915420Y-14414936D01*
X14915420Y-14414936D02*
X14924944Y-14395888D01*
X14924944Y-14395888D02*
X14924944Y-14357793D01*
X14924944Y-14357793D02*
X14915420Y-14338746D01*
X14915420Y-14338746D02*
X14905896Y-14329222D01*
X14905896Y-14329222D02*
X14886848Y-14319698D01*
X15001134Y-14233984D02*
X15001134Y-14272079D01*
X15077325Y-14233984D02*
X15077325Y-14272079D01*
X15372563Y-14510174D02*
X15363039Y-14500650D01*
X15363039Y-14500650D02*
X15343991Y-14472079D01*
X15343991Y-14472079D02*
X15334468Y-14453031D01*
X15334468Y-14453031D02*
X15324944Y-14424460D01*
X15324944Y-14424460D02*
X15315420Y-14376841D01*
X15315420Y-14376841D02*
X15315420Y-14338746D01*
X15315420Y-14338746D02*
X15324944Y-14291127D01*
X15324944Y-14291127D02*
X15334468Y-14262555D01*
X15334468Y-14262555D02*
X15343991Y-14243508D01*
X15343991Y-14243508D02*
X15363039Y-14214936D01*
X15363039Y-14214936D02*
X15372563Y-14205412D01*
X15543991Y-14233984D02*
X15448753Y-14233984D01*
X15448753Y-14233984D02*
X15439229Y-14329222D01*
X15439229Y-14329222D02*
X15448753Y-14319698D01*
X15448753Y-14319698D02*
X15467801Y-14310174D01*
X15467801Y-14310174D02*
X15515420Y-14310174D01*
X15515420Y-14310174D02*
X15534468Y-14319698D01*
X15534468Y-14319698D02*
X15543991Y-14329222D01*
X15543991Y-14329222D02*
X15553515Y-14348269D01*
X15553515Y-14348269D02*
X15553515Y-14395888D01*
X15553515Y-14395888D02*
X15543991Y-14414936D01*
X15543991Y-14414936D02*
X15534468Y-14424460D01*
X15534468Y-14424460D02*
X15515420Y-14433984D01*
X15515420Y-14433984D02*
X15467801Y-14433984D01*
X15467801Y-14433984D02*
X15448753Y-14424460D01*
X15448753Y-14424460D02*
X15439229Y-14414936D01*
X15620182Y-14233984D02*
X15753515Y-14233984D01*
X15753515Y-14233984D02*
X15667801Y-14433984D01*
X15982087Y-14433984D02*
X15982087Y-14233984D01*
X16067801Y-14433984D02*
X16067801Y-14329222D01*
X16067801Y-14329222D02*
X16058277Y-14310174D01*
X16058277Y-14310174D02*
X16039230Y-14300650D01*
X16039230Y-14300650D02*
X16010658Y-14300650D01*
X16010658Y-14300650D02*
X15991610Y-14310174D01*
X15991610Y-14310174D02*
X15982087Y-14319698D01*
X16191610Y-14433984D02*
X16172563Y-14424460D01*
X16172563Y-14424460D02*
X16163039Y-14414936D01*
X16163039Y-14414936D02*
X16153515Y-14395888D01*
X16153515Y-14395888D02*
X16153515Y-14338746D01*
X16153515Y-14338746D02*
X16163039Y-14319698D01*
X16163039Y-14319698D02*
X16172563Y-14310174D01*
X16172563Y-14310174D02*
X16191610Y-14300650D01*
X16191610Y-14300650D02*
X16220182Y-14300650D01*
X16220182Y-14300650D02*
X16239230Y-14310174D01*
X16239230Y-14310174D02*
X16248753Y-14319698D01*
X16248753Y-14319698D02*
X16258277Y-14338746D01*
X16258277Y-14338746D02*
X16258277Y-14395888D01*
X16258277Y-14395888D02*
X16248753Y-14414936D01*
X16248753Y-14414936D02*
X16239230Y-14424460D01*
X16239230Y-14424460D02*
X16220182Y-14433984D01*
X16220182Y-14433984D02*
X16191610Y-14433984D01*
X16372563Y-14433984D02*
X16353515Y-14424460D01*
X16353515Y-14424460D02*
X16343991Y-14405412D01*
X16343991Y-14405412D02*
X16343991Y-14233984D01*
X16524944Y-14424460D02*
X16505896Y-14433984D01*
X16505896Y-14433984D02*
X16467801Y-14433984D01*
X16467801Y-14433984D02*
X16448753Y-14424460D01*
X16448753Y-14424460D02*
X16439230Y-14405412D01*
X16439230Y-14405412D02*
X16439230Y-14329222D01*
X16439230Y-14329222D02*
X16448753Y-14310174D01*
X16448753Y-14310174D02*
X16467801Y-14300650D01*
X16467801Y-14300650D02*
X16505896Y-14300650D01*
X16505896Y-14300650D02*
X16524944Y-14310174D01*
X16524944Y-14310174D02*
X16534468Y-14329222D01*
X16534468Y-14329222D02*
X16534468Y-14348269D01*
X16534468Y-14348269D02*
X16439230Y-14367317D01*
X16610658Y-14424460D02*
X16629706Y-14433984D01*
X16629706Y-14433984D02*
X16667801Y-14433984D01*
X16667801Y-14433984D02*
X16686849Y-14424460D01*
X16686849Y-14424460D02*
X16696372Y-14405412D01*
X16696372Y-14405412D02*
X16696372Y-14395888D01*
X16696372Y-14395888D02*
X16686849Y-14376841D01*
X16686849Y-14376841D02*
X16667801Y-14367317D01*
X16667801Y-14367317D02*
X16639230Y-14367317D01*
X16639230Y-14367317D02*
X16620182Y-14357793D01*
X16620182Y-14357793D02*
X16610658Y-14338746D01*
X16610658Y-14338746D02*
X16610658Y-14329222D01*
X16610658Y-14329222D02*
X16620182Y-14310174D01*
X16620182Y-14310174D02*
X16639230Y-14300650D01*
X16639230Y-14300650D02*
X16667801Y-14300650D01*
X16667801Y-14300650D02*
X16686849Y-14310174D01*
X16763039Y-14510174D02*
X16772563Y-14500650D01*
X16772563Y-14500650D02*
X16791611Y-14472079D01*
X16791611Y-14472079D02*
X16801134Y-14453031D01*
X16801134Y-14453031D02*
X16810658Y-14424460D01*
X16810658Y-14424460D02*
X16820182Y-14376841D01*
X16820182Y-14376841D02*
X16820182Y-14338746D01*
X16820182Y-14338746D02*
X16810658Y-14291127D01*
X16810658Y-14291127D02*
X16801134Y-14262555D01*
X16801134Y-14262555D02*
X16791611Y-14243508D01*
X16791611Y-14243508D02*
X16772563Y-14214936D01*
X16772563Y-14214936D02*
X16763039Y-14205412D01*
D12*
X11797500Y-14606500D02*
G75*
G02*
X11717500Y-14606500I-40000J0D01*
G01*
X11717500Y-14606500D02*
G75*
G02*
X11797500Y-14606500I40000J0D01*
G01*
D11*
X12096372Y-14497984D02*
X12115420Y-14497984D01*
X12115420Y-14497984D02*
X12134467Y-14507508D01*
X12134467Y-14507508D02*
X12143991Y-14517031D01*
X12143991Y-14517031D02*
X12153515Y-14536079D01*
X12153515Y-14536079D02*
X12163039Y-14574174D01*
X12163039Y-14574174D02*
X12163039Y-14621793D01*
X12163039Y-14621793D02*
X12153515Y-14659888D01*
X12153515Y-14659888D02*
X12143991Y-14678936D01*
X12143991Y-14678936D02*
X12134467Y-14688460D01*
X12134467Y-14688460D02*
X12115420Y-14697984D01*
X12115420Y-14697984D02*
X12096372Y-14697984D01*
X12096372Y-14697984D02*
X12077324Y-14688460D01*
X12077324Y-14688460D02*
X12067801Y-14678936D01*
X12067801Y-14678936D02*
X12058277Y-14659888D01*
X12058277Y-14659888D02*
X12048753Y-14621793D01*
X12048753Y-14621793D02*
X12048753Y-14574174D01*
X12048753Y-14574174D02*
X12058277Y-14536079D01*
X12058277Y-14536079D02*
X12067801Y-14517031D01*
X12067801Y-14517031D02*
X12077324Y-14507508D01*
X12077324Y-14507508D02*
X12096372Y-14497984D01*
X12248753Y-14678936D02*
X12258277Y-14688460D01*
X12258277Y-14688460D02*
X12248753Y-14697984D01*
X12248753Y-14697984D02*
X12239229Y-14688460D01*
X12239229Y-14688460D02*
X12248753Y-14678936D01*
X12248753Y-14678936D02*
X12248753Y-14697984D01*
X12372562Y-14583698D02*
X12353515Y-14574174D01*
X12353515Y-14574174D02*
X12343991Y-14564650D01*
X12343991Y-14564650D02*
X12334467Y-14545603D01*
X12334467Y-14545603D02*
X12334467Y-14536079D01*
X12334467Y-14536079D02*
X12343991Y-14517031D01*
X12343991Y-14517031D02*
X12353515Y-14507508D01*
X12353515Y-14507508D02*
X12372562Y-14497984D01*
X12372562Y-14497984D02*
X12410658Y-14497984D01*
X12410658Y-14497984D02*
X12429705Y-14507508D01*
X12429705Y-14507508D02*
X12439229Y-14517031D01*
X12439229Y-14517031D02*
X12448753Y-14536079D01*
X12448753Y-14536079D02*
X12448753Y-14545603D01*
X12448753Y-14545603D02*
X12439229Y-14564650D01*
X12439229Y-14564650D02*
X12429705Y-14574174D01*
X12429705Y-14574174D02*
X12410658Y-14583698D01*
X12410658Y-14583698D02*
X12372562Y-14583698D01*
X12372562Y-14583698D02*
X12353515Y-14593222D01*
X12353515Y-14593222D02*
X12343991Y-14602746D01*
X12343991Y-14602746D02*
X12334467Y-14621793D01*
X12334467Y-14621793D02*
X12334467Y-14659888D01*
X12334467Y-14659888D02*
X12343991Y-14678936D01*
X12343991Y-14678936D02*
X12353515Y-14688460D01*
X12353515Y-14688460D02*
X12372562Y-14697984D01*
X12372562Y-14697984D02*
X12410658Y-14697984D01*
X12410658Y-14697984D02*
X12429705Y-14688460D01*
X12429705Y-14688460D02*
X12439229Y-14678936D01*
X12439229Y-14678936D02*
X12448753Y-14659888D01*
X12448753Y-14659888D02*
X12448753Y-14621793D01*
X12448753Y-14621793D02*
X12439229Y-14602746D01*
X12439229Y-14602746D02*
X12429705Y-14593222D01*
X12429705Y-14593222D02*
X12410658Y-14583698D01*
X12572562Y-14497984D02*
X12591610Y-14497984D01*
X12591610Y-14497984D02*
X12610658Y-14507508D01*
X12610658Y-14507508D02*
X12620182Y-14517031D01*
X12620182Y-14517031D02*
X12629705Y-14536079D01*
X12629705Y-14536079D02*
X12639229Y-14574174D01*
X12639229Y-14574174D02*
X12639229Y-14621793D01*
X12639229Y-14621793D02*
X12629705Y-14659888D01*
X12629705Y-14659888D02*
X12620182Y-14678936D01*
X12620182Y-14678936D02*
X12610658Y-14688460D01*
X12610658Y-14688460D02*
X12591610Y-14697984D01*
X12591610Y-14697984D02*
X12572562Y-14697984D01*
X12572562Y-14697984D02*
X12553515Y-14688460D01*
X12553515Y-14688460D02*
X12543991Y-14678936D01*
X12543991Y-14678936D02*
X12534467Y-14659888D01*
X12534467Y-14659888D02*
X12524943Y-14621793D01*
X12524943Y-14621793D02*
X12524943Y-14574174D01*
X12524943Y-14574174D02*
X12534467Y-14536079D01*
X12534467Y-14536079D02*
X12543991Y-14517031D01*
X12543991Y-14517031D02*
X12553515Y-14507508D01*
X12553515Y-14507508D02*
X12572562Y-14497984D01*
X12763039Y-14497984D02*
X12782086Y-14497984D01*
X12782086Y-14497984D02*
X12801134Y-14507508D01*
X12801134Y-14507508D02*
X12810658Y-14517031D01*
X12810658Y-14517031D02*
X12820182Y-14536079D01*
X12820182Y-14536079D02*
X12829705Y-14574174D01*
X12829705Y-14574174D02*
X12829705Y-14621793D01*
X12829705Y-14621793D02*
X12820182Y-14659888D01*
X12820182Y-14659888D02*
X12810658Y-14678936D01*
X12810658Y-14678936D02*
X12801134Y-14688460D01*
X12801134Y-14688460D02*
X12782086Y-14697984D01*
X12782086Y-14697984D02*
X12763039Y-14697984D01*
X12763039Y-14697984D02*
X12743991Y-14688460D01*
X12743991Y-14688460D02*
X12734467Y-14678936D01*
X12734467Y-14678936D02*
X12724943Y-14659888D01*
X12724943Y-14659888D02*
X12715420Y-14621793D01*
X12715420Y-14621793D02*
X12715420Y-14574174D01*
X12715420Y-14574174D02*
X12724943Y-14536079D01*
X12724943Y-14536079D02*
X12734467Y-14517031D01*
X12734467Y-14517031D02*
X12743991Y-14507508D01*
X12743991Y-14507508D02*
X12763039Y-14497984D01*
X12915420Y-14697984D02*
X12915420Y-14564650D01*
X12915420Y-14583698D02*
X12924943Y-14574174D01*
X12924943Y-14574174D02*
X12943991Y-14564650D01*
X12943991Y-14564650D02*
X12972563Y-14564650D01*
X12972563Y-14564650D02*
X12991610Y-14574174D01*
X12991610Y-14574174D02*
X13001134Y-14593222D01*
X13001134Y-14593222D02*
X13001134Y-14697984D01*
X13001134Y-14593222D02*
X13010658Y-14574174D01*
X13010658Y-14574174D02*
X13029705Y-14564650D01*
X13029705Y-14564650D02*
X13058277Y-14564650D01*
X13058277Y-14564650D02*
X13077324Y-14574174D01*
X13077324Y-14574174D02*
X13086848Y-14593222D01*
X13086848Y-14593222D02*
X13086848Y-14697984D01*
X13182086Y-14697984D02*
X13182086Y-14564650D01*
X13182086Y-14583698D02*
X13191610Y-14574174D01*
X13191610Y-14574174D02*
X13210658Y-14564650D01*
X13210658Y-14564650D02*
X13239229Y-14564650D01*
X13239229Y-14564650D02*
X13258277Y-14574174D01*
X13258277Y-14574174D02*
X13267801Y-14593222D01*
X13267801Y-14593222D02*
X13267801Y-14697984D01*
X13267801Y-14593222D02*
X13277324Y-14574174D01*
X13277324Y-14574174D02*
X13296372Y-14564650D01*
X13296372Y-14564650D02*
X13324943Y-14564650D01*
X13324943Y-14564650D02*
X13343991Y-14574174D01*
X13343991Y-14574174D02*
X13353515Y-14593222D01*
X13353515Y-14593222D02*
X13353515Y-14697984D01*
X13743991Y-14488460D02*
X13572563Y-14745603D01*
X14001134Y-14497984D02*
X14020182Y-14497984D01*
X14020182Y-14497984D02*
X14039229Y-14507508D01*
X14039229Y-14507508D02*
X14048753Y-14517031D01*
X14048753Y-14517031D02*
X14058277Y-14536079D01*
X14058277Y-14536079D02*
X14067801Y-14574174D01*
X14067801Y-14574174D02*
X14067801Y-14621793D01*
X14067801Y-14621793D02*
X14058277Y-14659888D01*
X14058277Y-14659888D02*
X14048753Y-14678936D01*
X14048753Y-14678936D02*
X14039229Y-14688460D01*
X14039229Y-14688460D02*
X14020182Y-14697984D01*
X14020182Y-14697984D02*
X14001134Y-14697984D01*
X14001134Y-14697984D02*
X13982086Y-14688460D01*
X13982086Y-14688460D02*
X13972563Y-14678936D01*
X13972563Y-14678936D02*
X13963039Y-14659888D01*
X13963039Y-14659888D02*
X13953515Y-14621793D01*
X13953515Y-14621793D02*
X13953515Y-14574174D01*
X13953515Y-14574174D02*
X13963039Y-14536079D01*
X13963039Y-14536079D02*
X13972563Y-14517031D01*
X13972563Y-14517031D02*
X13982086Y-14507508D01*
X13982086Y-14507508D02*
X14001134Y-14497984D01*
X14153515Y-14678936D02*
X14163039Y-14688460D01*
X14163039Y-14688460D02*
X14153515Y-14697984D01*
X14153515Y-14697984D02*
X14143991Y-14688460D01*
X14143991Y-14688460D02*
X14153515Y-14678936D01*
X14153515Y-14678936D02*
X14153515Y-14697984D01*
X14286848Y-14497984D02*
X14305896Y-14497984D01*
X14305896Y-14497984D02*
X14324944Y-14507508D01*
X14324944Y-14507508D02*
X14334467Y-14517031D01*
X14334467Y-14517031D02*
X14343991Y-14536079D01*
X14343991Y-14536079D02*
X14353515Y-14574174D01*
X14353515Y-14574174D02*
X14353515Y-14621793D01*
X14353515Y-14621793D02*
X14343991Y-14659888D01*
X14343991Y-14659888D02*
X14334467Y-14678936D01*
X14334467Y-14678936D02*
X14324944Y-14688460D01*
X14324944Y-14688460D02*
X14305896Y-14697984D01*
X14305896Y-14697984D02*
X14286848Y-14697984D01*
X14286848Y-14697984D02*
X14267801Y-14688460D01*
X14267801Y-14688460D02*
X14258277Y-14678936D01*
X14258277Y-14678936D02*
X14248753Y-14659888D01*
X14248753Y-14659888D02*
X14239229Y-14621793D01*
X14239229Y-14621793D02*
X14239229Y-14574174D01*
X14239229Y-14574174D02*
X14248753Y-14536079D01*
X14248753Y-14536079D02*
X14258277Y-14517031D01*
X14258277Y-14517031D02*
X14267801Y-14507508D01*
X14267801Y-14507508D02*
X14286848Y-14497984D01*
X14420182Y-14497984D02*
X14543991Y-14497984D01*
X14543991Y-14497984D02*
X14477325Y-14574174D01*
X14477325Y-14574174D02*
X14505896Y-14574174D01*
X14505896Y-14574174D02*
X14524944Y-14583698D01*
X14524944Y-14583698D02*
X14534467Y-14593222D01*
X14534467Y-14593222D02*
X14543991Y-14612269D01*
X14543991Y-14612269D02*
X14543991Y-14659888D01*
X14543991Y-14659888D02*
X14534467Y-14678936D01*
X14534467Y-14678936D02*
X14524944Y-14688460D01*
X14524944Y-14688460D02*
X14505896Y-14697984D01*
X14505896Y-14697984D02*
X14448753Y-14697984D01*
X14448753Y-14697984D02*
X14429706Y-14688460D01*
X14429706Y-14688460D02*
X14420182Y-14678936D01*
X14734467Y-14697984D02*
X14620182Y-14697984D01*
X14677325Y-14697984D02*
X14677325Y-14497984D01*
X14677325Y-14497984D02*
X14658277Y-14526555D01*
X14658277Y-14526555D02*
X14639229Y-14545603D01*
X14639229Y-14545603D02*
X14620182Y-14555127D01*
X14915420Y-14497984D02*
X14820182Y-14497984D01*
X14820182Y-14497984D02*
X14810658Y-14593222D01*
X14810658Y-14593222D02*
X14820182Y-14583698D01*
X14820182Y-14583698D02*
X14839229Y-14574174D01*
X14839229Y-14574174D02*
X14886848Y-14574174D01*
X14886848Y-14574174D02*
X14905896Y-14583698D01*
X14905896Y-14583698D02*
X14915420Y-14593222D01*
X14915420Y-14593222D02*
X14924944Y-14612269D01*
X14924944Y-14612269D02*
X14924944Y-14659888D01*
X14924944Y-14659888D02*
X14915420Y-14678936D01*
X14915420Y-14678936D02*
X14905896Y-14688460D01*
X14905896Y-14688460D02*
X14886848Y-14697984D01*
X14886848Y-14697984D02*
X14839229Y-14697984D01*
X14839229Y-14697984D02*
X14820182Y-14688460D01*
X14820182Y-14688460D02*
X14810658Y-14678936D01*
X15001134Y-14497984D02*
X15001134Y-14536079D01*
X15077325Y-14497984D02*
X15077325Y-14536079D01*
X15372563Y-14774174D02*
X15363039Y-14764650D01*
X15363039Y-14764650D02*
X15343991Y-14736079D01*
X15343991Y-14736079D02*
X15334468Y-14717031D01*
X15334468Y-14717031D02*
X15324944Y-14688460D01*
X15324944Y-14688460D02*
X15315420Y-14640841D01*
X15315420Y-14640841D02*
X15315420Y-14602746D01*
X15315420Y-14602746D02*
X15324944Y-14555127D01*
X15324944Y-14555127D02*
X15334468Y-14526555D01*
X15334468Y-14526555D02*
X15343991Y-14507508D01*
X15343991Y-14507508D02*
X15363039Y-14478936D01*
X15363039Y-14478936D02*
X15372563Y-14469412D01*
X15439229Y-14517031D02*
X15448753Y-14507508D01*
X15448753Y-14507508D02*
X15467801Y-14497984D01*
X15467801Y-14497984D02*
X15515420Y-14497984D01*
X15515420Y-14497984D02*
X15534468Y-14507508D01*
X15534468Y-14507508D02*
X15543991Y-14517031D01*
X15543991Y-14517031D02*
X15553515Y-14536079D01*
X15553515Y-14536079D02*
X15553515Y-14555127D01*
X15553515Y-14555127D02*
X15543991Y-14583698D01*
X15543991Y-14583698D02*
X15429706Y-14697984D01*
X15429706Y-14697984D02*
X15553515Y-14697984D01*
X15791610Y-14697984D02*
X15791610Y-14497984D01*
X15877325Y-14697984D02*
X15877325Y-14593222D01*
X15877325Y-14593222D02*
X15867801Y-14574174D01*
X15867801Y-14574174D02*
X15848753Y-14564650D01*
X15848753Y-14564650D02*
X15820182Y-14564650D01*
X15820182Y-14564650D02*
X15801134Y-14574174D01*
X15801134Y-14574174D02*
X15791610Y-14583698D01*
X16001134Y-14697984D02*
X15982087Y-14688460D01*
X15982087Y-14688460D02*
X15972563Y-14678936D01*
X15972563Y-14678936D02*
X15963039Y-14659888D01*
X15963039Y-14659888D02*
X15963039Y-14602746D01*
X15963039Y-14602746D02*
X15972563Y-14583698D01*
X15972563Y-14583698D02*
X15982087Y-14574174D01*
X15982087Y-14574174D02*
X16001134Y-14564650D01*
X16001134Y-14564650D02*
X16029706Y-14564650D01*
X16029706Y-14564650D02*
X16048753Y-14574174D01*
X16048753Y-14574174D02*
X16058277Y-14583698D01*
X16058277Y-14583698D02*
X16067801Y-14602746D01*
X16067801Y-14602746D02*
X16067801Y-14659888D01*
X16067801Y-14659888D02*
X16058277Y-14678936D01*
X16058277Y-14678936D02*
X16048753Y-14688460D01*
X16048753Y-14688460D02*
X16029706Y-14697984D01*
X16029706Y-14697984D02*
X16001134Y-14697984D01*
X16182087Y-14697984D02*
X16163039Y-14688460D01*
X16163039Y-14688460D02*
X16153515Y-14669412D01*
X16153515Y-14669412D02*
X16153515Y-14497984D01*
X16334468Y-14688460D02*
X16315420Y-14697984D01*
X16315420Y-14697984D02*
X16277325Y-14697984D01*
X16277325Y-14697984D02*
X16258277Y-14688460D01*
X16258277Y-14688460D02*
X16248753Y-14669412D01*
X16248753Y-14669412D02*
X16248753Y-14593222D01*
X16248753Y-14593222D02*
X16258277Y-14574174D01*
X16258277Y-14574174D02*
X16277325Y-14564650D01*
X16277325Y-14564650D02*
X16315420Y-14564650D01*
X16315420Y-14564650D02*
X16334468Y-14574174D01*
X16334468Y-14574174D02*
X16343991Y-14593222D01*
X16343991Y-14593222D02*
X16343991Y-14612269D01*
X16343991Y-14612269D02*
X16248753Y-14631317D01*
X16420182Y-14688460D02*
X16439230Y-14697984D01*
X16439230Y-14697984D02*
X16477325Y-14697984D01*
X16477325Y-14697984D02*
X16496372Y-14688460D01*
X16496372Y-14688460D02*
X16505896Y-14669412D01*
X16505896Y-14669412D02*
X16505896Y-14659888D01*
X16505896Y-14659888D02*
X16496372Y-14640841D01*
X16496372Y-14640841D02*
X16477325Y-14631317D01*
X16477325Y-14631317D02*
X16448753Y-14631317D01*
X16448753Y-14631317D02*
X16429706Y-14621793D01*
X16429706Y-14621793D02*
X16420182Y-14602746D01*
X16420182Y-14602746D02*
X16420182Y-14593222D01*
X16420182Y-14593222D02*
X16429706Y-14574174D01*
X16429706Y-14574174D02*
X16448753Y-14564650D01*
X16448753Y-14564650D02*
X16477325Y-14564650D01*
X16477325Y-14564650D02*
X16496372Y-14574174D01*
X16572563Y-14774174D02*
X16582087Y-14764650D01*
X16582087Y-14764650D02*
X16601134Y-14736079D01*
X16601134Y-14736079D02*
X16610658Y-14717031D01*
X16610658Y-14717031D02*
X16620182Y-14688460D01*
X16620182Y-14688460D02*
X16629706Y-14640841D01*
X16629706Y-14640841D02*
X16629706Y-14602746D01*
X16629706Y-14602746D02*
X16620182Y-14555127D01*
X16620182Y-14555127D02*
X16610658Y-14526555D01*
X16610658Y-14526555D02*
X16601134Y-14507508D01*
X16601134Y-14507508D02*
X16582087Y-14478936D01*
X16582087Y-14478936D02*
X16572563Y-14469412D01*
D12*
X11751500Y-14824500D02*
X11751500Y-14916500D01*
X11705500Y-14870500D02*
X11797500Y-14870500D01*
D11*
X12096372Y-14761984D02*
X12115420Y-14761984D01*
X12115420Y-14761984D02*
X12134467Y-14771508D01*
X12134467Y-14771508D02*
X12143991Y-14781031D01*
X12143991Y-14781031D02*
X12153515Y-14800079D01*
X12153515Y-14800079D02*
X12163039Y-14838174D01*
X12163039Y-14838174D02*
X12163039Y-14885793D01*
X12163039Y-14885793D02*
X12153515Y-14923888D01*
X12153515Y-14923888D02*
X12143991Y-14942936D01*
X12143991Y-14942936D02*
X12134467Y-14952460D01*
X12134467Y-14952460D02*
X12115420Y-14961984D01*
X12115420Y-14961984D02*
X12096372Y-14961984D01*
X12096372Y-14961984D02*
X12077324Y-14952460D01*
X12077324Y-14952460D02*
X12067801Y-14942936D01*
X12067801Y-14942936D02*
X12058277Y-14923888D01*
X12058277Y-14923888D02*
X12048753Y-14885793D01*
X12048753Y-14885793D02*
X12048753Y-14838174D01*
X12048753Y-14838174D02*
X12058277Y-14800079D01*
X12058277Y-14800079D02*
X12067801Y-14781031D01*
X12067801Y-14781031D02*
X12077324Y-14771508D01*
X12077324Y-14771508D02*
X12096372Y-14761984D01*
X12248753Y-14942936D02*
X12258277Y-14952460D01*
X12258277Y-14952460D02*
X12248753Y-14961984D01*
X12248753Y-14961984D02*
X12239229Y-14952460D01*
X12239229Y-14952460D02*
X12248753Y-14942936D01*
X12248753Y-14942936D02*
X12248753Y-14961984D01*
X12353515Y-14961984D02*
X12391610Y-14961984D01*
X12391610Y-14961984D02*
X12410658Y-14952460D01*
X12410658Y-14952460D02*
X12420182Y-14942936D01*
X12420182Y-14942936D02*
X12439229Y-14914365D01*
X12439229Y-14914365D02*
X12448753Y-14876269D01*
X12448753Y-14876269D02*
X12448753Y-14800079D01*
X12448753Y-14800079D02*
X12439229Y-14781031D01*
X12439229Y-14781031D02*
X12429705Y-14771508D01*
X12429705Y-14771508D02*
X12410658Y-14761984D01*
X12410658Y-14761984D02*
X12372562Y-14761984D01*
X12372562Y-14761984D02*
X12353515Y-14771508D01*
X12353515Y-14771508D02*
X12343991Y-14781031D01*
X12343991Y-14781031D02*
X12334467Y-14800079D01*
X12334467Y-14800079D02*
X12334467Y-14847698D01*
X12334467Y-14847698D02*
X12343991Y-14866746D01*
X12343991Y-14866746D02*
X12353515Y-14876269D01*
X12353515Y-14876269D02*
X12372562Y-14885793D01*
X12372562Y-14885793D02*
X12410658Y-14885793D01*
X12410658Y-14885793D02*
X12429705Y-14876269D01*
X12429705Y-14876269D02*
X12439229Y-14866746D01*
X12439229Y-14866746D02*
X12448753Y-14847698D01*
X12524943Y-14781031D02*
X12534467Y-14771508D01*
X12534467Y-14771508D02*
X12553515Y-14761984D01*
X12553515Y-14761984D02*
X12601134Y-14761984D01*
X12601134Y-14761984D02*
X12620182Y-14771508D01*
X12620182Y-14771508D02*
X12629705Y-14781031D01*
X12629705Y-14781031D02*
X12639229Y-14800079D01*
X12639229Y-14800079D02*
X12639229Y-14819127D01*
X12639229Y-14819127D02*
X12629705Y-14847698D01*
X12629705Y-14847698D02*
X12515420Y-14961984D01*
X12515420Y-14961984D02*
X12639229Y-14961984D01*
X12763039Y-14761984D02*
X12782086Y-14761984D01*
X12782086Y-14761984D02*
X12801134Y-14771508D01*
X12801134Y-14771508D02*
X12810658Y-14781031D01*
X12810658Y-14781031D02*
X12820182Y-14800079D01*
X12820182Y-14800079D02*
X12829705Y-14838174D01*
X12829705Y-14838174D02*
X12829705Y-14885793D01*
X12829705Y-14885793D02*
X12820182Y-14923888D01*
X12820182Y-14923888D02*
X12810658Y-14942936D01*
X12810658Y-14942936D02*
X12801134Y-14952460D01*
X12801134Y-14952460D02*
X12782086Y-14961984D01*
X12782086Y-14961984D02*
X12763039Y-14961984D01*
X12763039Y-14961984D02*
X12743991Y-14952460D01*
X12743991Y-14952460D02*
X12734467Y-14942936D01*
X12734467Y-14942936D02*
X12724943Y-14923888D01*
X12724943Y-14923888D02*
X12715420Y-14885793D01*
X12715420Y-14885793D02*
X12715420Y-14838174D01*
X12715420Y-14838174D02*
X12724943Y-14800079D01*
X12724943Y-14800079D02*
X12734467Y-14781031D01*
X12734467Y-14781031D02*
X12743991Y-14771508D01*
X12743991Y-14771508D02*
X12763039Y-14761984D01*
X12915420Y-14961984D02*
X12915420Y-14828650D01*
X12915420Y-14847698D02*
X12924943Y-14838174D01*
X12924943Y-14838174D02*
X12943991Y-14828650D01*
X12943991Y-14828650D02*
X12972563Y-14828650D01*
X12972563Y-14828650D02*
X12991610Y-14838174D01*
X12991610Y-14838174D02*
X13001134Y-14857222D01*
X13001134Y-14857222D02*
X13001134Y-14961984D01*
X13001134Y-14857222D02*
X13010658Y-14838174D01*
X13010658Y-14838174D02*
X13029705Y-14828650D01*
X13029705Y-14828650D02*
X13058277Y-14828650D01*
X13058277Y-14828650D02*
X13077324Y-14838174D01*
X13077324Y-14838174D02*
X13086848Y-14857222D01*
X13086848Y-14857222D02*
X13086848Y-14961984D01*
X13182086Y-14961984D02*
X13182086Y-14828650D01*
X13182086Y-14847698D02*
X13191610Y-14838174D01*
X13191610Y-14838174D02*
X13210658Y-14828650D01*
X13210658Y-14828650D02*
X13239229Y-14828650D01*
X13239229Y-14828650D02*
X13258277Y-14838174D01*
X13258277Y-14838174D02*
X13267801Y-14857222D01*
X13267801Y-14857222D02*
X13267801Y-14961984D01*
X13267801Y-14857222D02*
X13277324Y-14838174D01*
X13277324Y-14838174D02*
X13296372Y-14828650D01*
X13296372Y-14828650D02*
X13324943Y-14828650D01*
X13324943Y-14828650D02*
X13343991Y-14838174D01*
X13343991Y-14838174D02*
X13353515Y-14857222D01*
X13353515Y-14857222D02*
X13353515Y-14961984D01*
X13743991Y-14752460D02*
X13572563Y-15009603D01*
X14001134Y-14761984D02*
X14020182Y-14761984D01*
X14020182Y-14761984D02*
X14039229Y-14771508D01*
X14039229Y-14771508D02*
X14048753Y-14781031D01*
X14048753Y-14781031D02*
X14058277Y-14800079D01*
X14058277Y-14800079D02*
X14067801Y-14838174D01*
X14067801Y-14838174D02*
X14067801Y-14885793D01*
X14067801Y-14885793D02*
X14058277Y-14923888D01*
X14058277Y-14923888D02*
X14048753Y-14942936D01*
X14048753Y-14942936D02*
X14039229Y-14952460D01*
X14039229Y-14952460D02*
X14020182Y-14961984D01*
X14020182Y-14961984D02*
X14001134Y-14961984D01*
X14001134Y-14961984D02*
X13982086Y-14952460D01*
X13982086Y-14952460D02*
X13972563Y-14942936D01*
X13972563Y-14942936D02*
X13963039Y-14923888D01*
X13963039Y-14923888D02*
X13953515Y-14885793D01*
X13953515Y-14885793D02*
X13953515Y-14838174D01*
X13953515Y-14838174D02*
X13963039Y-14800079D01*
X13963039Y-14800079D02*
X13972563Y-14781031D01*
X13972563Y-14781031D02*
X13982086Y-14771508D01*
X13982086Y-14771508D02*
X14001134Y-14761984D01*
X14153515Y-14942936D02*
X14163039Y-14952460D01*
X14163039Y-14952460D02*
X14153515Y-14961984D01*
X14153515Y-14961984D02*
X14143991Y-14952460D01*
X14143991Y-14952460D02*
X14153515Y-14942936D01*
X14153515Y-14942936D02*
X14153515Y-14961984D01*
X14286848Y-14761984D02*
X14305896Y-14761984D01*
X14305896Y-14761984D02*
X14324944Y-14771508D01*
X14324944Y-14771508D02*
X14334467Y-14781031D01*
X14334467Y-14781031D02*
X14343991Y-14800079D01*
X14343991Y-14800079D02*
X14353515Y-14838174D01*
X14353515Y-14838174D02*
X14353515Y-14885793D01*
X14353515Y-14885793D02*
X14343991Y-14923888D01*
X14343991Y-14923888D02*
X14334467Y-14942936D01*
X14334467Y-14942936D02*
X14324944Y-14952460D01*
X14324944Y-14952460D02*
X14305896Y-14961984D01*
X14305896Y-14961984D02*
X14286848Y-14961984D01*
X14286848Y-14961984D02*
X14267801Y-14952460D01*
X14267801Y-14952460D02*
X14258277Y-14942936D01*
X14258277Y-14942936D02*
X14248753Y-14923888D01*
X14248753Y-14923888D02*
X14239229Y-14885793D01*
X14239229Y-14885793D02*
X14239229Y-14838174D01*
X14239229Y-14838174D02*
X14248753Y-14800079D01*
X14248753Y-14800079D02*
X14258277Y-14781031D01*
X14258277Y-14781031D02*
X14267801Y-14771508D01*
X14267801Y-14771508D02*
X14286848Y-14761984D01*
X14420182Y-14761984D02*
X14543991Y-14761984D01*
X14543991Y-14761984D02*
X14477325Y-14838174D01*
X14477325Y-14838174D02*
X14505896Y-14838174D01*
X14505896Y-14838174D02*
X14524944Y-14847698D01*
X14524944Y-14847698D02*
X14534467Y-14857222D01*
X14534467Y-14857222D02*
X14543991Y-14876269D01*
X14543991Y-14876269D02*
X14543991Y-14923888D01*
X14543991Y-14923888D02*
X14534467Y-14942936D01*
X14534467Y-14942936D02*
X14524944Y-14952460D01*
X14524944Y-14952460D02*
X14505896Y-14961984D01*
X14505896Y-14961984D02*
X14448753Y-14961984D01*
X14448753Y-14961984D02*
X14429706Y-14952460D01*
X14429706Y-14952460D02*
X14420182Y-14942936D01*
X14715420Y-14761984D02*
X14677325Y-14761984D01*
X14677325Y-14761984D02*
X14658277Y-14771508D01*
X14658277Y-14771508D02*
X14648753Y-14781031D01*
X14648753Y-14781031D02*
X14629706Y-14809603D01*
X14629706Y-14809603D02*
X14620182Y-14847698D01*
X14620182Y-14847698D02*
X14620182Y-14923888D01*
X14620182Y-14923888D02*
X14629706Y-14942936D01*
X14629706Y-14942936D02*
X14639229Y-14952460D01*
X14639229Y-14952460D02*
X14658277Y-14961984D01*
X14658277Y-14961984D02*
X14696372Y-14961984D01*
X14696372Y-14961984D02*
X14715420Y-14952460D01*
X14715420Y-14952460D02*
X14724944Y-14942936D01*
X14724944Y-14942936D02*
X14734467Y-14923888D01*
X14734467Y-14923888D02*
X14734467Y-14876269D01*
X14734467Y-14876269D02*
X14724944Y-14857222D01*
X14724944Y-14857222D02*
X14715420Y-14847698D01*
X14715420Y-14847698D02*
X14696372Y-14838174D01*
X14696372Y-14838174D02*
X14658277Y-14838174D01*
X14658277Y-14838174D02*
X14639229Y-14847698D01*
X14639229Y-14847698D02*
X14629706Y-14857222D01*
X14629706Y-14857222D02*
X14620182Y-14876269D01*
X14810658Y-14781031D02*
X14820182Y-14771508D01*
X14820182Y-14771508D02*
X14839229Y-14761984D01*
X14839229Y-14761984D02*
X14886848Y-14761984D01*
X14886848Y-14761984D02*
X14905896Y-14771508D01*
X14905896Y-14771508D02*
X14915420Y-14781031D01*
X14915420Y-14781031D02*
X14924944Y-14800079D01*
X14924944Y-14800079D02*
X14924944Y-14819127D01*
X14924944Y-14819127D02*
X14915420Y-14847698D01*
X14915420Y-14847698D02*
X14801134Y-14961984D01*
X14801134Y-14961984D02*
X14924944Y-14961984D01*
X15001134Y-14761984D02*
X15001134Y-14800079D01*
X15077325Y-14761984D02*
X15077325Y-14800079D01*
X15372563Y-15038174D02*
X15363039Y-15028650D01*
X15363039Y-15028650D02*
X15343991Y-15000079D01*
X15343991Y-15000079D02*
X15334468Y-14981031D01*
X15334468Y-14981031D02*
X15324944Y-14952460D01*
X15324944Y-14952460D02*
X15315420Y-14904841D01*
X15315420Y-14904841D02*
X15315420Y-14866746D01*
X15315420Y-14866746D02*
X15324944Y-14819127D01*
X15324944Y-14819127D02*
X15334468Y-14790555D01*
X15334468Y-14790555D02*
X15343991Y-14771508D01*
X15343991Y-14771508D02*
X15363039Y-14742936D01*
X15363039Y-14742936D02*
X15372563Y-14733412D01*
X15534468Y-14828650D02*
X15534468Y-14961984D01*
X15486848Y-14752460D02*
X15439229Y-14895317D01*
X15439229Y-14895317D02*
X15563039Y-14895317D01*
X15791610Y-14961984D02*
X15791610Y-14761984D01*
X15877325Y-14961984D02*
X15877325Y-14857222D01*
X15877325Y-14857222D02*
X15867801Y-14838174D01*
X15867801Y-14838174D02*
X15848753Y-14828650D01*
X15848753Y-14828650D02*
X15820182Y-14828650D01*
X15820182Y-14828650D02*
X15801134Y-14838174D01*
X15801134Y-14838174D02*
X15791610Y-14847698D01*
X16001134Y-14961984D02*
X15982087Y-14952460D01*
X15982087Y-14952460D02*
X15972563Y-14942936D01*
X15972563Y-14942936D02*
X15963039Y-14923888D01*
X15963039Y-14923888D02*
X15963039Y-14866746D01*
X15963039Y-14866746D02*
X15972563Y-14847698D01*
X15972563Y-14847698D02*
X15982087Y-14838174D01*
X15982087Y-14838174D02*
X16001134Y-14828650D01*
X16001134Y-14828650D02*
X16029706Y-14828650D01*
X16029706Y-14828650D02*
X16048753Y-14838174D01*
X16048753Y-14838174D02*
X16058277Y-14847698D01*
X16058277Y-14847698D02*
X16067801Y-14866746D01*
X16067801Y-14866746D02*
X16067801Y-14923888D01*
X16067801Y-14923888D02*
X16058277Y-14942936D01*
X16058277Y-14942936D02*
X16048753Y-14952460D01*
X16048753Y-14952460D02*
X16029706Y-14961984D01*
X16029706Y-14961984D02*
X16001134Y-14961984D01*
X16182087Y-14961984D02*
X16163039Y-14952460D01*
X16163039Y-14952460D02*
X16153515Y-14933412D01*
X16153515Y-14933412D02*
X16153515Y-14761984D01*
X16334468Y-14952460D02*
X16315420Y-14961984D01*
X16315420Y-14961984D02*
X16277325Y-14961984D01*
X16277325Y-14961984D02*
X16258277Y-14952460D01*
X16258277Y-14952460D02*
X16248753Y-14933412D01*
X16248753Y-14933412D02*
X16248753Y-14857222D01*
X16248753Y-14857222D02*
X16258277Y-14838174D01*
X16258277Y-14838174D02*
X16277325Y-14828650D01*
X16277325Y-14828650D02*
X16315420Y-14828650D01*
X16315420Y-14828650D02*
X16334468Y-14838174D01*
X16334468Y-14838174D02*
X16343991Y-14857222D01*
X16343991Y-14857222D02*
X16343991Y-14876269D01*
X16343991Y-14876269D02*
X16248753Y-14895317D01*
X16420182Y-14952460D02*
X16439230Y-14961984D01*
X16439230Y-14961984D02*
X16477325Y-14961984D01*
X16477325Y-14961984D02*
X16496372Y-14952460D01*
X16496372Y-14952460D02*
X16505896Y-14933412D01*
X16505896Y-14933412D02*
X16505896Y-14923888D01*
X16505896Y-14923888D02*
X16496372Y-14904841D01*
X16496372Y-14904841D02*
X16477325Y-14895317D01*
X16477325Y-14895317D02*
X16448753Y-14895317D01*
X16448753Y-14895317D02*
X16429706Y-14885793D01*
X16429706Y-14885793D02*
X16420182Y-14866746D01*
X16420182Y-14866746D02*
X16420182Y-14857222D01*
X16420182Y-14857222D02*
X16429706Y-14838174D01*
X16429706Y-14838174D02*
X16448753Y-14828650D01*
X16448753Y-14828650D02*
X16477325Y-14828650D01*
X16477325Y-14828650D02*
X16496372Y-14838174D01*
X16572563Y-15038174D02*
X16582087Y-15028650D01*
X16582087Y-15028650D02*
X16601134Y-15000079D01*
X16601134Y-15000079D02*
X16610658Y-14981031D01*
X16610658Y-14981031D02*
X16620182Y-14952460D01*
X16620182Y-14952460D02*
X16629706Y-14904841D01*
X16629706Y-14904841D02*
X16629706Y-14866746D01*
X16629706Y-14866746D02*
X16620182Y-14819127D01*
X16620182Y-14819127D02*
X16610658Y-14790555D01*
X16610658Y-14790555D02*
X16601134Y-14771508D01*
X16601134Y-14771508D02*
X16582087Y-14742936D01*
X16582087Y-14742936D02*
X16572563Y-14733412D01*
D12*
X11782856Y-15169856D02*
X11782856Y-15099144D01*
X11712144Y-15099144D01*
X11712144Y-15169856D01*
X11782856Y-15169856D01*
D11*
X12163039Y-15225984D02*
X12048753Y-15225984D01*
X12105896Y-15225984D02*
X12105896Y-15025984D01*
X12105896Y-15025984D02*
X12086848Y-15054555D01*
X12086848Y-15054555D02*
X12067801Y-15073603D01*
X12067801Y-15073603D02*
X12048753Y-15083127D01*
X12248753Y-15206936D02*
X12258277Y-15216460D01*
X12258277Y-15216460D02*
X12248753Y-15225984D01*
X12248753Y-15225984D02*
X12239229Y-15216460D01*
X12239229Y-15216460D02*
X12248753Y-15206936D01*
X12248753Y-15206936D02*
X12248753Y-15225984D01*
X12382086Y-15025984D02*
X12401134Y-15025984D01*
X12401134Y-15025984D02*
X12420182Y-15035508D01*
X12420182Y-15035508D02*
X12429705Y-15045031D01*
X12429705Y-15045031D02*
X12439229Y-15064079D01*
X12439229Y-15064079D02*
X12448753Y-15102174D01*
X12448753Y-15102174D02*
X12448753Y-15149793D01*
X12448753Y-15149793D02*
X12439229Y-15187888D01*
X12439229Y-15187888D02*
X12429705Y-15206936D01*
X12429705Y-15206936D02*
X12420182Y-15216460D01*
X12420182Y-15216460D02*
X12401134Y-15225984D01*
X12401134Y-15225984D02*
X12382086Y-15225984D01*
X12382086Y-15225984D02*
X12363039Y-15216460D01*
X12363039Y-15216460D02*
X12353515Y-15206936D01*
X12353515Y-15206936D02*
X12343991Y-15187888D01*
X12343991Y-15187888D02*
X12334467Y-15149793D01*
X12334467Y-15149793D02*
X12334467Y-15102174D01*
X12334467Y-15102174D02*
X12343991Y-15064079D01*
X12343991Y-15064079D02*
X12353515Y-15045031D01*
X12353515Y-15045031D02*
X12363039Y-15035508D01*
X12363039Y-15035508D02*
X12382086Y-15025984D01*
X12572562Y-15025984D02*
X12591610Y-15025984D01*
X12591610Y-15025984D02*
X12610658Y-15035508D01*
X12610658Y-15035508D02*
X12620182Y-15045031D01*
X12620182Y-15045031D02*
X12629705Y-15064079D01*
X12629705Y-15064079D02*
X12639229Y-15102174D01*
X12639229Y-15102174D02*
X12639229Y-15149793D01*
X12639229Y-15149793D02*
X12629705Y-15187888D01*
X12629705Y-15187888D02*
X12620182Y-15206936D01*
X12620182Y-15206936D02*
X12610658Y-15216460D01*
X12610658Y-15216460D02*
X12591610Y-15225984D01*
X12591610Y-15225984D02*
X12572562Y-15225984D01*
X12572562Y-15225984D02*
X12553515Y-15216460D01*
X12553515Y-15216460D02*
X12543991Y-15206936D01*
X12543991Y-15206936D02*
X12534467Y-15187888D01*
X12534467Y-15187888D02*
X12524943Y-15149793D01*
X12524943Y-15149793D02*
X12524943Y-15102174D01*
X12524943Y-15102174D02*
X12534467Y-15064079D01*
X12534467Y-15064079D02*
X12543991Y-15045031D01*
X12543991Y-15045031D02*
X12553515Y-15035508D01*
X12553515Y-15035508D02*
X12572562Y-15025984D01*
X12763039Y-15025984D02*
X12782086Y-15025984D01*
X12782086Y-15025984D02*
X12801134Y-15035508D01*
X12801134Y-15035508D02*
X12810658Y-15045031D01*
X12810658Y-15045031D02*
X12820182Y-15064079D01*
X12820182Y-15064079D02*
X12829705Y-15102174D01*
X12829705Y-15102174D02*
X12829705Y-15149793D01*
X12829705Y-15149793D02*
X12820182Y-15187888D01*
X12820182Y-15187888D02*
X12810658Y-15206936D01*
X12810658Y-15206936D02*
X12801134Y-15216460D01*
X12801134Y-15216460D02*
X12782086Y-15225984D01*
X12782086Y-15225984D02*
X12763039Y-15225984D01*
X12763039Y-15225984D02*
X12743991Y-15216460D01*
X12743991Y-15216460D02*
X12734467Y-15206936D01*
X12734467Y-15206936D02*
X12724943Y-15187888D01*
X12724943Y-15187888D02*
X12715420Y-15149793D01*
X12715420Y-15149793D02*
X12715420Y-15102174D01*
X12715420Y-15102174D02*
X12724943Y-15064079D01*
X12724943Y-15064079D02*
X12734467Y-15045031D01*
X12734467Y-15045031D02*
X12743991Y-15035508D01*
X12743991Y-15035508D02*
X12763039Y-15025984D01*
X12915420Y-15225984D02*
X12915420Y-15092650D01*
X12915420Y-15111698D02*
X12924943Y-15102174D01*
X12924943Y-15102174D02*
X12943991Y-15092650D01*
X12943991Y-15092650D02*
X12972563Y-15092650D01*
X12972563Y-15092650D02*
X12991610Y-15102174D01*
X12991610Y-15102174D02*
X13001134Y-15121222D01*
X13001134Y-15121222D02*
X13001134Y-15225984D01*
X13001134Y-15121222D02*
X13010658Y-15102174D01*
X13010658Y-15102174D02*
X13029705Y-15092650D01*
X13029705Y-15092650D02*
X13058277Y-15092650D01*
X13058277Y-15092650D02*
X13077324Y-15102174D01*
X13077324Y-15102174D02*
X13086848Y-15121222D01*
X13086848Y-15121222D02*
X13086848Y-15225984D01*
X13182086Y-15225984D02*
X13182086Y-15092650D01*
X13182086Y-15111698D02*
X13191610Y-15102174D01*
X13191610Y-15102174D02*
X13210658Y-15092650D01*
X13210658Y-15092650D02*
X13239229Y-15092650D01*
X13239229Y-15092650D02*
X13258277Y-15102174D01*
X13258277Y-15102174D02*
X13267801Y-15121222D01*
X13267801Y-15121222D02*
X13267801Y-15225984D01*
X13267801Y-15121222D02*
X13277324Y-15102174D01*
X13277324Y-15102174D02*
X13296372Y-15092650D01*
X13296372Y-15092650D02*
X13324943Y-15092650D01*
X13324943Y-15092650D02*
X13343991Y-15102174D01*
X13343991Y-15102174D02*
X13353515Y-15121222D01*
X13353515Y-15121222D02*
X13353515Y-15225984D01*
X13743991Y-15016460D02*
X13572563Y-15273603D01*
X14001134Y-15025984D02*
X14020182Y-15025984D01*
X14020182Y-15025984D02*
X14039229Y-15035508D01*
X14039229Y-15035508D02*
X14048753Y-15045031D01*
X14048753Y-15045031D02*
X14058277Y-15064079D01*
X14058277Y-15064079D02*
X14067801Y-15102174D01*
X14067801Y-15102174D02*
X14067801Y-15149793D01*
X14067801Y-15149793D02*
X14058277Y-15187888D01*
X14058277Y-15187888D02*
X14048753Y-15206936D01*
X14048753Y-15206936D02*
X14039229Y-15216460D01*
X14039229Y-15216460D02*
X14020182Y-15225984D01*
X14020182Y-15225984D02*
X14001134Y-15225984D01*
X14001134Y-15225984D02*
X13982086Y-15216460D01*
X13982086Y-15216460D02*
X13972563Y-15206936D01*
X13972563Y-15206936D02*
X13963039Y-15187888D01*
X13963039Y-15187888D02*
X13953515Y-15149793D01*
X13953515Y-15149793D02*
X13953515Y-15102174D01*
X13953515Y-15102174D02*
X13963039Y-15064079D01*
X13963039Y-15064079D02*
X13972563Y-15045031D01*
X13972563Y-15045031D02*
X13982086Y-15035508D01*
X13982086Y-15035508D02*
X14001134Y-15025984D01*
X14153515Y-15206936D02*
X14163039Y-15216460D01*
X14163039Y-15216460D02*
X14153515Y-15225984D01*
X14153515Y-15225984D02*
X14143991Y-15216460D01*
X14143991Y-15216460D02*
X14153515Y-15206936D01*
X14153515Y-15206936D02*
X14153515Y-15225984D01*
X14286848Y-15025984D02*
X14305896Y-15025984D01*
X14305896Y-15025984D02*
X14324944Y-15035508D01*
X14324944Y-15035508D02*
X14334467Y-15045031D01*
X14334467Y-15045031D02*
X14343991Y-15064079D01*
X14343991Y-15064079D02*
X14353515Y-15102174D01*
X14353515Y-15102174D02*
X14353515Y-15149793D01*
X14353515Y-15149793D02*
X14343991Y-15187888D01*
X14343991Y-15187888D02*
X14334467Y-15206936D01*
X14334467Y-15206936D02*
X14324944Y-15216460D01*
X14324944Y-15216460D02*
X14305896Y-15225984D01*
X14305896Y-15225984D02*
X14286848Y-15225984D01*
X14286848Y-15225984D02*
X14267801Y-15216460D01*
X14267801Y-15216460D02*
X14258277Y-15206936D01*
X14258277Y-15206936D02*
X14248753Y-15187888D01*
X14248753Y-15187888D02*
X14239229Y-15149793D01*
X14239229Y-15149793D02*
X14239229Y-15102174D01*
X14239229Y-15102174D02*
X14248753Y-15064079D01*
X14248753Y-15064079D02*
X14258277Y-15045031D01*
X14258277Y-15045031D02*
X14267801Y-15035508D01*
X14267801Y-15035508D02*
X14286848Y-15025984D01*
X14420182Y-15025984D02*
X14543991Y-15025984D01*
X14543991Y-15025984D02*
X14477325Y-15102174D01*
X14477325Y-15102174D02*
X14505896Y-15102174D01*
X14505896Y-15102174D02*
X14524944Y-15111698D01*
X14524944Y-15111698D02*
X14534467Y-15121222D01*
X14534467Y-15121222D02*
X14543991Y-15140269D01*
X14543991Y-15140269D02*
X14543991Y-15187888D01*
X14543991Y-15187888D02*
X14534467Y-15206936D01*
X14534467Y-15206936D02*
X14524944Y-15216460D01*
X14524944Y-15216460D02*
X14505896Y-15225984D01*
X14505896Y-15225984D02*
X14448753Y-15225984D01*
X14448753Y-15225984D02*
X14429706Y-15216460D01*
X14429706Y-15216460D02*
X14420182Y-15206936D01*
X14639229Y-15225984D02*
X14677325Y-15225984D01*
X14677325Y-15225984D02*
X14696372Y-15216460D01*
X14696372Y-15216460D02*
X14705896Y-15206936D01*
X14705896Y-15206936D02*
X14724944Y-15178365D01*
X14724944Y-15178365D02*
X14734467Y-15140269D01*
X14734467Y-15140269D02*
X14734467Y-15064079D01*
X14734467Y-15064079D02*
X14724944Y-15045031D01*
X14724944Y-15045031D02*
X14715420Y-15035508D01*
X14715420Y-15035508D02*
X14696372Y-15025984D01*
X14696372Y-15025984D02*
X14658277Y-15025984D01*
X14658277Y-15025984D02*
X14639229Y-15035508D01*
X14639229Y-15035508D02*
X14629706Y-15045031D01*
X14629706Y-15045031D02*
X14620182Y-15064079D01*
X14620182Y-15064079D02*
X14620182Y-15111698D01*
X14620182Y-15111698D02*
X14629706Y-15130746D01*
X14629706Y-15130746D02*
X14639229Y-15140269D01*
X14639229Y-15140269D02*
X14658277Y-15149793D01*
X14658277Y-15149793D02*
X14696372Y-15149793D01*
X14696372Y-15149793D02*
X14715420Y-15140269D01*
X14715420Y-15140269D02*
X14724944Y-15130746D01*
X14724944Y-15130746D02*
X14734467Y-15111698D01*
X14905896Y-15092650D02*
X14905896Y-15225984D01*
X14858277Y-15016460D02*
X14810658Y-15159317D01*
X14810658Y-15159317D02*
X14934467Y-15159317D01*
X15001134Y-15025984D02*
X15001134Y-15064079D01*
X15077325Y-15025984D02*
X15077325Y-15064079D01*
X15372563Y-15302174D02*
X15363039Y-15292650D01*
X15363039Y-15292650D02*
X15343991Y-15264079D01*
X15343991Y-15264079D02*
X15334468Y-15245031D01*
X15334468Y-15245031D02*
X15324944Y-15216460D01*
X15324944Y-15216460D02*
X15315420Y-15168841D01*
X15315420Y-15168841D02*
X15315420Y-15130746D01*
X15315420Y-15130746D02*
X15324944Y-15083127D01*
X15324944Y-15083127D02*
X15334468Y-15054555D01*
X15334468Y-15054555D02*
X15343991Y-15035508D01*
X15343991Y-15035508D02*
X15363039Y-15006936D01*
X15363039Y-15006936D02*
X15372563Y-14997412D01*
X15543991Y-15025984D02*
X15448753Y-15025984D01*
X15448753Y-15025984D02*
X15439229Y-15121222D01*
X15439229Y-15121222D02*
X15448753Y-15111698D01*
X15448753Y-15111698D02*
X15467801Y-15102174D01*
X15467801Y-15102174D02*
X15515420Y-15102174D01*
X15515420Y-15102174D02*
X15534468Y-15111698D01*
X15534468Y-15111698D02*
X15543991Y-15121222D01*
X15543991Y-15121222D02*
X15553515Y-15140269D01*
X15553515Y-15140269D02*
X15553515Y-15187888D01*
X15553515Y-15187888D02*
X15543991Y-15206936D01*
X15543991Y-15206936D02*
X15534468Y-15216460D01*
X15534468Y-15216460D02*
X15515420Y-15225984D01*
X15515420Y-15225984D02*
X15467801Y-15225984D01*
X15467801Y-15225984D02*
X15448753Y-15216460D01*
X15448753Y-15216460D02*
X15439229Y-15206936D01*
X15734468Y-15025984D02*
X15639229Y-15025984D01*
X15639229Y-15025984D02*
X15629706Y-15121222D01*
X15629706Y-15121222D02*
X15639229Y-15111698D01*
X15639229Y-15111698D02*
X15658277Y-15102174D01*
X15658277Y-15102174D02*
X15705896Y-15102174D01*
X15705896Y-15102174D02*
X15724944Y-15111698D01*
X15724944Y-15111698D02*
X15734468Y-15121222D01*
X15734468Y-15121222D02*
X15743991Y-15140269D01*
X15743991Y-15140269D02*
X15743991Y-15187888D01*
X15743991Y-15187888D02*
X15734468Y-15206936D01*
X15734468Y-15206936D02*
X15724944Y-15216460D01*
X15724944Y-15216460D02*
X15705896Y-15225984D01*
X15705896Y-15225984D02*
X15658277Y-15225984D01*
X15658277Y-15225984D02*
X15639229Y-15216460D01*
X15639229Y-15216460D02*
X15629706Y-15206936D01*
X15982087Y-15225984D02*
X15982087Y-15025984D01*
X16067801Y-15225984D02*
X16067801Y-15121222D01*
X16067801Y-15121222D02*
X16058277Y-15102174D01*
X16058277Y-15102174D02*
X16039230Y-15092650D01*
X16039230Y-15092650D02*
X16010658Y-15092650D01*
X16010658Y-15092650D02*
X15991610Y-15102174D01*
X15991610Y-15102174D02*
X15982087Y-15111698D01*
X16191610Y-15225984D02*
X16172563Y-15216460D01*
X16172563Y-15216460D02*
X16163039Y-15206936D01*
X16163039Y-15206936D02*
X16153515Y-15187888D01*
X16153515Y-15187888D02*
X16153515Y-15130746D01*
X16153515Y-15130746D02*
X16163039Y-15111698D01*
X16163039Y-15111698D02*
X16172563Y-15102174D01*
X16172563Y-15102174D02*
X16191610Y-15092650D01*
X16191610Y-15092650D02*
X16220182Y-15092650D01*
X16220182Y-15092650D02*
X16239230Y-15102174D01*
X16239230Y-15102174D02*
X16248753Y-15111698D01*
X16248753Y-15111698D02*
X16258277Y-15130746D01*
X16258277Y-15130746D02*
X16258277Y-15187888D01*
X16258277Y-15187888D02*
X16248753Y-15206936D01*
X16248753Y-15206936D02*
X16239230Y-15216460D01*
X16239230Y-15216460D02*
X16220182Y-15225984D01*
X16220182Y-15225984D02*
X16191610Y-15225984D01*
X16372563Y-15225984D02*
X16353515Y-15216460D01*
X16353515Y-15216460D02*
X16343991Y-15197412D01*
X16343991Y-15197412D02*
X16343991Y-15025984D01*
X16524944Y-15216460D02*
X16505896Y-15225984D01*
X16505896Y-15225984D02*
X16467801Y-15225984D01*
X16467801Y-15225984D02*
X16448753Y-15216460D01*
X16448753Y-15216460D02*
X16439230Y-15197412D01*
X16439230Y-15197412D02*
X16439230Y-15121222D01*
X16439230Y-15121222D02*
X16448753Y-15102174D01*
X16448753Y-15102174D02*
X16467801Y-15092650D01*
X16467801Y-15092650D02*
X16505896Y-15092650D01*
X16505896Y-15092650D02*
X16524944Y-15102174D01*
X16524944Y-15102174D02*
X16534468Y-15121222D01*
X16534468Y-15121222D02*
X16534468Y-15140269D01*
X16534468Y-15140269D02*
X16439230Y-15159317D01*
X16610658Y-15216460D02*
X16629706Y-15225984D01*
X16629706Y-15225984D02*
X16667801Y-15225984D01*
X16667801Y-15225984D02*
X16686849Y-15216460D01*
X16686849Y-15216460D02*
X16696372Y-15197412D01*
X16696372Y-15197412D02*
X16696372Y-15187888D01*
X16696372Y-15187888D02*
X16686849Y-15168841D01*
X16686849Y-15168841D02*
X16667801Y-15159317D01*
X16667801Y-15159317D02*
X16639230Y-15159317D01*
X16639230Y-15159317D02*
X16620182Y-15149793D01*
X16620182Y-15149793D02*
X16610658Y-15130746D01*
X16610658Y-15130746D02*
X16610658Y-15121222D01*
X16610658Y-15121222D02*
X16620182Y-15102174D01*
X16620182Y-15102174D02*
X16639230Y-15092650D01*
X16639230Y-15092650D02*
X16667801Y-15092650D01*
X16667801Y-15092650D02*
X16686849Y-15102174D01*
X16763039Y-15302174D02*
X16772563Y-15292650D01*
X16772563Y-15292650D02*
X16791611Y-15264079D01*
X16791611Y-15264079D02*
X16801134Y-15245031D01*
X16801134Y-15245031D02*
X16810658Y-15216460D01*
X16810658Y-15216460D02*
X16820182Y-15168841D01*
X16820182Y-15168841D02*
X16820182Y-15130746D01*
X16820182Y-15130746D02*
X16810658Y-15083127D01*
X16810658Y-15083127D02*
X16801134Y-15054555D01*
X16801134Y-15054555D02*
X16791611Y-15035508D01*
X16791611Y-15035508D02*
X16772563Y-15006936D01*
X16772563Y-15006936D02*
X16763039Y-14997412D01*
D13*
X11737500Y-15458500D02*
X11797500Y-15398500D01*
X11737500Y-15338500D01*
X11677500Y-15398500D01*
X11737500Y-15458500D01*
D11*
X12163039Y-15489984D02*
X12048753Y-15489984D01*
X12105896Y-15489984D02*
X12105896Y-15289984D01*
X12105896Y-15289984D02*
X12086848Y-15318555D01*
X12086848Y-15318555D02*
X12067801Y-15337603D01*
X12067801Y-15337603D02*
X12048753Y-15347127D01*
X12248753Y-15470936D02*
X12258277Y-15480460D01*
X12258277Y-15480460D02*
X12248753Y-15489984D01*
X12248753Y-15489984D02*
X12239229Y-15480460D01*
X12239229Y-15480460D02*
X12248753Y-15470936D01*
X12248753Y-15470936D02*
X12248753Y-15489984D01*
X12334467Y-15309031D02*
X12343991Y-15299508D01*
X12343991Y-15299508D02*
X12363039Y-15289984D01*
X12363039Y-15289984D02*
X12410658Y-15289984D01*
X12410658Y-15289984D02*
X12429705Y-15299508D01*
X12429705Y-15299508D02*
X12439229Y-15309031D01*
X12439229Y-15309031D02*
X12448753Y-15328079D01*
X12448753Y-15328079D02*
X12448753Y-15347127D01*
X12448753Y-15347127D02*
X12439229Y-15375698D01*
X12439229Y-15375698D02*
X12324943Y-15489984D01*
X12324943Y-15489984D02*
X12448753Y-15489984D01*
X12572562Y-15289984D02*
X12591610Y-15289984D01*
X12591610Y-15289984D02*
X12610658Y-15299508D01*
X12610658Y-15299508D02*
X12620182Y-15309031D01*
X12620182Y-15309031D02*
X12629705Y-15328079D01*
X12629705Y-15328079D02*
X12639229Y-15366174D01*
X12639229Y-15366174D02*
X12639229Y-15413793D01*
X12639229Y-15413793D02*
X12629705Y-15451888D01*
X12629705Y-15451888D02*
X12620182Y-15470936D01*
X12620182Y-15470936D02*
X12610658Y-15480460D01*
X12610658Y-15480460D02*
X12591610Y-15489984D01*
X12591610Y-15489984D02*
X12572562Y-15489984D01*
X12572562Y-15489984D02*
X12553515Y-15480460D01*
X12553515Y-15480460D02*
X12543991Y-15470936D01*
X12543991Y-15470936D02*
X12534467Y-15451888D01*
X12534467Y-15451888D02*
X12524943Y-15413793D01*
X12524943Y-15413793D02*
X12524943Y-15366174D01*
X12524943Y-15366174D02*
X12534467Y-15328079D01*
X12534467Y-15328079D02*
X12543991Y-15309031D01*
X12543991Y-15309031D02*
X12553515Y-15299508D01*
X12553515Y-15299508D02*
X12572562Y-15289984D01*
X12763039Y-15289984D02*
X12782086Y-15289984D01*
X12782086Y-15289984D02*
X12801134Y-15299508D01*
X12801134Y-15299508D02*
X12810658Y-15309031D01*
X12810658Y-15309031D02*
X12820182Y-15328079D01*
X12820182Y-15328079D02*
X12829705Y-15366174D01*
X12829705Y-15366174D02*
X12829705Y-15413793D01*
X12829705Y-15413793D02*
X12820182Y-15451888D01*
X12820182Y-15451888D02*
X12810658Y-15470936D01*
X12810658Y-15470936D02*
X12801134Y-15480460D01*
X12801134Y-15480460D02*
X12782086Y-15489984D01*
X12782086Y-15489984D02*
X12763039Y-15489984D01*
X12763039Y-15489984D02*
X12743991Y-15480460D01*
X12743991Y-15480460D02*
X12734467Y-15470936D01*
X12734467Y-15470936D02*
X12724943Y-15451888D01*
X12724943Y-15451888D02*
X12715420Y-15413793D01*
X12715420Y-15413793D02*
X12715420Y-15366174D01*
X12715420Y-15366174D02*
X12724943Y-15328079D01*
X12724943Y-15328079D02*
X12734467Y-15309031D01*
X12734467Y-15309031D02*
X12743991Y-15299508D01*
X12743991Y-15299508D02*
X12763039Y-15289984D01*
X12915420Y-15489984D02*
X12915420Y-15356650D01*
X12915420Y-15375698D02*
X12924943Y-15366174D01*
X12924943Y-15366174D02*
X12943991Y-15356650D01*
X12943991Y-15356650D02*
X12972563Y-15356650D01*
X12972563Y-15356650D02*
X12991610Y-15366174D01*
X12991610Y-15366174D02*
X13001134Y-15385222D01*
X13001134Y-15385222D02*
X13001134Y-15489984D01*
X13001134Y-15385222D02*
X13010658Y-15366174D01*
X13010658Y-15366174D02*
X13029705Y-15356650D01*
X13029705Y-15356650D02*
X13058277Y-15356650D01*
X13058277Y-15356650D02*
X13077324Y-15366174D01*
X13077324Y-15366174D02*
X13086848Y-15385222D01*
X13086848Y-15385222D02*
X13086848Y-15489984D01*
X13182086Y-15489984D02*
X13182086Y-15356650D01*
X13182086Y-15375698D02*
X13191610Y-15366174D01*
X13191610Y-15366174D02*
X13210658Y-15356650D01*
X13210658Y-15356650D02*
X13239229Y-15356650D01*
X13239229Y-15356650D02*
X13258277Y-15366174D01*
X13258277Y-15366174D02*
X13267801Y-15385222D01*
X13267801Y-15385222D02*
X13267801Y-15489984D01*
X13267801Y-15385222D02*
X13277324Y-15366174D01*
X13277324Y-15366174D02*
X13296372Y-15356650D01*
X13296372Y-15356650D02*
X13324943Y-15356650D01*
X13324943Y-15356650D02*
X13343991Y-15366174D01*
X13343991Y-15366174D02*
X13353515Y-15385222D01*
X13353515Y-15385222D02*
X13353515Y-15489984D01*
X13743991Y-15280460D02*
X13572563Y-15537603D01*
X14001134Y-15289984D02*
X14020182Y-15289984D01*
X14020182Y-15289984D02*
X14039229Y-15299508D01*
X14039229Y-15299508D02*
X14048753Y-15309031D01*
X14048753Y-15309031D02*
X14058277Y-15328079D01*
X14058277Y-15328079D02*
X14067801Y-15366174D01*
X14067801Y-15366174D02*
X14067801Y-15413793D01*
X14067801Y-15413793D02*
X14058277Y-15451888D01*
X14058277Y-15451888D02*
X14048753Y-15470936D01*
X14048753Y-15470936D02*
X14039229Y-15480460D01*
X14039229Y-15480460D02*
X14020182Y-15489984D01*
X14020182Y-15489984D02*
X14001134Y-15489984D01*
X14001134Y-15489984D02*
X13982086Y-15480460D01*
X13982086Y-15480460D02*
X13972563Y-15470936D01*
X13972563Y-15470936D02*
X13963039Y-15451888D01*
X13963039Y-15451888D02*
X13953515Y-15413793D01*
X13953515Y-15413793D02*
X13953515Y-15366174D01*
X13953515Y-15366174D02*
X13963039Y-15328079D01*
X13963039Y-15328079D02*
X13972563Y-15309031D01*
X13972563Y-15309031D02*
X13982086Y-15299508D01*
X13982086Y-15299508D02*
X14001134Y-15289984D01*
X14153515Y-15470936D02*
X14163039Y-15480460D01*
X14163039Y-15480460D02*
X14153515Y-15489984D01*
X14153515Y-15489984D02*
X14143991Y-15480460D01*
X14143991Y-15480460D02*
X14153515Y-15470936D01*
X14153515Y-15470936D02*
X14153515Y-15489984D01*
X14286848Y-15289984D02*
X14305896Y-15289984D01*
X14305896Y-15289984D02*
X14324944Y-15299508D01*
X14324944Y-15299508D02*
X14334467Y-15309031D01*
X14334467Y-15309031D02*
X14343991Y-15328079D01*
X14343991Y-15328079D02*
X14353515Y-15366174D01*
X14353515Y-15366174D02*
X14353515Y-15413793D01*
X14353515Y-15413793D02*
X14343991Y-15451888D01*
X14343991Y-15451888D02*
X14334467Y-15470936D01*
X14334467Y-15470936D02*
X14324944Y-15480460D01*
X14324944Y-15480460D02*
X14305896Y-15489984D01*
X14305896Y-15489984D02*
X14286848Y-15489984D01*
X14286848Y-15489984D02*
X14267801Y-15480460D01*
X14267801Y-15480460D02*
X14258277Y-15470936D01*
X14258277Y-15470936D02*
X14248753Y-15451888D01*
X14248753Y-15451888D02*
X14239229Y-15413793D01*
X14239229Y-15413793D02*
X14239229Y-15366174D01*
X14239229Y-15366174D02*
X14248753Y-15328079D01*
X14248753Y-15328079D02*
X14258277Y-15309031D01*
X14258277Y-15309031D02*
X14267801Y-15299508D01*
X14267801Y-15299508D02*
X14286848Y-15289984D01*
X14524944Y-15356650D02*
X14524944Y-15489984D01*
X14477325Y-15280460D02*
X14429706Y-15423317D01*
X14429706Y-15423317D02*
X14553515Y-15423317D01*
X14610658Y-15289984D02*
X14743991Y-15289984D01*
X14743991Y-15289984D02*
X14658277Y-15489984D01*
X14810658Y-15309031D02*
X14820182Y-15299508D01*
X14820182Y-15299508D02*
X14839229Y-15289984D01*
X14839229Y-15289984D02*
X14886848Y-15289984D01*
X14886848Y-15289984D02*
X14905896Y-15299508D01*
X14905896Y-15299508D02*
X14915420Y-15309031D01*
X14915420Y-15309031D02*
X14924944Y-15328079D01*
X14924944Y-15328079D02*
X14924944Y-15347127D01*
X14924944Y-15347127D02*
X14915420Y-15375698D01*
X14915420Y-15375698D02*
X14801134Y-15489984D01*
X14801134Y-15489984D02*
X14924944Y-15489984D01*
X15001134Y-15289984D02*
X15001134Y-15328079D01*
X15077325Y-15289984D02*
X15077325Y-15328079D01*
X15372563Y-15566174D02*
X15363039Y-15556650D01*
X15363039Y-15556650D02*
X15343991Y-15528079D01*
X15343991Y-15528079D02*
X15334468Y-15509031D01*
X15334468Y-15509031D02*
X15324944Y-15480460D01*
X15324944Y-15480460D02*
X15315420Y-15432841D01*
X15315420Y-15432841D02*
X15315420Y-15394746D01*
X15315420Y-15394746D02*
X15324944Y-15347127D01*
X15324944Y-15347127D02*
X15334468Y-15318555D01*
X15334468Y-15318555D02*
X15343991Y-15299508D01*
X15343991Y-15299508D02*
X15363039Y-15270936D01*
X15363039Y-15270936D02*
X15372563Y-15261412D01*
X15429706Y-15289984D02*
X15553515Y-15289984D01*
X15553515Y-15289984D02*
X15486848Y-15366174D01*
X15486848Y-15366174D02*
X15515420Y-15366174D01*
X15515420Y-15366174D02*
X15534468Y-15375698D01*
X15534468Y-15375698D02*
X15543991Y-15385222D01*
X15543991Y-15385222D02*
X15553515Y-15404269D01*
X15553515Y-15404269D02*
X15553515Y-15451888D01*
X15553515Y-15451888D02*
X15543991Y-15470936D01*
X15543991Y-15470936D02*
X15534468Y-15480460D01*
X15534468Y-15480460D02*
X15515420Y-15489984D01*
X15515420Y-15489984D02*
X15458277Y-15489984D01*
X15458277Y-15489984D02*
X15439229Y-15480460D01*
X15439229Y-15480460D02*
X15429706Y-15470936D01*
X15791610Y-15489984D02*
X15791610Y-15289984D01*
X15877325Y-15489984D02*
X15877325Y-15385222D01*
X15877325Y-15385222D02*
X15867801Y-15366174D01*
X15867801Y-15366174D02*
X15848753Y-15356650D01*
X15848753Y-15356650D02*
X15820182Y-15356650D01*
X15820182Y-15356650D02*
X15801134Y-15366174D01*
X15801134Y-15366174D02*
X15791610Y-15375698D01*
X16001134Y-15489984D02*
X15982087Y-15480460D01*
X15982087Y-15480460D02*
X15972563Y-15470936D01*
X15972563Y-15470936D02*
X15963039Y-15451888D01*
X15963039Y-15451888D02*
X15963039Y-15394746D01*
X15963039Y-15394746D02*
X15972563Y-15375698D01*
X15972563Y-15375698D02*
X15982087Y-15366174D01*
X15982087Y-15366174D02*
X16001134Y-15356650D01*
X16001134Y-15356650D02*
X16029706Y-15356650D01*
X16029706Y-15356650D02*
X16048753Y-15366174D01*
X16048753Y-15366174D02*
X16058277Y-15375698D01*
X16058277Y-15375698D02*
X16067801Y-15394746D01*
X16067801Y-15394746D02*
X16067801Y-15451888D01*
X16067801Y-15451888D02*
X16058277Y-15470936D01*
X16058277Y-15470936D02*
X16048753Y-15480460D01*
X16048753Y-15480460D02*
X16029706Y-15489984D01*
X16029706Y-15489984D02*
X16001134Y-15489984D01*
X16182087Y-15489984D02*
X16163039Y-15480460D01*
X16163039Y-15480460D02*
X16153515Y-15461412D01*
X16153515Y-15461412D02*
X16153515Y-15289984D01*
X16334468Y-15480460D02*
X16315420Y-15489984D01*
X16315420Y-15489984D02*
X16277325Y-15489984D01*
X16277325Y-15489984D02*
X16258277Y-15480460D01*
X16258277Y-15480460D02*
X16248753Y-15461412D01*
X16248753Y-15461412D02*
X16248753Y-15385222D01*
X16248753Y-15385222D02*
X16258277Y-15366174D01*
X16258277Y-15366174D02*
X16277325Y-15356650D01*
X16277325Y-15356650D02*
X16315420Y-15356650D01*
X16315420Y-15356650D02*
X16334468Y-15366174D01*
X16334468Y-15366174D02*
X16343991Y-15385222D01*
X16343991Y-15385222D02*
X16343991Y-15404269D01*
X16343991Y-15404269D02*
X16248753Y-15423317D01*
X16420182Y-15480460D02*
X16439230Y-15489984D01*
X16439230Y-15489984D02*
X16477325Y-15489984D01*
X16477325Y-15489984D02*
X16496372Y-15480460D01*
X16496372Y-15480460D02*
X16505896Y-15461412D01*
X16505896Y-15461412D02*
X16505896Y-15451888D01*
X16505896Y-15451888D02*
X16496372Y-15432841D01*
X16496372Y-15432841D02*
X16477325Y-15423317D01*
X16477325Y-15423317D02*
X16448753Y-15423317D01*
X16448753Y-15423317D02*
X16429706Y-15413793D01*
X16429706Y-15413793D02*
X16420182Y-15394746D01*
X16420182Y-15394746D02*
X16420182Y-15385222D01*
X16420182Y-15385222D02*
X16429706Y-15366174D01*
X16429706Y-15366174D02*
X16448753Y-15356650D01*
X16448753Y-15356650D02*
X16477325Y-15356650D01*
X16477325Y-15356650D02*
X16496372Y-15366174D01*
X16572563Y-15566174D02*
X16582087Y-15556650D01*
X16582087Y-15556650D02*
X16601134Y-15528079D01*
X16601134Y-15528079D02*
X16610658Y-15509031D01*
X16610658Y-15509031D02*
X16620182Y-15480460D01*
X16620182Y-15480460D02*
X16629706Y-15432841D01*
X16629706Y-15432841D02*
X16629706Y-15394746D01*
X16629706Y-15394746D02*
X16620182Y-15347127D01*
X16620182Y-15347127D02*
X16610658Y-15318555D01*
X16610658Y-15318555D02*
X16601134Y-15299508D01*
X16601134Y-15299508D02*
X16582087Y-15270936D01*
X16582087Y-15270936D02*
X16572563Y-15261412D01*
X11597500Y-15562500D02*
X11797500Y-15762500D01*
X11797500Y-15562500D02*
X11597500Y-15762500D01*
X11797500Y-15662500D02*
G75*
G02*
X11597500Y-15662500I-100000J0D01*
G01*
X11597500Y-15662500D02*
G75*
G02*
X11797500Y-15662500I100000J0D01*
G01*
X12048753Y-15573031D02*
X12058277Y-15563508D01*
X12058277Y-15563508D02*
X12077324Y-15553984D01*
X12077324Y-15553984D02*
X12124943Y-15553984D01*
X12124943Y-15553984D02*
X12143991Y-15563508D01*
X12143991Y-15563508D02*
X12153515Y-15573031D01*
X12153515Y-15573031D02*
X12163039Y-15592079D01*
X12163039Y-15592079D02*
X12163039Y-15611127D01*
X12163039Y-15611127D02*
X12153515Y-15639698D01*
X12153515Y-15639698D02*
X12039229Y-15753984D01*
X12039229Y-15753984D02*
X12163039Y-15753984D01*
X12248753Y-15734936D02*
X12258277Y-15744460D01*
X12258277Y-15744460D02*
X12248753Y-15753984D01*
X12248753Y-15753984D02*
X12239229Y-15744460D01*
X12239229Y-15744460D02*
X12248753Y-15734936D01*
X12248753Y-15734936D02*
X12248753Y-15753984D01*
X12324943Y-15553984D02*
X12448753Y-15553984D01*
X12448753Y-15553984D02*
X12382086Y-15630174D01*
X12382086Y-15630174D02*
X12410658Y-15630174D01*
X12410658Y-15630174D02*
X12429705Y-15639698D01*
X12429705Y-15639698D02*
X12439229Y-15649222D01*
X12439229Y-15649222D02*
X12448753Y-15668269D01*
X12448753Y-15668269D02*
X12448753Y-15715888D01*
X12448753Y-15715888D02*
X12439229Y-15734936D01*
X12439229Y-15734936D02*
X12429705Y-15744460D01*
X12429705Y-15744460D02*
X12410658Y-15753984D01*
X12410658Y-15753984D02*
X12353515Y-15753984D01*
X12353515Y-15753984D02*
X12334467Y-15744460D01*
X12334467Y-15744460D02*
X12324943Y-15734936D01*
X12572562Y-15553984D02*
X12591610Y-15553984D01*
X12591610Y-15553984D02*
X12610658Y-15563508D01*
X12610658Y-15563508D02*
X12620182Y-15573031D01*
X12620182Y-15573031D02*
X12629705Y-15592079D01*
X12629705Y-15592079D02*
X12639229Y-15630174D01*
X12639229Y-15630174D02*
X12639229Y-15677793D01*
X12639229Y-15677793D02*
X12629705Y-15715888D01*
X12629705Y-15715888D02*
X12620182Y-15734936D01*
X12620182Y-15734936D02*
X12610658Y-15744460D01*
X12610658Y-15744460D02*
X12591610Y-15753984D01*
X12591610Y-15753984D02*
X12572562Y-15753984D01*
X12572562Y-15753984D02*
X12553515Y-15744460D01*
X12553515Y-15744460D02*
X12543991Y-15734936D01*
X12543991Y-15734936D02*
X12534467Y-15715888D01*
X12534467Y-15715888D02*
X12524943Y-15677793D01*
X12524943Y-15677793D02*
X12524943Y-15630174D01*
X12524943Y-15630174D02*
X12534467Y-15592079D01*
X12534467Y-15592079D02*
X12543991Y-15573031D01*
X12543991Y-15573031D02*
X12553515Y-15563508D01*
X12553515Y-15563508D02*
X12572562Y-15553984D01*
X12763039Y-15553984D02*
X12782086Y-15553984D01*
X12782086Y-15553984D02*
X12801134Y-15563508D01*
X12801134Y-15563508D02*
X12810658Y-15573031D01*
X12810658Y-15573031D02*
X12820182Y-15592079D01*
X12820182Y-15592079D02*
X12829705Y-15630174D01*
X12829705Y-15630174D02*
X12829705Y-15677793D01*
X12829705Y-15677793D02*
X12820182Y-15715888D01*
X12820182Y-15715888D02*
X12810658Y-15734936D01*
X12810658Y-15734936D02*
X12801134Y-15744460D01*
X12801134Y-15744460D02*
X12782086Y-15753984D01*
X12782086Y-15753984D02*
X12763039Y-15753984D01*
X12763039Y-15753984D02*
X12743991Y-15744460D01*
X12743991Y-15744460D02*
X12734467Y-15734936D01*
X12734467Y-15734936D02*
X12724943Y-15715888D01*
X12724943Y-15715888D02*
X12715420Y-15677793D01*
X12715420Y-15677793D02*
X12715420Y-15630174D01*
X12715420Y-15630174D02*
X12724943Y-15592079D01*
X12724943Y-15592079D02*
X12734467Y-15573031D01*
X12734467Y-15573031D02*
X12743991Y-15563508D01*
X12743991Y-15563508D02*
X12763039Y-15553984D01*
X12915420Y-15753984D02*
X12915420Y-15620650D01*
X12915420Y-15639698D02*
X12924943Y-15630174D01*
X12924943Y-15630174D02*
X12943991Y-15620650D01*
X12943991Y-15620650D02*
X12972563Y-15620650D01*
X12972563Y-15620650D02*
X12991610Y-15630174D01*
X12991610Y-15630174D02*
X13001134Y-15649222D01*
X13001134Y-15649222D02*
X13001134Y-15753984D01*
X13001134Y-15649222D02*
X13010658Y-15630174D01*
X13010658Y-15630174D02*
X13029705Y-15620650D01*
X13029705Y-15620650D02*
X13058277Y-15620650D01*
X13058277Y-15620650D02*
X13077324Y-15630174D01*
X13077324Y-15630174D02*
X13086848Y-15649222D01*
X13086848Y-15649222D02*
X13086848Y-15753984D01*
X13182086Y-15753984D02*
X13182086Y-15620650D01*
X13182086Y-15639698D02*
X13191610Y-15630174D01*
X13191610Y-15630174D02*
X13210658Y-15620650D01*
X13210658Y-15620650D02*
X13239229Y-15620650D01*
X13239229Y-15620650D02*
X13258277Y-15630174D01*
X13258277Y-15630174D02*
X13267801Y-15649222D01*
X13267801Y-15649222D02*
X13267801Y-15753984D01*
X13267801Y-15649222D02*
X13277324Y-15630174D01*
X13277324Y-15630174D02*
X13296372Y-15620650D01*
X13296372Y-15620650D02*
X13324943Y-15620650D01*
X13324943Y-15620650D02*
X13343991Y-15630174D01*
X13343991Y-15630174D02*
X13353515Y-15649222D01*
X13353515Y-15649222D02*
X13353515Y-15753984D01*
X13743991Y-15544460D02*
X13572563Y-15801603D01*
X14001134Y-15553984D02*
X14020182Y-15553984D01*
X14020182Y-15553984D02*
X14039229Y-15563508D01*
X14039229Y-15563508D02*
X14048753Y-15573031D01*
X14048753Y-15573031D02*
X14058277Y-15592079D01*
X14058277Y-15592079D02*
X14067801Y-15630174D01*
X14067801Y-15630174D02*
X14067801Y-15677793D01*
X14067801Y-15677793D02*
X14058277Y-15715888D01*
X14058277Y-15715888D02*
X14048753Y-15734936D01*
X14048753Y-15734936D02*
X14039229Y-15744460D01*
X14039229Y-15744460D02*
X14020182Y-15753984D01*
X14020182Y-15753984D02*
X14001134Y-15753984D01*
X14001134Y-15753984D02*
X13982086Y-15744460D01*
X13982086Y-15744460D02*
X13972563Y-15734936D01*
X13972563Y-15734936D02*
X13963039Y-15715888D01*
X13963039Y-15715888D02*
X13953515Y-15677793D01*
X13953515Y-15677793D02*
X13953515Y-15630174D01*
X13953515Y-15630174D02*
X13963039Y-15592079D01*
X13963039Y-15592079D02*
X13972563Y-15573031D01*
X13972563Y-15573031D02*
X13982086Y-15563508D01*
X13982086Y-15563508D02*
X14001134Y-15553984D01*
X14153515Y-15734936D02*
X14163039Y-15744460D01*
X14163039Y-15744460D02*
X14153515Y-15753984D01*
X14153515Y-15753984D02*
X14143991Y-15744460D01*
X14143991Y-15744460D02*
X14153515Y-15734936D01*
X14153515Y-15734936D02*
X14153515Y-15753984D01*
X14286848Y-15553984D02*
X14305896Y-15553984D01*
X14305896Y-15553984D02*
X14324944Y-15563508D01*
X14324944Y-15563508D02*
X14334467Y-15573031D01*
X14334467Y-15573031D02*
X14343991Y-15592079D01*
X14343991Y-15592079D02*
X14353515Y-15630174D01*
X14353515Y-15630174D02*
X14353515Y-15677793D01*
X14353515Y-15677793D02*
X14343991Y-15715888D01*
X14343991Y-15715888D02*
X14334467Y-15734936D01*
X14334467Y-15734936D02*
X14324944Y-15744460D01*
X14324944Y-15744460D02*
X14305896Y-15753984D01*
X14305896Y-15753984D02*
X14286848Y-15753984D01*
X14286848Y-15753984D02*
X14267801Y-15744460D01*
X14267801Y-15744460D02*
X14258277Y-15734936D01*
X14258277Y-15734936D02*
X14248753Y-15715888D01*
X14248753Y-15715888D02*
X14239229Y-15677793D01*
X14239229Y-15677793D02*
X14239229Y-15630174D01*
X14239229Y-15630174D02*
X14248753Y-15592079D01*
X14248753Y-15592079D02*
X14258277Y-15573031D01*
X14258277Y-15573031D02*
X14267801Y-15563508D01*
X14267801Y-15563508D02*
X14286848Y-15553984D01*
X14448753Y-15753984D02*
X14486848Y-15753984D01*
X14486848Y-15753984D02*
X14505896Y-15744460D01*
X14505896Y-15744460D02*
X14515420Y-15734936D01*
X14515420Y-15734936D02*
X14534467Y-15706365D01*
X14534467Y-15706365D02*
X14543991Y-15668269D01*
X14543991Y-15668269D02*
X14543991Y-15592079D01*
X14543991Y-15592079D02*
X14534467Y-15573031D01*
X14534467Y-15573031D02*
X14524944Y-15563508D01*
X14524944Y-15563508D02*
X14505896Y-15553984D01*
X14505896Y-15553984D02*
X14467801Y-15553984D01*
X14467801Y-15553984D02*
X14448753Y-15563508D01*
X14448753Y-15563508D02*
X14439229Y-15573031D01*
X14439229Y-15573031D02*
X14429706Y-15592079D01*
X14429706Y-15592079D02*
X14429706Y-15639698D01*
X14429706Y-15639698D02*
X14439229Y-15658746D01*
X14439229Y-15658746D02*
X14448753Y-15668269D01*
X14448753Y-15668269D02*
X14467801Y-15677793D01*
X14467801Y-15677793D02*
X14505896Y-15677793D01*
X14505896Y-15677793D02*
X14524944Y-15668269D01*
X14524944Y-15668269D02*
X14534467Y-15658746D01*
X14534467Y-15658746D02*
X14543991Y-15639698D01*
X14667801Y-15553984D02*
X14686848Y-15553984D01*
X14686848Y-15553984D02*
X14705896Y-15563508D01*
X14705896Y-15563508D02*
X14715420Y-15573031D01*
X14715420Y-15573031D02*
X14724944Y-15592079D01*
X14724944Y-15592079D02*
X14734467Y-15630174D01*
X14734467Y-15630174D02*
X14734467Y-15677793D01*
X14734467Y-15677793D02*
X14724944Y-15715888D01*
X14724944Y-15715888D02*
X14715420Y-15734936D01*
X14715420Y-15734936D02*
X14705896Y-15744460D01*
X14705896Y-15744460D02*
X14686848Y-15753984D01*
X14686848Y-15753984D02*
X14667801Y-15753984D01*
X14667801Y-15753984D02*
X14648753Y-15744460D01*
X14648753Y-15744460D02*
X14639229Y-15734936D01*
X14639229Y-15734936D02*
X14629706Y-15715888D01*
X14629706Y-15715888D02*
X14620182Y-15677793D01*
X14620182Y-15677793D02*
X14620182Y-15630174D01*
X14620182Y-15630174D02*
X14629706Y-15592079D01*
X14629706Y-15592079D02*
X14639229Y-15573031D01*
X14639229Y-15573031D02*
X14648753Y-15563508D01*
X14648753Y-15563508D02*
X14667801Y-15553984D01*
X14905896Y-15553984D02*
X14867801Y-15553984D01*
X14867801Y-15553984D02*
X14848753Y-15563508D01*
X14848753Y-15563508D02*
X14839229Y-15573031D01*
X14839229Y-15573031D02*
X14820182Y-15601603D01*
X14820182Y-15601603D02*
X14810658Y-15639698D01*
X14810658Y-15639698D02*
X14810658Y-15715888D01*
X14810658Y-15715888D02*
X14820182Y-15734936D01*
X14820182Y-15734936D02*
X14829706Y-15744460D01*
X14829706Y-15744460D02*
X14848753Y-15753984D01*
X14848753Y-15753984D02*
X14886848Y-15753984D01*
X14886848Y-15753984D02*
X14905896Y-15744460D01*
X14905896Y-15744460D02*
X14915420Y-15734936D01*
X14915420Y-15734936D02*
X14924944Y-15715888D01*
X14924944Y-15715888D02*
X14924944Y-15668269D01*
X14924944Y-15668269D02*
X14915420Y-15649222D01*
X14915420Y-15649222D02*
X14905896Y-15639698D01*
X14905896Y-15639698D02*
X14886848Y-15630174D01*
X14886848Y-15630174D02*
X14848753Y-15630174D01*
X14848753Y-15630174D02*
X14829706Y-15639698D01*
X14829706Y-15639698D02*
X14820182Y-15649222D01*
X14820182Y-15649222D02*
X14810658Y-15668269D01*
X15001134Y-15553984D02*
X15001134Y-15592079D01*
X15077325Y-15553984D02*
X15077325Y-15592079D01*
X15372563Y-15830174D02*
X15363039Y-15820650D01*
X15363039Y-15820650D02*
X15343991Y-15792079D01*
X15343991Y-15792079D02*
X15334468Y-15773031D01*
X15334468Y-15773031D02*
X15324944Y-15744460D01*
X15324944Y-15744460D02*
X15315420Y-15696841D01*
X15315420Y-15696841D02*
X15315420Y-15658746D01*
X15315420Y-15658746D02*
X15324944Y-15611127D01*
X15324944Y-15611127D02*
X15334468Y-15582555D01*
X15334468Y-15582555D02*
X15343991Y-15563508D01*
X15343991Y-15563508D02*
X15363039Y-15534936D01*
X15363039Y-15534936D02*
X15372563Y-15525412D01*
X15439229Y-15573031D02*
X15448753Y-15563508D01*
X15448753Y-15563508D02*
X15467801Y-15553984D01*
X15467801Y-15553984D02*
X15515420Y-15553984D01*
X15515420Y-15553984D02*
X15534468Y-15563508D01*
X15534468Y-15563508D02*
X15543991Y-15573031D01*
X15543991Y-15573031D02*
X15553515Y-15592079D01*
X15553515Y-15592079D02*
X15553515Y-15611127D01*
X15553515Y-15611127D02*
X15543991Y-15639698D01*
X15543991Y-15639698D02*
X15429706Y-15753984D01*
X15429706Y-15753984D02*
X15553515Y-15753984D01*
X15791610Y-15753984D02*
X15791610Y-15553984D01*
X15877325Y-15753984D02*
X15877325Y-15649222D01*
X15877325Y-15649222D02*
X15867801Y-15630174D01*
X15867801Y-15630174D02*
X15848753Y-15620650D01*
X15848753Y-15620650D02*
X15820182Y-15620650D01*
X15820182Y-15620650D02*
X15801134Y-15630174D01*
X15801134Y-15630174D02*
X15791610Y-15639698D01*
X16001134Y-15753984D02*
X15982087Y-15744460D01*
X15982087Y-15744460D02*
X15972563Y-15734936D01*
X15972563Y-15734936D02*
X15963039Y-15715888D01*
X15963039Y-15715888D02*
X15963039Y-15658746D01*
X15963039Y-15658746D02*
X15972563Y-15639698D01*
X15972563Y-15639698D02*
X15982087Y-15630174D01*
X15982087Y-15630174D02*
X16001134Y-15620650D01*
X16001134Y-15620650D02*
X16029706Y-15620650D01*
X16029706Y-15620650D02*
X16048753Y-15630174D01*
X16048753Y-15630174D02*
X16058277Y-15639698D01*
X16058277Y-15639698D02*
X16067801Y-15658746D01*
X16067801Y-15658746D02*
X16067801Y-15715888D01*
X16067801Y-15715888D02*
X16058277Y-15734936D01*
X16058277Y-15734936D02*
X16048753Y-15744460D01*
X16048753Y-15744460D02*
X16029706Y-15753984D01*
X16029706Y-15753984D02*
X16001134Y-15753984D01*
X16182087Y-15753984D02*
X16163039Y-15744460D01*
X16163039Y-15744460D02*
X16153515Y-15725412D01*
X16153515Y-15725412D02*
X16153515Y-15553984D01*
X16334468Y-15744460D02*
X16315420Y-15753984D01*
X16315420Y-15753984D02*
X16277325Y-15753984D01*
X16277325Y-15753984D02*
X16258277Y-15744460D01*
X16258277Y-15744460D02*
X16248753Y-15725412D01*
X16248753Y-15725412D02*
X16248753Y-15649222D01*
X16248753Y-15649222D02*
X16258277Y-15630174D01*
X16258277Y-15630174D02*
X16277325Y-15620650D01*
X16277325Y-15620650D02*
X16315420Y-15620650D01*
X16315420Y-15620650D02*
X16334468Y-15630174D01*
X16334468Y-15630174D02*
X16343991Y-15649222D01*
X16343991Y-15649222D02*
X16343991Y-15668269D01*
X16343991Y-15668269D02*
X16248753Y-15687317D01*
X16420182Y-15744460D02*
X16439230Y-15753984D01*
X16439230Y-15753984D02*
X16477325Y-15753984D01*
X16477325Y-15753984D02*
X16496372Y-15744460D01*
X16496372Y-15744460D02*
X16505896Y-15725412D01*
X16505896Y-15725412D02*
X16505896Y-15715888D01*
X16505896Y-15715888D02*
X16496372Y-15696841D01*
X16496372Y-15696841D02*
X16477325Y-15687317D01*
X16477325Y-15687317D02*
X16448753Y-15687317D01*
X16448753Y-15687317D02*
X16429706Y-15677793D01*
X16429706Y-15677793D02*
X16420182Y-15658746D01*
X16420182Y-15658746D02*
X16420182Y-15649222D01*
X16420182Y-15649222D02*
X16429706Y-15630174D01*
X16429706Y-15630174D02*
X16448753Y-15620650D01*
X16448753Y-15620650D02*
X16477325Y-15620650D01*
X16477325Y-15620650D02*
X16496372Y-15630174D01*
X16572563Y-15830174D02*
X16582087Y-15820650D01*
X16582087Y-15820650D02*
X16601134Y-15792079D01*
X16601134Y-15792079D02*
X16610658Y-15773031D01*
X16610658Y-15773031D02*
X16620182Y-15744460D01*
X16620182Y-15744460D02*
X16629706Y-15696841D01*
X16629706Y-15696841D02*
X16629706Y-15658746D01*
X16629706Y-15658746D02*
X16620182Y-15611127D01*
X16620182Y-15611127D02*
X16610658Y-15582555D01*
X16610658Y-15582555D02*
X16601134Y-15563508D01*
X16601134Y-15563508D02*
X16582087Y-15534936D01*
X16582087Y-15534936D02*
X16572563Y-15525412D01*
M02*
