%TF.GenerationSoftware,KiCad,Pcbnew,8.0.5*%
%TF.CreationDate,2024-10-20T03:08:33+02:00*%
%TF.ProjectId,Kingfisher,4b696e67-6669-4736-9865-722e6b696361,rev?*%
%TF.SameCoordinates,Original*%
%TF.FileFunction,Copper,L3,Inr*%
%TF.FilePolarity,Positive*%
%FSLAX46Y46*%
G04 Gerber Fmt 4.6, Leading zero omitted, Abs format (unit mm)*
G04 Created by KiCad (PCBNEW 8.0.5) date 2024-10-20 03:08:33*
%MOMM*%
%LPD*%
G01*
G04 APERTURE LIST*
%TA.AperFunction,ComponentPad*%
%ADD10R,1.700000X1.700000*%
%TD*%
%TA.AperFunction,ComponentPad*%
%ADD11O,1.700000X1.700000*%
%TD*%
%TA.AperFunction,ComponentPad*%
%ADD12C,1.500000*%
%TD*%
%TA.AperFunction,ComponentPad*%
%ADD13C,3.316000*%
%TD*%
%TA.AperFunction,ComponentPad*%
%ADD14C,1.428000*%
%TD*%
%TA.AperFunction,ComponentPad*%
%ADD15R,2.300000X2.300000*%
%TD*%
%TA.AperFunction,ComponentPad*%
%ADD16C,2.300000*%
%TD*%
%TA.AperFunction,ViaPad*%
%ADD17C,0.600000*%
%TD*%
%TA.AperFunction,Conductor*%
%ADD18C,0.200000*%
%TD*%
%TA.AperFunction,Conductor*%
%ADD19C,0.500000*%
%TD*%
G04 APERTURE END LIST*
D10*
%TO.N,GND*%
%TO.C,J3*%
X164250000Y-73625000D03*
D11*
%TO.N,NRST*%
X166790000Y-73625000D03*
%TD*%
D10*
%TO.N,GND*%
%TO.C,J12*%
X128625000Y-104460000D03*
D11*
%TO.N,EXT_DAC_VAA*%
X128625000Y-101920000D03*
%TD*%
D10*
%TO.N,GND*%
%TO.C,J1*%
X142975000Y-73625000D03*
D11*
%TO.N,5V_EXT*%
X145515000Y-73625000D03*
%TD*%
D10*
%TO.N,DAC_OUT_0*%
%TO.C,J11*%
X130950000Y-123950000D03*
D11*
%TO.N,GND*%
X130950000Y-126490000D03*
%TO.N,DAC_OUT_1*%
X133490000Y-123950000D03*
%TO.N,GND*%
X133490000Y-126490000D03*
%TO.N,DAC_OUT_2*%
X136030000Y-123950000D03*
%TO.N,GND*%
X136030000Y-126490000D03*
%TO.N,DAC_OUT_3*%
X138570000Y-123950000D03*
%TO.N,GND*%
X138570000Y-126490000D03*
%TO.N,DAC_OUT_4*%
X141110000Y-123950000D03*
%TO.N,GND*%
X141110000Y-126490000D03*
%TO.N,DAC_OUT_5*%
X143650000Y-123950000D03*
%TO.N,GND*%
X143650000Y-126490000D03*
%TO.N,DAC_OUT_6*%
X146190000Y-123950000D03*
%TO.N,GND*%
X146190000Y-126490000D03*
%TO.N,DAC_OUT_7*%
X148730000Y-123950000D03*
%TO.N,GND*%
X148730000Y-126490000D03*
%TO.N,DAC_OUT_8*%
X151270000Y-123950000D03*
%TO.N,GND*%
X151270000Y-126490000D03*
%TO.N,DAC_OUT_9*%
X153810000Y-123950000D03*
%TO.N,GND*%
X153810000Y-126490000D03*
%TO.N,DAC_OUT_10*%
X156350000Y-123950000D03*
%TO.N,GND*%
X156350000Y-126490000D03*
%TO.N,DAC_OUT_11*%
X158890000Y-123950000D03*
%TO.N,GND*%
X158890000Y-126490000D03*
%TO.N,DAC_OUT_12*%
X161430000Y-123950000D03*
%TO.N,GND*%
X161430000Y-126490000D03*
%TO.N,DAC_OUT_13*%
X163970000Y-123950000D03*
%TO.N,GND*%
X163970000Y-126490000D03*
%TO.N,DAC_OUT_14*%
X166510000Y-123950000D03*
%TO.N,GND*%
X166510000Y-126490000D03*
%TO.N,DAC_OUT_15*%
X169050000Y-123950000D03*
%TO.N,GND*%
X169050000Y-126490000D03*
%TD*%
D10*
%TO.N,Net-(J4-Pin_1)*%
%TO.C,J4*%
X168960000Y-80750000D03*
D11*
%TO.N,BOOT0*%
X171500000Y-80750000D03*
%TO.N,Net-(J4-Pin_3)*%
X174040000Y-80750000D03*
%TD*%
D12*
%TO.N,Net-(U3-PH0)*%
%TO.C,e1*%
X158900000Y-90250000D03*
%TO.N,Net-(U3-PH1)*%
X158900000Y-95130000D03*
%TD*%
D10*
%TO.N,USB_VBUS*%
%TO.C,J2*%
X129560000Y-82700000D03*
D11*
%TO.N,+5V*%
X132100000Y-82700000D03*
%TO.N,5V_EXT*%
X134640000Y-82700000D03*
%TD*%
D10*
%TO.N,+5V*%
%TO.C,J13*%
X135500000Y-99750000D03*
D11*
%TO.N,DAC_VAA*%
X135500000Y-102290000D03*
%TO.N,EXT_DAC_VAA*%
X135500000Y-104830000D03*
%TD*%
D13*
%TO.N,GND*%
%TO.C,J6*%
X138740000Y-73625000D03*
X126700000Y-73625000D03*
D14*
%TO.N,USB_VBUS*%
X131470000Y-78335000D03*
%TO.N,USB_OTG_FS_D-*%
X133970000Y-78335000D03*
%TO.N,USB_OTG_FS_D+*%
X133970000Y-76335000D03*
%TO.N,GND*%
X131470000Y-76335000D03*
%TD*%
D10*
%TO.N,GND*%
%TO.C,J5*%
X153725000Y-73625000D03*
D11*
%TO.N,UART_TX*%
X156265000Y-73625000D03*
%TO.N,UART_RX*%
X158805000Y-73625000D03*
%TD*%
D10*
%TO.N,GND*%
%TO.C,J8*%
X128625000Y-96710000D03*
D11*
%TO.N,EXT_REF_2V5*%
X128625000Y-94170000D03*
%TD*%
D15*
%TO.N,DAC_VCC*%
%TO.C,J9*%
X121250000Y-116710000D03*
D16*
%TO.N,GND*%
X121250000Y-113210000D03*
%TO.N,DAC_VSS*%
X121250000Y-109710000D03*
%TD*%
D10*
%TO.N,REF_2V5*%
%TO.C,J10*%
X135500000Y-89460000D03*
D11*
%TO.N,DAC_REF*%
X135500000Y-92000000D03*
%TO.N,EXT_REF_2V5*%
X135500000Y-94540000D03*
%TD*%
D17*
%TO.N,+3V3*%
X167250000Y-83500000D03*
X154250000Y-96250000D03*
X178750000Y-82250000D03*
X174750000Y-98750000D03*
X165850000Y-101500000D03*
X169750000Y-76250000D03*
X175000000Y-83500000D03*
X161750000Y-104000000D03*
X173000000Y-111250000D03*
X164250000Y-77750000D03*
X164250000Y-100500000D03*
X175000000Y-88250000D03*
X145500000Y-118100000D03*
X163500000Y-88500000D03*
X147750000Y-85000000D03*
X160000000Y-118000000D03*
X164900000Y-86000000D03*
X154700000Y-118100000D03*
X178750000Y-89000000D03*
%TO.N,GND*%
X173500000Y-89750000D03*
X165500000Y-97000000D03*
X169250000Y-93000000D03*
X143750000Y-87045000D03*
X175750000Y-104000000D03*
X150000000Y-116000000D03*
%TO.N,NRST*%
X165500000Y-92250000D03*
%TO.N,DAC_VCC*%
X146500000Y-113050000D03*
X154250000Y-112250000D03*
%TO.N,DAC_VSS*%
X153250000Y-111500000D03*
X145750000Y-112000000D03*
%TO.N,+5V*%
X144500000Y-104750000D03*
X148500000Y-111250000D03*
X119500000Y-90625000D03*
%TO.N,DAC_SCLK*%
X168000000Y-101500000D03*
X147199997Y-120900000D03*
%TO.N,DAC_TOGGLE0*%
X149600000Y-120900000D03*
X169475000Y-100125000D03*
%TO.N,DAC_nCLR*%
X153600009Y-120900000D03*
X167750000Y-85750000D03*
%TO.N,DAC_SDO*%
X168150000Y-100149998D03*
X146399994Y-120900000D03*
%TO.N,DAC_TOGGLE1*%
X170180013Y-100503101D03*
X150400000Y-120900000D03*
%TO.N,DAC_nLDAC*%
X152000003Y-120900000D03*
X169625000Y-88625000D03*
%TO.N,DAC_TOGGLE2*%
X171100000Y-100126533D03*
X151200000Y-120900000D03*
%TO.N,DAC_nRESET*%
X168750000Y-85750000D03*
X152800006Y-120900000D03*
%TO.N,DAC_nALMOUT*%
X166773060Y-88976940D03*
X152000000Y-115500000D03*
%TO.N,DAC_nCS*%
X168250000Y-102750000D03*
X148799997Y-120900000D03*
%TO.N,DAC_SDI*%
X168820957Y-100585682D03*
X148000000Y-120900000D03*
%TO.N,UART_RX*%
X172750000Y-93000000D03*
%TO.N,UART_TX*%
X172750000Y-92000000D03*
%TD*%
D18*
%TO.N,+3V3*%
X154850000Y-118250000D02*
X154700000Y-118100000D01*
X154700000Y-118100000D02*
X154800000Y-118000000D01*
X145500000Y-118100000D02*
X154700000Y-118100000D01*
X154800000Y-118000000D02*
X160000000Y-118000000D01*
D19*
%TO.N,DAC_VCC*%
X146500000Y-113050000D02*
X153450000Y-113050000D01*
X153450000Y-113050000D02*
X154250000Y-112250000D01*
X121250000Y-116710000D02*
X123460000Y-114500000D01*
X123460000Y-114500000D02*
X145050000Y-114500000D01*
X145050000Y-114500000D02*
X146500000Y-113050000D01*
%TO.N,DAC_VSS*%
X152750000Y-112000000D02*
X153250000Y-111500000D01*
X122790000Y-111250000D02*
X145000000Y-111250000D01*
X121250000Y-109710000D02*
X122790000Y-111250000D01*
X145750000Y-112000000D02*
X152750000Y-112000000D01*
X145000000Y-111250000D02*
X145750000Y-112000000D01*
%TO.N,5V_EXT*%
X145515000Y-73625000D02*
X136440000Y-82700000D01*
X136440000Y-82700000D02*
X134640000Y-82700000D01*
%TO.N,USB_VBUS*%
X131470000Y-78010000D02*
X131470000Y-78335000D01*
X131470000Y-78335000D02*
X129560000Y-80245000D01*
X129560000Y-80245000D02*
X129560000Y-82700000D01*
%TD*%
%TA.AperFunction,Conductor*%
%TO.N,+5V*%
G36*
X149237539Y-63520185D02*
G01*
X149283294Y-63572989D01*
X149294500Y-63624500D01*
X149294500Y-78420500D01*
X149274815Y-78487539D01*
X149222011Y-78533294D01*
X149170500Y-78544500D01*
X146373992Y-78544500D01*
X146330313Y-78549197D01*
X146278825Y-78560397D01*
X146268627Y-78562890D01*
X146268624Y-78562891D01*
X146187916Y-78605899D01*
X146187913Y-78605901D01*
X146135104Y-78651660D01*
X146117160Y-78669242D01*
X146117154Y-78669249D01*
X146072511Y-78749059D01*
X146072509Y-78749064D01*
X146052826Y-78816096D01*
X146044500Y-78874003D01*
X146044500Y-106876000D01*
X146024815Y-106943039D01*
X145972011Y-106988794D01*
X145920500Y-107000000D01*
X118624500Y-107000000D01*
X118557461Y-106980315D01*
X118511706Y-106927511D01*
X118500500Y-106876000D01*
X118500500Y-103590247D01*
X127574500Y-103590247D01*
X127574500Y-105329752D01*
X127586131Y-105388229D01*
X127586132Y-105388230D01*
X127630447Y-105454552D01*
X127696769Y-105498867D01*
X127696770Y-105498868D01*
X127755247Y-105510499D01*
X127755250Y-105510500D01*
X127755252Y-105510500D01*
X129494750Y-105510500D01*
X129494751Y-105510499D01*
X129509568Y-105507552D01*
X129553229Y-105498868D01*
X129553229Y-105498867D01*
X129553231Y-105498867D01*
X129619552Y-105454552D01*
X129663867Y-105388231D01*
X129663867Y-105388229D01*
X129663868Y-105388229D01*
X129675499Y-105329752D01*
X129675500Y-105329750D01*
X129675500Y-104830000D01*
X134444417Y-104830000D01*
X134464699Y-105035932D01*
X134464700Y-105035934D01*
X134524768Y-105233954D01*
X134622315Y-105416450D01*
X134622317Y-105416452D01*
X134753589Y-105576410D01*
X134850209Y-105655702D01*
X134913550Y-105707685D01*
X135096046Y-105805232D01*
X135294066Y-105865300D01*
X135294065Y-105865300D01*
X135312529Y-105867118D01*
X135500000Y-105885583D01*
X135705934Y-105865300D01*
X135903954Y-105805232D01*
X136086450Y-105707685D01*
X136246410Y-105576410D01*
X136377685Y-105416450D01*
X136475232Y-105233954D01*
X136535300Y-105035934D01*
X136555583Y-104830000D01*
X136535300Y-104624066D01*
X136475232Y-104426046D01*
X136377685Y-104243550D01*
X136310044Y-104161129D01*
X136246410Y-104083589D01*
X136086452Y-103952317D01*
X136086453Y-103952317D01*
X136086450Y-103952315D01*
X135903954Y-103854768D01*
X135705934Y-103794700D01*
X135705932Y-103794699D01*
X135705934Y-103794699D01*
X135500000Y-103774417D01*
X135294067Y-103794699D01*
X135096043Y-103854769D01*
X134985898Y-103913643D01*
X134913550Y-103952315D01*
X134913548Y-103952316D01*
X134913547Y-103952317D01*
X134753589Y-104083589D01*
X134622317Y-104243547D01*
X134524769Y-104426043D01*
X134464699Y-104624067D01*
X134444417Y-104830000D01*
X129675500Y-104830000D01*
X129675500Y-103590249D01*
X129675499Y-103590247D01*
X129663868Y-103531770D01*
X129663867Y-103531769D01*
X129619552Y-103465447D01*
X129553230Y-103421132D01*
X129553229Y-103421131D01*
X129494752Y-103409500D01*
X129494748Y-103409500D01*
X127755252Y-103409500D01*
X127755247Y-103409500D01*
X127696770Y-103421131D01*
X127696769Y-103421132D01*
X127630447Y-103465447D01*
X127586132Y-103531769D01*
X127586131Y-103531770D01*
X127574500Y-103590247D01*
X118500500Y-103590247D01*
X118500500Y-101920000D01*
X127569417Y-101920000D01*
X127589699Y-102125932D01*
X127589700Y-102125934D01*
X127649768Y-102323954D01*
X127747315Y-102506450D01*
X127747317Y-102506452D01*
X127878589Y-102666410D01*
X127975209Y-102745702D01*
X128038550Y-102797685D01*
X128221046Y-102895232D01*
X128419066Y-102955300D01*
X128419065Y-102955300D01*
X128437529Y-102957118D01*
X128625000Y-102975583D01*
X128830934Y-102955300D01*
X129028954Y-102895232D01*
X129211450Y-102797685D01*
X129371410Y-102666410D01*
X129502685Y-102506450D01*
X129600232Y-102323954D01*
X129660300Y-102125934D01*
X129680583Y-101920000D01*
X129660300Y-101714066D01*
X129600232Y-101516046D01*
X129502685Y-101333550D01*
X129416799Y-101228897D01*
X129371410Y-101173589D01*
X129211452Y-101042317D01*
X129211453Y-101042317D01*
X129211450Y-101042315D01*
X129028954Y-100944768D01*
X128830934Y-100884700D01*
X128830932Y-100884699D01*
X128830934Y-100884699D01*
X128625000Y-100864417D01*
X128419067Y-100884699D01*
X128221043Y-100944769D01*
X128110898Y-101003643D01*
X128038550Y-101042315D01*
X128038548Y-101042316D01*
X128038547Y-101042317D01*
X127878589Y-101173589D01*
X127747317Y-101333547D01*
X127649769Y-101516043D01*
X127589699Y-101714067D01*
X127569417Y-101920000D01*
X118500500Y-101920000D01*
X118500500Y-98852155D01*
X134150000Y-98852155D01*
X134150000Y-99500000D01*
X135066988Y-99500000D01*
X135034075Y-99557007D01*
X135000000Y-99684174D01*
X135000000Y-99815826D01*
X135034075Y-99942993D01*
X135066988Y-100000000D01*
X134150000Y-100000000D01*
X134150000Y-100647844D01*
X134156401Y-100707372D01*
X134156403Y-100707379D01*
X134206645Y-100842086D01*
X134206649Y-100842093D01*
X134292809Y-100957187D01*
X134292812Y-100957190D01*
X134407906Y-101043350D01*
X134407913Y-101043354D01*
X134542620Y-101093596D01*
X134542627Y-101093598D01*
X134602155Y-101099999D01*
X134602172Y-101100000D01*
X135002813Y-101100000D01*
X135069852Y-101119685D01*
X135115607Y-101172489D01*
X135125551Y-101241647D01*
X135096526Y-101305203D01*
X135061267Y-101333357D01*
X134913550Y-101412315D01*
X134913548Y-101412316D01*
X134913547Y-101412317D01*
X134753589Y-101543589D01*
X134622317Y-101703547D01*
X134622315Y-101703550D01*
X134610723Y-101725237D01*
X134524769Y-101886043D01*
X134464699Y-102084067D01*
X134444417Y-102290000D01*
X134464699Y-102495932D01*
X134492891Y-102588869D01*
X134524768Y-102693954D01*
X134622315Y-102876450D01*
X134622317Y-102876452D01*
X134753589Y-103036410D01*
X134850209Y-103115702D01*
X134913550Y-103167685D01*
X135096046Y-103265232D01*
X135294066Y-103325300D01*
X135294065Y-103325300D01*
X135312529Y-103327118D01*
X135500000Y-103345583D01*
X135705934Y-103325300D01*
X135903954Y-103265232D01*
X136086450Y-103167685D01*
X136246410Y-103036410D01*
X136377685Y-102876450D01*
X136475232Y-102693954D01*
X136535300Y-102495934D01*
X136555583Y-102290000D01*
X136535300Y-102084066D01*
X136475232Y-101886046D01*
X136377685Y-101703550D01*
X136279545Y-101583965D01*
X136246410Y-101543589D01*
X136086452Y-101412317D01*
X136086453Y-101412317D01*
X136086450Y-101412315D01*
X135938732Y-101333357D01*
X135888889Y-101284395D01*
X135873429Y-101216257D01*
X135897261Y-101150578D01*
X135952819Y-101108209D01*
X135997187Y-101100000D01*
X136397828Y-101100000D01*
X136397844Y-101099999D01*
X136457372Y-101093598D01*
X136457379Y-101093596D01*
X136592086Y-101043354D01*
X136592093Y-101043350D01*
X136707187Y-100957190D01*
X136707190Y-100957187D01*
X136793350Y-100842093D01*
X136793354Y-100842086D01*
X136843596Y-100707379D01*
X136843598Y-100707372D01*
X136849999Y-100647844D01*
X136850000Y-100647827D01*
X136850000Y-100000000D01*
X135933012Y-100000000D01*
X135965925Y-99942993D01*
X136000000Y-99815826D01*
X136000000Y-99684174D01*
X135965925Y-99557007D01*
X135933012Y-99500000D01*
X136850000Y-99500000D01*
X136850000Y-98852172D01*
X136849999Y-98852155D01*
X136843598Y-98792627D01*
X136843596Y-98792620D01*
X136793354Y-98657913D01*
X136793350Y-98657906D01*
X136707190Y-98542812D01*
X136707187Y-98542809D01*
X136592093Y-98456649D01*
X136592086Y-98456645D01*
X136457379Y-98406403D01*
X136457372Y-98406401D01*
X136397844Y-98400000D01*
X135750000Y-98400000D01*
X135750000Y-99316988D01*
X135692993Y-99284075D01*
X135565826Y-99250000D01*
X135434174Y-99250000D01*
X135307007Y-99284075D01*
X135250000Y-99316988D01*
X135250000Y-98400000D01*
X134602155Y-98400000D01*
X134542627Y-98406401D01*
X134542620Y-98406403D01*
X134407913Y-98456645D01*
X134407906Y-98456649D01*
X134292812Y-98542809D01*
X134292809Y-98542812D01*
X134206649Y-98657906D01*
X134206645Y-98657913D01*
X134156403Y-98792620D01*
X134156401Y-98792627D01*
X134150000Y-98852155D01*
X118500500Y-98852155D01*
X118500500Y-95840247D01*
X127574500Y-95840247D01*
X127574500Y-97579752D01*
X127586131Y-97638229D01*
X127586132Y-97638230D01*
X127630447Y-97704552D01*
X127696769Y-97748867D01*
X127696770Y-97748868D01*
X127755247Y-97760499D01*
X127755250Y-97760500D01*
X127755252Y-97760500D01*
X129494750Y-97760500D01*
X129494751Y-97760499D01*
X129509568Y-97757552D01*
X129553229Y-97748868D01*
X129553229Y-97748867D01*
X129553231Y-97748867D01*
X129619552Y-97704552D01*
X129663867Y-97638231D01*
X129663867Y-97638229D01*
X129663868Y-97638229D01*
X129675499Y-97579752D01*
X129675500Y-97579750D01*
X129675500Y-95840249D01*
X129675499Y-95840247D01*
X129663868Y-95781770D01*
X129663867Y-95781769D01*
X129619552Y-95715447D01*
X129553230Y-95671132D01*
X129553229Y-95671131D01*
X129494752Y-95659500D01*
X129494748Y-95659500D01*
X127755252Y-95659500D01*
X127755247Y-95659500D01*
X127696770Y-95671131D01*
X127696769Y-95671132D01*
X127630447Y-95715447D01*
X127586132Y-95781769D01*
X127586131Y-95781770D01*
X127574500Y-95840247D01*
X118500500Y-95840247D01*
X118500500Y-94170000D01*
X127569417Y-94170000D01*
X127589699Y-94375932D01*
X127619734Y-94474944D01*
X127649768Y-94573954D01*
X127747315Y-94756450D01*
X127747317Y-94756452D01*
X127878589Y-94916410D01*
X127960891Y-94983952D01*
X128038550Y-95047685D01*
X128221046Y-95145232D01*
X128419066Y-95205300D01*
X128419065Y-95205300D01*
X128437529Y-95207118D01*
X128625000Y-95225583D01*
X128830934Y-95205300D01*
X129028954Y-95145232D01*
X129211450Y-95047685D01*
X129371410Y-94916410D01*
X129502685Y-94756450D01*
X129600232Y-94573954D01*
X129610532Y-94540000D01*
X134444417Y-94540000D01*
X134464699Y-94745932D01*
X134494301Y-94843517D01*
X134524768Y-94943954D01*
X134622315Y-95126450D01*
X134637727Y-95145230D01*
X134753589Y-95286410D01*
X134850209Y-95365702D01*
X134913550Y-95417685D01*
X135096046Y-95515232D01*
X135294066Y-95575300D01*
X135294065Y-95575300D01*
X135312529Y-95577118D01*
X135500000Y-95595583D01*
X135705934Y-95575300D01*
X135903954Y-95515232D01*
X136086450Y-95417685D01*
X136246410Y-95286410D01*
X136377685Y-95126450D01*
X136475232Y-94943954D01*
X136535300Y-94745934D01*
X136555583Y-94540000D01*
X136535300Y-94334066D01*
X136475232Y-94136046D01*
X136377685Y-93953550D01*
X136325702Y-93890209D01*
X136246410Y-93793589D01*
X136086452Y-93662317D01*
X136086453Y-93662317D01*
X136086450Y-93662315D01*
X135903954Y-93564768D01*
X135705934Y-93504700D01*
X135705932Y-93504699D01*
X135705934Y-93504699D01*
X135500000Y-93484417D01*
X135294067Y-93504699D01*
X135096043Y-93564769D01*
X134985898Y-93623643D01*
X134913550Y-93662315D01*
X134913548Y-93662316D01*
X134913547Y-93662317D01*
X134753589Y-93793589D01*
X134622317Y-93953547D01*
X134622315Y-93953550D01*
X134583643Y-94025898D01*
X134524769Y-94136043D01*
X134464699Y-94334067D01*
X134444417Y-94540000D01*
X129610532Y-94540000D01*
X129660300Y-94375934D01*
X129680583Y-94170000D01*
X129660300Y-93964066D01*
X129600232Y-93766046D01*
X129502685Y-93583550D01*
X129421329Y-93484417D01*
X129371410Y-93423589D01*
X129253677Y-93326969D01*
X129211450Y-93292315D01*
X129028954Y-93194768D01*
X128830934Y-93134700D01*
X128830932Y-93134699D01*
X128830934Y-93134699D01*
X128625000Y-93114417D01*
X128419067Y-93134699D01*
X128221043Y-93194769D01*
X128110898Y-93253643D01*
X128038550Y-93292315D01*
X128038548Y-93292316D01*
X128038547Y-93292317D01*
X127878589Y-93423589D01*
X127747317Y-93583547D01*
X127649769Y-93766043D01*
X127589699Y-93964067D01*
X127569417Y-94170000D01*
X118500500Y-94170000D01*
X118500500Y-92000000D01*
X134444417Y-92000000D01*
X134464699Y-92205932D01*
X134482159Y-92263489D01*
X134524768Y-92403954D01*
X134622315Y-92586450D01*
X134622317Y-92586452D01*
X134753589Y-92746410D01*
X134788137Y-92774762D01*
X134913550Y-92877685D01*
X135096046Y-92975232D01*
X135294066Y-93035300D01*
X135294065Y-93035300D01*
X135312529Y-93037118D01*
X135500000Y-93055583D01*
X135705934Y-93035300D01*
X135903954Y-92975232D01*
X136086450Y-92877685D01*
X136246410Y-92746410D01*
X136377685Y-92586450D01*
X136475232Y-92403954D01*
X136535300Y-92205934D01*
X136555583Y-92000000D01*
X136535300Y-91794066D01*
X136475232Y-91596046D01*
X136377685Y-91413550D01*
X136325702Y-91350209D01*
X136246410Y-91253589D01*
X136086452Y-91122317D01*
X136086453Y-91122317D01*
X136086450Y-91122315D01*
X135903954Y-91024768D01*
X135705934Y-90964700D01*
X135705932Y-90964699D01*
X135705934Y-90964699D01*
X135500000Y-90944417D01*
X135294067Y-90964699D01*
X135096043Y-91024769D01*
X134985898Y-91083643D01*
X134913550Y-91122315D01*
X134913548Y-91122316D01*
X134913547Y-91122317D01*
X134753589Y-91253589D01*
X134622317Y-91413547D01*
X134524769Y-91596043D01*
X134464699Y-91794067D01*
X134444417Y-92000000D01*
X118500500Y-92000000D01*
X118500500Y-88590247D01*
X134449500Y-88590247D01*
X134449500Y-90329752D01*
X134461131Y-90388229D01*
X134461132Y-90388230D01*
X134505447Y-90454552D01*
X134571769Y-90498867D01*
X134571770Y-90498868D01*
X134630247Y-90510499D01*
X134630250Y-90510500D01*
X134630252Y-90510500D01*
X136369750Y-90510500D01*
X136369751Y-90510499D01*
X136384568Y-90507552D01*
X136428229Y-90498868D01*
X136428229Y-90498867D01*
X136428231Y-90498867D01*
X136494552Y-90454552D01*
X136538867Y-90388231D01*
X136538867Y-90388229D01*
X136538868Y-90388229D01*
X136550499Y-90329752D01*
X136550500Y-90329750D01*
X136550500Y-88590249D01*
X136550499Y-88590247D01*
X136538868Y-88531770D01*
X136538867Y-88531769D01*
X136494552Y-88465447D01*
X136428230Y-88421132D01*
X136428229Y-88421131D01*
X136369752Y-88409500D01*
X136369748Y-88409500D01*
X134630252Y-88409500D01*
X134630247Y-88409500D01*
X134571770Y-88421131D01*
X134571769Y-88421132D01*
X134505447Y-88465447D01*
X134461132Y-88531769D01*
X134461131Y-88531770D01*
X134449500Y-88590247D01*
X118500500Y-88590247D01*
X118500500Y-87045000D01*
X143244353Y-87045000D01*
X143264834Y-87187456D01*
X143324622Y-87318371D01*
X143324623Y-87318373D01*
X143418872Y-87427143D01*
X143539947Y-87504953D01*
X143539950Y-87504954D01*
X143539949Y-87504954D01*
X143678036Y-87545499D01*
X143678038Y-87545500D01*
X143678039Y-87545500D01*
X143821962Y-87545500D01*
X143821962Y-87545499D01*
X143960053Y-87504953D01*
X144081128Y-87427143D01*
X144175377Y-87318373D01*
X144235165Y-87187457D01*
X144255647Y-87045000D01*
X144235165Y-86902543D01*
X144175377Y-86771627D01*
X144081128Y-86662857D01*
X143960053Y-86585047D01*
X143960051Y-86585046D01*
X143960049Y-86585045D01*
X143960050Y-86585045D01*
X143821963Y-86544500D01*
X143821961Y-86544500D01*
X143678039Y-86544500D01*
X143678036Y-86544500D01*
X143539949Y-86585045D01*
X143418873Y-86662856D01*
X143324623Y-86771626D01*
X143324622Y-86771628D01*
X143264834Y-86902543D01*
X143244353Y-87045000D01*
X118500500Y-87045000D01*
X118500500Y-81830247D01*
X128509500Y-81830247D01*
X128509500Y-83569752D01*
X128521131Y-83628229D01*
X128521132Y-83628230D01*
X128565447Y-83694552D01*
X128631769Y-83738867D01*
X128631770Y-83738868D01*
X128690247Y-83750499D01*
X128690250Y-83750500D01*
X128690252Y-83750500D01*
X130429750Y-83750500D01*
X130429751Y-83750499D01*
X130444568Y-83747552D01*
X130488229Y-83738868D01*
X130488229Y-83738867D01*
X130488231Y-83738867D01*
X130554552Y-83694552D01*
X130598867Y-83628231D01*
X130598867Y-83628229D01*
X130598868Y-83628229D01*
X130608922Y-83577682D01*
X130610500Y-83569748D01*
X130610500Y-83259456D01*
X130630185Y-83192417D01*
X130682989Y-83146662D01*
X130752147Y-83136718D01*
X130815703Y-83165743D01*
X130846882Y-83207051D01*
X130926400Y-83377578D01*
X131061894Y-83571082D01*
X131228917Y-83738105D01*
X131422421Y-83873600D01*
X131636507Y-83973429D01*
X131636516Y-83973433D01*
X131850000Y-84030634D01*
X131850000Y-83133012D01*
X131907007Y-83165925D01*
X132034174Y-83200000D01*
X132165826Y-83200000D01*
X132292993Y-83165925D01*
X132350000Y-83133012D01*
X132350000Y-84030633D01*
X132563483Y-83973433D01*
X132563492Y-83973429D01*
X132777578Y-83873600D01*
X132971082Y-83738105D01*
X133138105Y-83571082D01*
X133273600Y-83377578D01*
X133373429Y-83163492D01*
X133373433Y-83163483D01*
X133406158Y-83041350D01*
X133442522Y-82981690D01*
X133505369Y-82951160D01*
X133574745Y-82959454D01*
X133628623Y-83003939D01*
X133644593Y-83037447D01*
X133664768Y-83103954D01*
X133762315Y-83286450D01*
X133762317Y-83286452D01*
X133893589Y-83446410D01*
X133990209Y-83525702D01*
X134053550Y-83577685D01*
X134236046Y-83675232D01*
X134434066Y-83735300D01*
X134434065Y-83735300D01*
X134452529Y-83737118D01*
X134640000Y-83755583D01*
X134845934Y-83735300D01*
X135043954Y-83675232D01*
X135226450Y-83577685D01*
X135386410Y-83446410D01*
X135517685Y-83286450D01*
X135532114Y-83259456D01*
X135555317Y-83216047D01*
X135604279Y-83166203D01*
X135664675Y-83150500D01*
X136499308Y-83150500D01*
X136499309Y-83150500D01*
X136589673Y-83126286D01*
X136613887Y-83119799D01*
X136716614Y-83060489D01*
X145108997Y-74668104D01*
X145170318Y-74634621D01*
X145232670Y-74637125D01*
X145309066Y-74660300D01*
X145309065Y-74660300D01*
X145327529Y-74662118D01*
X145515000Y-74680583D01*
X145720934Y-74660300D01*
X145918954Y-74600232D01*
X146101450Y-74502685D01*
X146261410Y-74371410D01*
X146392685Y-74211450D01*
X146490232Y-74028954D01*
X146550300Y-73830934D01*
X146570583Y-73625000D01*
X146550300Y-73419066D01*
X146490232Y-73221046D01*
X146392685Y-73038550D01*
X146340702Y-72975209D01*
X146261410Y-72878589D01*
X146141277Y-72780000D01*
X146101450Y-72747315D01*
X145918954Y-72649768D01*
X145720934Y-72589700D01*
X145720932Y-72589699D01*
X145720934Y-72589699D01*
X145515000Y-72569417D01*
X145309067Y-72589699D01*
X145111043Y-72649769D01*
X145023114Y-72696769D01*
X144928550Y-72747315D01*
X144928548Y-72747316D01*
X144928547Y-72747317D01*
X144768589Y-72878589D01*
X144637317Y-73038547D01*
X144539769Y-73221043D01*
X144479699Y-73419067D01*
X144459417Y-73624999D01*
X144479699Y-73830932D01*
X144502873Y-73907327D01*
X144503496Y-73977194D01*
X144471893Y-74031002D01*
X144237181Y-74265715D01*
X144175858Y-74299200D01*
X144106167Y-74294216D01*
X144050233Y-74252345D01*
X144025816Y-74186880D01*
X144025500Y-74178034D01*
X144025500Y-72755249D01*
X144025499Y-72755247D01*
X144013868Y-72696770D01*
X144013867Y-72696769D01*
X143969552Y-72630447D01*
X143903230Y-72586132D01*
X143903229Y-72586131D01*
X143844752Y-72574500D01*
X143844748Y-72574500D01*
X142105252Y-72574500D01*
X142105247Y-72574500D01*
X142046770Y-72586131D01*
X142046769Y-72586132D01*
X141980447Y-72630447D01*
X141936132Y-72696769D01*
X141936131Y-72696770D01*
X141924500Y-72755247D01*
X141924500Y-74494752D01*
X141936131Y-74553229D01*
X141936132Y-74553230D01*
X141980447Y-74619552D01*
X142046769Y-74663867D01*
X142046770Y-74663868D01*
X142105247Y-74675499D01*
X142105250Y-74675500D01*
X142105252Y-74675500D01*
X143528035Y-74675500D01*
X143595074Y-74695185D01*
X143640829Y-74747989D01*
X143650773Y-74817147D01*
X143621748Y-74880703D01*
X143615716Y-74887181D01*
X136289716Y-82213181D01*
X136228393Y-82246666D01*
X136202035Y-82249500D01*
X135664675Y-82249500D01*
X135597636Y-82229815D01*
X135555317Y-82183953D01*
X135517688Y-82113555D01*
X135517684Y-82113549D01*
X135517682Y-82113547D01*
X135442897Y-82022420D01*
X135386410Y-81953589D01*
X135236121Y-81830252D01*
X135226450Y-81822315D01*
X135043954Y-81724768D01*
X134845934Y-81664700D01*
X134845932Y-81664699D01*
X134845934Y-81664699D01*
X134640000Y-81644417D01*
X134434067Y-81664699D01*
X134236043Y-81724769D01*
X134148114Y-81771769D01*
X134053550Y-81822315D01*
X134053548Y-81822316D01*
X134053547Y-81822317D01*
X133893589Y-81953589D01*
X133762317Y-82113547D01*
X133762315Y-82113550D01*
X133747887Y-82140543D01*
X133664767Y-82296046D01*
X133644593Y-82362552D01*
X133606296Y-82420990D01*
X133542483Y-82449447D01*
X133473416Y-82438886D01*
X133421023Y-82392661D01*
X133406158Y-82358649D01*
X133373433Y-82236516D01*
X133373429Y-82236507D01*
X133273600Y-82022422D01*
X133273599Y-82022420D01*
X133138113Y-81828926D01*
X133138108Y-81828920D01*
X132971082Y-81661894D01*
X132777578Y-81526399D01*
X132563492Y-81426570D01*
X132563486Y-81426567D01*
X132350000Y-81369364D01*
X132350000Y-82266988D01*
X132292993Y-82234075D01*
X132165826Y-82200000D01*
X132034174Y-82200000D01*
X131907007Y-82234075D01*
X131850000Y-82266988D01*
X131850000Y-81369364D01*
X131849999Y-81369364D01*
X131636513Y-81426567D01*
X131636507Y-81426570D01*
X131422422Y-81526399D01*
X131422420Y-81526400D01*
X131228926Y-81661886D01*
X131228920Y-81661891D01*
X131061891Y-81828920D01*
X131061886Y-81828926D01*
X130926400Y-82022420D01*
X130926399Y-82022422D01*
X130846882Y-82192948D01*
X130800710Y-82245387D01*
X130733516Y-82264539D01*
X130666635Y-82244323D01*
X130621300Y-82191158D01*
X130610500Y-82140543D01*
X130610500Y-81830249D01*
X130610499Y-81830247D01*
X130598868Y-81771770D01*
X130598867Y-81771769D01*
X130554552Y-81705447D01*
X130488230Y-81661132D01*
X130488229Y-81661131D01*
X130429752Y-81649500D01*
X130429748Y-81649500D01*
X130134500Y-81649500D01*
X130067461Y-81629815D01*
X130021706Y-81577011D01*
X130010500Y-81525500D01*
X130010500Y-80482964D01*
X130030185Y-80415925D01*
X130046814Y-80395287D01*
X131176774Y-79265327D01*
X131238095Y-79231844D01*
X131290234Y-79231720D01*
X131373882Y-79249500D01*
X131566116Y-79249500D01*
X131566118Y-79249500D01*
X131754153Y-79209532D01*
X131929769Y-79131342D01*
X132085290Y-79018349D01*
X132213921Y-78875490D01*
X132310039Y-78709009D01*
X132369443Y-78526182D01*
X132389537Y-78335000D01*
X132369443Y-78143818D01*
X132310039Y-77960991D01*
X132213921Y-77794510D01*
X132163539Y-77738556D01*
X132085295Y-77651655D01*
X132085292Y-77651653D01*
X132085291Y-77651652D01*
X132085290Y-77651651D01*
X131929769Y-77538658D01*
X131929768Y-77538657D01*
X131754158Y-77460469D01*
X131752713Y-77460161D01*
X131734495Y-77456289D01*
X131673016Y-77423098D01*
X131639239Y-77361936D01*
X131643891Y-77292221D01*
X131685495Y-77236088D01*
X131734494Y-77213710D01*
X131754153Y-77209532D01*
X131754157Y-77209530D01*
X131754158Y-77209530D01*
X131813313Y-77183191D01*
X131929769Y-77131342D01*
X132085290Y-77018349D01*
X132213921Y-76875490D01*
X132310039Y-76709009D01*
X132369443Y-76526182D01*
X132389537Y-76335000D01*
X133050463Y-76335000D01*
X133070557Y-76526182D01*
X133070558Y-76526185D01*
X133129958Y-76709003D01*
X133129961Y-76709009D01*
X133226079Y-76875490D01*
X133270886Y-76925253D01*
X133354704Y-77018344D01*
X133354707Y-77018346D01*
X133354710Y-77018349D01*
X133510231Y-77131342D01*
X133685842Y-77209530D01*
X133685847Y-77209532D01*
X133705502Y-77213710D01*
X133766984Y-77246902D01*
X133800760Y-77308065D01*
X133796108Y-77377780D01*
X133754503Y-77433912D01*
X133705502Y-77456290D01*
X133685847Y-77460467D01*
X133685843Y-77460469D01*
X133510232Y-77538657D01*
X133510227Y-77538660D01*
X133354710Y-77651650D01*
X133226078Y-77794511D01*
X133129961Y-77960990D01*
X133129958Y-77960996D01*
X133070558Y-78143814D01*
X133070557Y-78143818D01*
X133050463Y-78335000D01*
X133070557Y-78526182D01*
X133070558Y-78526185D01*
X133129958Y-78709003D01*
X133129961Y-78709009D01*
X133226079Y-78875490D01*
X133270886Y-78925253D01*
X133354704Y-79018344D01*
X133354707Y-79018346D01*
X133354710Y-79018349D01*
X133510231Y-79131342D01*
X133685842Y-79209530D01*
X133685847Y-79209532D01*
X133873882Y-79249500D01*
X133873883Y-79249500D01*
X134066116Y-79249500D01*
X134066118Y-79249500D01*
X134254153Y-79209532D01*
X134429769Y-79131342D01*
X134585290Y-79018349D01*
X134713921Y-78875490D01*
X134810039Y-78709009D01*
X134869443Y-78526182D01*
X134889537Y-78335000D01*
X134869443Y-78143818D01*
X134810039Y-77960991D01*
X134713921Y-77794510D01*
X134663539Y-77738556D01*
X134585295Y-77651655D01*
X134585292Y-77651653D01*
X134585291Y-77651652D01*
X134585290Y-77651651D01*
X134429769Y-77538658D01*
X134429768Y-77538657D01*
X134254158Y-77460469D01*
X134252713Y-77460161D01*
X134234495Y-77456289D01*
X134173016Y-77423098D01*
X134139239Y-77361936D01*
X134143891Y-77292221D01*
X134185495Y-77236088D01*
X134234494Y-77213710D01*
X134254153Y-77209532D01*
X134254157Y-77209530D01*
X134254158Y-77209530D01*
X134313313Y-77183191D01*
X134429769Y-77131342D01*
X134585290Y-77018349D01*
X134713921Y-76875490D01*
X134810039Y-76709009D01*
X134869443Y-76526182D01*
X134889537Y-76335000D01*
X134869443Y-76143818D01*
X134810039Y-75960991D01*
X134713921Y-75794510D01*
X134663539Y-75738556D01*
X134585295Y-75651655D01*
X134585292Y-75651653D01*
X134585291Y-75651652D01*
X134585290Y-75651651D01*
X134429769Y-75538658D01*
X134429768Y-75538657D01*
X134254157Y-75460469D01*
X134254152Y-75460467D01*
X134106085Y-75428995D01*
X134066118Y-75420500D01*
X133873882Y-75420500D01*
X133840921Y-75427506D01*
X133685847Y-75460467D01*
X133685843Y-75460469D01*
X133510232Y-75538657D01*
X133510227Y-75538660D01*
X133354710Y-75651650D01*
X133226078Y-75794511D01*
X133129961Y-75960990D01*
X133129958Y-75960996D01*
X133070558Y-76143814D01*
X133070557Y-76143818D01*
X133050463Y-76335000D01*
X132389537Y-76335000D01*
X132369443Y-76143818D01*
X132310039Y-75960991D01*
X132213921Y-75794510D01*
X132163539Y-75738556D01*
X132085295Y-75651655D01*
X132085292Y-75651653D01*
X132085291Y-75651652D01*
X132085290Y-75651651D01*
X131929769Y-75538658D01*
X131929768Y-75538657D01*
X131754157Y-75460469D01*
X131754152Y-75460467D01*
X131606085Y-75428995D01*
X131566118Y-75420500D01*
X131373882Y-75420500D01*
X131340921Y-75427506D01*
X131185847Y-75460467D01*
X131185843Y-75460469D01*
X131010232Y-75538657D01*
X131010227Y-75538660D01*
X130854710Y-75651650D01*
X130726078Y-75794511D01*
X130629961Y-75960990D01*
X130629958Y-75960996D01*
X130570558Y-76143814D01*
X130570557Y-76143818D01*
X130550463Y-76335000D01*
X130570557Y-76526182D01*
X130570558Y-76526185D01*
X130629958Y-76709003D01*
X130629961Y-76709009D01*
X130726079Y-76875490D01*
X130770886Y-76925253D01*
X130854704Y-77018344D01*
X130854707Y-77018346D01*
X130854710Y-77018349D01*
X131010231Y-77131342D01*
X131185842Y-77209530D01*
X131185847Y-77209532D01*
X131205502Y-77213710D01*
X131266984Y-77246902D01*
X131300760Y-77308065D01*
X131296108Y-77377780D01*
X131254503Y-77433912D01*
X131205502Y-77456290D01*
X131185847Y-77460467D01*
X131185843Y-77460469D01*
X131010232Y-77538657D01*
X131010227Y-77538660D01*
X130854710Y-77651650D01*
X130726078Y-77794511D01*
X130629961Y-77960990D01*
X130629958Y-77960996D01*
X130570558Y-78143814D01*
X130570557Y-78143818D01*
X130550463Y-78335000D01*
X130570557Y-78526182D01*
X130570558Y-78526185D01*
X130571143Y-78531750D01*
X130558574Y-78600480D01*
X130535503Y-78632393D01*
X129199513Y-79968383D01*
X129199509Y-79968389D01*
X129140201Y-80071112D01*
X129140200Y-80071117D01*
X129109500Y-80185691D01*
X129109500Y-81525500D01*
X129089815Y-81592539D01*
X129037011Y-81638294D01*
X128985500Y-81649500D01*
X128690247Y-81649500D01*
X128631770Y-81661131D01*
X128631769Y-81661132D01*
X128565447Y-81705447D01*
X128521132Y-81771769D01*
X128521131Y-81771770D01*
X128509500Y-81830247D01*
X118500500Y-81830247D01*
X118500500Y-73624998D01*
X124836753Y-73624998D01*
X124836753Y-73625001D01*
X124855718Y-73890173D01*
X124912226Y-74149930D01*
X124912228Y-74149937D01*
X124950424Y-74252345D01*
X125005131Y-74399022D01*
X125005133Y-74399026D01*
X125132533Y-74632341D01*
X125132538Y-74632349D01*
X125291845Y-74845159D01*
X125291861Y-74845177D01*
X125479822Y-75033138D01*
X125479840Y-75033154D01*
X125692650Y-75192461D01*
X125692658Y-75192466D01*
X125925973Y-75319866D01*
X125925977Y-75319868D01*
X125925979Y-75319869D01*
X126175063Y-75412772D01*
X126304947Y-75441027D01*
X126434826Y-75469281D01*
X126434828Y-75469281D01*
X126434832Y-75469282D01*
X126670476Y-75486135D01*
X126699999Y-75488247D01*
X126700000Y-75488247D01*
X126700001Y-75488247D01*
X126726566Y-75486346D01*
X126965168Y-75469282D01*
X127224937Y-75412772D01*
X127474021Y-75319869D01*
X127707347Y-75192463D01*
X127920167Y-75033148D01*
X128108148Y-74845167D01*
X128267463Y-74632347D01*
X128394869Y-74399021D01*
X128487772Y-74149937D01*
X128544282Y-73890168D01*
X128563247Y-73625000D01*
X128563247Y-73624998D01*
X136876753Y-73624998D01*
X136876753Y-73625001D01*
X136895718Y-73890173D01*
X136952226Y-74149930D01*
X136952228Y-74149937D01*
X136990424Y-74252345D01*
X137045131Y-74399022D01*
X137045133Y-74399026D01*
X137172533Y-74632341D01*
X137172538Y-74632349D01*
X137331845Y-74845159D01*
X137331861Y-74845177D01*
X137519822Y-75033138D01*
X137519840Y-75033154D01*
X137732650Y-75192461D01*
X137732658Y-75192466D01*
X137965973Y-75319866D01*
X137965977Y-75319868D01*
X137965979Y-75319869D01*
X138215063Y-75412772D01*
X138344947Y-75441027D01*
X138474826Y-75469281D01*
X138474828Y-75469281D01*
X138474832Y-75469282D01*
X138710476Y-75486135D01*
X138739999Y-75488247D01*
X138740000Y-75488247D01*
X138740001Y-75488247D01*
X138766566Y-75486346D01*
X139005168Y-75469282D01*
X139264937Y-75412772D01*
X139514021Y-75319869D01*
X139747347Y-75192463D01*
X139960167Y-75033148D01*
X140148148Y-74845167D01*
X140307463Y-74632347D01*
X140434869Y-74399021D01*
X140527772Y-74149937D01*
X140584282Y-73890168D01*
X140603247Y-73625000D01*
X140584282Y-73359832D01*
X140527772Y-73100063D01*
X140434869Y-72850979D01*
X140429170Y-72840543D01*
X140307466Y-72617658D01*
X140307461Y-72617650D01*
X140148154Y-72404840D01*
X140148138Y-72404822D01*
X139960177Y-72216861D01*
X139960159Y-72216845D01*
X139747349Y-72057538D01*
X139747341Y-72057533D01*
X139514026Y-71930133D01*
X139514022Y-71930131D01*
X139419588Y-71894909D01*
X139264937Y-71837228D01*
X139264933Y-71837227D01*
X139264930Y-71837226D01*
X139005173Y-71780718D01*
X138740001Y-71761753D01*
X138739999Y-71761753D01*
X138474826Y-71780718D01*
X138215069Y-71837226D01*
X138215064Y-71837227D01*
X138215063Y-71837228D01*
X138154843Y-71859688D01*
X137965977Y-71930131D01*
X137965973Y-71930133D01*
X137732658Y-72057533D01*
X137732650Y-72057538D01*
X137519840Y-72216845D01*
X137519822Y-72216861D01*
X137331861Y-72404822D01*
X137331845Y-72404840D01*
X137172538Y-72617650D01*
X137172533Y-72617658D01*
X137045133Y-72850973D01*
X137045131Y-72850977D01*
X136952226Y-73100069D01*
X136895718Y-73359826D01*
X136876753Y-73624998D01*
X128563247Y-73624998D01*
X128544282Y-73359832D01*
X128487772Y-73100063D01*
X128394869Y-72850979D01*
X128389170Y-72840543D01*
X128267466Y-72617658D01*
X128267461Y-72617650D01*
X128108154Y-72404840D01*
X128108138Y-72404822D01*
X127920177Y-72216861D01*
X127920159Y-72216845D01*
X127707349Y-72057538D01*
X127707341Y-72057533D01*
X127474026Y-71930133D01*
X127474022Y-71930131D01*
X127379588Y-71894909D01*
X127224937Y-71837228D01*
X127224933Y-71837227D01*
X127224930Y-71837226D01*
X126965173Y-71780718D01*
X126700001Y-71761753D01*
X126699999Y-71761753D01*
X126434826Y-71780718D01*
X126175069Y-71837226D01*
X126175064Y-71837227D01*
X126175063Y-71837228D01*
X126114843Y-71859688D01*
X125925977Y-71930131D01*
X125925973Y-71930133D01*
X125692658Y-72057533D01*
X125692650Y-72057538D01*
X125479840Y-72216845D01*
X125479822Y-72216861D01*
X125291861Y-72404822D01*
X125291845Y-72404840D01*
X125132538Y-72617650D01*
X125132533Y-72617658D01*
X125005133Y-72850973D01*
X125005131Y-72850977D01*
X124912226Y-73100069D01*
X124855718Y-73359826D01*
X124836753Y-73624998D01*
X118500500Y-73624998D01*
X118500500Y-66303480D01*
X118500695Y-66296527D01*
X118506944Y-66185258D01*
X119549500Y-66185258D01*
X119549500Y-66414741D01*
X119574446Y-66604215D01*
X119579452Y-66642238D01*
X119579453Y-66642240D01*
X119638842Y-66863887D01*
X119726650Y-67075876D01*
X119726657Y-67075890D01*
X119841392Y-67274617D01*
X119981081Y-67456661D01*
X119981089Y-67456670D01*
X120143330Y-67618911D01*
X120143338Y-67618918D01*
X120325382Y-67758607D01*
X120325385Y-67758608D01*
X120325388Y-67758611D01*
X120524112Y-67873344D01*
X120524117Y-67873346D01*
X120524123Y-67873349D01*
X120615480Y-67911190D01*
X120736113Y-67961158D01*
X120957762Y-68020548D01*
X121185266Y-68050500D01*
X121185273Y-68050500D01*
X121414727Y-68050500D01*
X121414734Y-68050500D01*
X121642238Y-68020548D01*
X121863887Y-67961158D01*
X122075888Y-67873344D01*
X122274612Y-67758611D01*
X122456661Y-67618919D01*
X122456665Y-67618914D01*
X122456670Y-67618911D01*
X122618911Y-67456670D01*
X122618914Y-67456665D01*
X122618919Y-67456661D01*
X122758611Y-67274612D01*
X122873344Y-67075888D01*
X122961158Y-66863887D01*
X123020548Y-66642238D01*
X123050500Y-66414734D01*
X123050500Y-66185266D01*
X123020548Y-65957762D01*
X122961158Y-65736113D01*
X122873344Y-65524112D01*
X122758611Y-65325388D01*
X122758608Y-65325385D01*
X122758607Y-65325382D01*
X122618918Y-65143338D01*
X122618911Y-65143330D01*
X122456670Y-64981089D01*
X122456661Y-64981081D01*
X122274617Y-64841392D01*
X122075890Y-64726657D01*
X122075876Y-64726650D01*
X121863887Y-64638842D01*
X121642238Y-64579452D01*
X121604215Y-64574446D01*
X121414741Y-64549500D01*
X121414734Y-64549500D01*
X121185266Y-64549500D01*
X121185258Y-64549500D01*
X120968715Y-64578009D01*
X120957762Y-64579452D01*
X120864076Y-64604554D01*
X120736112Y-64638842D01*
X120524123Y-64726650D01*
X120524109Y-64726657D01*
X120325382Y-64841392D01*
X120143338Y-64981081D01*
X119981081Y-65143338D01*
X119841392Y-65325382D01*
X119726657Y-65524109D01*
X119726650Y-65524123D01*
X119638842Y-65736112D01*
X119638842Y-65736113D01*
X119579743Y-65956678D01*
X119579453Y-65957759D01*
X119579451Y-65957770D01*
X119549500Y-66185258D01*
X118506944Y-66185258D01*
X118510985Y-66113293D01*
X118517713Y-65993494D01*
X118519267Y-65979700D01*
X118569523Y-65683915D01*
X118572616Y-65670363D01*
X118578628Y-65649497D01*
X118655673Y-65382068D01*
X118660265Y-65368948D01*
X118692839Y-65290307D01*
X118775075Y-65091768D01*
X118781097Y-65079262D01*
X118926230Y-64816665D01*
X118933625Y-64804897D01*
X119107245Y-64560201D01*
X119115896Y-64549354D01*
X119315816Y-64325645D01*
X119325647Y-64315815D01*
X119549354Y-64115896D01*
X119560201Y-64107245D01*
X119804902Y-63933621D01*
X119816665Y-63926230D01*
X120079262Y-63781097D01*
X120091768Y-63775075D01*
X120368948Y-63660265D01*
X120382068Y-63655673D01*
X120670369Y-63572614D01*
X120683915Y-63569523D01*
X120979700Y-63519267D01*
X120993494Y-63517713D01*
X121296528Y-63500695D01*
X121303481Y-63500500D01*
X121365892Y-63500500D01*
X149170500Y-63500500D01*
X149237539Y-63520185D01*
G37*
%TD.AperFunction*%
%TD*%
%TA.AperFunction,Conductor*%
%TO.N,+5V*%
G36*
X158737539Y-107225185D02*
G01*
X158783294Y-107277989D01*
X158794500Y-107329500D01*
X158794500Y-117575500D01*
X158774815Y-117642539D01*
X158722011Y-117688294D01*
X158670500Y-117699500D01*
X155038974Y-117699500D01*
X154971936Y-117679816D01*
X154910050Y-117640045D01*
X154771963Y-117599500D01*
X154771961Y-117599500D01*
X154628039Y-117599500D01*
X154628036Y-117599500D01*
X154489949Y-117640045D01*
X154368873Y-117717856D01*
X154335212Y-117756703D01*
X154276433Y-117794477D01*
X154241499Y-117799500D01*
X146374000Y-117799500D01*
X146306961Y-117779815D01*
X146261206Y-117727011D01*
X146250000Y-117675500D01*
X146250000Y-116000000D01*
X149494353Y-116000000D01*
X149514834Y-116142456D01*
X149574622Y-116273371D01*
X149574623Y-116273373D01*
X149668872Y-116382143D01*
X149789947Y-116459953D01*
X149789950Y-116459954D01*
X149789949Y-116459954D01*
X149928036Y-116500499D01*
X149928038Y-116500500D01*
X149928039Y-116500500D01*
X150071962Y-116500500D01*
X150071962Y-116500499D01*
X150210053Y-116459953D01*
X150331128Y-116382143D01*
X150425377Y-116273373D01*
X150485165Y-116142457D01*
X150505647Y-116000000D01*
X150485165Y-115857543D01*
X150425377Y-115726627D01*
X150331128Y-115617857D01*
X150210053Y-115540047D01*
X150210051Y-115540046D01*
X150210049Y-115540045D01*
X150210050Y-115540045D01*
X150073666Y-115500000D01*
X151494353Y-115500000D01*
X151514834Y-115642456D01*
X151553275Y-115726628D01*
X151574623Y-115773373D01*
X151668872Y-115882143D01*
X151789947Y-115959953D01*
X151789950Y-115959954D01*
X151789949Y-115959954D01*
X151897107Y-115991417D01*
X151926336Y-116000000D01*
X151928036Y-116000499D01*
X151928038Y-116000500D01*
X151928039Y-116000500D01*
X152071962Y-116000500D01*
X152071962Y-116000499D01*
X152210053Y-115959953D01*
X152331128Y-115882143D01*
X152425377Y-115773373D01*
X152485165Y-115642457D01*
X152505647Y-115500000D01*
X152485165Y-115357543D01*
X152425377Y-115226627D01*
X152331128Y-115117857D01*
X152210053Y-115040047D01*
X152210051Y-115040046D01*
X152210049Y-115040045D01*
X152210050Y-115040045D01*
X152071963Y-114999500D01*
X152071961Y-114999500D01*
X151928039Y-114999500D01*
X151928036Y-114999500D01*
X151789949Y-115040045D01*
X151668873Y-115117856D01*
X151574623Y-115226626D01*
X151574622Y-115226628D01*
X151514834Y-115357543D01*
X151494353Y-115500000D01*
X150073666Y-115500000D01*
X150071963Y-115499500D01*
X150071961Y-115499500D01*
X149928039Y-115499500D01*
X149928036Y-115499500D01*
X149789949Y-115540045D01*
X149668873Y-115617856D01*
X149574623Y-115726626D01*
X149574622Y-115726628D01*
X149514834Y-115857543D01*
X149494353Y-116000000D01*
X146250000Y-116000000D01*
X146250000Y-113988465D01*
X146269685Y-113921426D01*
X146286319Y-113900784D01*
X146641095Y-113546007D01*
X146693844Y-113514712D01*
X146718566Y-113507454D01*
X146718997Y-113508923D01*
X146757727Y-113500500D01*
X153509308Y-113500500D01*
X153509309Y-113500500D01*
X153599673Y-113476286D01*
X153623887Y-113469799D01*
X153726614Y-113410489D01*
X154391095Y-112746007D01*
X154443844Y-112714712D01*
X154460053Y-112709953D01*
X154581128Y-112632143D01*
X154675377Y-112523373D01*
X154735165Y-112392457D01*
X154755647Y-112250000D01*
X154735165Y-112107543D01*
X154675377Y-111976627D01*
X154581128Y-111867857D01*
X154460053Y-111790047D01*
X154460051Y-111790046D01*
X154460049Y-111790045D01*
X154460050Y-111790045D01*
X154321963Y-111749500D01*
X154321961Y-111749500D01*
X154178039Y-111749500D01*
X154178036Y-111749500D01*
X154039949Y-111790045D01*
X153918872Y-111867856D01*
X153876604Y-111916636D01*
X153832979Y-111944670D01*
X153829902Y-111966078D01*
X153827082Y-111971241D01*
X153782098Y-112069742D01*
X153756985Y-112105910D01*
X153299716Y-112563181D01*
X153238393Y-112596666D01*
X153212035Y-112599500D01*
X153075409Y-112599500D01*
X153008370Y-112579815D01*
X152962615Y-112527011D01*
X152952671Y-112457853D01*
X152981696Y-112394297D01*
X153013409Y-112368113D01*
X153014226Y-112367641D01*
X153026614Y-112360489D01*
X153391094Y-111996007D01*
X153443842Y-111964712D01*
X153460053Y-111959953D01*
X153460055Y-111959951D01*
X153460057Y-111959951D01*
X153581123Y-111882146D01*
X153581121Y-111882146D01*
X153581128Y-111882143D01*
X153623394Y-111833364D01*
X153667019Y-111805327D01*
X153670098Y-111783919D01*
X153672918Y-111778755D01*
X153675374Y-111773375D01*
X153675377Y-111773373D01*
X153735165Y-111642457D01*
X153755647Y-111500000D01*
X153735165Y-111357543D01*
X153675377Y-111226627D01*
X153581128Y-111117857D01*
X153460053Y-111040047D01*
X153460051Y-111040046D01*
X153460049Y-111040045D01*
X153460050Y-111040045D01*
X153321963Y-110999500D01*
X153321961Y-110999500D01*
X153178039Y-110999500D01*
X153178036Y-110999500D01*
X153039949Y-111040045D01*
X152918873Y-111117856D01*
X152824621Y-111226628D01*
X152824619Y-111226632D01*
X152782096Y-111319741D01*
X152756985Y-111355908D01*
X152599716Y-111513180D01*
X152538393Y-111546666D01*
X152512034Y-111549500D01*
X146374000Y-111549500D01*
X146306961Y-111529815D01*
X146261206Y-111477011D01*
X146250000Y-111425500D01*
X146250000Y-107329500D01*
X146269685Y-107262461D01*
X146322489Y-107216706D01*
X146374000Y-107205500D01*
X158670500Y-107205500D01*
X158737539Y-107225185D01*
G37*
%TD.AperFunction*%
%TD*%
%TA.AperFunction,Conductor*%
%TO.N,+3V3*%
G36*
X178703472Y-63500695D02*
G01*
X179006503Y-63517713D01*
X179020301Y-63519267D01*
X179316080Y-63569522D01*
X179329636Y-63572616D01*
X179617927Y-63655672D01*
X179631051Y-63660265D01*
X179908222Y-63775072D01*
X179920744Y-63781101D01*
X180123184Y-63892986D01*
X180183328Y-63926227D01*
X180195102Y-63933625D01*
X180439789Y-64107239D01*
X180450657Y-64115907D01*
X180674352Y-64315815D01*
X180684184Y-64325647D01*
X180884092Y-64549342D01*
X180892763Y-64560214D01*
X181066374Y-64804897D01*
X181073772Y-64816671D01*
X181218894Y-65079248D01*
X181224927Y-65091777D01*
X181339734Y-65368948D01*
X181344327Y-65382072D01*
X181427383Y-65670363D01*
X181430477Y-65683920D01*
X181480730Y-65979688D01*
X181482287Y-65993506D01*
X181499305Y-66296527D01*
X181499500Y-66303480D01*
X181499500Y-121376000D01*
X181479815Y-121443039D01*
X181427011Y-121488794D01*
X181375500Y-121500000D01*
X159124000Y-121500000D01*
X159056961Y-121480315D01*
X159011206Y-121427511D01*
X159000000Y-121376000D01*
X159000000Y-107000000D01*
X146374000Y-107000000D01*
X146306961Y-106980315D01*
X146261206Y-106927511D01*
X146250000Y-106876000D01*
X146250000Y-104000000D01*
X175244353Y-104000000D01*
X175264834Y-104142456D01*
X175324622Y-104273371D01*
X175324623Y-104273373D01*
X175418872Y-104382143D01*
X175539947Y-104459953D01*
X175539950Y-104459954D01*
X175539949Y-104459954D01*
X175678036Y-104500499D01*
X175678038Y-104500500D01*
X175678039Y-104500500D01*
X175821962Y-104500500D01*
X175821962Y-104500499D01*
X175960053Y-104459953D01*
X176081128Y-104382143D01*
X176175377Y-104273373D01*
X176235165Y-104142457D01*
X176255647Y-104000000D01*
X176235165Y-103857543D01*
X176175377Y-103726627D01*
X176081128Y-103617857D01*
X175960053Y-103540047D01*
X175960051Y-103540046D01*
X175960049Y-103540045D01*
X175960050Y-103540045D01*
X175821963Y-103499500D01*
X175821961Y-103499500D01*
X175678039Y-103499500D01*
X175678036Y-103499500D01*
X175539949Y-103540045D01*
X175418873Y-103617856D01*
X175324623Y-103726626D01*
X175324622Y-103726628D01*
X175264834Y-103857543D01*
X175244353Y-104000000D01*
X146250000Y-104000000D01*
X146250000Y-102750000D01*
X167744353Y-102750000D01*
X167764834Y-102892456D01*
X167824622Y-103023371D01*
X167824623Y-103023373D01*
X167918872Y-103132143D01*
X168039947Y-103209953D01*
X168039950Y-103209954D01*
X168039949Y-103209954D01*
X168178036Y-103250499D01*
X168178038Y-103250500D01*
X168178039Y-103250500D01*
X168321962Y-103250500D01*
X168321962Y-103250499D01*
X168460053Y-103209953D01*
X168581128Y-103132143D01*
X168675377Y-103023373D01*
X168735165Y-102892457D01*
X168755647Y-102750000D01*
X168735165Y-102607543D01*
X168675377Y-102476627D01*
X168581128Y-102367857D01*
X168460053Y-102290047D01*
X168460051Y-102290046D01*
X168460049Y-102290045D01*
X168460050Y-102290045D01*
X168321963Y-102249500D01*
X168321961Y-102249500D01*
X168178039Y-102249500D01*
X168178036Y-102249500D01*
X168039949Y-102290045D01*
X167918873Y-102367856D01*
X167824623Y-102476626D01*
X167824622Y-102476628D01*
X167764834Y-102607543D01*
X167744353Y-102750000D01*
X146250000Y-102750000D01*
X146250000Y-101500000D01*
X167494353Y-101500000D01*
X167514834Y-101642456D01*
X167574622Y-101773371D01*
X167574623Y-101773373D01*
X167668872Y-101882143D01*
X167789947Y-101959953D01*
X167789950Y-101959954D01*
X167789949Y-101959954D01*
X167928036Y-102000499D01*
X167928038Y-102000500D01*
X167928039Y-102000500D01*
X168071962Y-102000500D01*
X168071962Y-102000499D01*
X168210053Y-101959953D01*
X168331128Y-101882143D01*
X168425377Y-101773373D01*
X168485165Y-101642457D01*
X168505647Y-101500000D01*
X168485165Y-101357543D01*
X168425377Y-101226627D01*
X168425375Y-101226625D01*
X168425374Y-101226622D01*
X168403094Y-101200910D01*
X168374069Y-101137355D01*
X168383382Y-101072580D01*
X168324148Y-101089973D01*
X168257109Y-101070288D01*
X168210053Y-101040047D01*
X168210052Y-101040046D01*
X168210051Y-101040046D01*
X168210050Y-101040045D01*
X168071963Y-100999500D01*
X168071961Y-100999500D01*
X167928039Y-100999500D01*
X167928036Y-100999500D01*
X167789949Y-101040045D01*
X167668873Y-101117856D01*
X167574623Y-101226626D01*
X167574622Y-101226628D01*
X167514834Y-101357543D01*
X167494353Y-101500000D01*
X146250000Y-101500000D01*
X146250000Y-100149998D01*
X167644353Y-100149998D01*
X167664834Y-100292454D01*
X167708360Y-100387761D01*
X167724623Y-100423371D01*
X167818872Y-100532141D01*
X167939947Y-100609951D01*
X167939950Y-100609952D01*
X167939949Y-100609952D01*
X168078036Y-100650497D01*
X168078038Y-100650498D01*
X168220645Y-100650498D01*
X168287684Y-100670183D01*
X168333439Y-100722986D01*
X168395579Y-100859053D01*
X168395582Y-100859059D01*
X168417862Y-100884771D01*
X168446887Y-100948327D01*
X168437573Y-101013100D01*
X168496807Y-100995708D01*
X168563845Y-101015392D01*
X168587833Y-101030808D01*
X168610905Y-101045636D01*
X168748993Y-101086181D01*
X168748995Y-101086182D01*
X168748996Y-101086182D01*
X168892919Y-101086182D01*
X168892919Y-101086181D01*
X169031010Y-101045635D01*
X169152085Y-100967825D01*
X169246334Y-100859055D01*
X169306122Y-100728139D01*
X169306122Y-100728135D01*
X169308622Y-100719626D01*
X169310870Y-100720286D01*
X169334612Y-100668299D01*
X169393389Y-100630524D01*
X169428326Y-100625500D01*
X169546960Y-100625500D01*
X169546961Y-100625500D01*
X169566189Y-100619853D01*
X169636056Y-100619852D01*
X169694835Y-100657624D01*
X169713919Y-100687318D01*
X169732561Y-100728137D01*
X169754636Y-100776474D01*
X169848885Y-100885244D01*
X169969960Y-100963054D01*
X169969963Y-100963055D01*
X169969962Y-100963055D01*
X170108049Y-101003600D01*
X170108051Y-101003601D01*
X170108052Y-101003601D01*
X170251975Y-101003601D01*
X170251975Y-101003600D01*
X170390066Y-100963054D01*
X170511141Y-100885244D01*
X170605390Y-100776474D01*
X170665178Y-100645558D01*
X170665178Y-100645554D01*
X170667678Y-100637045D01*
X170670195Y-100637784D01*
X170693515Y-100586696D01*
X170752286Y-100548910D01*
X170822156Y-100548897D01*
X170854283Y-100563566D01*
X170889948Y-100586487D01*
X171028036Y-100627032D01*
X171028038Y-100627033D01*
X171028039Y-100627033D01*
X171171962Y-100627033D01*
X171171962Y-100627032D01*
X171310053Y-100586486D01*
X171431128Y-100508676D01*
X171525377Y-100399906D01*
X171585165Y-100268990D01*
X171605647Y-100126533D01*
X171585165Y-99984076D01*
X171525377Y-99853160D01*
X171431128Y-99744390D01*
X171310053Y-99666580D01*
X171310051Y-99666579D01*
X171310049Y-99666578D01*
X171310050Y-99666578D01*
X171171963Y-99626033D01*
X171171961Y-99626033D01*
X171028039Y-99626033D01*
X171028036Y-99626033D01*
X170889949Y-99666578D01*
X170768873Y-99744389D01*
X170674623Y-99853159D01*
X170674622Y-99853161D01*
X170614834Y-99984077D01*
X170612335Y-99992589D01*
X170609822Y-99991851D01*
X170586475Y-100042963D01*
X170527693Y-100080732D01*
X170457824Y-100080726D01*
X170425730Y-100066068D01*
X170390066Y-100043148D01*
X170390064Y-100043147D01*
X170390062Y-100043146D01*
X170390063Y-100043146D01*
X170251976Y-100002601D01*
X170251974Y-100002601D01*
X170108052Y-100002601D01*
X170108049Y-100002601D01*
X170088821Y-100008247D01*
X170018951Y-100008247D01*
X169960174Y-99970472D01*
X169941093Y-99940782D01*
X169900377Y-99851627D01*
X169806128Y-99742857D01*
X169685053Y-99665047D01*
X169685051Y-99665046D01*
X169685049Y-99665045D01*
X169685050Y-99665045D01*
X169546963Y-99624500D01*
X169546961Y-99624500D01*
X169403039Y-99624500D01*
X169403036Y-99624500D01*
X169264949Y-99665045D01*
X169143873Y-99742856D01*
X169049623Y-99851626D01*
X169049622Y-99851628D01*
X168989835Y-99982541D01*
X168987335Y-99991057D01*
X168985085Y-99990396D01*
X168961348Y-100042380D01*
X168902571Y-100080158D01*
X168867631Y-100085182D01*
X168750312Y-100085182D01*
X168683273Y-100065497D01*
X168637518Y-100012694D01*
X168632909Y-100002601D01*
X168575377Y-99876625D01*
X168481128Y-99767855D01*
X168360053Y-99690045D01*
X168360051Y-99690044D01*
X168360049Y-99690043D01*
X168360050Y-99690043D01*
X168221963Y-99649498D01*
X168221961Y-99649498D01*
X168078039Y-99649498D01*
X168078036Y-99649498D01*
X167939949Y-99690043D01*
X167818873Y-99767854D01*
X167724623Y-99876624D01*
X167724622Y-99876626D01*
X167664834Y-100007541D01*
X167644353Y-100149998D01*
X146250000Y-100149998D01*
X146250000Y-97000000D01*
X164994353Y-97000000D01*
X165014834Y-97142456D01*
X165074622Y-97273371D01*
X165074623Y-97273373D01*
X165168872Y-97382143D01*
X165289947Y-97459953D01*
X165289950Y-97459954D01*
X165289949Y-97459954D01*
X165428036Y-97500499D01*
X165428038Y-97500500D01*
X165428039Y-97500500D01*
X165571962Y-97500500D01*
X165571962Y-97500499D01*
X165710053Y-97459953D01*
X165831128Y-97382143D01*
X165925377Y-97273373D01*
X165985165Y-97142457D01*
X166005647Y-97000000D01*
X165985165Y-96857543D01*
X165925377Y-96726627D01*
X165831128Y-96617857D01*
X165710053Y-96540047D01*
X165710051Y-96540046D01*
X165710049Y-96540045D01*
X165710050Y-96540045D01*
X165571963Y-96499500D01*
X165571961Y-96499500D01*
X165428039Y-96499500D01*
X165428036Y-96499500D01*
X165289949Y-96540045D01*
X165168873Y-96617856D01*
X165074623Y-96726626D01*
X165074622Y-96726628D01*
X165014834Y-96857543D01*
X164994353Y-97000000D01*
X146250000Y-97000000D01*
X146250000Y-95130000D01*
X157944901Y-95130000D01*
X157963252Y-95316331D01*
X157963253Y-95316333D01*
X158017604Y-95495502D01*
X158105862Y-95660623D01*
X158105864Y-95660626D01*
X158224642Y-95805357D01*
X158369373Y-95924135D01*
X158369376Y-95924137D01*
X158534497Y-96012395D01*
X158534499Y-96012396D01*
X158713666Y-96066746D01*
X158713668Y-96066747D01*
X158730374Y-96068392D01*
X158900000Y-96085099D01*
X159086331Y-96066747D01*
X159265501Y-96012396D01*
X159430625Y-95924136D01*
X159575357Y-95805357D01*
X159694136Y-95660625D01*
X159782396Y-95495501D01*
X159836747Y-95316331D01*
X159855099Y-95130000D01*
X159836747Y-94943669D01*
X159782396Y-94764499D01*
X159694136Y-94599375D01*
X159694135Y-94599373D01*
X159575357Y-94454642D01*
X159430626Y-94335864D01*
X159430623Y-94335862D01*
X159265502Y-94247604D01*
X159086333Y-94193253D01*
X159086331Y-94193252D01*
X158900000Y-94174901D01*
X158713668Y-94193252D01*
X158713666Y-94193253D01*
X158534497Y-94247604D01*
X158369376Y-94335862D01*
X158369373Y-94335864D01*
X158224642Y-94454642D01*
X158105864Y-94599373D01*
X158105862Y-94599376D01*
X158017604Y-94764497D01*
X157963253Y-94943666D01*
X157963252Y-94943668D01*
X157944901Y-95130000D01*
X146250000Y-95130000D01*
X146250000Y-93000000D01*
X168744353Y-93000000D01*
X168764834Y-93142456D01*
X168824622Y-93273371D01*
X168824623Y-93273373D01*
X168918872Y-93382143D01*
X169039947Y-93459953D01*
X169039950Y-93459954D01*
X169039949Y-93459954D01*
X169178036Y-93500499D01*
X169178038Y-93500500D01*
X169178039Y-93500500D01*
X169321962Y-93500500D01*
X169321962Y-93500499D01*
X169460053Y-93459953D01*
X169581128Y-93382143D01*
X169675377Y-93273373D01*
X169735165Y-93142457D01*
X169755647Y-93000000D01*
X169735165Y-92857543D01*
X169675377Y-92726627D01*
X169581128Y-92617857D01*
X169460053Y-92540047D01*
X169460051Y-92540046D01*
X169460049Y-92540045D01*
X169460050Y-92540045D01*
X169321963Y-92499500D01*
X169321961Y-92499500D01*
X169178039Y-92499500D01*
X169178036Y-92499500D01*
X169039949Y-92540045D01*
X168918873Y-92617856D01*
X168824623Y-92726626D01*
X168824622Y-92726628D01*
X168764834Y-92857543D01*
X168744353Y-93000000D01*
X146250000Y-93000000D01*
X146250000Y-92250000D01*
X164994353Y-92250000D01*
X165014834Y-92392456D01*
X165055890Y-92482354D01*
X165074623Y-92523373D01*
X165168872Y-92632143D01*
X165289947Y-92709953D01*
X165289950Y-92709954D01*
X165289949Y-92709954D01*
X165428036Y-92750499D01*
X165428038Y-92750500D01*
X165428039Y-92750500D01*
X165571962Y-92750500D01*
X165571962Y-92750499D01*
X165710053Y-92709953D01*
X165831128Y-92632143D01*
X165925377Y-92523373D01*
X165985165Y-92392457D01*
X166005647Y-92250000D01*
X165985165Y-92107543D01*
X165936051Y-92000000D01*
X172244353Y-92000000D01*
X172264834Y-92142456D01*
X172313949Y-92250000D01*
X172324623Y-92273373D01*
X172418872Y-92382143D01*
X172426324Y-92386932D01*
X172439943Y-92395685D01*
X172485698Y-92448489D01*
X172495641Y-92517648D01*
X172466615Y-92581203D01*
X172439943Y-92604315D01*
X172418874Y-92617855D01*
X172324623Y-92726626D01*
X172324622Y-92726628D01*
X172264834Y-92857543D01*
X172244353Y-93000000D01*
X172264834Y-93142456D01*
X172324622Y-93273371D01*
X172324623Y-93273373D01*
X172418872Y-93382143D01*
X172539947Y-93459953D01*
X172539950Y-93459954D01*
X172539949Y-93459954D01*
X172678036Y-93500499D01*
X172678038Y-93500500D01*
X172678039Y-93500500D01*
X172821962Y-93500500D01*
X172821962Y-93500499D01*
X172960053Y-93459953D01*
X173081128Y-93382143D01*
X173175377Y-93273373D01*
X173235165Y-93142457D01*
X173255647Y-93000000D01*
X173235165Y-92857543D01*
X173175377Y-92726627D01*
X173081128Y-92617857D01*
X173081125Y-92617855D01*
X173081125Y-92617854D01*
X173060058Y-92604316D01*
X173014302Y-92551513D01*
X173004358Y-92482354D01*
X173033382Y-92418798D01*
X173060058Y-92395684D01*
X173081125Y-92382145D01*
X173081125Y-92382144D01*
X173081128Y-92382143D01*
X173175377Y-92273373D01*
X173235165Y-92142457D01*
X173255647Y-92000000D01*
X173235165Y-91857543D01*
X173175377Y-91726627D01*
X173081128Y-91617857D01*
X172960053Y-91540047D01*
X172960051Y-91540046D01*
X172960049Y-91540045D01*
X172960050Y-91540045D01*
X172821963Y-91499500D01*
X172821961Y-91499500D01*
X172678039Y-91499500D01*
X172678036Y-91499500D01*
X172539949Y-91540045D01*
X172418873Y-91617856D01*
X172324623Y-91726626D01*
X172324622Y-91726628D01*
X172264834Y-91857543D01*
X172244353Y-92000000D01*
X165936051Y-92000000D01*
X165925377Y-91976627D01*
X165831128Y-91867857D01*
X165710053Y-91790047D01*
X165710051Y-91790046D01*
X165710049Y-91790045D01*
X165710050Y-91790045D01*
X165571963Y-91749500D01*
X165571961Y-91749500D01*
X165428039Y-91749500D01*
X165428036Y-91749500D01*
X165289949Y-91790045D01*
X165168873Y-91867856D01*
X165074623Y-91976626D01*
X165074622Y-91976628D01*
X165014834Y-92107543D01*
X164994353Y-92250000D01*
X146250000Y-92250000D01*
X146250000Y-90250000D01*
X157944901Y-90250000D01*
X157963252Y-90436331D01*
X157963253Y-90436333D01*
X158017604Y-90615502D01*
X158105862Y-90780623D01*
X158105864Y-90780626D01*
X158224642Y-90925357D01*
X158369373Y-91044135D01*
X158369376Y-91044137D01*
X158534497Y-91132395D01*
X158534499Y-91132396D01*
X158713666Y-91186746D01*
X158713668Y-91186747D01*
X158730374Y-91188392D01*
X158900000Y-91205099D01*
X159086331Y-91186747D01*
X159265501Y-91132396D01*
X159430625Y-91044136D01*
X159575357Y-90925357D01*
X159694136Y-90780625D01*
X159782396Y-90615501D01*
X159836747Y-90436331D01*
X159855099Y-90250000D01*
X159836747Y-90063669D01*
X159782396Y-89884499D01*
X159782395Y-89884497D01*
X159710506Y-89750000D01*
X172994353Y-89750000D01*
X173014834Y-89892456D01*
X173074622Y-90023371D01*
X173074623Y-90023373D01*
X173168872Y-90132143D01*
X173289947Y-90209953D01*
X173289950Y-90209954D01*
X173289949Y-90209954D01*
X173397107Y-90241417D01*
X173426336Y-90250000D01*
X173428036Y-90250499D01*
X173428038Y-90250500D01*
X173428039Y-90250500D01*
X173571962Y-90250500D01*
X173571962Y-90250499D01*
X173710053Y-90209953D01*
X173831128Y-90132143D01*
X173925377Y-90023373D01*
X173985165Y-89892457D01*
X174005647Y-89750000D01*
X173985165Y-89607543D01*
X173925377Y-89476627D01*
X173831128Y-89367857D01*
X173710053Y-89290047D01*
X173710051Y-89290046D01*
X173710049Y-89290045D01*
X173710050Y-89290045D01*
X173571963Y-89249500D01*
X173571961Y-89249500D01*
X173428039Y-89249500D01*
X173428036Y-89249500D01*
X173289949Y-89290045D01*
X173168873Y-89367856D01*
X173074623Y-89476626D01*
X173074622Y-89476628D01*
X173014834Y-89607543D01*
X172994353Y-89750000D01*
X159710506Y-89750000D01*
X159694137Y-89719376D01*
X159694135Y-89719373D01*
X159575357Y-89574642D01*
X159430626Y-89455864D01*
X159430623Y-89455862D01*
X159265502Y-89367604D01*
X159086333Y-89313253D01*
X159086331Y-89313252D01*
X158900000Y-89294901D01*
X158713668Y-89313252D01*
X158713666Y-89313253D01*
X158534497Y-89367604D01*
X158369376Y-89455862D01*
X158369373Y-89455864D01*
X158224642Y-89574642D01*
X158105864Y-89719373D01*
X158105862Y-89719376D01*
X158017604Y-89884497D01*
X157963253Y-90063666D01*
X157963252Y-90063668D01*
X157944901Y-90250000D01*
X146250000Y-90250000D01*
X146250000Y-88976940D01*
X166267413Y-88976940D01*
X166287894Y-89119396D01*
X166290682Y-89125500D01*
X166347683Y-89250313D01*
X166441932Y-89359083D01*
X166563007Y-89436893D01*
X166563010Y-89436894D01*
X166563009Y-89436894D01*
X166670167Y-89468357D01*
X166698330Y-89476627D01*
X166701096Y-89477439D01*
X166701098Y-89477440D01*
X166701099Y-89477440D01*
X166845022Y-89477440D01*
X166845022Y-89477439D01*
X166983113Y-89436893D01*
X167104188Y-89359083D01*
X167198437Y-89250313D01*
X167258225Y-89119397D01*
X167278707Y-88976940D01*
X167258225Y-88834483D01*
X167198437Y-88703567D01*
X167130359Y-88625000D01*
X169119353Y-88625000D01*
X169139834Y-88767456D01*
X169170445Y-88834483D01*
X169199623Y-88898373D01*
X169293872Y-89007143D01*
X169414947Y-89084953D01*
X169414950Y-89084954D01*
X169414949Y-89084954D01*
X169522107Y-89116417D01*
X169532250Y-89119396D01*
X169553036Y-89125499D01*
X169553038Y-89125500D01*
X169553039Y-89125500D01*
X169696962Y-89125500D01*
X169696962Y-89125499D01*
X169835053Y-89084953D01*
X169956128Y-89007143D01*
X170050377Y-88898373D01*
X170110165Y-88767457D01*
X170130647Y-88625000D01*
X170110165Y-88482543D01*
X170050377Y-88351627D01*
X169956128Y-88242857D01*
X169835053Y-88165047D01*
X169835051Y-88165046D01*
X169835049Y-88165045D01*
X169835050Y-88165045D01*
X169696963Y-88124500D01*
X169696961Y-88124500D01*
X169553039Y-88124500D01*
X169553036Y-88124500D01*
X169414949Y-88165045D01*
X169293873Y-88242856D01*
X169199623Y-88351626D01*
X169199622Y-88351628D01*
X169139834Y-88482543D01*
X169119353Y-88625000D01*
X167130359Y-88625000D01*
X167104188Y-88594797D01*
X166983113Y-88516987D01*
X166983111Y-88516986D01*
X166983109Y-88516985D01*
X166983110Y-88516985D01*
X166845023Y-88476440D01*
X166845021Y-88476440D01*
X166701099Y-88476440D01*
X166701096Y-88476440D01*
X166563009Y-88516985D01*
X166441933Y-88594796D01*
X166347683Y-88703566D01*
X166347682Y-88703568D01*
X166287894Y-88834483D01*
X166267413Y-88976940D01*
X146250000Y-88976940D01*
X146250000Y-85750000D01*
X167244353Y-85750000D01*
X167264834Y-85892456D01*
X167317433Y-86007629D01*
X167324623Y-86023373D01*
X167418872Y-86132143D01*
X167539947Y-86209953D01*
X167539950Y-86209954D01*
X167539949Y-86209954D01*
X167678036Y-86250499D01*
X167678038Y-86250500D01*
X167678039Y-86250500D01*
X167821962Y-86250500D01*
X167821962Y-86250499D01*
X167960053Y-86209953D01*
X168081128Y-86132143D01*
X168156287Y-86045403D01*
X168215064Y-86007629D01*
X168284934Y-86007629D01*
X168343711Y-86045402D01*
X168418872Y-86132143D01*
X168539947Y-86209953D01*
X168539950Y-86209954D01*
X168539949Y-86209954D01*
X168678036Y-86250499D01*
X168678038Y-86250500D01*
X168678039Y-86250500D01*
X168821962Y-86250500D01*
X168821962Y-86250499D01*
X168960053Y-86209953D01*
X169081128Y-86132143D01*
X169175377Y-86023373D01*
X169235165Y-85892457D01*
X169255647Y-85750000D01*
X169235165Y-85607543D01*
X169175377Y-85476627D01*
X169081128Y-85367857D01*
X168960053Y-85290047D01*
X168960051Y-85290046D01*
X168960049Y-85290045D01*
X168960050Y-85290045D01*
X168821963Y-85249500D01*
X168821961Y-85249500D01*
X168678039Y-85249500D01*
X168678036Y-85249500D01*
X168539949Y-85290045D01*
X168418873Y-85367856D01*
X168343713Y-85454596D01*
X168284935Y-85492370D01*
X168215065Y-85492370D01*
X168156287Y-85454596D01*
X168081128Y-85367857D01*
X167960053Y-85290047D01*
X167960051Y-85290046D01*
X167960049Y-85290045D01*
X167960050Y-85290045D01*
X167821963Y-85249500D01*
X167821961Y-85249500D01*
X167678039Y-85249500D01*
X167678036Y-85249500D01*
X167539949Y-85290045D01*
X167418873Y-85367856D01*
X167324623Y-85476626D01*
X167324622Y-85476628D01*
X167264834Y-85607543D01*
X167244353Y-85750000D01*
X146250000Y-85750000D01*
X146250000Y-79880247D01*
X167909500Y-79880247D01*
X167909500Y-81619752D01*
X167921131Y-81678229D01*
X167921132Y-81678230D01*
X167965447Y-81744552D01*
X168031769Y-81788867D01*
X168031770Y-81788868D01*
X168090247Y-81800499D01*
X168090250Y-81800500D01*
X168090252Y-81800500D01*
X169829750Y-81800500D01*
X169829751Y-81800499D01*
X169844568Y-81797552D01*
X169888229Y-81788868D01*
X169888229Y-81788867D01*
X169888231Y-81788867D01*
X169954552Y-81744552D01*
X169998867Y-81678231D01*
X169998867Y-81678229D01*
X169998868Y-81678229D01*
X170010499Y-81619752D01*
X170010500Y-81619750D01*
X170010500Y-80750000D01*
X170444417Y-80750000D01*
X170464699Y-80955932D01*
X170464700Y-80955934D01*
X170524768Y-81153954D01*
X170622315Y-81336450D01*
X170622317Y-81336452D01*
X170753589Y-81496410D01*
X170850209Y-81575702D01*
X170913550Y-81627685D01*
X171096046Y-81725232D01*
X171294066Y-81785300D01*
X171294065Y-81785300D01*
X171312529Y-81787118D01*
X171500000Y-81805583D01*
X171705934Y-81785300D01*
X171903954Y-81725232D01*
X172086450Y-81627685D01*
X172246410Y-81496410D01*
X172377685Y-81336450D01*
X172475232Y-81153954D01*
X172535300Y-80955934D01*
X172555583Y-80750000D01*
X172984417Y-80750000D01*
X173004699Y-80955932D01*
X173004700Y-80955934D01*
X173064768Y-81153954D01*
X173162315Y-81336450D01*
X173162317Y-81336452D01*
X173293589Y-81496410D01*
X173390209Y-81575702D01*
X173453550Y-81627685D01*
X173636046Y-81725232D01*
X173834066Y-81785300D01*
X173834065Y-81785300D01*
X173852529Y-81787118D01*
X174040000Y-81805583D01*
X174245934Y-81785300D01*
X174443954Y-81725232D01*
X174626450Y-81627685D01*
X174786410Y-81496410D01*
X174917685Y-81336450D01*
X175015232Y-81153954D01*
X175075300Y-80955934D01*
X175095583Y-80750000D01*
X175075300Y-80544066D01*
X175015232Y-80346046D01*
X174917685Y-80163550D01*
X174865702Y-80100209D01*
X174786410Y-80003589D01*
X174636121Y-79880252D01*
X174626450Y-79872315D01*
X174443954Y-79774768D01*
X174245934Y-79714700D01*
X174245932Y-79714699D01*
X174245934Y-79714699D01*
X174040000Y-79694417D01*
X173834067Y-79714699D01*
X173636043Y-79774769D01*
X173548114Y-79821769D01*
X173453550Y-79872315D01*
X173453548Y-79872316D01*
X173453547Y-79872317D01*
X173293589Y-80003589D01*
X173162317Y-80163547D01*
X173064769Y-80346043D01*
X173004699Y-80544067D01*
X172984417Y-80750000D01*
X172555583Y-80750000D01*
X172535300Y-80544066D01*
X172475232Y-80346046D01*
X172377685Y-80163550D01*
X172325702Y-80100209D01*
X172246410Y-80003589D01*
X172096121Y-79880252D01*
X172086450Y-79872315D01*
X171903954Y-79774768D01*
X171705934Y-79714700D01*
X171705932Y-79714699D01*
X171705934Y-79714699D01*
X171500000Y-79694417D01*
X171294067Y-79714699D01*
X171096043Y-79774769D01*
X171008114Y-79821769D01*
X170913550Y-79872315D01*
X170913548Y-79872316D01*
X170913547Y-79872317D01*
X170753589Y-80003589D01*
X170622317Y-80163547D01*
X170524769Y-80346043D01*
X170464699Y-80544067D01*
X170444417Y-80750000D01*
X170010500Y-80750000D01*
X170010500Y-79880249D01*
X170010499Y-79880247D01*
X169998868Y-79821770D01*
X169998867Y-79821769D01*
X169954552Y-79755447D01*
X169888230Y-79711132D01*
X169888229Y-79711131D01*
X169829752Y-79699500D01*
X169829748Y-79699500D01*
X168090252Y-79699500D01*
X168090247Y-79699500D01*
X168031770Y-79711131D01*
X168031769Y-79711132D01*
X167965447Y-79755447D01*
X167921132Y-79821769D01*
X167921131Y-79821770D01*
X167909500Y-79880247D01*
X146250000Y-79880247D01*
X146250000Y-78874000D01*
X146269685Y-78806961D01*
X146322489Y-78761206D01*
X146374000Y-78750000D01*
X149500000Y-78750000D01*
X149500000Y-72755247D01*
X152674500Y-72755247D01*
X152674500Y-74494752D01*
X152686131Y-74553229D01*
X152686132Y-74553230D01*
X152730447Y-74619552D01*
X152796769Y-74663867D01*
X152796770Y-74663868D01*
X152855247Y-74675499D01*
X152855250Y-74675500D01*
X152855252Y-74675500D01*
X154594750Y-74675500D01*
X154594751Y-74675499D01*
X154609568Y-74672552D01*
X154653229Y-74663868D01*
X154653229Y-74663867D01*
X154653231Y-74663867D01*
X154719552Y-74619552D01*
X154763867Y-74553231D01*
X154763867Y-74553229D01*
X154763868Y-74553229D01*
X154775499Y-74494752D01*
X154775500Y-74494750D01*
X154775500Y-73625000D01*
X155209417Y-73625000D01*
X155229699Y-73830932D01*
X155229700Y-73830934D01*
X155289768Y-74028954D01*
X155387315Y-74211450D01*
X155387317Y-74211452D01*
X155518589Y-74371410D01*
X155615209Y-74450702D01*
X155678550Y-74502685D01*
X155861046Y-74600232D01*
X156059066Y-74660300D01*
X156059065Y-74660300D01*
X156077529Y-74662118D01*
X156265000Y-74680583D01*
X156470934Y-74660300D01*
X156668954Y-74600232D01*
X156851450Y-74502685D01*
X157011410Y-74371410D01*
X157142685Y-74211450D01*
X157240232Y-74028954D01*
X157300300Y-73830934D01*
X157320583Y-73625000D01*
X157749417Y-73625000D01*
X157769699Y-73830932D01*
X157769700Y-73830934D01*
X157829768Y-74028954D01*
X157927315Y-74211450D01*
X157927317Y-74211452D01*
X158058589Y-74371410D01*
X158155209Y-74450702D01*
X158218550Y-74502685D01*
X158401046Y-74600232D01*
X158599066Y-74660300D01*
X158599065Y-74660300D01*
X158617529Y-74662118D01*
X158805000Y-74680583D01*
X159010934Y-74660300D01*
X159208954Y-74600232D01*
X159391450Y-74502685D01*
X159551410Y-74371410D01*
X159682685Y-74211450D01*
X159780232Y-74028954D01*
X159840300Y-73830934D01*
X159860583Y-73625000D01*
X159840300Y-73419066D01*
X159780232Y-73221046D01*
X159682685Y-73038550D01*
X159630702Y-72975209D01*
X159551410Y-72878589D01*
X159401121Y-72755252D01*
X159401115Y-72755247D01*
X163199500Y-72755247D01*
X163199500Y-74494752D01*
X163211131Y-74553229D01*
X163211132Y-74553230D01*
X163255447Y-74619552D01*
X163321769Y-74663867D01*
X163321770Y-74663868D01*
X163380247Y-74675499D01*
X163380250Y-74675500D01*
X163380252Y-74675500D01*
X165119750Y-74675500D01*
X165119751Y-74675499D01*
X165134568Y-74672552D01*
X165178229Y-74663868D01*
X165178229Y-74663867D01*
X165178231Y-74663867D01*
X165244552Y-74619552D01*
X165288867Y-74553231D01*
X165288867Y-74553229D01*
X165288868Y-74553229D01*
X165300499Y-74494752D01*
X165300500Y-74494750D01*
X165300500Y-73625000D01*
X165734417Y-73625000D01*
X165754699Y-73830932D01*
X165754700Y-73830934D01*
X165814768Y-74028954D01*
X165912315Y-74211450D01*
X165912317Y-74211452D01*
X166043589Y-74371410D01*
X166140209Y-74450702D01*
X166203550Y-74502685D01*
X166386046Y-74600232D01*
X166584066Y-74660300D01*
X166584065Y-74660300D01*
X166602529Y-74662118D01*
X166790000Y-74680583D01*
X166995934Y-74660300D01*
X167193954Y-74600232D01*
X167376450Y-74502685D01*
X167536410Y-74371410D01*
X167667685Y-74211450D01*
X167765232Y-74028954D01*
X167825300Y-73830934D01*
X167845583Y-73625000D01*
X167825300Y-73419066D01*
X167765232Y-73221046D01*
X167667685Y-73038550D01*
X167615702Y-72975209D01*
X167536410Y-72878589D01*
X167386121Y-72755252D01*
X167376450Y-72747315D01*
X167193954Y-72649768D01*
X166995934Y-72589700D01*
X166995932Y-72589699D01*
X166995934Y-72589699D01*
X166790000Y-72569417D01*
X166584067Y-72589699D01*
X166386043Y-72649769D01*
X166298114Y-72696769D01*
X166203550Y-72747315D01*
X166203548Y-72747316D01*
X166203547Y-72747317D01*
X166043589Y-72878589D01*
X165912317Y-73038547D01*
X165814769Y-73221043D01*
X165754699Y-73419067D01*
X165734417Y-73625000D01*
X165300500Y-73625000D01*
X165300500Y-72755249D01*
X165300499Y-72755247D01*
X165288868Y-72696770D01*
X165288867Y-72696769D01*
X165244552Y-72630447D01*
X165178230Y-72586132D01*
X165178229Y-72586131D01*
X165119752Y-72574500D01*
X165119748Y-72574500D01*
X163380252Y-72574500D01*
X163380247Y-72574500D01*
X163321770Y-72586131D01*
X163321769Y-72586132D01*
X163255447Y-72630447D01*
X163211132Y-72696769D01*
X163211131Y-72696770D01*
X163199500Y-72755247D01*
X159401115Y-72755247D01*
X159391450Y-72747315D01*
X159208954Y-72649768D01*
X159010934Y-72589700D01*
X159010932Y-72589699D01*
X159010934Y-72589699D01*
X158805000Y-72569417D01*
X158599067Y-72589699D01*
X158401043Y-72649769D01*
X158313114Y-72696769D01*
X158218550Y-72747315D01*
X158218548Y-72747316D01*
X158218547Y-72747317D01*
X158058589Y-72878589D01*
X157927317Y-73038547D01*
X157829769Y-73221043D01*
X157769699Y-73419067D01*
X157749417Y-73625000D01*
X157320583Y-73625000D01*
X157300300Y-73419066D01*
X157240232Y-73221046D01*
X157142685Y-73038550D01*
X157090702Y-72975209D01*
X157011410Y-72878589D01*
X156861121Y-72755252D01*
X156851450Y-72747315D01*
X156668954Y-72649768D01*
X156470934Y-72589700D01*
X156470932Y-72589699D01*
X156470934Y-72589699D01*
X156265000Y-72569417D01*
X156059067Y-72589699D01*
X155861043Y-72649769D01*
X155773114Y-72696769D01*
X155678550Y-72747315D01*
X155678548Y-72747316D01*
X155678547Y-72747317D01*
X155518589Y-72878589D01*
X155387317Y-73038547D01*
X155289769Y-73221043D01*
X155229699Y-73419067D01*
X155209417Y-73625000D01*
X154775500Y-73625000D01*
X154775500Y-72755249D01*
X154775499Y-72755247D01*
X154763868Y-72696770D01*
X154763867Y-72696769D01*
X154719552Y-72630447D01*
X154653230Y-72586132D01*
X154653229Y-72586131D01*
X154594752Y-72574500D01*
X154594748Y-72574500D01*
X152855252Y-72574500D01*
X152855247Y-72574500D01*
X152796770Y-72586131D01*
X152796769Y-72586132D01*
X152730447Y-72630447D01*
X152686132Y-72696769D01*
X152686131Y-72696770D01*
X152674500Y-72755247D01*
X149500000Y-72755247D01*
X149500000Y-66185258D01*
X176949500Y-66185258D01*
X176949500Y-66414741D01*
X176974446Y-66604215D01*
X176979452Y-66642238D01*
X176979453Y-66642240D01*
X177038842Y-66863887D01*
X177126650Y-67075876D01*
X177126657Y-67075890D01*
X177241392Y-67274617D01*
X177381081Y-67456661D01*
X177381089Y-67456670D01*
X177543330Y-67618911D01*
X177543338Y-67618918D01*
X177725382Y-67758607D01*
X177725385Y-67758608D01*
X177725388Y-67758611D01*
X177924112Y-67873344D01*
X177924117Y-67873346D01*
X177924123Y-67873349D01*
X178015480Y-67911190D01*
X178136113Y-67961158D01*
X178357762Y-68020548D01*
X178585266Y-68050500D01*
X178585273Y-68050500D01*
X178814727Y-68050500D01*
X178814734Y-68050500D01*
X179042238Y-68020548D01*
X179263887Y-67961158D01*
X179475888Y-67873344D01*
X179674612Y-67758611D01*
X179856661Y-67618919D01*
X179856665Y-67618914D01*
X179856670Y-67618911D01*
X180018911Y-67456670D01*
X180018914Y-67456665D01*
X180018919Y-67456661D01*
X180158611Y-67274612D01*
X180273344Y-67075888D01*
X180361158Y-66863887D01*
X180420548Y-66642238D01*
X180450500Y-66414734D01*
X180450500Y-66185266D01*
X180420548Y-65957762D01*
X180361158Y-65736113D01*
X180273344Y-65524112D01*
X180158611Y-65325388D01*
X180158608Y-65325385D01*
X180158607Y-65325382D01*
X180018918Y-65143338D01*
X180018911Y-65143330D01*
X179856670Y-64981089D01*
X179856661Y-64981081D01*
X179674617Y-64841392D01*
X179475890Y-64726657D01*
X179475876Y-64726650D01*
X179263887Y-64638842D01*
X179042238Y-64579452D01*
X179004215Y-64574446D01*
X178814741Y-64549500D01*
X178814734Y-64549500D01*
X178585266Y-64549500D01*
X178585258Y-64549500D01*
X178368715Y-64578009D01*
X178357762Y-64579452D01*
X178264076Y-64604554D01*
X178136112Y-64638842D01*
X177924123Y-64726650D01*
X177924109Y-64726657D01*
X177725382Y-64841392D01*
X177543338Y-64981081D01*
X177381081Y-65143338D01*
X177241392Y-65325382D01*
X177126657Y-65524109D01*
X177126650Y-65524123D01*
X177038842Y-65736112D01*
X176979453Y-65957759D01*
X176979451Y-65957770D01*
X176949500Y-66185258D01*
X149500000Y-66185258D01*
X149500000Y-63624500D01*
X149519685Y-63557461D01*
X149572489Y-63511706D01*
X149624000Y-63500500D01*
X178634108Y-63500500D01*
X178696519Y-63500500D01*
X178703472Y-63500695D01*
G37*
%TD.AperFunction*%
%TD*%
M02*
