%TF.GenerationSoftware,KiCad,Pcbnew,8.0.5*%
%TF.CreationDate,2024-10-20T03:08:34+02:00*%
%TF.ProjectId,Kingfisher,4b696e67-6669-4736-9865-722e6b696361,rev?*%
%TF.SameCoordinates,Original*%
%TF.FileFunction,Soldermask,Bot*%
%TF.FilePolarity,Negative*%
%FSLAX46Y46*%
G04 Gerber Fmt 4.6, Leading zero omitted, Abs format (unit mm)*
G04 Created by KiCad (PCBNEW 8.0.5) date 2024-10-20 03:08:34*
%MOMM*%
%LPD*%
G01*
G04 APERTURE LIST*
%ADD10C,3.000000*%
%ADD11R,1.700000X1.700000*%
%ADD12O,1.700000X1.700000*%
%ADD13C,1.500000*%
%ADD14C,3.316000*%
%ADD15C,1.428000*%
%ADD16R,2.300000X2.300000*%
%ADD17C,2.300000*%
G04 APERTURE END LIST*
D10*
%TO.C,H4*%
X178700000Y-66300000D03*
%TD*%
D11*
%TO.C,J3*%
X164250000Y-73625000D03*
D12*
X166790000Y-73625000D03*
%TD*%
D11*
%TO.C,J12*%
X128625000Y-104460000D03*
D12*
X128625000Y-101920000D03*
%TD*%
D10*
%TO.C,H1*%
X121300000Y-66300000D03*
%TD*%
D11*
%TO.C,J1*%
X142975000Y-73625000D03*
D12*
X145515000Y-73625000D03*
%TD*%
D11*
%TO.C,J11*%
X130950000Y-123950000D03*
D12*
X130950000Y-126490000D03*
X133490000Y-123950000D03*
X133490000Y-126490000D03*
X136030000Y-123950000D03*
X136030000Y-126490000D03*
X138570000Y-123950000D03*
X138570000Y-126490000D03*
X141110000Y-123950000D03*
X141110000Y-126490000D03*
X143650000Y-123950000D03*
X143650000Y-126490000D03*
X146190000Y-123950000D03*
X146190000Y-126490000D03*
X148730000Y-123950000D03*
X148730000Y-126490000D03*
X151270000Y-123950000D03*
X151270000Y-126490000D03*
X153810000Y-123950000D03*
X153810000Y-126490000D03*
X156350000Y-123950000D03*
X156350000Y-126490000D03*
X158890000Y-123950000D03*
X158890000Y-126490000D03*
X161430000Y-123950000D03*
X161430000Y-126490000D03*
X163970000Y-123950000D03*
X163970000Y-126490000D03*
X166510000Y-123950000D03*
X166510000Y-126490000D03*
X169050000Y-123950000D03*
X169050000Y-126490000D03*
%TD*%
D11*
%TO.C,J4*%
X168960000Y-80750000D03*
D12*
X171500000Y-80750000D03*
X174040000Y-80750000D03*
%TD*%
D13*
%TO.C,e1*%
X158900000Y-90250000D03*
X158900000Y-95130000D03*
%TD*%
D11*
%TO.C,J2*%
X129560000Y-82700000D03*
D12*
X132100000Y-82700000D03*
X134640000Y-82700000D03*
%TD*%
D11*
%TO.C,J13*%
X135500000Y-99750000D03*
D12*
X135500000Y-102290000D03*
X135500000Y-104830000D03*
%TD*%
D14*
%TO.C,J6*%
X138740000Y-73625000D03*
X126700000Y-73625000D03*
D15*
X131470000Y-78335000D03*
X133970000Y-78335000D03*
X133970000Y-76335000D03*
X131470000Y-76335000D03*
%TD*%
D11*
%TO.C,J5*%
X153725000Y-73625000D03*
D12*
X156265000Y-73625000D03*
X158805000Y-73625000D03*
%TD*%
D10*
%TO.C,H3*%
X178700000Y-133700000D03*
%TD*%
D11*
%TO.C,J8*%
X128625000Y-96710000D03*
D12*
X128625000Y-94170000D03*
%TD*%
D16*
%TO.C,J9*%
X121250000Y-116710000D03*
D17*
X121250000Y-113210000D03*
X121250000Y-109710000D03*
%TD*%
D10*
%TO.C,H2*%
X121300000Y-133700000D03*
%TD*%
D11*
%TO.C,J10*%
X135500000Y-89460000D03*
D12*
X135500000Y-92000000D03*
X135500000Y-94540000D03*
%TD*%
M02*
