%TF.GenerationSoftware,KiCad,Pcbnew,8.0.5*%
%TF.CreationDate,2024-10-20T03:08:34+02:00*%
%TF.ProjectId,Kingfisher,4b696e67-6669-4736-9865-722e6b696361,rev?*%
%TF.SameCoordinates,Original*%
%TF.FileFunction,Copper,L4,Bot*%
%TF.FilePolarity,Positive*%
%FSLAX46Y46*%
G04 Gerber Fmt 4.6, Leading zero omitted, Abs format (unit mm)*
G04 Created by KiCad (PCBNEW 8.0.5) date 2024-10-20 03:08:34*
%MOMM*%
%LPD*%
G01*
G04 APERTURE LIST*
%TA.AperFunction,ComponentPad*%
%ADD10R,1.700000X1.700000*%
%TD*%
%TA.AperFunction,ComponentPad*%
%ADD11O,1.700000X1.700000*%
%TD*%
%TA.AperFunction,ComponentPad*%
%ADD12C,1.500000*%
%TD*%
%TA.AperFunction,ComponentPad*%
%ADD13C,3.316000*%
%TD*%
%TA.AperFunction,ComponentPad*%
%ADD14C,1.428000*%
%TD*%
%TA.AperFunction,ComponentPad*%
%ADD15R,2.300000X2.300000*%
%TD*%
%TA.AperFunction,ComponentPad*%
%ADD16C,2.300000*%
%TD*%
%TA.AperFunction,ViaPad*%
%ADD17C,0.600000*%
%TD*%
%TA.AperFunction,Conductor*%
%ADD18C,0.200000*%
%TD*%
G04 APERTURE END LIST*
D10*
%TO.P,J3,1,Pin_1*%
%TO.N,GND*%
X164250000Y-73625000D03*
D11*
%TO.P,J3,2,Pin_2*%
%TO.N,NRST*%
X166790000Y-73625000D03*
%TD*%
D10*
%TO.P,J12,1,Pin_1*%
%TO.N,GND*%
X128625000Y-104460000D03*
D11*
%TO.P,J12,2,Pin_2*%
%TO.N,EXT_DAC_VAA*%
X128625000Y-101920000D03*
%TD*%
D10*
%TO.P,J1,1,Pin_1*%
%TO.N,GND*%
X142975000Y-73625000D03*
D11*
%TO.P,J1,2,Pin_2*%
%TO.N,5V_EXT*%
X145515000Y-73625000D03*
%TD*%
D10*
%TO.P,J11,1,Pin_1*%
%TO.N,DAC_OUT_0*%
X130950000Y-123950000D03*
D11*
%TO.P,J11,2,Pin_2*%
%TO.N,GND*%
X130950000Y-126490000D03*
%TO.P,J11,3,Pin_3*%
%TO.N,DAC_OUT_1*%
X133490000Y-123950000D03*
%TO.P,J11,4,Pin_4*%
%TO.N,GND*%
X133490000Y-126490000D03*
%TO.P,J11,5,Pin_5*%
%TO.N,DAC_OUT_2*%
X136030000Y-123950000D03*
%TO.P,J11,6,Pin_6*%
%TO.N,GND*%
X136030000Y-126490000D03*
%TO.P,J11,7,Pin_7*%
%TO.N,DAC_OUT_3*%
X138570000Y-123950000D03*
%TO.P,J11,8,Pin_8*%
%TO.N,GND*%
X138570000Y-126490000D03*
%TO.P,J11,9,Pin_9*%
%TO.N,DAC_OUT_4*%
X141110000Y-123950000D03*
%TO.P,J11,10,Pin_10*%
%TO.N,GND*%
X141110000Y-126490000D03*
%TO.P,J11,11,Pin_11*%
%TO.N,DAC_OUT_5*%
X143650000Y-123950000D03*
%TO.P,J11,12,Pin_12*%
%TO.N,GND*%
X143650000Y-126490000D03*
%TO.P,J11,13,Pin_13*%
%TO.N,DAC_OUT_6*%
X146190000Y-123950000D03*
%TO.P,J11,14,Pin_14*%
%TO.N,GND*%
X146190000Y-126490000D03*
%TO.P,J11,15,Pin_15*%
%TO.N,DAC_OUT_7*%
X148730000Y-123950000D03*
%TO.P,J11,16,Pin_16*%
%TO.N,GND*%
X148730000Y-126490000D03*
%TO.P,J11,17,Pin_17*%
%TO.N,DAC_OUT_8*%
X151270000Y-123950000D03*
%TO.P,J11,18,Pin_18*%
%TO.N,GND*%
X151270000Y-126490000D03*
%TO.P,J11,19,Pin_19*%
%TO.N,DAC_OUT_9*%
X153810000Y-123950000D03*
%TO.P,J11,20,Pin_20*%
%TO.N,GND*%
X153810000Y-126490000D03*
%TO.P,J11,21,Pin_21*%
%TO.N,DAC_OUT_10*%
X156350000Y-123950000D03*
%TO.P,J11,22,Pin_22*%
%TO.N,GND*%
X156350000Y-126490000D03*
%TO.P,J11,23,Pin_23*%
%TO.N,DAC_OUT_11*%
X158890000Y-123950000D03*
%TO.P,J11,24,Pin_24*%
%TO.N,GND*%
X158890000Y-126490000D03*
%TO.P,J11,25,Pin_25*%
%TO.N,DAC_OUT_12*%
X161430000Y-123950000D03*
%TO.P,J11,26,Pin_26*%
%TO.N,GND*%
X161430000Y-126490000D03*
%TO.P,J11,27,Pin_27*%
%TO.N,DAC_OUT_13*%
X163970000Y-123950000D03*
%TO.P,J11,28,Pin_28*%
%TO.N,GND*%
X163970000Y-126490000D03*
%TO.P,J11,29,Pin_29*%
%TO.N,DAC_OUT_14*%
X166510000Y-123950000D03*
%TO.P,J11,30,Pin_30*%
%TO.N,GND*%
X166510000Y-126490000D03*
%TO.P,J11,31,Pin_31*%
%TO.N,DAC_OUT_15*%
X169050000Y-123950000D03*
%TO.P,J11,32,Pin_32*%
%TO.N,GND*%
X169050000Y-126490000D03*
%TD*%
D10*
%TO.P,J4,1,Pin_1*%
%TO.N,Net-(J4-Pin_1)*%
X168960000Y-80750000D03*
D11*
%TO.P,J4,2,Pin_2*%
%TO.N,BOOT0*%
X171500000Y-80750000D03*
%TO.P,J4,3,Pin_3*%
%TO.N,Net-(J4-Pin_3)*%
X174040000Y-80750000D03*
%TD*%
D12*
%TO.P,e1,1,1*%
%TO.N,Net-(U3-PH0)*%
X158900000Y-90250000D03*
%TO.P,e1,2,2*%
%TO.N,Net-(U3-PH1)*%
X158900000Y-95130000D03*
%TD*%
D10*
%TO.P,J2,1,Pin_1*%
%TO.N,USB_VBUS*%
X129560000Y-82700000D03*
D11*
%TO.P,J2,2,Pin_2*%
%TO.N,+5V*%
X132100000Y-82700000D03*
%TO.P,J2,3,Pin_3*%
%TO.N,5V_EXT*%
X134640000Y-82700000D03*
%TD*%
D10*
%TO.P,J13,1,Pin_1*%
%TO.N,+5V*%
X135500000Y-99750000D03*
D11*
%TO.P,J13,2,Pin_2*%
%TO.N,DAC_VAA*%
X135500000Y-102290000D03*
%TO.P,J13,3,Pin_3*%
%TO.N,EXT_DAC_VAA*%
X135500000Y-104830000D03*
%TD*%
D13*
%TO.P,J6,0,SHEILD*%
%TO.N,GND*%
X138740000Y-73625000D03*
X126700000Y-73625000D03*
D14*
%TO.P,J6,1,VBUS*%
%TO.N,USB_VBUS*%
X131470000Y-78335000D03*
%TO.P,J6,2,D-*%
%TO.N,USB_OTG_FS_D-*%
X133970000Y-78335000D03*
%TO.P,J6,3,D+*%
%TO.N,USB_OTG_FS_D+*%
X133970000Y-76335000D03*
%TO.P,J6,4,GND*%
%TO.N,GND*%
X131470000Y-76335000D03*
%TD*%
D10*
%TO.P,J5,1,Pin_1*%
%TO.N,GND*%
X153725000Y-73625000D03*
D11*
%TO.P,J5,2,Pin_2*%
%TO.N,UART_TX*%
X156265000Y-73625000D03*
%TO.P,J5,3,Pin_3*%
%TO.N,UART_RX*%
X158805000Y-73625000D03*
%TD*%
D10*
%TO.P,J8,1,Pin_1*%
%TO.N,GND*%
X128625000Y-96710000D03*
D11*
%TO.P,J8,2,Pin_2*%
%TO.N,EXT_REF_2V5*%
X128625000Y-94170000D03*
%TD*%
D15*
%TO.P,J9,1,Pin_1*%
%TO.N,DAC_VCC*%
X121250000Y-116710000D03*
D16*
%TO.P,J9,2,Pin_2*%
%TO.N,GND*%
X121250000Y-113210000D03*
%TO.P,J9,3,Pin_3*%
%TO.N,DAC_VSS*%
X121250000Y-109710000D03*
%TD*%
D10*
%TO.P,J10,1,Pin_1*%
%TO.N,REF_2V5*%
X135500000Y-89460000D03*
D11*
%TO.P,J10,2,Pin_2*%
%TO.N,DAC_REF*%
X135500000Y-92000000D03*
%TO.P,J10,3,Pin_3*%
%TO.N,EXT_REF_2V5*%
X135500000Y-94540000D03*
%TD*%
D17*
%TO.N,+3V3*%
X167250000Y-83500000D03*
X154250000Y-96250000D03*
X178750000Y-82250000D03*
X174750000Y-98750000D03*
X165850000Y-101500000D03*
X169750000Y-76250000D03*
X175000000Y-83500000D03*
X161750000Y-104000000D03*
X173000000Y-111250000D03*
X164250000Y-77750000D03*
X164250000Y-100500000D03*
X175000000Y-88250000D03*
X145500000Y-118100000D03*
X163500000Y-88500000D03*
X147750000Y-85000000D03*
X160000000Y-118000000D03*
X164900000Y-86000000D03*
X154700000Y-118100000D03*
X178750000Y-89000000D03*
%TO.N,GND*%
X173500000Y-89750000D03*
X165500000Y-97000000D03*
X169250000Y-93000000D03*
X143750000Y-87045000D03*
X175750000Y-104000000D03*
X150000000Y-116000000D03*
%TO.N,NRST*%
X165500000Y-92250000D03*
%TO.N,DAC_VCC*%
X146500000Y-113050000D03*
X154250000Y-112250000D03*
%TO.N,DAC_VSS*%
X153250000Y-111500000D03*
X145750000Y-112000000D03*
%TO.N,+5V*%
X144500000Y-104750000D03*
X148500000Y-111250000D03*
X119500000Y-90625000D03*
%TO.N,DAC_SCLK*%
X168000000Y-101500000D03*
X147199997Y-120900000D03*
%TO.N,DAC_TOGGLE0*%
X149600000Y-120900000D03*
X169475000Y-100125000D03*
%TO.N,DAC_nCLR*%
X153600009Y-120900000D03*
X167750000Y-85750000D03*
%TO.N,DAC_SDO*%
X168150000Y-100149998D03*
X146399994Y-120900000D03*
%TO.N,DAC_TOGGLE1*%
X170180013Y-100503101D03*
X150400000Y-120900000D03*
%TO.N,DAC_nLDAC*%
X152000003Y-120900000D03*
X169625000Y-88625000D03*
%TO.N,DAC_TOGGLE2*%
X171100000Y-100126533D03*
X151200000Y-120900000D03*
%TO.N,DAC_nRESET*%
X168750000Y-85750000D03*
X152800006Y-120900000D03*
%TO.N,DAC_nALMOUT*%
X166773060Y-88976940D03*
X152000000Y-115500000D03*
%TO.N,DAC_nCS*%
X168250000Y-102750000D03*
X148799997Y-120900000D03*
%TO.N,DAC_SDI*%
X168820957Y-100585682D03*
X148000000Y-120900000D03*
%TO.N,UART_RX*%
X172750000Y-93000000D03*
%TO.N,UART_TX*%
X172750000Y-92000000D03*
%TD*%
D18*
%TO.N,NRST*%
X165500000Y-74915000D02*
X166790000Y-73625000D01*
X165500000Y-92250000D02*
X165500000Y-74915000D01*
%TO.N,DAC_SCLK*%
X167250000Y-102335785D02*
X167250000Y-102901471D01*
X168000000Y-101585785D02*
X167250000Y-102335785D01*
X149351471Y-118700000D02*
X147199997Y-120851474D01*
X147199997Y-120851474D02*
X147199997Y-120900000D01*
X153623041Y-115500000D02*
X150423041Y-118700000D01*
X154651471Y-115500000D02*
X153623041Y-115500000D01*
X168000000Y-101500000D02*
X168000000Y-101585785D01*
X150423041Y-118700000D02*
X149351471Y-118700000D01*
X167250000Y-102901471D02*
X154651471Y-115500000D01*
%TO.N,DAC_TOGGLE0*%
X154120099Y-116700000D02*
X150920099Y-119900000D01*
X150920099Y-119900000D02*
X150551471Y-119900000D01*
X150551471Y-119900000D02*
X149600000Y-120851471D01*
X169574230Y-102274299D02*
X155148529Y-116700000D01*
X155148529Y-116700000D02*
X154120099Y-116700000D01*
X149600000Y-120851471D02*
X149600000Y-120900000D01*
X169574230Y-100224230D02*
X169574230Y-102274299D01*
X169475000Y-100125000D02*
X169574230Y-100224230D01*
%TO.N,DAC_nCLR*%
X156279901Y-117831372D02*
X156279901Y-117934314D01*
X171150000Y-98762318D02*
X172100000Y-99712318D01*
X172100000Y-102011273D02*
X156279901Y-117831372D01*
X171150000Y-89400000D02*
X171150000Y-98762318D01*
X153600009Y-120614206D02*
X153600009Y-120900000D01*
X167750000Y-85750000D02*
X167750000Y-85800000D01*
X167750000Y-85800000D02*
X170225000Y-88275000D01*
X170225000Y-88275000D02*
X170225000Y-88475000D01*
X156279901Y-117934314D02*
X153600009Y-120614206D01*
X170225000Y-88475000D02*
X171150000Y-89400000D01*
X172100000Y-99712318D02*
X172100000Y-102011273D01*
%TO.N,DAC_SDO*%
X150257355Y-118300000D02*
X148951468Y-118300000D01*
X167400000Y-100899998D02*
X167400000Y-101620099D01*
X154485785Y-115100000D02*
X153457355Y-115100000D01*
X166850000Y-102170099D02*
X166850000Y-102735785D01*
X166850000Y-102735785D02*
X154485785Y-115100000D01*
X146399994Y-120851474D02*
X146399994Y-120900000D01*
X148951468Y-118300000D02*
X146399994Y-120851474D01*
X167400000Y-101620099D02*
X166850000Y-102170099D01*
X153457355Y-115100000D02*
X150257355Y-118300000D01*
X168150000Y-100149998D02*
X167400000Y-100899998D01*
%TO.N,DAC_TOGGLE1*%
X170180013Y-100503101D02*
X170180013Y-102234202D01*
X155314215Y-117100000D02*
X154285785Y-117100000D01*
X150400000Y-120851471D02*
X150400000Y-120900000D01*
X170180013Y-102234202D02*
X155314215Y-117100000D01*
X154285785Y-117100000D02*
X151085785Y-120300000D01*
X150951471Y-120300000D02*
X150400000Y-120851471D01*
X151085785Y-120300000D02*
X150951471Y-120300000D01*
%TO.N,DAC_nLDAC*%
X170750000Y-98928004D02*
X170750000Y-89565686D01*
X152000003Y-120900000D02*
X152000003Y-120851474D01*
X155879901Y-117768628D02*
X155879901Y-117665686D01*
X171700000Y-101845587D02*
X171700000Y-99878004D01*
X152000003Y-120851474D02*
X152551477Y-120300000D01*
X169809314Y-88625000D02*
X169625000Y-88625000D01*
X169625000Y-88625000D02*
X169500000Y-88500000D01*
X155879901Y-117665686D02*
X171700000Y-101845587D01*
X152551477Y-120300000D02*
X153348529Y-120300000D01*
X153348529Y-120300000D02*
X155879901Y-117768628D01*
X170750000Y-89565686D02*
X169809314Y-88625000D01*
X171700000Y-99878004D02*
X170750000Y-98928004D01*
%TO.N,DAC_TOGGLE2*%
X154451471Y-117500000D02*
X151200000Y-120751471D01*
X171100000Y-101879901D02*
X155479901Y-117500000D01*
X155479901Y-117500000D02*
X154451471Y-117500000D01*
X171100000Y-100126533D02*
X171100000Y-101879901D01*
X151200000Y-120751471D02*
X151200000Y-120900000D01*
%TO.N,DAC_nRESET*%
X171550000Y-98596632D02*
X172500000Y-99546632D01*
X156679901Y-118668637D02*
X153848538Y-121500000D01*
X168750000Y-86234314D02*
X170625000Y-88109314D01*
X171550000Y-89234314D02*
X171550000Y-98596632D01*
X172500000Y-99546632D02*
X172500000Y-102176959D01*
X152800006Y-120948526D02*
X152800006Y-120900000D01*
X172500000Y-102176959D02*
X156679901Y-117997058D01*
X168750000Y-85750000D02*
X168750000Y-86234314D01*
X170625000Y-88109314D02*
X170625000Y-88309314D01*
X153351480Y-121500000D02*
X152800006Y-120948526D01*
X153848538Y-121500000D02*
X153351480Y-121500000D01*
X170625000Y-88309314D02*
X171550000Y-89234314D01*
X156679901Y-117997058D02*
X156679901Y-118668637D01*
%TO.N,DAC_nALMOUT*%
X166450000Y-89300000D02*
X166450000Y-102570099D01*
X152000000Y-115451469D02*
X152751469Y-114700000D01*
X152000000Y-115500000D02*
X152000000Y-115451469D01*
X166773060Y-88976940D02*
X166450000Y-89300000D01*
X166379901Y-102570099D02*
X166450000Y-102570099D01*
X152751469Y-114700000D02*
X154250000Y-114700000D01*
X154250000Y-114700000D02*
X166379901Y-102570099D01*
%TO.N,DAC_nCS*%
X168250000Y-102750000D02*
X168250000Y-103032843D01*
X153954413Y-116300000D02*
X150754413Y-119500000D01*
X168250000Y-103032843D02*
X154982843Y-116300000D01*
X148799997Y-120851474D02*
X148799997Y-120900000D01*
X154982843Y-116300000D02*
X153954413Y-116300000D01*
X150151471Y-119500000D02*
X148799997Y-120851474D01*
X150754413Y-119500000D02*
X150151471Y-119500000D01*
%TO.N,DAC_SDI*%
X167650000Y-103067157D02*
X154817157Y-115900000D01*
X148000000Y-120851468D02*
X148000000Y-120900000D01*
X154817157Y-115900000D02*
X153788727Y-115900000D01*
X168051471Y-102100000D02*
X167650000Y-102501471D01*
X168248529Y-102100000D02*
X168051471Y-102100000D01*
X168820957Y-100585682D02*
X168820957Y-101527572D01*
X168820957Y-101527572D02*
X168248529Y-102100000D01*
X167650000Y-102501471D02*
X167650000Y-103067157D01*
X150588727Y-119100000D02*
X149751468Y-119100000D01*
X149751468Y-119100000D02*
X148000000Y-120851468D01*
X153788727Y-115900000D02*
X150588727Y-119100000D01*
%TO.N,UART_RX*%
X172750000Y-93000000D02*
X172150000Y-92400000D01*
X160147157Y-72282843D02*
X158805000Y-73625000D01*
X176217157Y-76782843D02*
X171717157Y-72282843D01*
X171717157Y-72282843D02*
X160147157Y-72282843D01*
X176217157Y-87967157D02*
X176217157Y-76782843D01*
X172150000Y-91751471D02*
X172501471Y-91400000D01*
X172784314Y-91400000D02*
X176217157Y-87967157D01*
X172150000Y-92400000D02*
X172150000Y-91751471D01*
X172501471Y-91400000D02*
X172784314Y-91400000D01*
%TO.N,UART_TX*%
X176617157Y-88132843D02*
X176617157Y-76617157D01*
X176617157Y-76617157D02*
X171882843Y-71882843D01*
X171882843Y-71882843D02*
X158007157Y-71882843D01*
X158007157Y-71882843D02*
X156265000Y-73625000D01*
X172750000Y-92000000D02*
X176617157Y-88132843D01*
%TD*%
%TA.AperFunction,Conductor*%
%TO.N,GND*%
G36*
X178701727Y-63500597D02*
G01*
X179009997Y-63517909D01*
X179016846Y-63518680D01*
X179319554Y-63570112D01*
X179326255Y-63571642D01*
X179621297Y-63656643D01*
X179627796Y-63658916D01*
X179911477Y-63776420D01*
X179917678Y-63779407D01*
X180186412Y-63927931D01*
X180192231Y-63931588D01*
X180442643Y-64109264D01*
X180448035Y-64113564D01*
X180676969Y-64318153D01*
X180681846Y-64323030D01*
X180886435Y-64551964D01*
X180890735Y-64557356D01*
X181068405Y-64807758D01*
X181072071Y-64813592D01*
X181087435Y-64841391D01*
X181220589Y-65082315D01*
X181223582Y-65088529D01*
X181341081Y-65372198D01*
X181343358Y-65378707D01*
X181428354Y-65673731D01*
X181429889Y-65680456D01*
X181481318Y-65983152D01*
X181482090Y-65990004D01*
X181499403Y-66298271D01*
X181499500Y-66301720D01*
X181499500Y-133698279D01*
X181499403Y-133701728D01*
X181482090Y-134009995D01*
X181481318Y-134016847D01*
X181429889Y-134319543D01*
X181428354Y-134326268D01*
X181343358Y-134621292D01*
X181341081Y-134627801D01*
X181223582Y-134911470D01*
X181220589Y-134917684D01*
X181072074Y-135186402D01*
X181068405Y-135192241D01*
X180890735Y-135442643D01*
X180886435Y-135448035D01*
X180681846Y-135676969D01*
X180676969Y-135681846D01*
X180448035Y-135886435D01*
X180442643Y-135890735D01*
X180192241Y-136068405D01*
X180186402Y-136072074D01*
X179917684Y-136220589D01*
X179911470Y-136223582D01*
X179627801Y-136341081D01*
X179621292Y-136343358D01*
X179326268Y-136428354D01*
X179319543Y-136429889D01*
X179016847Y-136481318D01*
X179009995Y-136482090D01*
X178718816Y-136498443D01*
X178701726Y-136499403D01*
X178698279Y-136499500D01*
X121301721Y-136499500D01*
X121298273Y-136499403D01*
X121279884Y-136498370D01*
X120990004Y-136482090D01*
X120983152Y-136481318D01*
X120680456Y-136429889D01*
X120673731Y-136428354D01*
X120378707Y-136343358D01*
X120372198Y-136341081D01*
X120088529Y-136223582D01*
X120082315Y-136220589D01*
X120058506Y-136207430D01*
X119813592Y-136072071D01*
X119807763Y-136068408D01*
X119557356Y-135890735D01*
X119551964Y-135886435D01*
X119323030Y-135681846D01*
X119318153Y-135676969D01*
X119113564Y-135448035D01*
X119109264Y-135442643D01*
X119093587Y-135420548D01*
X118931588Y-135192231D01*
X118927931Y-135186412D01*
X118779407Y-134917678D01*
X118776417Y-134911470D01*
X118753714Y-134856661D01*
X118658916Y-134627796D01*
X118656641Y-134621292D01*
X118571642Y-134326255D01*
X118570112Y-134319554D01*
X118518680Y-134016846D01*
X118517909Y-134009994D01*
X118500597Y-133701727D01*
X118500500Y-133698279D01*
X118500500Y-133585262D01*
X119549500Y-133585262D01*
X119549500Y-133814737D01*
X119579453Y-134042248D01*
X119638839Y-134263878D01*
X119638842Y-134263887D01*
X119726656Y-134475888D01*
X119784022Y-134575250D01*
X119841390Y-134674615D01*
X119841391Y-134674616D01*
X119981079Y-134856659D01*
X120143340Y-135018920D01*
X120325383Y-135158608D01*
X120325384Y-135158609D01*
X120367379Y-135182854D01*
X120524112Y-135273344D01*
X120736113Y-135361158D01*
X120793444Y-135376519D01*
X120957753Y-135420546D01*
X120957749Y-135420546D01*
X120957759Y-135420547D01*
X120957762Y-135420548D01*
X121185266Y-135450500D01*
X121185269Y-135450500D01*
X121414731Y-135450500D01*
X121414734Y-135450500D01*
X121642238Y-135420548D01*
X121642243Y-135420546D01*
X121642248Y-135420546D01*
X121780279Y-135383560D01*
X121863887Y-135361158D01*
X122075888Y-135273344D01*
X122274612Y-135158611D01*
X122456661Y-135018919D01*
X122618919Y-134856661D01*
X122758611Y-134674612D01*
X122873344Y-134475888D01*
X122961158Y-134263887D01*
X122983560Y-134180279D01*
X123020546Y-134042248D01*
X123020546Y-134042243D01*
X123020548Y-134042238D01*
X123050500Y-133814734D01*
X123050500Y-133585266D01*
X123050499Y-133585262D01*
X176949500Y-133585262D01*
X176949500Y-133814737D01*
X176979453Y-134042248D01*
X177038839Y-134263878D01*
X177038842Y-134263887D01*
X177126656Y-134475888D01*
X177184022Y-134575250D01*
X177241390Y-134674615D01*
X177241391Y-134674616D01*
X177381079Y-134856659D01*
X177543340Y-135018920D01*
X177725383Y-135158608D01*
X177725384Y-135158609D01*
X177767379Y-135182854D01*
X177924112Y-135273344D01*
X178136113Y-135361158D01*
X178193444Y-135376519D01*
X178357753Y-135420546D01*
X178357749Y-135420546D01*
X178357759Y-135420547D01*
X178357762Y-135420548D01*
X178585266Y-135450500D01*
X178585269Y-135450500D01*
X178814731Y-135450500D01*
X178814734Y-135450500D01*
X179042238Y-135420548D01*
X179042243Y-135420546D01*
X179042248Y-135420546D01*
X179180279Y-135383560D01*
X179263887Y-135361158D01*
X179475888Y-135273344D01*
X179674612Y-135158611D01*
X179856661Y-135018919D01*
X180018919Y-134856661D01*
X180158611Y-134674612D01*
X180273344Y-134475888D01*
X180361158Y-134263887D01*
X180383560Y-134180279D01*
X180420546Y-134042248D01*
X180420546Y-134042243D01*
X180420548Y-134042238D01*
X180450500Y-133814734D01*
X180450500Y-133585266D01*
X180420548Y-133357762D01*
X180420546Y-133357757D01*
X180420546Y-133357751D01*
X180361160Y-133136121D01*
X180361158Y-133136113D01*
X180273344Y-132924112D01*
X180158611Y-132725388D01*
X180158609Y-132725384D01*
X180158608Y-132725383D01*
X180018920Y-132543340D01*
X179856659Y-132381079D01*
X179674616Y-132241391D01*
X179674615Y-132241390D01*
X179575250Y-132184022D01*
X179475888Y-132126656D01*
X179263887Y-132038842D01*
X179263878Y-132038839D01*
X179042246Y-131979453D01*
X179042250Y-131979453D01*
X178814737Y-131949500D01*
X178814734Y-131949500D01*
X178585266Y-131949500D01*
X178585262Y-131949500D01*
X178357751Y-131979453D01*
X178136121Y-132038839D01*
X178136112Y-132038842D01*
X177924114Y-132126655D01*
X177725384Y-132241390D01*
X177725383Y-132241391D01*
X177543340Y-132381079D01*
X177381079Y-132543340D01*
X177241391Y-132725383D01*
X177241390Y-132725384D01*
X177126655Y-132924114D01*
X177038842Y-133136112D01*
X177038839Y-133136121D01*
X176979453Y-133357751D01*
X176949500Y-133585262D01*
X123050499Y-133585262D01*
X123020548Y-133357762D01*
X123020546Y-133357757D01*
X123020546Y-133357751D01*
X122961160Y-133136121D01*
X122961158Y-133136113D01*
X122873344Y-132924112D01*
X122758611Y-132725388D01*
X122758609Y-132725384D01*
X122758608Y-132725383D01*
X122618920Y-132543340D01*
X122456659Y-132381079D01*
X122274616Y-132241391D01*
X122274615Y-132241390D01*
X122175250Y-132184022D01*
X122075888Y-132126656D01*
X121863887Y-132038842D01*
X121863878Y-132038839D01*
X121642246Y-131979453D01*
X121642250Y-131979453D01*
X121414737Y-131949500D01*
X121414734Y-131949500D01*
X121185266Y-131949500D01*
X121185262Y-131949500D01*
X120957751Y-131979453D01*
X120736121Y-132038839D01*
X120736112Y-132038842D01*
X120524114Y-132126655D01*
X120325384Y-132241390D01*
X120325383Y-132241391D01*
X120143340Y-132381079D01*
X119981079Y-132543340D01*
X119841391Y-132725383D01*
X119841390Y-132725384D01*
X119726655Y-132924114D01*
X119638842Y-133136112D01*
X119638839Y-133136121D01*
X119579453Y-133357751D01*
X119549500Y-133585262D01*
X118500500Y-133585262D01*
X118500500Y-126427500D01*
X129976438Y-126427500D01*
X130450000Y-126427500D01*
X130450000Y-126552500D01*
X129976438Y-126552500D01*
X129989106Y-126681131D01*
X130044858Y-126864920D01*
X130135395Y-127034304D01*
X130257234Y-127182764D01*
X130257235Y-127182765D01*
X130405695Y-127304604D01*
X130575079Y-127395141D01*
X130758869Y-127450893D01*
X130758866Y-127450893D01*
X130887500Y-127463562D01*
X130887500Y-126990000D01*
X131012500Y-126990000D01*
X131012500Y-127463561D01*
X131141131Y-127450893D01*
X131324920Y-127395141D01*
X131494304Y-127304604D01*
X131642764Y-127182765D01*
X131642765Y-127182764D01*
X131764604Y-127034304D01*
X131855141Y-126864920D01*
X131910893Y-126681131D01*
X131923562Y-126552500D01*
X131450000Y-126552500D01*
X131450000Y-126427500D01*
X131923562Y-126427500D01*
X132516438Y-126427500D01*
X132990000Y-126427500D01*
X132990000Y-126552500D01*
X132516438Y-126552500D01*
X132529106Y-126681131D01*
X132584858Y-126864920D01*
X132675395Y-127034304D01*
X132797234Y-127182764D01*
X132797235Y-127182765D01*
X132945695Y-127304604D01*
X133115079Y-127395141D01*
X133298869Y-127450893D01*
X133298866Y-127450893D01*
X133427500Y-127463562D01*
X133427500Y-126990000D01*
X133552500Y-126990000D01*
X133552500Y-127463561D01*
X133681131Y-127450893D01*
X133864920Y-127395141D01*
X134034304Y-127304604D01*
X134182764Y-127182765D01*
X134182765Y-127182764D01*
X134304604Y-127034304D01*
X134395141Y-126864920D01*
X134450893Y-126681131D01*
X134463562Y-126552500D01*
X133990000Y-126552500D01*
X133990000Y-126427500D01*
X134463562Y-126427500D01*
X135056438Y-126427500D01*
X135530000Y-126427500D01*
X135530000Y-126552500D01*
X135056438Y-126552500D01*
X135069106Y-126681131D01*
X135124858Y-126864920D01*
X135215395Y-127034304D01*
X135337234Y-127182764D01*
X135337235Y-127182765D01*
X135485695Y-127304604D01*
X135655079Y-127395141D01*
X135838869Y-127450893D01*
X135838866Y-127450893D01*
X135967500Y-127463562D01*
X135967500Y-126990000D01*
X136092500Y-126990000D01*
X136092500Y-127463561D01*
X136221131Y-127450893D01*
X136404920Y-127395141D01*
X136574304Y-127304604D01*
X136722764Y-127182765D01*
X136722765Y-127182764D01*
X136844604Y-127034304D01*
X136935141Y-126864920D01*
X136990893Y-126681131D01*
X137003562Y-126552500D01*
X136530000Y-126552500D01*
X136530000Y-126427500D01*
X137003562Y-126427500D01*
X137596438Y-126427500D01*
X138070000Y-126427500D01*
X138070000Y-126552500D01*
X137596438Y-126552500D01*
X137609106Y-126681131D01*
X137664858Y-126864920D01*
X137755395Y-127034304D01*
X137877234Y-127182764D01*
X137877235Y-127182765D01*
X138025695Y-127304604D01*
X138195079Y-127395141D01*
X138378869Y-127450893D01*
X138378866Y-127450893D01*
X138507500Y-127463562D01*
X138507500Y-126990000D01*
X138632500Y-126990000D01*
X138632500Y-127463562D01*
X138761131Y-127450893D01*
X138944920Y-127395141D01*
X139114304Y-127304604D01*
X139262764Y-127182765D01*
X139262765Y-127182764D01*
X139384604Y-127034304D01*
X139475141Y-126864920D01*
X139530893Y-126681131D01*
X139543562Y-126552500D01*
X139070000Y-126552500D01*
X139070000Y-126427500D01*
X139543562Y-126427500D01*
X140136438Y-126427500D01*
X140610000Y-126427500D01*
X140610000Y-126552500D01*
X140136438Y-126552500D01*
X140149106Y-126681131D01*
X140204858Y-126864920D01*
X140295395Y-127034304D01*
X140417234Y-127182764D01*
X140417235Y-127182765D01*
X140565695Y-127304604D01*
X140735079Y-127395141D01*
X140918869Y-127450893D01*
X140918866Y-127450893D01*
X141047500Y-127463562D01*
X141047500Y-126990000D01*
X141172500Y-126990000D01*
X141172500Y-127463562D01*
X141301131Y-127450893D01*
X141484920Y-127395141D01*
X141654304Y-127304604D01*
X141802764Y-127182765D01*
X141802765Y-127182764D01*
X141924604Y-127034304D01*
X142015141Y-126864920D01*
X142070893Y-126681131D01*
X142083562Y-126552500D01*
X141610000Y-126552500D01*
X141610000Y-126427500D01*
X142083562Y-126427500D01*
X142676438Y-126427500D01*
X143150000Y-126427500D01*
X143150000Y-126552500D01*
X142676438Y-126552500D01*
X142689106Y-126681131D01*
X142744858Y-126864920D01*
X142835395Y-127034304D01*
X142957234Y-127182764D01*
X142957235Y-127182765D01*
X143105695Y-127304604D01*
X143275079Y-127395141D01*
X143458869Y-127450893D01*
X143458866Y-127450893D01*
X143587500Y-127463562D01*
X143587500Y-126990000D01*
X143712500Y-126990000D01*
X143712500Y-127463562D01*
X143841131Y-127450893D01*
X144024920Y-127395141D01*
X144194304Y-127304604D01*
X144342764Y-127182765D01*
X144342765Y-127182764D01*
X144464604Y-127034304D01*
X144555141Y-126864920D01*
X144610893Y-126681131D01*
X144623562Y-126552500D01*
X144150000Y-126552500D01*
X144150000Y-126427500D01*
X144623562Y-126427500D01*
X145216438Y-126427500D01*
X145690000Y-126427500D01*
X145690000Y-126552500D01*
X145216438Y-126552500D01*
X145229106Y-126681131D01*
X145284858Y-126864920D01*
X145375395Y-127034304D01*
X145497234Y-127182764D01*
X145497235Y-127182765D01*
X145645695Y-127304604D01*
X145815079Y-127395141D01*
X145998869Y-127450893D01*
X145998866Y-127450893D01*
X146127500Y-127463562D01*
X146127500Y-126990000D01*
X146252500Y-126990000D01*
X146252500Y-127463562D01*
X146381131Y-127450893D01*
X146564920Y-127395141D01*
X146734304Y-127304604D01*
X146882764Y-127182765D01*
X146882765Y-127182764D01*
X147004604Y-127034304D01*
X147095141Y-126864920D01*
X147150893Y-126681131D01*
X147163562Y-126552500D01*
X146690000Y-126552500D01*
X146690000Y-126427500D01*
X147163562Y-126427500D01*
X147756438Y-126427500D01*
X148230000Y-126427500D01*
X148230000Y-126552500D01*
X147756438Y-126552500D01*
X147769106Y-126681131D01*
X147824858Y-126864920D01*
X147915395Y-127034304D01*
X148037234Y-127182764D01*
X148037235Y-127182765D01*
X148185695Y-127304604D01*
X148355079Y-127395141D01*
X148538869Y-127450893D01*
X148538866Y-127450893D01*
X148667500Y-127463562D01*
X148667500Y-126990000D01*
X148792500Y-126990000D01*
X148792500Y-127463562D01*
X148921131Y-127450893D01*
X149104920Y-127395141D01*
X149274304Y-127304604D01*
X149422764Y-127182765D01*
X149422765Y-127182764D01*
X149544604Y-127034304D01*
X149635141Y-126864920D01*
X149690893Y-126681131D01*
X149703562Y-126552500D01*
X149230000Y-126552500D01*
X149230000Y-126427500D01*
X149703562Y-126427500D01*
X150296438Y-126427500D01*
X150770000Y-126427500D01*
X150770000Y-126552500D01*
X150296438Y-126552500D01*
X150309106Y-126681131D01*
X150364858Y-126864920D01*
X150455395Y-127034304D01*
X150577234Y-127182764D01*
X150577235Y-127182765D01*
X150725695Y-127304604D01*
X150895079Y-127395141D01*
X151078869Y-127450893D01*
X151078866Y-127450893D01*
X151207500Y-127463562D01*
X151207500Y-126990000D01*
X151332500Y-126990000D01*
X151332500Y-127463562D01*
X151461131Y-127450893D01*
X151644920Y-127395141D01*
X151814304Y-127304604D01*
X151962764Y-127182765D01*
X151962765Y-127182764D01*
X152084604Y-127034304D01*
X152175141Y-126864920D01*
X152230893Y-126681131D01*
X152243562Y-126552500D01*
X151770000Y-126552500D01*
X151770000Y-126427500D01*
X152243562Y-126427500D01*
X152836438Y-126427500D01*
X153310000Y-126427500D01*
X153310000Y-126552500D01*
X152836438Y-126552500D01*
X152849106Y-126681131D01*
X152904858Y-126864920D01*
X152995395Y-127034304D01*
X153117234Y-127182764D01*
X153117235Y-127182765D01*
X153265695Y-127304604D01*
X153435079Y-127395141D01*
X153618869Y-127450893D01*
X153618866Y-127450893D01*
X153747500Y-127463562D01*
X153747500Y-126990000D01*
X153872500Y-126990000D01*
X153872500Y-127463562D01*
X154001131Y-127450893D01*
X154184920Y-127395141D01*
X154354304Y-127304604D01*
X154502764Y-127182765D01*
X154502765Y-127182764D01*
X154624604Y-127034304D01*
X154715141Y-126864920D01*
X154770893Y-126681131D01*
X154783562Y-126552500D01*
X154310000Y-126552500D01*
X154310000Y-126427500D01*
X154783562Y-126427500D01*
X155376438Y-126427500D01*
X155850000Y-126427500D01*
X155850000Y-126552500D01*
X155376438Y-126552500D01*
X155389106Y-126681131D01*
X155444858Y-126864920D01*
X155535395Y-127034304D01*
X155657234Y-127182764D01*
X155657235Y-127182765D01*
X155805695Y-127304604D01*
X155975079Y-127395141D01*
X156158869Y-127450893D01*
X156158866Y-127450893D01*
X156287500Y-127463562D01*
X156287500Y-126990000D01*
X156412500Y-126990000D01*
X156412500Y-127463562D01*
X156541131Y-127450893D01*
X156724920Y-127395141D01*
X156894304Y-127304604D01*
X157042764Y-127182765D01*
X157042765Y-127182764D01*
X157164604Y-127034304D01*
X157255141Y-126864920D01*
X157310893Y-126681131D01*
X157323562Y-126552500D01*
X156850000Y-126552500D01*
X156850000Y-126427500D01*
X157323562Y-126427500D01*
X157916438Y-126427500D01*
X158390000Y-126427500D01*
X158390000Y-126552500D01*
X157916438Y-126552500D01*
X157929106Y-126681131D01*
X157984858Y-126864920D01*
X158075395Y-127034304D01*
X158197234Y-127182764D01*
X158197235Y-127182765D01*
X158345695Y-127304604D01*
X158515079Y-127395141D01*
X158698869Y-127450893D01*
X158698866Y-127450893D01*
X158827500Y-127463562D01*
X158827500Y-126990000D01*
X158952500Y-126990000D01*
X158952500Y-127463561D01*
X159081131Y-127450893D01*
X159264920Y-127395141D01*
X159434304Y-127304604D01*
X159582764Y-127182765D01*
X159582765Y-127182764D01*
X159704604Y-127034304D01*
X159795141Y-126864920D01*
X159850893Y-126681131D01*
X159863562Y-126552500D01*
X159390000Y-126552500D01*
X159390000Y-126427500D01*
X159863562Y-126427500D01*
X160456438Y-126427500D01*
X160930000Y-126427500D01*
X160930000Y-126552500D01*
X160456438Y-126552500D01*
X160469106Y-126681131D01*
X160524858Y-126864920D01*
X160615395Y-127034304D01*
X160737234Y-127182764D01*
X160737235Y-127182765D01*
X160885695Y-127304604D01*
X161055079Y-127395141D01*
X161238869Y-127450893D01*
X161238866Y-127450893D01*
X161367500Y-127463562D01*
X161367500Y-126990000D01*
X161492500Y-126990000D01*
X161492500Y-127463561D01*
X161621131Y-127450893D01*
X161804920Y-127395141D01*
X161974304Y-127304604D01*
X162122764Y-127182765D01*
X162122765Y-127182764D01*
X162244604Y-127034304D01*
X162335141Y-126864920D01*
X162390893Y-126681131D01*
X162403562Y-126552500D01*
X161930000Y-126552500D01*
X161930000Y-126427500D01*
X162403562Y-126427500D01*
X162996438Y-126427500D01*
X163470000Y-126427500D01*
X163470000Y-126552500D01*
X162996438Y-126552500D01*
X163009106Y-126681131D01*
X163064858Y-126864920D01*
X163155395Y-127034304D01*
X163277234Y-127182764D01*
X163277235Y-127182765D01*
X163425695Y-127304604D01*
X163595079Y-127395141D01*
X163778869Y-127450893D01*
X163778866Y-127450893D01*
X163907500Y-127463562D01*
X163907500Y-126990000D01*
X164032500Y-126990000D01*
X164032500Y-127463561D01*
X164161131Y-127450893D01*
X164344920Y-127395141D01*
X164514304Y-127304604D01*
X164662764Y-127182765D01*
X164662765Y-127182764D01*
X164784604Y-127034304D01*
X164875141Y-126864920D01*
X164930893Y-126681131D01*
X164943562Y-126552500D01*
X164470000Y-126552500D01*
X164470000Y-126427500D01*
X164943562Y-126427500D01*
X165536438Y-126427500D01*
X166010000Y-126427500D01*
X166010000Y-126552500D01*
X165536438Y-126552500D01*
X165549106Y-126681131D01*
X165604858Y-126864920D01*
X165695395Y-127034304D01*
X165817234Y-127182764D01*
X165817235Y-127182765D01*
X165965695Y-127304604D01*
X166135079Y-127395141D01*
X166318869Y-127450893D01*
X166318866Y-127450893D01*
X166447500Y-127463562D01*
X166447500Y-126990000D01*
X166572500Y-126990000D01*
X166572500Y-127463561D01*
X166701131Y-127450893D01*
X166884920Y-127395141D01*
X167054304Y-127304604D01*
X167202764Y-127182765D01*
X167202765Y-127182764D01*
X167324604Y-127034304D01*
X167415141Y-126864920D01*
X167470893Y-126681131D01*
X167483562Y-126552500D01*
X167010000Y-126552500D01*
X167010000Y-126427500D01*
X167483562Y-126427500D01*
X168076438Y-126427500D01*
X168550000Y-126427500D01*
X168550000Y-126552500D01*
X168076438Y-126552500D01*
X168089106Y-126681131D01*
X168144858Y-126864920D01*
X168235395Y-127034304D01*
X168357234Y-127182764D01*
X168357235Y-127182765D01*
X168505695Y-127304604D01*
X168675079Y-127395141D01*
X168858869Y-127450893D01*
X168858866Y-127450893D01*
X168987500Y-127463562D01*
X168987500Y-126990000D01*
X169112500Y-126990000D01*
X169112500Y-127463561D01*
X169241131Y-127450893D01*
X169424920Y-127395141D01*
X169594304Y-127304604D01*
X169742764Y-127182765D01*
X169742765Y-127182764D01*
X169864604Y-127034304D01*
X169955141Y-126864920D01*
X170010893Y-126681131D01*
X170023562Y-126552500D01*
X169550000Y-126552500D01*
X169550000Y-126427500D01*
X170023562Y-126427500D01*
X170010893Y-126298868D01*
X169955141Y-126115079D01*
X169864604Y-125945695D01*
X169742765Y-125797235D01*
X169742764Y-125797234D01*
X169594304Y-125675395D01*
X169424920Y-125584858D01*
X169241130Y-125529106D01*
X169241133Y-125529106D01*
X169112500Y-125516437D01*
X169112500Y-125990000D01*
X168987500Y-125990000D01*
X168987500Y-125516437D01*
X168858868Y-125529106D01*
X168675079Y-125584858D01*
X168505695Y-125675395D01*
X168357235Y-125797234D01*
X168357234Y-125797235D01*
X168235395Y-125945695D01*
X168144858Y-126115079D01*
X168089106Y-126298868D01*
X168076438Y-126427500D01*
X167483562Y-126427500D01*
X167470893Y-126298868D01*
X167415141Y-126115079D01*
X167324604Y-125945695D01*
X167202765Y-125797235D01*
X167202764Y-125797234D01*
X167054304Y-125675395D01*
X166884920Y-125584858D01*
X166701130Y-125529106D01*
X166701133Y-125529106D01*
X166572500Y-125516437D01*
X166572500Y-125990000D01*
X166447500Y-125990000D01*
X166447500Y-125516437D01*
X166318868Y-125529106D01*
X166135079Y-125584858D01*
X165965695Y-125675395D01*
X165817235Y-125797234D01*
X165817234Y-125797235D01*
X165695395Y-125945695D01*
X165604858Y-126115079D01*
X165549106Y-126298868D01*
X165536438Y-126427500D01*
X164943562Y-126427500D01*
X164930893Y-126298868D01*
X164875141Y-126115079D01*
X164784604Y-125945695D01*
X164662765Y-125797235D01*
X164662764Y-125797234D01*
X164514304Y-125675395D01*
X164344920Y-125584858D01*
X164161130Y-125529106D01*
X164161133Y-125529106D01*
X164032500Y-125516437D01*
X164032500Y-125990000D01*
X163907500Y-125990000D01*
X163907500Y-125516437D01*
X163778868Y-125529106D01*
X163595079Y-125584858D01*
X163425695Y-125675395D01*
X163277235Y-125797234D01*
X163277234Y-125797235D01*
X163155395Y-125945695D01*
X163064858Y-126115079D01*
X163009106Y-126298868D01*
X162996438Y-126427500D01*
X162403562Y-126427500D01*
X162390893Y-126298868D01*
X162335141Y-126115079D01*
X162244604Y-125945695D01*
X162122765Y-125797235D01*
X162122764Y-125797234D01*
X161974304Y-125675395D01*
X161804920Y-125584858D01*
X161621130Y-125529106D01*
X161621133Y-125529106D01*
X161492500Y-125516437D01*
X161492500Y-125990000D01*
X161367500Y-125990000D01*
X161367500Y-125516437D01*
X161238868Y-125529106D01*
X161055079Y-125584858D01*
X160885695Y-125675395D01*
X160737235Y-125797234D01*
X160737234Y-125797235D01*
X160615395Y-125945695D01*
X160524858Y-126115079D01*
X160469106Y-126298868D01*
X160456438Y-126427500D01*
X159863562Y-126427500D01*
X159850893Y-126298868D01*
X159795141Y-126115079D01*
X159704604Y-125945695D01*
X159582765Y-125797235D01*
X159582764Y-125797234D01*
X159434304Y-125675395D01*
X159264920Y-125584858D01*
X159081130Y-125529106D01*
X159081133Y-125529106D01*
X158952500Y-125516437D01*
X158952500Y-125990000D01*
X158827500Y-125990000D01*
X158827500Y-125516437D01*
X158698868Y-125529106D01*
X158515079Y-125584858D01*
X158345695Y-125675395D01*
X158197235Y-125797234D01*
X158197234Y-125797235D01*
X158075395Y-125945695D01*
X157984858Y-126115079D01*
X157929106Y-126298868D01*
X157916438Y-126427500D01*
X157323562Y-126427500D01*
X157310893Y-126298868D01*
X157255141Y-126115079D01*
X157164604Y-125945695D01*
X157042765Y-125797235D01*
X157042764Y-125797234D01*
X156894304Y-125675395D01*
X156724920Y-125584858D01*
X156541130Y-125529106D01*
X156541133Y-125529106D01*
X156412500Y-125516437D01*
X156412500Y-125990000D01*
X156287500Y-125990000D01*
X156287500Y-125516437D01*
X156158868Y-125529106D01*
X155975079Y-125584858D01*
X155805695Y-125675395D01*
X155657235Y-125797234D01*
X155657234Y-125797235D01*
X155535395Y-125945695D01*
X155444858Y-126115079D01*
X155389106Y-126298868D01*
X155376438Y-126427500D01*
X154783562Y-126427500D01*
X154770893Y-126298868D01*
X154715141Y-126115079D01*
X154624604Y-125945695D01*
X154502765Y-125797235D01*
X154502764Y-125797234D01*
X154354304Y-125675395D01*
X154184920Y-125584858D01*
X154001130Y-125529106D01*
X154001133Y-125529106D01*
X153872500Y-125516437D01*
X153872500Y-125990000D01*
X153747500Y-125990000D01*
X153747500Y-125516437D01*
X153618868Y-125529106D01*
X153435079Y-125584858D01*
X153265695Y-125675395D01*
X153117235Y-125797234D01*
X153117234Y-125797235D01*
X152995395Y-125945695D01*
X152904858Y-126115079D01*
X152849106Y-126298868D01*
X152836438Y-126427500D01*
X152243562Y-126427500D01*
X152230893Y-126298868D01*
X152175141Y-126115079D01*
X152084604Y-125945695D01*
X151962765Y-125797235D01*
X151962764Y-125797234D01*
X151814304Y-125675395D01*
X151644920Y-125584858D01*
X151461130Y-125529106D01*
X151461133Y-125529106D01*
X151332500Y-125516437D01*
X151332500Y-125990000D01*
X151207500Y-125990000D01*
X151207500Y-125516437D01*
X151078868Y-125529106D01*
X150895079Y-125584858D01*
X150725695Y-125675395D01*
X150577235Y-125797234D01*
X150577234Y-125797235D01*
X150455395Y-125945695D01*
X150364858Y-126115079D01*
X150309106Y-126298868D01*
X150296438Y-126427500D01*
X149703562Y-126427500D01*
X149690893Y-126298868D01*
X149635141Y-126115079D01*
X149544604Y-125945695D01*
X149422765Y-125797235D01*
X149422764Y-125797234D01*
X149274304Y-125675395D01*
X149104920Y-125584858D01*
X148921130Y-125529106D01*
X148921133Y-125529106D01*
X148792500Y-125516437D01*
X148792500Y-125990000D01*
X148667500Y-125990000D01*
X148667500Y-125516437D01*
X148538868Y-125529106D01*
X148355079Y-125584858D01*
X148185695Y-125675395D01*
X148037235Y-125797234D01*
X148037234Y-125797235D01*
X147915395Y-125945695D01*
X147824858Y-126115079D01*
X147769106Y-126298868D01*
X147756438Y-126427500D01*
X147163562Y-126427500D01*
X147150893Y-126298868D01*
X147095141Y-126115079D01*
X147004604Y-125945695D01*
X146882765Y-125797235D01*
X146882764Y-125797234D01*
X146734304Y-125675395D01*
X146564920Y-125584858D01*
X146381130Y-125529106D01*
X146381133Y-125529106D01*
X146252500Y-125516437D01*
X146252500Y-125990000D01*
X146127500Y-125990000D01*
X146127500Y-125516437D01*
X145998868Y-125529106D01*
X145815079Y-125584858D01*
X145645695Y-125675395D01*
X145497235Y-125797234D01*
X145497234Y-125797235D01*
X145375395Y-125945695D01*
X145284858Y-126115079D01*
X145229106Y-126298868D01*
X145216438Y-126427500D01*
X144623562Y-126427500D01*
X144610893Y-126298868D01*
X144555141Y-126115079D01*
X144464604Y-125945695D01*
X144342765Y-125797235D01*
X144342764Y-125797234D01*
X144194304Y-125675395D01*
X144024920Y-125584858D01*
X143841130Y-125529106D01*
X143841133Y-125529106D01*
X143712500Y-125516437D01*
X143712500Y-125990000D01*
X143587500Y-125990000D01*
X143587500Y-125516437D01*
X143458868Y-125529106D01*
X143275079Y-125584858D01*
X143105695Y-125675395D01*
X142957235Y-125797234D01*
X142957234Y-125797235D01*
X142835395Y-125945695D01*
X142744858Y-126115079D01*
X142689106Y-126298868D01*
X142676438Y-126427500D01*
X142083562Y-126427500D01*
X142070893Y-126298868D01*
X142015141Y-126115079D01*
X141924604Y-125945695D01*
X141802765Y-125797235D01*
X141802764Y-125797234D01*
X141654304Y-125675395D01*
X141484920Y-125584858D01*
X141301130Y-125529106D01*
X141301133Y-125529106D01*
X141172500Y-125516437D01*
X141172500Y-125990000D01*
X141047500Y-125990000D01*
X141047500Y-125516437D01*
X140918868Y-125529106D01*
X140735079Y-125584858D01*
X140565695Y-125675395D01*
X140417235Y-125797234D01*
X140417234Y-125797235D01*
X140295395Y-125945695D01*
X140204858Y-126115079D01*
X140149106Y-126298868D01*
X140136438Y-126427500D01*
X139543562Y-126427500D01*
X139530893Y-126298868D01*
X139475141Y-126115079D01*
X139384604Y-125945695D01*
X139262765Y-125797235D01*
X139262764Y-125797234D01*
X139114304Y-125675395D01*
X138944920Y-125584858D01*
X138761130Y-125529106D01*
X138761133Y-125529106D01*
X138632500Y-125516437D01*
X138632500Y-125990000D01*
X138507500Y-125990000D01*
X138507500Y-125516437D01*
X138378868Y-125529106D01*
X138195079Y-125584858D01*
X138025695Y-125675395D01*
X137877235Y-125797234D01*
X137877234Y-125797235D01*
X137755395Y-125945695D01*
X137664858Y-126115079D01*
X137609106Y-126298868D01*
X137596438Y-126427500D01*
X137003562Y-126427500D01*
X136990893Y-126298868D01*
X136935141Y-126115079D01*
X136844604Y-125945695D01*
X136722765Y-125797235D01*
X136722764Y-125797234D01*
X136574304Y-125675395D01*
X136404920Y-125584858D01*
X136221130Y-125529106D01*
X136221133Y-125529106D01*
X136092500Y-125516437D01*
X136092500Y-125990000D01*
X135967500Y-125990000D01*
X135967500Y-125516437D01*
X135838868Y-125529106D01*
X135655079Y-125584858D01*
X135485695Y-125675395D01*
X135337235Y-125797234D01*
X135337234Y-125797235D01*
X135215395Y-125945695D01*
X135124858Y-126115079D01*
X135069106Y-126298868D01*
X135056438Y-126427500D01*
X134463562Y-126427500D01*
X134450893Y-126298868D01*
X134395141Y-126115079D01*
X134304604Y-125945695D01*
X134182765Y-125797235D01*
X134182764Y-125797234D01*
X134034304Y-125675395D01*
X133864920Y-125584858D01*
X133681130Y-125529106D01*
X133681133Y-125529106D01*
X133552500Y-125516437D01*
X133552500Y-125990000D01*
X133427500Y-125990000D01*
X133427500Y-125516437D01*
X133298868Y-125529106D01*
X133115079Y-125584858D01*
X132945695Y-125675395D01*
X132797235Y-125797234D01*
X132797234Y-125797235D01*
X132675395Y-125945695D01*
X132584858Y-126115079D01*
X132529106Y-126298868D01*
X132516438Y-126427500D01*
X131923562Y-126427500D01*
X131910893Y-126298868D01*
X131855141Y-126115079D01*
X131764604Y-125945695D01*
X131642765Y-125797235D01*
X131642764Y-125797234D01*
X131494304Y-125675395D01*
X131324920Y-125584858D01*
X131141130Y-125529106D01*
X131141133Y-125529106D01*
X131012500Y-125516437D01*
X131012500Y-125990000D01*
X130887500Y-125990000D01*
X130887500Y-125516437D01*
X130758868Y-125529106D01*
X130575079Y-125584858D01*
X130405695Y-125675395D01*
X130257235Y-125797234D01*
X130257234Y-125797235D01*
X130135395Y-125945695D01*
X130044858Y-126115079D01*
X129989106Y-126298868D01*
X129976438Y-126427500D01*
X118500500Y-126427500D01*
X118500500Y-123080248D01*
X129899500Y-123080248D01*
X129899500Y-124819751D01*
X129911131Y-124878224D01*
X129911132Y-124878228D01*
X129911133Y-124878231D01*
X129955448Y-124944552D01*
X130021769Y-124988867D01*
X130080248Y-125000499D01*
X130080249Y-125000500D01*
X130080252Y-125000500D01*
X131819751Y-125000500D01*
X131819751Y-125000499D01*
X131878231Y-124988867D01*
X131944552Y-124944552D01*
X131988867Y-124878231D01*
X132000499Y-124819751D01*
X132000500Y-124819751D01*
X132000500Y-123950000D01*
X132434417Y-123950000D01*
X132454699Y-124155933D01*
X132514766Y-124353950D01*
X132612314Y-124536450D01*
X132612315Y-124536451D01*
X132743588Y-124696409D01*
X132743590Y-124696411D01*
X132903548Y-124827684D01*
X132903549Y-124827685D01*
X132989264Y-124873500D01*
X133086046Y-124925232D01*
X133284066Y-124985300D01*
X133490000Y-125005583D01*
X133695934Y-124985300D01*
X133893954Y-124925232D01*
X134076450Y-124827685D01*
X134236410Y-124696410D01*
X134367685Y-124536450D01*
X134465232Y-124353954D01*
X134525300Y-124155934D01*
X134545583Y-123950000D01*
X134974417Y-123950000D01*
X134994699Y-124155933D01*
X135054766Y-124353950D01*
X135152314Y-124536450D01*
X135152315Y-124536451D01*
X135283588Y-124696409D01*
X135283590Y-124696411D01*
X135443548Y-124827684D01*
X135443549Y-124827685D01*
X135529264Y-124873500D01*
X135626046Y-124925232D01*
X135824066Y-124985300D01*
X136030000Y-125005583D01*
X136235934Y-124985300D01*
X136433954Y-124925232D01*
X136616450Y-124827685D01*
X136776410Y-124696410D01*
X136907685Y-124536450D01*
X137005232Y-124353954D01*
X137065300Y-124155934D01*
X137085583Y-123950000D01*
X137514417Y-123950000D01*
X137534699Y-124155933D01*
X137594766Y-124353950D01*
X137692314Y-124536450D01*
X137692315Y-124536451D01*
X137823588Y-124696409D01*
X137823590Y-124696411D01*
X137983548Y-124827684D01*
X137983549Y-124827685D01*
X138069264Y-124873500D01*
X138166046Y-124925232D01*
X138364066Y-124985300D01*
X138570000Y-125005583D01*
X138775934Y-124985300D01*
X138973954Y-124925232D01*
X139156450Y-124827685D01*
X139316410Y-124696410D01*
X139447685Y-124536450D01*
X139545232Y-124353954D01*
X139605300Y-124155934D01*
X139625583Y-123950000D01*
X140054417Y-123950000D01*
X140074699Y-124155933D01*
X140134766Y-124353950D01*
X140232314Y-124536450D01*
X140232315Y-124536451D01*
X140363588Y-124696409D01*
X140363590Y-124696411D01*
X140523548Y-124827684D01*
X140523549Y-124827685D01*
X140609264Y-124873500D01*
X140706046Y-124925232D01*
X140904066Y-124985300D01*
X141110000Y-125005583D01*
X141315934Y-124985300D01*
X141513954Y-124925232D01*
X141696450Y-124827685D01*
X141856410Y-124696410D01*
X141987685Y-124536450D01*
X142085232Y-124353954D01*
X142145300Y-124155934D01*
X142165583Y-123950000D01*
X142594417Y-123950000D01*
X142614699Y-124155933D01*
X142674766Y-124353950D01*
X142772314Y-124536450D01*
X142772315Y-124536451D01*
X142903588Y-124696409D01*
X142903590Y-124696411D01*
X143063548Y-124827684D01*
X143063549Y-124827685D01*
X143149264Y-124873500D01*
X143246046Y-124925232D01*
X143444066Y-124985300D01*
X143650000Y-125005583D01*
X143855934Y-124985300D01*
X144053954Y-124925232D01*
X144236450Y-124827685D01*
X144396410Y-124696410D01*
X144527685Y-124536450D01*
X144625232Y-124353954D01*
X144685300Y-124155934D01*
X144705583Y-123950000D01*
X145134417Y-123950000D01*
X145154699Y-124155933D01*
X145214766Y-124353950D01*
X145312314Y-124536450D01*
X145312315Y-124536451D01*
X145443588Y-124696409D01*
X145443590Y-124696411D01*
X145603548Y-124827684D01*
X145603549Y-124827685D01*
X145689264Y-124873500D01*
X145786046Y-124925232D01*
X145984066Y-124985300D01*
X146190000Y-125005583D01*
X146395934Y-124985300D01*
X146593954Y-124925232D01*
X146776450Y-124827685D01*
X146936410Y-124696410D01*
X147067685Y-124536450D01*
X147165232Y-124353954D01*
X147225300Y-124155934D01*
X147245583Y-123950000D01*
X147674417Y-123950000D01*
X147694699Y-124155933D01*
X147754766Y-124353950D01*
X147852314Y-124536450D01*
X147852315Y-124536451D01*
X147983588Y-124696409D01*
X147983590Y-124696411D01*
X148143548Y-124827684D01*
X148143549Y-124827685D01*
X148229264Y-124873500D01*
X148326046Y-124925232D01*
X148524066Y-124985300D01*
X148730000Y-125005583D01*
X148935934Y-124985300D01*
X149133954Y-124925232D01*
X149316450Y-124827685D01*
X149476410Y-124696410D01*
X149607685Y-124536450D01*
X149705232Y-124353954D01*
X149765300Y-124155934D01*
X149785583Y-123950000D01*
X150214417Y-123950000D01*
X150234699Y-124155933D01*
X150294766Y-124353950D01*
X150392314Y-124536450D01*
X150392315Y-124536451D01*
X150523588Y-124696409D01*
X150523590Y-124696411D01*
X150683548Y-124827684D01*
X150683549Y-124827685D01*
X150769264Y-124873500D01*
X150866046Y-124925232D01*
X151064066Y-124985300D01*
X151270000Y-125005583D01*
X151475934Y-124985300D01*
X151673954Y-124925232D01*
X151856450Y-124827685D01*
X152016410Y-124696410D01*
X152147685Y-124536450D01*
X152245232Y-124353954D01*
X152305300Y-124155934D01*
X152325583Y-123950000D01*
X152754417Y-123950000D01*
X152774699Y-124155933D01*
X152834766Y-124353950D01*
X152932314Y-124536450D01*
X152932315Y-124536451D01*
X153063588Y-124696409D01*
X153063590Y-124696411D01*
X153223548Y-124827684D01*
X153223549Y-124827685D01*
X153309264Y-124873500D01*
X153406046Y-124925232D01*
X153604066Y-124985300D01*
X153810000Y-125005583D01*
X154015934Y-124985300D01*
X154213954Y-124925232D01*
X154396450Y-124827685D01*
X154556410Y-124696410D01*
X154687685Y-124536450D01*
X154785232Y-124353954D01*
X154845300Y-124155934D01*
X154865583Y-123950000D01*
X155294417Y-123950000D01*
X155314699Y-124155933D01*
X155374766Y-124353950D01*
X155472314Y-124536450D01*
X155472315Y-124536451D01*
X155603588Y-124696409D01*
X155603590Y-124696411D01*
X155763548Y-124827684D01*
X155763549Y-124827685D01*
X155849264Y-124873500D01*
X155946046Y-124925232D01*
X156144066Y-124985300D01*
X156350000Y-125005583D01*
X156555934Y-124985300D01*
X156753954Y-124925232D01*
X156936450Y-124827685D01*
X157096410Y-124696410D01*
X157227685Y-124536450D01*
X157325232Y-124353954D01*
X157385300Y-124155934D01*
X157405583Y-123950000D01*
X157834417Y-123950000D01*
X157854699Y-124155933D01*
X157914766Y-124353950D01*
X158012314Y-124536450D01*
X158012315Y-124536451D01*
X158143588Y-124696409D01*
X158143590Y-124696411D01*
X158303548Y-124827684D01*
X158303549Y-124827685D01*
X158389264Y-124873500D01*
X158486046Y-124925232D01*
X158684066Y-124985300D01*
X158890000Y-125005583D01*
X159095934Y-124985300D01*
X159293954Y-124925232D01*
X159476450Y-124827685D01*
X159636410Y-124696410D01*
X159767685Y-124536450D01*
X159865232Y-124353954D01*
X159925300Y-124155934D01*
X159945583Y-123950000D01*
X160374417Y-123950000D01*
X160394699Y-124155933D01*
X160454766Y-124353950D01*
X160552314Y-124536450D01*
X160552315Y-124536451D01*
X160683588Y-124696409D01*
X160683590Y-124696411D01*
X160843548Y-124827684D01*
X160843549Y-124827685D01*
X160929264Y-124873500D01*
X161026046Y-124925232D01*
X161224066Y-124985300D01*
X161430000Y-125005583D01*
X161635934Y-124985300D01*
X161833954Y-124925232D01*
X162016450Y-124827685D01*
X162176410Y-124696410D01*
X162307685Y-124536450D01*
X162405232Y-124353954D01*
X162465300Y-124155934D01*
X162485583Y-123950000D01*
X162914417Y-123950000D01*
X162934699Y-124155933D01*
X162994766Y-124353950D01*
X163092314Y-124536450D01*
X163092315Y-124536451D01*
X163223588Y-124696409D01*
X163223590Y-124696411D01*
X163383548Y-124827684D01*
X163383549Y-124827685D01*
X163469264Y-124873500D01*
X163566046Y-124925232D01*
X163764066Y-124985300D01*
X163970000Y-125005583D01*
X164175934Y-124985300D01*
X164373954Y-124925232D01*
X164556450Y-124827685D01*
X164716410Y-124696410D01*
X164847685Y-124536450D01*
X164945232Y-124353954D01*
X165005300Y-124155934D01*
X165025583Y-123950000D01*
X165454417Y-123950000D01*
X165474699Y-124155933D01*
X165534766Y-124353950D01*
X165632314Y-124536450D01*
X165632315Y-124536451D01*
X165763588Y-124696409D01*
X165763590Y-124696411D01*
X165923548Y-124827684D01*
X165923549Y-124827685D01*
X166009264Y-124873500D01*
X166106046Y-124925232D01*
X166304066Y-124985300D01*
X166510000Y-125005583D01*
X166715934Y-124985300D01*
X166913954Y-124925232D01*
X167096450Y-124827685D01*
X167256410Y-124696410D01*
X167387685Y-124536450D01*
X167485232Y-124353954D01*
X167545300Y-124155934D01*
X167565583Y-123950000D01*
X167994417Y-123950000D01*
X168014699Y-124155933D01*
X168074766Y-124353950D01*
X168172314Y-124536450D01*
X168172315Y-124536451D01*
X168303588Y-124696409D01*
X168303590Y-124696411D01*
X168463548Y-124827684D01*
X168463549Y-124827685D01*
X168549264Y-124873500D01*
X168646046Y-124925232D01*
X168844066Y-124985300D01*
X169050000Y-125005583D01*
X169255934Y-124985300D01*
X169453954Y-124925232D01*
X169636450Y-124827685D01*
X169796410Y-124696410D01*
X169927685Y-124536450D01*
X170025232Y-124353954D01*
X170085300Y-124155934D01*
X170105583Y-123950000D01*
X170085300Y-123744066D01*
X170025232Y-123546046D01*
X169973500Y-123449264D01*
X169927685Y-123363549D01*
X169927684Y-123363548D01*
X169796411Y-123203590D01*
X169796409Y-123203588D01*
X169636451Y-123072315D01*
X169636450Y-123072314D01*
X169453950Y-122974766D01*
X169255933Y-122914699D01*
X169050000Y-122894417D01*
X168844066Y-122914699D01*
X168646049Y-122974766D01*
X168463549Y-123072314D01*
X168463548Y-123072315D01*
X168303590Y-123203588D01*
X168303588Y-123203590D01*
X168172315Y-123363548D01*
X168172314Y-123363549D01*
X168074766Y-123546049D01*
X168014699Y-123744066D01*
X167994417Y-123950000D01*
X167565583Y-123950000D01*
X167545300Y-123744066D01*
X167485232Y-123546046D01*
X167433500Y-123449264D01*
X167387685Y-123363549D01*
X167387684Y-123363548D01*
X167256411Y-123203590D01*
X167256409Y-123203588D01*
X167096451Y-123072315D01*
X167096450Y-123072314D01*
X166913950Y-122974766D01*
X166715933Y-122914699D01*
X166510000Y-122894417D01*
X166304066Y-122914699D01*
X166106049Y-122974766D01*
X165923549Y-123072314D01*
X165923548Y-123072315D01*
X165763590Y-123203588D01*
X165763588Y-123203590D01*
X165632315Y-123363548D01*
X165632314Y-123363549D01*
X165534766Y-123546049D01*
X165474699Y-123744066D01*
X165454417Y-123950000D01*
X165025583Y-123950000D01*
X165005300Y-123744066D01*
X164945232Y-123546046D01*
X164893500Y-123449264D01*
X164847685Y-123363549D01*
X164847684Y-123363548D01*
X164716411Y-123203590D01*
X164716409Y-123203588D01*
X164556451Y-123072315D01*
X164556450Y-123072314D01*
X164373950Y-122974766D01*
X164175933Y-122914699D01*
X163970000Y-122894417D01*
X163764066Y-122914699D01*
X163566049Y-122974766D01*
X163383549Y-123072314D01*
X163383548Y-123072315D01*
X163223590Y-123203588D01*
X163223588Y-123203590D01*
X163092315Y-123363548D01*
X163092314Y-123363549D01*
X162994766Y-123546049D01*
X162934699Y-123744066D01*
X162914417Y-123950000D01*
X162485583Y-123950000D01*
X162465300Y-123744066D01*
X162405232Y-123546046D01*
X162353500Y-123449264D01*
X162307685Y-123363549D01*
X162307684Y-123363548D01*
X162176411Y-123203590D01*
X162176409Y-123203588D01*
X162016451Y-123072315D01*
X162016450Y-123072314D01*
X161833950Y-122974766D01*
X161635933Y-122914699D01*
X161430000Y-122894417D01*
X161224066Y-122914699D01*
X161026049Y-122974766D01*
X160843549Y-123072314D01*
X160843548Y-123072315D01*
X160683590Y-123203588D01*
X160683588Y-123203590D01*
X160552315Y-123363548D01*
X160552314Y-123363549D01*
X160454766Y-123546049D01*
X160394699Y-123744066D01*
X160374417Y-123950000D01*
X159945583Y-123950000D01*
X159925300Y-123744066D01*
X159865232Y-123546046D01*
X159813500Y-123449264D01*
X159767685Y-123363549D01*
X159767684Y-123363548D01*
X159636411Y-123203590D01*
X159636409Y-123203588D01*
X159476451Y-123072315D01*
X159476450Y-123072314D01*
X159293950Y-122974766D01*
X159095933Y-122914699D01*
X158890000Y-122894417D01*
X158684066Y-122914699D01*
X158486049Y-122974766D01*
X158303549Y-123072314D01*
X158303548Y-123072315D01*
X158143590Y-123203588D01*
X158143588Y-123203590D01*
X158012315Y-123363548D01*
X158012314Y-123363549D01*
X157914766Y-123546049D01*
X157854699Y-123744066D01*
X157834417Y-123950000D01*
X157405583Y-123950000D01*
X157385300Y-123744066D01*
X157325232Y-123546046D01*
X157273500Y-123449264D01*
X157227685Y-123363549D01*
X157227684Y-123363548D01*
X157096411Y-123203590D01*
X157096409Y-123203588D01*
X156936451Y-123072315D01*
X156936450Y-123072314D01*
X156753950Y-122974766D01*
X156555933Y-122914699D01*
X156350000Y-122894417D01*
X156144066Y-122914699D01*
X155946049Y-122974766D01*
X155763549Y-123072314D01*
X155763548Y-123072315D01*
X155603590Y-123203588D01*
X155603588Y-123203590D01*
X155472315Y-123363548D01*
X155472314Y-123363549D01*
X155374766Y-123546049D01*
X155314699Y-123744066D01*
X155294417Y-123950000D01*
X154865583Y-123950000D01*
X154845300Y-123744066D01*
X154785232Y-123546046D01*
X154733500Y-123449264D01*
X154687685Y-123363549D01*
X154687684Y-123363548D01*
X154556411Y-123203590D01*
X154556409Y-123203588D01*
X154396451Y-123072315D01*
X154396450Y-123072314D01*
X154213950Y-122974766D01*
X154015933Y-122914699D01*
X153810000Y-122894417D01*
X153604066Y-122914699D01*
X153406049Y-122974766D01*
X153223549Y-123072314D01*
X153223548Y-123072315D01*
X153063590Y-123203588D01*
X153063588Y-123203590D01*
X152932315Y-123363548D01*
X152932314Y-123363549D01*
X152834766Y-123546049D01*
X152774699Y-123744066D01*
X152754417Y-123950000D01*
X152325583Y-123950000D01*
X152305300Y-123744066D01*
X152245232Y-123546046D01*
X152193500Y-123449264D01*
X152147685Y-123363549D01*
X152147684Y-123363548D01*
X152016411Y-123203590D01*
X152016409Y-123203588D01*
X151856451Y-123072315D01*
X151856450Y-123072314D01*
X151673950Y-122974766D01*
X151475933Y-122914699D01*
X151270000Y-122894417D01*
X151064066Y-122914699D01*
X150866049Y-122974766D01*
X150683549Y-123072314D01*
X150683548Y-123072315D01*
X150523590Y-123203588D01*
X150523588Y-123203590D01*
X150392315Y-123363548D01*
X150392314Y-123363549D01*
X150294766Y-123546049D01*
X150234699Y-123744066D01*
X150214417Y-123950000D01*
X149785583Y-123950000D01*
X149765300Y-123744066D01*
X149705232Y-123546046D01*
X149653500Y-123449264D01*
X149607685Y-123363549D01*
X149607684Y-123363548D01*
X149476411Y-123203590D01*
X149476409Y-123203588D01*
X149316451Y-123072315D01*
X149316450Y-123072314D01*
X149133950Y-122974766D01*
X148935933Y-122914699D01*
X148730000Y-122894417D01*
X148524066Y-122914699D01*
X148326049Y-122974766D01*
X148143549Y-123072314D01*
X148143548Y-123072315D01*
X147983590Y-123203588D01*
X147983588Y-123203590D01*
X147852315Y-123363548D01*
X147852314Y-123363549D01*
X147754766Y-123546049D01*
X147694699Y-123744066D01*
X147674417Y-123950000D01*
X147245583Y-123950000D01*
X147225300Y-123744066D01*
X147165232Y-123546046D01*
X147113500Y-123449264D01*
X147067685Y-123363549D01*
X147067684Y-123363548D01*
X146936411Y-123203590D01*
X146936409Y-123203588D01*
X146776451Y-123072315D01*
X146776450Y-123072314D01*
X146593950Y-122974766D01*
X146395933Y-122914699D01*
X146190000Y-122894417D01*
X145984066Y-122914699D01*
X145786049Y-122974766D01*
X145603549Y-123072314D01*
X145603548Y-123072315D01*
X145443590Y-123203588D01*
X145443588Y-123203590D01*
X145312315Y-123363548D01*
X145312314Y-123363549D01*
X145214766Y-123546049D01*
X145154699Y-123744066D01*
X145134417Y-123950000D01*
X144705583Y-123950000D01*
X144685300Y-123744066D01*
X144625232Y-123546046D01*
X144573500Y-123449264D01*
X144527685Y-123363549D01*
X144527684Y-123363548D01*
X144396411Y-123203590D01*
X144396409Y-123203588D01*
X144236451Y-123072315D01*
X144236450Y-123072314D01*
X144053950Y-122974766D01*
X143855933Y-122914699D01*
X143650000Y-122894417D01*
X143444066Y-122914699D01*
X143246049Y-122974766D01*
X143063549Y-123072314D01*
X143063548Y-123072315D01*
X142903590Y-123203588D01*
X142903588Y-123203590D01*
X142772315Y-123363548D01*
X142772314Y-123363549D01*
X142674766Y-123546049D01*
X142614699Y-123744066D01*
X142594417Y-123950000D01*
X142165583Y-123950000D01*
X142145300Y-123744066D01*
X142085232Y-123546046D01*
X142033500Y-123449264D01*
X141987685Y-123363549D01*
X141987684Y-123363548D01*
X141856411Y-123203590D01*
X141856409Y-123203588D01*
X141696451Y-123072315D01*
X141696450Y-123072314D01*
X141513950Y-122974766D01*
X141315933Y-122914699D01*
X141110000Y-122894417D01*
X140904066Y-122914699D01*
X140706049Y-122974766D01*
X140523549Y-123072314D01*
X140523548Y-123072315D01*
X140363590Y-123203588D01*
X140363588Y-123203590D01*
X140232315Y-123363548D01*
X140232314Y-123363549D01*
X140134766Y-123546049D01*
X140074699Y-123744066D01*
X140054417Y-123950000D01*
X139625583Y-123950000D01*
X139605300Y-123744066D01*
X139545232Y-123546046D01*
X139493500Y-123449264D01*
X139447685Y-123363549D01*
X139447684Y-123363548D01*
X139316411Y-123203590D01*
X139316409Y-123203588D01*
X139156451Y-123072315D01*
X139156450Y-123072314D01*
X138973950Y-122974766D01*
X138775933Y-122914699D01*
X138570000Y-122894417D01*
X138364066Y-122914699D01*
X138166049Y-122974766D01*
X137983549Y-123072314D01*
X137983548Y-123072315D01*
X137823590Y-123203588D01*
X137823588Y-123203590D01*
X137692315Y-123363548D01*
X137692314Y-123363549D01*
X137594766Y-123546049D01*
X137534699Y-123744066D01*
X137514417Y-123950000D01*
X137085583Y-123950000D01*
X137065300Y-123744066D01*
X137005232Y-123546046D01*
X136953500Y-123449264D01*
X136907685Y-123363549D01*
X136907684Y-123363548D01*
X136776411Y-123203590D01*
X136776409Y-123203588D01*
X136616451Y-123072315D01*
X136616450Y-123072314D01*
X136433950Y-122974766D01*
X136235933Y-122914699D01*
X136030000Y-122894417D01*
X135824066Y-122914699D01*
X135626049Y-122974766D01*
X135443549Y-123072314D01*
X135443548Y-123072315D01*
X135283590Y-123203588D01*
X135283588Y-123203590D01*
X135152315Y-123363548D01*
X135152314Y-123363549D01*
X135054766Y-123546049D01*
X134994699Y-123744066D01*
X134974417Y-123950000D01*
X134545583Y-123950000D01*
X134525300Y-123744066D01*
X134465232Y-123546046D01*
X134413500Y-123449264D01*
X134367685Y-123363549D01*
X134367684Y-123363548D01*
X134236411Y-123203590D01*
X134236409Y-123203588D01*
X134076451Y-123072315D01*
X134076450Y-123072314D01*
X133893950Y-122974766D01*
X133695933Y-122914699D01*
X133490000Y-122894417D01*
X133284066Y-122914699D01*
X133086049Y-122974766D01*
X132903549Y-123072314D01*
X132903548Y-123072315D01*
X132743590Y-123203588D01*
X132743588Y-123203590D01*
X132612315Y-123363548D01*
X132612314Y-123363549D01*
X132514766Y-123546049D01*
X132454699Y-123744066D01*
X132434417Y-123950000D01*
X132000500Y-123950000D01*
X132000500Y-123080249D01*
X132000499Y-123080248D01*
X131988868Y-123021775D01*
X131988867Y-123021769D01*
X131944552Y-122955448D01*
X131878231Y-122911133D01*
X131878228Y-122911132D01*
X131878224Y-122911131D01*
X131819751Y-122899500D01*
X131819748Y-122899500D01*
X130080252Y-122899500D01*
X130080249Y-122899500D01*
X130021775Y-122911131D01*
X130021769Y-122911133D01*
X129955448Y-122955448D01*
X129911133Y-123021769D01*
X129911131Y-123021775D01*
X129899500Y-123080248D01*
X118500500Y-123080248D01*
X118500500Y-120899999D01*
X145894347Y-120899999D01*
X145894347Y-120900000D01*
X145914829Y-121042457D01*
X145914830Y-121042461D01*
X145974616Y-121173371D01*
X145974616Y-121173372D01*
X145974617Y-121173373D01*
X146068866Y-121282143D01*
X146189941Y-121359953D01*
X146328033Y-121400500D01*
X146471955Y-121400500D01*
X146610047Y-121359953D01*
X146731122Y-121282143D01*
X146753516Y-121256297D01*
X146795607Y-121235228D01*
X146840268Y-121250092D01*
X146846469Y-121256292D01*
X146868869Y-121282143D01*
X146989944Y-121359953D01*
X147128036Y-121400500D01*
X147271958Y-121400500D01*
X147410050Y-121359953D01*
X147531125Y-121282143D01*
X147553519Y-121256297D01*
X147595610Y-121235228D01*
X147640271Y-121250092D01*
X147646472Y-121256292D01*
X147668872Y-121282143D01*
X147789947Y-121359953D01*
X147928039Y-121400500D01*
X148071961Y-121400500D01*
X148210053Y-121359953D01*
X148331128Y-121282143D01*
X148353519Y-121256301D01*
X148395609Y-121235232D01*
X148440271Y-121250095D01*
X148446476Y-121256301D01*
X148468866Y-121282140D01*
X148468869Y-121282143D01*
X148589944Y-121359953D01*
X148728036Y-121400500D01*
X148871958Y-121400500D01*
X149010050Y-121359953D01*
X149131125Y-121282143D01*
X149153519Y-121256297D01*
X149195610Y-121235228D01*
X149240271Y-121250092D01*
X149246472Y-121256292D01*
X149268872Y-121282143D01*
X149389947Y-121359953D01*
X149528039Y-121400500D01*
X149671961Y-121400500D01*
X149810053Y-121359953D01*
X149931128Y-121282143D01*
X149953521Y-121256298D01*
X149995612Y-121235230D01*
X150040274Y-121250094D01*
X150046474Y-121256294D01*
X150068872Y-121282143D01*
X150189947Y-121359953D01*
X150328039Y-121400500D01*
X150471961Y-121400500D01*
X150610053Y-121359953D01*
X150731128Y-121282143D01*
X150753521Y-121256298D01*
X150795612Y-121235230D01*
X150840274Y-121250094D01*
X150846474Y-121256294D01*
X150868872Y-121282143D01*
X150989947Y-121359953D01*
X151128039Y-121400500D01*
X151271961Y-121400500D01*
X151410053Y-121359953D01*
X151531128Y-121282143D01*
X151553522Y-121256297D01*
X151595613Y-121235228D01*
X151640274Y-121250092D01*
X151646475Y-121256292D01*
X151668875Y-121282143D01*
X151789950Y-121359953D01*
X151928042Y-121400500D01*
X152071964Y-121400500D01*
X152210056Y-121359953D01*
X152331131Y-121282143D01*
X152353525Y-121256297D01*
X152395616Y-121235228D01*
X152440277Y-121250092D01*
X152446478Y-121256292D01*
X152468878Y-121282143D01*
X152589953Y-121359953D01*
X152728045Y-121400500D01*
X152801535Y-121400500D01*
X152845022Y-121418513D01*
X153111020Y-121684511D01*
X153166969Y-121740460D01*
X153235491Y-121780021D01*
X153235495Y-121780022D01*
X153311916Y-121800500D01*
X153311918Y-121800500D01*
X153888101Y-121800500D01*
X153921795Y-121791471D01*
X153964527Y-121780021D01*
X154033049Y-121740460D01*
X154088998Y-121684511D01*
X156920361Y-118853148D01*
X156921126Y-118851821D01*
X156939512Y-118819979D01*
X156948509Y-118804392D01*
X156959922Y-118784626D01*
X156967868Y-118754969D01*
X156980401Y-118708201D01*
X156980401Y-118147003D01*
X156998414Y-118103516D01*
X157101931Y-117999999D01*
X159494353Y-117999999D01*
X159494353Y-118000000D01*
X159514835Y-118142457D01*
X159514836Y-118142461D01*
X159574622Y-118273371D01*
X159574622Y-118273372D01*
X159574623Y-118273373D01*
X159668872Y-118382143D01*
X159789947Y-118459953D01*
X159928039Y-118500500D01*
X160071961Y-118500500D01*
X160210053Y-118459953D01*
X160331128Y-118382143D01*
X160425377Y-118273373D01*
X160485165Y-118142457D01*
X160505647Y-118000000D01*
X160485165Y-117857543D01*
X160471046Y-117826628D01*
X160425377Y-117726628D01*
X160425377Y-117726627D01*
X160417775Y-117717854D01*
X160331128Y-117617857D01*
X160331125Y-117617855D01*
X160331124Y-117617854D01*
X160210055Y-117540048D01*
X160210048Y-117540045D01*
X160121076Y-117513921D01*
X160071961Y-117499500D01*
X159928039Y-117499500D01*
X159789951Y-117540045D01*
X159789944Y-117540048D01*
X159668875Y-117617854D01*
X159668874Y-117617855D01*
X159574622Y-117726627D01*
X159574622Y-117726628D01*
X159514836Y-117857538D01*
X159514835Y-117857542D01*
X159494353Y-117999999D01*
X157101931Y-117999999D01*
X163851931Y-111249999D01*
X172494353Y-111249999D01*
X172494353Y-111250000D01*
X172514835Y-111392457D01*
X172514836Y-111392461D01*
X172574622Y-111523371D01*
X172574622Y-111523372D01*
X172574623Y-111523373D01*
X172668872Y-111632143D01*
X172789947Y-111709953D01*
X172928039Y-111750500D01*
X173071961Y-111750500D01*
X173210053Y-111709953D01*
X173331128Y-111632143D01*
X173425377Y-111523373D01*
X173485165Y-111392457D01*
X173505647Y-111250000D01*
X173485165Y-111107543D01*
X173425377Y-110976627D01*
X173331128Y-110867857D01*
X173331125Y-110867855D01*
X173331124Y-110867854D01*
X173210055Y-110790048D01*
X173210048Y-110790045D01*
X173121076Y-110763921D01*
X173071961Y-110749500D01*
X172928039Y-110749500D01*
X172789951Y-110790045D01*
X172789944Y-110790048D01*
X172668875Y-110867854D01*
X172668874Y-110867855D01*
X172574622Y-110976627D01*
X172574622Y-110976628D01*
X172514836Y-111107538D01*
X172514835Y-111107542D01*
X172494353Y-111249999D01*
X163851931Y-111249999D01*
X164714103Y-110387827D01*
X172740460Y-102361470D01*
X172780022Y-102292947D01*
X172800499Y-102216523D01*
X172800500Y-102216523D01*
X172800500Y-99507067D01*
X172780022Y-99430647D01*
X172780021Y-99430643D01*
X172740460Y-99362121D01*
X172684511Y-99306172D01*
X172128338Y-98749999D01*
X174244353Y-98749999D01*
X174244353Y-98750000D01*
X174264835Y-98892457D01*
X174264836Y-98892461D01*
X174324622Y-99023371D01*
X174324622Y-99023372D01*
X174324623Y-99023373D01*
X174418872Y-99132143D01*
X174539947Y-99209953D01*
X174678039Y-99250500D01*
X174821961Y-99250500D01*
X174960053Y-99209953D01*
X175081128Y-99132143D01*
X175175377Y-99023373D01*
X175235165Y-98892457D01*
X175255647Y-98750000D01*
X175235165Y-98607543D01*
X175175377Y-98476627D01*
X175081128Y-98367857D01*
X175081125Y-98367855D01*
X175081124Y-98367854D01*
X174960055Y-98290048D01*
X174960048Y-98290045D01*
X174871076Y-98263921D01*
X174821961Y-98249500D01*
X174678039Y-98249500D01*
X174539951Y-98290045D01*
X174539944Y-98290048D01*
X174418875Y-98367854D01*
X174418874Y-98367855D01*
X174324622Y-98476627D01*
X174324622Y-98476628D01*
X174264836Y-98607538D01*
X174264835Y-98607542D01*
X174244353Y-98749999D01*
X172128338Y-98749999D01*
X171868513Y-98490174D01*
X171850500Y-98446687D01*
X171850500Y-92673945D01*
X171868513Y-92630458D01*
X171912000Y-92612445D01*
X171955487Y-92630458D01*
X172232726Y-92907697D01*
X172250739Y-92951184D01*
X172250113Y-92959936D01*
X172244353Y-92999999D01*
X172244353Y-93000000D01*
X172264835Y-93142457D01*
X172264836Y-93142461D01*
X172324622Y-93273371D01*
X172324622Y-93273372D01*
X172324623Y-93273373D01*
X172418872Y-93382143D01*
X172539947Y-93459953D01*
X172678039Y-93500500D01*
X172821961Y-93500500D01*
X172960053Y-93459953D01*
X173081128Y-93382143D01*
X173175377Y-93273373D01*
X173235165Y-93142457D01*
X173255647Y-93000000D01*
X173235165Y-92857543D01*
X173175377Y-92726627D01*
X173081128Y-92617857D01*
X173081125Y-92617855D01*
X173081124Y-92617854D01*
X172978243Y-92551737D01*
X172951398Y-92513073D01*
X172959755Y-92466751D01*
X172978243Y-92448263D01*
X173081128Y-92382143D01*
X173175377Y-92273373D01*
X173235165Y-92142457D01*
X173255647Y-92000000D01*
X173249886Y-91959935D01*
X173261526Y-91914328D01*
X173267266Y-91907703D01*
X176174972Y-88999999D01*
X178244353Y-88999999D01*
X178244353Y-89000000D01*
X178264835Y-89142457D01*
X178264836Y-89142461D01*
X178324622Y-89273371D01*
X178324622Y-89273372D01*
X178324623Y-89273373D01*
X178418872Y-89382143D01*
X178539947Y-89459953D01*
X178678039Y-89500500D01*
X178821961Y-89500500D01*
X178960053Y-89459953D01*
X179081128Y-89382143D01*
X179175377Y-89273373D01*
X179235165Y-89142457D01*
X179255647Y-89000000D01*
X179235165Y-88857543D01*
X179224631Y-88834478D01*
X179196725Y-88773372D01*
X179175377Y-88726627D01*
X179081128Y-88617857D01*
X179081125Y-88617855D01*
X179081124Y-88617854D01*
X178960055Y-88540048D01*
X178960048Y-88540045D01*
X178871076Y-88513921D01*
X178821961Y-88499500D01*
X178678039Y-88499500D01*
X178539951Y-88540045D01*
X178539944Y-88540048D01*
X178418875Y-88617854D01*
X178418874Y-88617855D01*
X178418872Y-88617856D01*
X178418872Y-88617857D01*
X178399011Y-88640777D01*
X178324622Y-88726627D01*
X178324622Y-88726628D01*
X178264836Y-88857538D01*
X178264835Y-88857542D01*
X178244353Y-88999999D01*
X176174972Y-88999999D01*
X176857617Y-88317354D01*
X176873127Y-88290489D01*
X176897178Y-88248832D01*
X176909498Y-88202856D01*
X176917657Y-88172407D01*
X176917657Y-82249999D01*
X178244353Y-82249999D01*
X178244353Y-82250000D01*
X178264835Y-82392457D01*
X178264836Y-82392461D01*
X178324622Y-82523371D01*
X178324622Y-82523372D01*
X178324623Y-82523373D01*
X178418872Y-82632143D01*
X178539947Y-82709953D01*
X178678039Y-82750500D01*
X178821961Y-82750500D01*
X178960053Y-82709953D01*
X179081128Y-82632143D01*
X179175377Y-82523373D01*
X179235165Y-82392457D01*
X179255647Y-82250000D01*
X179235165Y-82107543D01*
X179175377Y-81976627D01*
X179081128Y-81867857D01*
X179081125Y-81867855D01*
X179081124Y-81867854D01*
X178960055Y-81790048D01*
X178960048Y-81790045D01*
X178871076Y-81763921D01*
X178821961Y-81749500D01*
X178678039Y-81749500D01*
X178539951Y-81790045D01*
X178539944Y-81790048D01*
X178418875Y-81867854D01*
X178418874Y-81867855D01*
X178324622Y-81976627D01*
X178324622Y-81976628D01*
X178264836Y-82107538D01*
X178264835Y-82107542D01*
X178244353Y-82249999D01*
X176917657Y-82249999D01*
X176917657Y-76577592D01*
X176897179Y-76501172D01*
X176897178Y-76501168D01*
X176857617Y-76432646D01*
X176801668Y-76376697D01*
X172067354Y-71642383D01*
X171998832Y-71602822D01*
X171998829Y-71602821D01*
X171998827Y-71602820D01*
X171922407Y-71582343D01*
X171922405Y-71582343D01*
X157967595Y-71582343D01*
X157967593Y-71582343D01*
X157891172Y-71602820D01*
X157891168Y-71602822D01*
X157822647Y-71642382D01*
X157822642Y-71642386D01*
X156796549Y-72668478D01*
X156753062Y-72686491D01*
X156724073Y-72679229D01*
X156668954Y-72649768D01*
X156668953Y-72649767D01*
X156668950Y-72649766D01*
X156470933Y-72589699D01*
X156265000Y-72569417D01*
X156059066Y-72589699D01*
X155861049Y-72649766D01*
X155678549Y-72747314D01*
X155678548Y-72747315D01*
X155518590Y-72878588D01*
X155518588Y-72878590D01*
X155387315Y-73038548D01*
X155387314Y-73038549D01*
X155289766Y-73221049D01*
X155229699Y-73419066D01*
X155209417Y-73625000D01*
X155229699Y-73830933D01*
X155289766Y-74028950D01*
X155387314Y-74211450D01*
X155387315Y-74211451D01*
X155518588Y-74371409D01*
X155518590Y-74371411D01*
X155678548Y-74502684D01*
X155678549Y-74502685D01*
X155718004Y-74523774D01*
X155861046Y-74600232D01*
X156059066Y-74660300D01*
X156265000Y-74680583D01*
X156470934Y-74660300D01*
X156668954Y-74600232D01*
X156851450Y-74502685D01*
X157011410Y-74371410D01*
X157142685Y-74211450D01*
X157240232Y-74028954D01*
X157300300Y-73830934D01*
X157320583Y-73625000D01*
X157300300Y-73419066D01*
X157240232Y-73221046D01*
X157220192Y-73183553D01*
X157210770Y-73165925D01*
X157206156Y-73119082D01*
X157221519Y-73093450D01*
X158113615Y-72201356D01*
X158157102Y-72183343D01*
X159673212Y-72183343D01*
X159716699Y-72201356D01*
X159734712Y-72244843D01*
X159716699Y-72288330D01*
X159336549Y-72668478D01*
X159293062Y-72686491D01*
X159264073Y-72679229D01*
X159208954Y-72649768D01*
X159208953Y-72649767D01*
X159208950Y-72649766D01*
X159010933Y-72589699D01*
X158805000Y-72569417D01*
X158599066Y-72589699D01*
X158401049Y-72649766D01*
X158218549Y-72747314D01*
X158218548Y-72747315D01*
X158058590Y-72878588D01*
X158058588Y-72878590D01*
X157927315Y-73038548D01*
X157927314Y-73038549D01*
X157829766Y-73221049D01*
X157769699Y-73419066D01*
X157749417Y-73625000D01*
X157769699Y-73830933D01*
X157829766Y-74028950D01*
X157927314Y-74211450D01*
X157927315Y-74211451D01*
X158058588Y-74371409D01*
X158058590Y-74371411D01*
X158218548Y-74502684D01*
X158218549Y-74502685D01*
X158258004Y-74523774D01*
X158401046Y-74600232D01*
X158599066Y-74660300D01*
X158805000Y-74680583D01*
X159010934Y-74660300D01*
X159208954Y-74600232D01*
X159391450Y-74502685D01*
X159551410Y-74371410D01*
X159682685Y-74211450D01*
X159780232Y-74028954D01*
X159840300Y-73830934D01*
X159860583Y-73625000D01*
X159840300Y-73419066D01*
X159780232Y-73221046D01*
X159760192Y-73183553D01*
X159750770Y-73165925D01*
X159746156Y-73119082D01*
X159761519Y-73093450D01*
X160253615Y-72601356D01*
X160297102Y-72583343D01*
X163262943Y-72583343D01*
X163306430Y-72601356D01*
X163324443Y-72644843D01*
X163310660Y-72678116D01*
X163313245Y-72679844D01*
X163282250Y-72726228D01*
X163275000Y-72762681D01*
X163275000Y-73562500D01*
X163750000Y-73562500D01*
X163750000Y-73687500D01*
X163275001Y-73687500D01*
X163275001Y-74487310D01*
X163282252Y-74523774D01*
X163309879Y-74565119D01*
X163309880Y-74565120D01*
X163351228Y-74592749D01*
X163387683Y-74599999D01*
X164187500Y-74599999D01*
X164187500Y-74125000D01*
X164312500Y-74125000D01*
X164312500Y-74599999D01*
X165112311Y-74599999D01*
X165148774Y-74592747D01*
X165190119Y-74565120D01*
X165190120Y-74565119D01*
X165217749Y-74523771D01*
X165224999Y-74487318D01*
X165225000Y-74487314D01*
X165225000Y-73687500D01*
X164750000Y-73687500D01*
X164750000Y-73562500D01*
X165224999Y-73562500D01*
X165224999Y-72762689D01*
X165217747Y-72726225D01*
X165186755Y-72679844D01*
X165189339Y-72678116D01*
X165175557Y-72644843D01*
X165193570Y-72601356D01*
X165237057Y-72583343D01*
X166264798Y-72583343D01*
X166308285Y-72601356D01*
X166326298Y-72644843D01*
X166308285Y-72688330D01*
X166293789Y-72699081D01*
X166203549Y-72747314D01*
X166203548Y-72747315D01*
X166043590Y-72878588D01*
X166043588Y-72878590D01*
X165912315Y-73038548D01*
X165912314Y-73038549D01*
X165814766Y-73221049D01*
X165754699Y-73419066D01*
X165734417Y-73625000D01*
X165754699Y-73830933D01*
X165814766Y-74028950D01*
X165814767Y-74028953D01*
X165814768Y-74028954D01*
X165844229Y-74084072D01*
X165848843Y-74130915D01*
X165833478Y-74156549D01*
X165315489Y-74674540D01*
X165259543Y-74730485D01*
X165259539Y-74730490D01*
X165219979Y-74799011D01*
X165219977Y-74799015D01*
X165199500Y-74875435D01*
X165199500Y-85485200D01*
X165181487Y-85528687D01*
X165138000Y-85546700D01*
X165112450Y-85541142D01*
X165110049Y-85540045D01*
X165008190Y-85510137D01*
X164971961Y-85499500D01*
X164828039Y-85499500D01*
X164689951Y-85540045D01*
X164689944Y-85540048D01*
X164568875Y-85617854D01*
X164568874Y-85617855D01*
X164474622Y-85726627D01*
X164474622Y-85726628D01*
X164414836Y-85857538D01*
X164414835Y-85857542D01*
X164394353Y-85999999D01*
X164394353Y-86000000D01*
X164414835Y-86142457D01*
X164414836Y-86142461D01*
X164474622Y-86273371D01*
X164474622Y-86273372D01*
X164474623Y-86273373D01*
X164568872Y-86382143D01*
X164689947Y-86459953D01*
X164828039Y-86500500D01*
X164971961Y-86500500D01*
X165110053Y-86459953D01*
X165110054Y-86459951D01*
X165112443Y-86458861D01*
X165113958Y-86458806D01*
X165114274Y-86458714D01*
X165114297Y-86458794D01*
X165159483Y-86457173D01*
X165193938Y-86489242D01*
X165199500Y-86514799D01*
X165199500Y-91814591D01*
X165181487Y-91858078D01*
X165171255Y-91866325D01*
X165168874Y-91867855D01*
X165074622Y-91976627D01*
X165074622Y-91976628D01*
X165014836Y-92107538D01*
X165014835Y-92107542D01*
X164994353Y-92249999D01*
X164994353Y-92250000D01*
X165014835Y-92392457D01*
X165014836Y-92392461D01*
X165074622Y-92523371D01*
X165074622Y-92523372D01*
X165074623Y-92523373D01*
X165168872Y-92632143D01*
X165289947Y-92709953D01*
X165428039Y-92750500D01*
X165571961Y-92750500D01*
X165710053Y-92709953D01*
X165831128Y-92632143D01*
X165925377Y-92523373D01*
X165985165Y-92392457D01*
X166005647Y-92250000D01*
X165985165Y-92107543D01*
X165925377Y-91976627D01*
X165831128Y-91867857D01*
X165831125Y-91867855D01*
X165831126Y-91867855D01*
X165828745Y-91866325D01*
X165827816Y-91864987D01*
X165827802Y-91864975D01*
X165827805Y-91864971D01*
X165801904Y-91827657D01*
X165800500Y-91814591D01*
X165800500Y-83499999D01*
X166744353Y-83499999D01*
X166744353Y-83500000D01*
X166764835Y-83642457D01*
X166764836Y-83642461D01*
X166824622Y-83773371D01*
X166824622Y-83773372D01*
X166824623Y-83773373D01*
X166918872Y-83882143D01*
X167039947Y-83959953D01*
X167178039Y-84000500D01*
X167321961Y-84000500D01*
X167460053Y-83959953D01*
X167581128Y-83882143D01*
X167675377Y-83773373D01*
X167735165Y-83642457D01*
X167755647Y-83500000D01*
X167755647Y-83499999D01*
X174494353Y-83499999D01*
X174494353Y-83500000D01*
X174514835Y-83642457D01*
X174514836Y-83642461D01*
X174574622Y-83773371D01*
X174574622Y-83773372D01*
X174574623Y-83773373D01*
X174668872Y-83882143D01*
X174789947Y-83959953D01*
X174928039Y-84000500D01*
X175071961Y-84000500D01*
X175210053Y-83959953D01*
X175331128Y-83882143D01*
X175425377Y-83773373D01*
X175485165Y-83642457D01*
X175505647Y-83500000D01*
X175485165Y-83357543D01*
X175425377Y-83226627D01*
X175331128Y-83117857D01*
X175331125Y-83117855D01*
X175331124Y-83117854D01*
X175210055Y-83040048D01*
X175210048Y-83040045D01*
X175121076Y-83013921D01*
X175071961Y-82999500D01*
X174928039Y-82999500D01*
X174789951Y-83040045D01*
X174789944Y-83040048D01*
X174668875Y-83117854D01*
X174668874Y-83117855D01*
X174574622Y-83226627D01*
X174574622Y-83226628D01*
X174514836Y-83357538D01*
X174514835Y-83357542D01*
X174494353Y-83499999D01*
X167755647Y-83499999D01*
X167735165Y-83357543D01*
X167675377Y-83226627D01*
X167581128Y-83117857D01*
X167581125Y-83117855D01*
X167581124Y-83117854D01*
X167460055Y-83040048D01*
X167460048Y-83040045D01*
X167371076Y-83013921D01*
X167321961Y-82999500D01*
X167178039Y-82999500D01*
X167039951Y-83040045D01*
X167039944Y-83040048D01*
X166918875Y-83117854D01*
X166918874Y-83117855D01*
X166824622Y-83226627D01*
X166824622Y-83226628D01*
X166764836Y-83357538D01*
X166764835Y-83357542D01*
X166744353Y-83499999D01*
X165800500Y-83499999D01*
X165800500Y-79880248D01*
X167909500Y-79880248D01*
X167909500Y-81619751D01*
X167921131Y-81678224D01*
X167921132Y-81678228D01*
X167921133Y-81678231D01*
X167965448Y-81744552D01*
X168031769Y-81788867D01*
X168090248Y-81800499D01*
X168090249Y-81800500D01*
X168090252Y-81800500D01*
X169829751Y-81800500D01*
X169829751Y-81800499D01*
X169888231Y-81788867D01*
X169954552Y-81744552D01*
X169998867Y-81678231D01*
X170010499Y-81619751D01*
X170010500Y-81619751D01*
X170010500Y-80750000D01*
X170444417Y-80750000D01*
X170464699Y-80955933D01*
X170524766Y-81153950D01*
X170622314Y-81336450D01*
X170622315Y-81336451D01*
X170753588Y-81496409D01*
X170753590Y-81496411D01*
X170913548Y-81627684D01*
X170913549Y-81627685D01*
X170999264Y-81673500D01*
X171096046Y-81725232D01*
X171096048Y-81725232D01*
X171096049Y-81725233D01*
X171294066Y-81785300D01*
X171500000Y-81805583D01*
X171705934Y-81785300D01*
X171903954Y-81725232D01*
X172086450Y-81627685D01*
X172246410Y-81496410D01*
X172377685Y-81336450D01*
X172475232Y-81153954D01*
X172535300Y-80955934D01*
X172555583Y-80750000D01*
X172984417Y-80750000D01*
X173004699Y-80955933D01*
X173064766Y-81153950D01*
X173162314Y-81336450D01*
X173162315Y-81336451D01*
X173293588Y-81496409D01*
X173293590Y-81496411D01*
X173453548Y-81627684D01*
X173453549Y-81627685D01*
X173539264Y-81673500D01*
X173636046Y-81725232D01*
X173636048Y-81725232D01*
X173636049Y-81725233D01*
X173834066Y-81785300D01*
X174040000Y-81805583D01*
X174245934Y-81785300D01*
X174443954Y-81725232D01*
X174626450Y-81627685D01*
X174786410Y-81496410D01*
X174917685Y-81336450D01*
X175015232Y-81153954D01*
X175075300Y-80955934D01*
X175095583Y-80750000D01*
X175075300Y-80544066D01*
X175015232Y-80346046D01*
X174963500Y-80249264D01*
X174917685Y-80163549D01*
X174917684Y-80163548D01*
X174786411Y-80003590D01*
X174786409Y-80003588D01*
X174626451Y-79872315D01*
X174626450Y-79872314D01*
X174443950Y-79774766D01*
X174245933Y-79714699D01*
X174040000Y-79694417D01*
X173834066Y-79714699D01*
X173636049Y-79774766D01*
X173453549Y-79872314D01*
X173453548Y-79872315D01*
X173293590Y-80003588D01*
X173293588Y-80003590D01*
X173162315Y-80163548D01*
X173162314Y-80163549D01*
X173064766Y-80346049D01*
X173004699Y-80544066D01*
X172984417Y-80750000D01*
X172555583Y-80750000D01*
X172535300Y-80544066D01*
X172475232Y-80346046D01*
X172423500Y-80249264D01*
X172377685Y-80163549D01*
X172377684Y-80163548D01*
X172246411Y-80003590D01*
X172246409Y-80003588D01*
X172086451Y-79872315D01*
X172086450Y-79872314D01*
X171903950Y-79774766D01*
X171705933Y-79714699D01*
X171500000Y-79694417D01*
X171294066Y-79714699D01*
X171096049Y-79774766D01*
X170913549Y-79872314D01*
X170913548Y-79872315D01*
X170753590Y-80003588D01*
X170753588Y-80003590D01*
X170622315Y-80163548D01*
X170622314Y-80163549D01*
X170524766Y-80346049D01*
X170464699Y-80544066D01*
X170444417Y-80750000D01*
X170010500Y-80750000D01*
X170010500Y-79880249D01*
X170010499Y-79880248D01*
X169998868Y-79821775D01*
X169998867Y-79821769D01*
X169954552Y-79755448D01*
X169888231Y-79711133D01*
X169888228Y-79711132D01*
X169888224Y-79711131D01*
X169829751Y-79699500D01*
X169829748Y-79699500D01*
X168090252Y-79699500D01*
X168090249Y-79699500D01*
X168031775Y-79711131D01*
X168031769Y-79711133D01*
X167965448Y-79755448D01*
X167921133Y-79821769D01*
X167921131Y-79821775D01*
X167909500Y-79880248D01*
X165800500Y-79880248D01*
X165800500Y-76249999D01*
X169244353Y-76249999D01*
X169244353Y-76250000D01*
X169264835Y-76392457D01*
X169264836Y-76392461D01*
X169324622Y-76523371D01*
X169324622Y-76523372D01*
X169324623Y-76523373D01*
X169418872Y-76632143D01*
X169539947Y-76709953D01*
X169678039Y-76750500D01*
X169821961Y-76750500D01*
X169960053Y-76709953D01*
X170081128Y-76632143D01*
X170175377Y-76523373D01*
X170235165Y-76392457D01*
X170255647Y-76250000D01*
X170235165Y-76107543D01*
X170175377Y-75976627D01*
X170081128Y-75867857D01*
X170081125Y-75867855D01*
X170081124Y-75867854D01*
X169960055Y-75790048D01*
X169960048Y-75790045D01*
X169871076Y-75763921D01*
X169821961Y-75749500D01*
X169678039Y-75749500D01*
X169539951Y-75790045D01*
X169539944Y-75790048D01*
X169418875Y-75867854D01*
X169418874Y-75867855D01*
X169324622Y-75976627D01*
X169324622Y-75976628D01*
X169264836Y-76107538D01*
X169264835Y-76107542D01*
X169244353Y-76249999D01*
X165800500Y-76249999D01*
X165800500Y-75064944D01*
X165818512Y-75021458D01*
X166258449Y-74581520D01*
X166301935Y-74563508D01*
X166330925Y-74570770D01*
X166372046Y-74592749D01*
X166386046Y-74600232D01*
X166584066Y-74660300D01*
X166790000Y-74680583D01*
X166995934Y-74660300D01*
X167193954Y-74600232D01*
X167376450Y-74502685D01*
X167536410Y-74371410D01*
X167667685Y-74211450D01*
X167765232Y-74028954D01*
X167825300Y-73830934D01*
X167845583Y-73625000D01*
X167825300Y-73419066D01*
X167765232Y-73221046D01*
X167697029Y-73093448D01*
X167667685Y-73038549D01*
X167667684Y-73038548D01*
X167536411Y-72878590D01*
X167536409Y-72878588D01*
X167376451Y-72747315D01*
X167376450Y-72747314D01*
X167286211Y-72699081D01*
X167256350Y-72662696D01*
X167260964Y-72615852D01*
X167297349Y-72585991D01*
X167315202Y-72583343D01*
X171567212Y-72583343D01*
X171610699Y-72601356D01*
X175898644Y-76889301D01*
X175916657Y-76932788D01*
X175916657Y-87817211D01*
X175898644Y-87860698D01*
X175592987Y-88166354D01*
X175549500Y-88184367D01*
X175506013Y-88166354D01*
X175488626Y-88131618D01*
X175486647Y-88117855D01*
X175485165Y-88107543D01*
X175425377Y-87976627D01*
X175331128Y-87867857D01*
X175331125Y-87867855D01*
X175331124Y-87867854D01*
X175210055Y-87790048D01*
X175210048Y-87790045D01*
X175121076Y-87763921D01*
X175071961Y-87749500D01*
X174928039Y-87749500D01*
X174789951Y-87790045D01*
X174789944Y-87790048D01*
X174668875Y-87867854D01*
X174668874Y-87867855D01*
X174574622Y-87976627D01*
X174574622Y-87976628D01*
X174514836Y-88107538D01*
X174514835Y-88107542D01*
X174494353Y-88249999D01*
X174494353Y-88250000D01*
X174514835Y-88392457D01*
X174514836Y-88392461D01*
X174574622Y-88523371D01*
X174574622Y-88523372D01*
X174574623Y-88523373D01*
X174668872Y-88632143D01*
X174789947Y-88709953D01*
X174891047Y-88739638D01*
X174927698Y-88769173D01*
X174932730Y-88815973D01*
X174917208Y-88842134D01*
X172677856Y-91081487D01*
X172634369Y-91099500D01*
X172461907Y-91099500D01*
X172385486Y-91119977D01*
X172385482Y-91119979D01*
X172316961Y-91159539D01*
X172316956Y-91159543D01*
X171955487Y-91521013D01*
X171912000Y-91539026D01*
X171868513Y-91521013D01*
X171850500Y-91477526D01*
X171850500Y-89194751D01*
X171847355Y-89183014D01*
X171841065Y-89159540D01*
X171841065Y-89159538D01*
X171830023Y-89118330D01*
X171830022Y-89118326D01*
X171790460Y-89049803D01*
X170943513Y-88202856D01*
X170925500Y-88159369D01*
X170925500Y-88069749D01*
X170905022Y-87993329D01*
X170905021Y-87993325D01*
X170865460Y-87924803D01*
X170809511Y-87868854D01*
X169117749Y-86177092D01*
X169099736Y-86133605D01*
X169114757Y-86093332D01*
X169175377Y-86023373D01*
X169235165Y-85892457D01*
X169255647Y-85750000D01*
X169235165Y-85607543D01*
X169175377Y-85476627D01*
X169081128Y-85367857D01*
X169081125Y-85367855D01*
X169081124Y-85367854D01*
X168960055Y-85290048D01*
X168960048Y-85290045D01*
X168871076Y-85263921D01*
X168821961Y-85249500D01*
X168678039Y-85249500D01*
X168539951Y-85290045D01*
X168539944Y-85290048D01*
X168418875Y-85367854D01*
X168418874Y-85367855D01*
X168418872Y-85367856D01*
X168418872Y-85367857D01*
X168339073Y-85459951D01*
X168324623Y-85476627D01*
X168305942Y-85517532D01*
X168271491Y-85549606D01*
X168224451Y-85547925D01*
X168194058Y-85517532D01*
X168192293Y-85513668D01*
X168175377Y-85476627D01*
X168081128Y-85367857D01*
X168081125Y-85367855D01*
X168081124Y-85367854D01*
X167960055Y-85290048D01*
X167960048Y-85290045D01*
X167871076Y-85263921D01*
X167821961Y-85249500D01*
X167678039Y-85249500D01*
X167539951Y-85290045D01*
X167539944Y-85290048D01*
X167418875Y-85367854D01*
X167418874Y-85367855D01*
X167418872Y-85367856D01*
X167418872Y-85367857D01*
X167399011Y-85390777D01*
X167324622Y-85476627D01*
X167324622Y-85476628D01*
X167264836Y-85607538D01*
X167264835Y-85607542D01*
X167244353Y-85749999D01*
X167244353Y-85750000D01*
X167264835Y-85892457D01*
X167264836Y-85892461D01*
X167324622Y-86023371D01*
X167324622Y-86023372D01*
X167334553Y-86034833D01*
X167418872Y-86132143D01*
X167418874Y-86132144D01*
X167418875Y-86132145D01*
X167434921Y-86142457D01*
X167539947Y-86209953D01*
X167678039Y-86250500D01*
X167750055Y-86250500D01*
X167793542Y-86268513D01*
X169554334Y-88029305D01*
X169572347Y-88072792D01*
X169554334Y-88116279D01*
X169528173Y-88131801D01*
X169414951Y-88165045D01*
X169414944Y-88165048D01*
X169293875Y-88242854D01*
X169293874Y-88242855D01*
X169293872Y-88242856D01*
X169293872Y-88242857D01*
X169287683Y-88250000D01*
X169199622Y-88351627D01*
X169199622Y-88351628D01*
X169139836Y-88482538D01*
X169139835Y-88482542D01*
X169119353Y-88624999D01*
X169119353Y-88625000D01*
X169139835Y-88767457D01*
X169139836Y-88767461D01*
X169199622Y-88898371D01*
X169199622Y-88898372D01*
X169199623Y-88898373D01*
X169293872Y-89007143D01*
X169414947Y-89084953D01*
X169553039Y-89125500D01*
X169696961Y-89125500D01*
X169807187Y-89093135D01*
X169853987Y-89098167D01*
X169868000Y-89108657D01*
X170431487Y-89672144D01*
X170449500Y-89715631D01*
X170449500Y-98967568D01*
X170469978Y-99043991D01*
X170469979Y-99043993D01*
X170480848Y-99062818D01*
X170509540Y-99112515D01*
X170509543Y-99112518D01*
X170950894Y-99553869D01*
X170968907Y-99597356D01*
X170950894Y-99640843D01*
X170924734Y-99656365D01*
X170889949Y-99666578D01*
X170889944Y-99666581D01*
X170768875Y-99744387D01*
X170768874Y-99744388D01*
X170674622Y-99853160D01*
X170674622Y-99853161D01*
X170614836Y-99984071D01*
X170614834Y-99984075D01*
X170601667Y-100075660D01*
X170577648Y-100116141D01*
X170532041Y-100127782D01*
X170507544Y-100118645D01*
X170390068Y-100043149D01*
X170390061Y-100043146D01*
X170268798Y-100007541D01*
X170251974Y-100002601D01*
X170108052Y-100002601D01*
X170108051Y-100002601D01*
X170036333Y-100023659D01*
X169989533Y-100018627D01*
X169963225Y-99985981D01*
X169961993Y-99986544D01*
X169911793Y-99876625D01*
X169900377Y-99851627D01*
X169806128Y-99742857D01*
X169806125Y-99742855D01*
X169806124Y-99742854D01*
X169685055Y-99665048D01*
X169685048Y-99665045D01*
X169556030Y-99627163D01*
X169546961Y-99624500D01*
X169403039Y-99624500D01*
X169264951Y-99665045D01*
X169264944Y-99665048D01*
X169143875Y-99742854D01*
X169143874Y-99742855D01*
X169143872Y-99742856D01*
X169143872Y-99742857D01*
X169142544Y-99744390D01*
X169049622Y-99851627D01*
X169049622Y-99851628D01*
X168989834Y-99982543D01*
X168981850Y-100038077D01*
X168957831Y-100078558D01*
X168912223Y-100090198D01*
X168903651Y-100088333D01*
X168892919Y-100085182D01*
X168892918Y-100085182D01*
X168748996Y-100085182D01*
X168740088Y-100087797D01*
X168718583Y-100094111D01*
X168671783Y-100089077D01*
X168642249Y-100052425D01*
X168640385Y-100043852D01*
X168640375Y-100043784D01*
X168635165Y-100007541D01*
X168624446Y-99984071D01*
X168575377Y-99876626D01*
X168575377Y-99876625D01*
X168555045Y-99853161D01*
X168481128Y-99767855D01*
X168481125Y-99767853D01*
X168481124Y-99767852D01*
X168360055Y-99690046D01*
X168360048Y-99690043D01*
X168245348Y-99656365D01*
X168221961Y-99649498D01*
X168078039Y-99649498D01*
X167939951Y-99690043D01*
X167939944Y-99690046D01*
X167818875Y-99767852D01*
X167818874Y-99767853D01*
X167724622Y-99876625D01*
X167724622Y-99876626D01*
X167664836Y-100007536D01*
X167664835Y-100007540D01*
X167644353Y-100149997D01*
X167644353Y-100149998D01*
X167650113Y-100190061D01*
X167638472Y-100235669D01*
X167632726Y-100242300D01*
X167215489Y-100659538D01*
X167159543Y-100715483D01*
X167159539Y-100715488D01*
X167119979Y-100784009D01*
X167119977Y-100784013D01*
X167099500Y-100860433D01*
X167099500Y-101470154D01*
X167081487Y-101513641D01*
X166855487Y-101739641D01*
X166812000Y-101757654D01*
X166768513Y-101739641D01*
X166750500Y-101696154D01*
X166750500Y-89538940D01*
X166768513Y-89495453D01*
X166812000Y-89477440D01*
X166845021Y-89477440D01*
X166983113Y-89436893D01*
X167104188Y-89359083D01*
X167198437Y-89250313D01*
X167258225Y-89119397D01*
X167278707Y-88976940D01*
X167258225Y-88834483D01*
X167198437Y-88703567D01*
X167104188Y-88594797D01*
X167104185Y-88594795D01*
X167104184Y-88594794D01*
X166983115Y-88516988D01*
X166983108Y-88516985D01*
X166865806Y-88482543D01*
X166845021Y-88476440D01*
X166701099Y-88476440D01*
X166563011Y-88516985D01*
X166563004Y-88516988D01*
X166441935Y-88594794D01*
X166441934Y-88594795D01*
X166347682Y-88703567D01*
X166347682Y-88703568D01*
X166287896Y-88834478D01*
X166287895Y-88834482D01*
X166267413Y-88976939D01*
X166267413Y-88976940D01*
X166273173Y-89017003D01*
X166261532Y-89062611D01*
X166255787Y-89069242D01*
X166209539Y-89115490D01*
X166169979Y-89184011D01*
X166169977Y-89184015D01*
X166149500Y-89260435D01*
X166149500Y-100985200D01*
X166131487Y-101028687D01*
X166088000Y-101046700D01*
X166062450Y-101041142D01*
X166060049Y-101040045D01*
X165950954Y-101008013D01*
X165921961Y-100999500D01*
X165778039Y-100999500D01*
X165639951Y-101040045D01*
X165639944Y-101040048D01*
X165518875Y-101117854D01*
X165518874Y-101117855D01*
X165424622Y-101226627D01*
X165424622Y-101226628D01*
X165364836Y-101357538D01*
X165364835Y-101357542D01*
X165344353Y-101499999D01*
X165344353Y-101500000D01*
X165364835Y-101642457D01*
X165364836Y-101642461D01*
X165424622Y-101773371D01*
X165424622Y-101773372D01*
X165424623Y-101773373D01*
X165518872Y-101882143D01*
X165639947Y-101959953D01*
X165778039Y-102000500D01*
X165921961Y-102000500D01*
X166060053Y-101959953D01*
X166060054Y-101959951D01*
X166062443Y-101958861D01*
X166063958Y-101958806D01*
X166064274Y-101958714D01*
X166064297Y-101958794D01*
X166109483Y-101957173D01*
X166143938Y-101989242D01*
X166149500Y-102014799D01*
X166149500Y-102350055D01*
X166131487Y-102393542D01*
X154143542Y-114381487D01*
X154100055Y-114399500D01*
X152711904Y-114399500D01*
X152635487Y-114419975D01*
X152635481Y-114419978D01*
X152566959Y-114459539D01*
X152566954Y-114459543D01*
X152045011Y-114981487D01*
X152001524Y-114999500D01*
X151928039Y-114999500D01*
X151789951Y-115040045D01*
X151789944Y-115040048D01*
X151668875Y-115117854D01*
X151668874Y-115117855D01*
X151574622Y-115226627D01*
X151574622Y-115226628D01*
X151514836Y-115357538D01*
X151514835Y-115357542D01*
X151494353Y-115499999D01*
X151494353Y-115500000D01*
X151514835Y-115642457D01*
X151514836Y-115642461D01*
X151574622Y-115773371D01*
X151574622Y-115773372D01*
X151574623Y-115773373D01*
X151668872Y-115882143D01*
X151789947Y-115959953D01*
X151928039Y-116000500D01*
X151983409Y-116000500D01*
X152026896Y-116018513D01*
X152044909Y-116062000D01*
X152026896Y-116105487D01*
X150150897Y-117981487D01*
X150107410Y-117999500D01*
X148911904Y-117999500D01*
X148835483Y-118019977D01*
X148835478Y-118019979D01*
X148782958Y-118050302D01*
X148782957Y-118050301D01*
X148766961Y-118059537D01*
X148766953Y-118059543D01*
X146445010Y-120381487D01*
X146401523Y-120399500D01*
X146328033Y-120399500D01*
X146189945Y-120440045D01*
X146189938Y-120440048D01*
X146068869Y-120517854D01*
X146068868Y-120517855D01*
X145974616Y-120626627D01*
X145974616Y-120626628D01*
X145914830Y-120757538D01*
X145914829Y-120757542D01*
X145894347Y-120899999D01*
X118500500Y-120899999D01*
X118500500Y-118099999D01*
X144994353Y-118099999D01*
X144994353Y-118100000D01*
X145014835Y-118242457D01*
X145014836Y-118242461D01*
X145074622Y-118373371D01*
X145074622Y-118373372D01*
X145074623Y-118373373D01*
X145168872Y-118482143D01*
X145168874Y-118482144D01*
X145168875Y-118482145D01*
X145197436Y-118500500D01*
X145289947Y-118559953D01*
X145428039Y-118600500D01*
X145571961Y-118600500D01*
X145710053Y-118559953D01*
X145831128Y-118482143D01*
X145925377Y-118373373D01*
X145985165Y-118242457D01*
X146005647Y-118100000D01*
X145985165Y-117957543D01*
X145976345Y-117938231D01*
X145939496Y-117857543D01*
X145925377Y-117826627D01*
X145831128Y-117717857D01*
X145831125Y-117717855D01*
X145831124Y-117717854D01*
X145710055Y-117640048D01*
X145710048Y-117640045D01*
X145621076Y-117613921D01*
X145571961Y-117599500D01*
X145428039Y-117599500D01*
X145289951Y-117640045D01*
X145289944Y-117640048D01*
X145168875Y-117717854D01*
X145168874Y-117717855D01*
X145074622Y-117826627D01*
X145074622Y-117826628D01*
X145014836Y-117957538D01*
X145014835Y-117957542D01*
X144994353Y-118099999D01*
X118500500Y-118099999D01*
X118500500Y-115540248D01*
X119899500Y-115540248D01*
X119899500Y-117879751D01*
X119911131Y-117938224D01*
X119911132Y-117938228D01*
X119911133Y-117938231D01*
X119955448Y-118004552D01*
X120021769Y-118048867D01*
X120080248Y-118060499D01*
X120080249Y-118060500D01*
X120080252Y-118060500D01*
X122419751Y-118060500D01*
X122419751Y-118060499D01*
X122478231Y-118048867D01*
X122544552Y-118004552D01*
X122588867Y-117938231D01*
X122600499Y-117879751D01*
X122600500Y-117879751D01*
X122600500Y-115540249D01*
X122600499Y-115540248D01*
X122588868Y-115481775D01*
X122588867Y-115481769D01*
X122544552Y-115415448D01*
X122478231Y-115371133D01*
X122478228Y-115371132D01*
X122478224Y-115371131D01*
X122419751Y-115359500D01*
X122419748Y-115359500D01*
X120080252Y-115359500D01*
X120080249Y-115359500D01*
X120021775Y-115371131D01*
X120021769Y-115371133D01*
X119955448Y-115415448D01*
X119911133Y-115481769D01*
X119911131Y-115481775D01*
X119899500Y-115540248D01*
X118500500Y-115540248D01*
X118500500Y-113210000D01*
X119970130Y-113210000D01*
X119989573Y-113432243D01*
X119989574Y-113432249D01*
X120047316Y-113647742D01*
X120141599Y-113849933D01*
X120141601Y-113849936D01*
X120269561Y-114032683D01*
X120304245Y-114067367D01*
X120781542Y-113590069D01*
X120869930Y-113678457D01*
X120392633Y-114155755D01*
X120427316Y-114190438D01*
X120610063Y-114318398D01*
X120610066Y-114318400D01*
X120812257Y-114412683D01*
X121027750Y-114470425D01*
X121027756Y-114470426D01*
X121250000Y-114489869D01*
X121472243Y-114470426D01*
X121472249Y-114470425D01*
X121687742Y-114412683D01*
X121889933Y-114318400D01*
X121889936Y-114318398D01*
X122072683Y-114190438D01*
X122107367Y-114155755D01*
X121630069Y-113678457D01*
X121718457Y-113590069D01*
X122195755Y-114067367D01*
X122230438Y-114032683D01*
X122358398Y-113849936D01*
X122358400Y-113849933D01*
X122452683Y-113647742D01*
X122510425Y-113432249D01*
X122510426Y-113432243D01*
X122529869Y-113210000D01*
X122515871Y-113049999D01*
X145994353Y-113049999D01*
X145994353Y-113050000D01*
X146014835Y-113192457D01*
X146014836Y-113192461D01*
X146074622Y-113323371D01*
X146074622Y-113323372D01*
X146074623Y-113323373D01*
X146168872Y-113432143D01*
X146168874Y-113432144D01*
X146168875Y-113432145D01*
X146169037Y-113432249D01*
X146289947Y-113509953D01*
X146428039Y-113550500D01*
X146571961Y-113550500D01*
X146710053Y-113509953D01*
X146831128Y-113432143D01*
X146925377Y-113323373D01*
X146985165Y-113192457D01*
X147005647Y-113050000D01*
X146985165Y-112907543D01*
X146925377Y-112776627D01*
X146831128Y-112667857D01*
X146831125Y-112667855D01*
X146831124Y-112667854D01*
X146710055Y-112590048D01*
X146710048Y-112590045D01*
X146621076Y-112563921D01*
X146571961Y-112549500D01*
X146428039Y-112549500D01*
X146289951Y-112590045D01*
X146289944Y-112590048D01*
X146168875Y-112667854D01*
X146168874Y-112667855D01*
X146074622Y-112776627D01*
X146074622Y-112776628D01*
X146014836Y-112907538D01*
X146014835Y-112907542D01*
X145994353Y-113049999D01*
X122515871Y-113049999D01*
X122510426Y-112987756D01*
X122510425Y-112987750D01*
X122452683Y-112772257D01*
X122358400Y-112570066D01*
X122358398Y-112570063D01*
X122230438Y-112387316D01*
X122195755Y-112352633D01*
X121718457Y-112829930D01*
X121630069Y-112741542D01*
X122107367Y-112264245D01*
X122072683Y-112229561D01*
X121889936Y-112101601D01*
X121889933Y-112101599D01*
X121687742Y-112007316D01*
X121660435Y-111999999D01*
X145244353Y-111999999D01*
X145244353Y-112000000D01*
X145264835Y-112142457D01*
X145264836Y-112142461D01*
X145324622Y-112273371D01*
X145324622Y-112273372D01*
X145324623Y-112273373D01*
X145418872Y-112382143D01*
X145539947Y-112459953D01*
X145678039Y-112500500D01*
X145821961Y-112500500D01*
X145960053Y-112459953D01*
X146081128Y-112382143D01*
X146175377Y-112273373D01*
X146186052Y-112249999D01*
X153744353Y-112249999D01*
X153744353Y-112250000D01*
X153764835Y-112392457D01*
X153764836Y-112392461D01*
X153824622Y-112523371D01*
X153824622Y-112523372D01*
X153824623Y-112523373D01*
X153918872Y-112632143D01*
X154039947Y-112709953D01*
X154178039Y-112750500D01*
X154321961Y-112750500D01*
X154460053Y-112709953D01*
X154581128Y-112632143D01*
X154675377Y-112523373D01*
X154735165Y-112392457D01*
X154755647Y-112250000D01*
X154735165Y-112107543D01*
X154732451Y-112101601D01*
X154689392Y-112007316D01*
X154675377Y-111976627D01*
X154581128Y-111867857D01*
X154581125Y-111867855D01*
X154581124Y-111867854D01*
X154460055Y-111790048D01*
X154460048Y-111790045D01*
X154371076Y-111763921D01*
X154321961Y-111749500D01*
X154178039Y-111749500D01*
X154039951Y-111790045D01*
X154039944Y-111790048D01*
X153918875Y-111867854D01*
X153918874Y-111867855D01*
X153918872Y-111867856D01*
X153918872Y-111867857D01*
X153899011Y-111890777D01*
X153824622Y-111976627D01*
X153824622Y-111976628D01*
X153764836Y-112107538D01*
X153764835Y-112107542D01*
X153744353Y-112249999D01*
X146186052Y-112249999D01*
X146235165Y-112142457D01*
X146255647Y-112000000D01*
X146235165Y-111857543D01*
X146175377Y-111726627D01*
X146081128Y-111617857D01*
X146081125Y-111617855D01*
X146081124Y-111617854D01*
X145960055Y-111540048D01*
X145960048Y-111540045D01*
X145871076Y-111513921D01*
X145821961Y-111499500D01*
X145678039Y-111499500D01*
X145539951Y-111540045D01*
X145539944Y-111540048D01*
X145418875Y-111617854D01*
X145418874Y-111617855D01*
X145418872Y-111617856D01*
X145418872Y-111617857D01*
X145399011Y-111640777D01*
X145324622Y-111726627D01*
X145324622Y-111726628D01*
X145264836Y-111857538D01*
X145264835Y-111857542D01*
X145244353Y-111999999D01*
X121660435Y-111999999D01*
X121472249Y-111949574D01*
X121472243Y-111949573D01*
X121250000Y-111930130D01*
X121027756Y-111949573D01*
X121027750Y-111949574D01*
X120812257Y-112007316D01*
X120610066Y-112101599D01*
X120610063Y-112101601D01*
X120427316Y-112229561D01*
X120392633Y-112264245D01*
X120869930Y-112741542D01*
X120781542Y-112829930D01*
X120304245Y-112352633D01*
X120269561Y-112387316D01*
X120141601Y-112570063D01*
X120141599Y-112570066D01*
X120047316Y-112772257D01*
X119989574Y-112987750D01*
X119989573Y-112987756D01*
X119970130Y-113210000D01*
X118500500Y-113210000D01*
X118500500Y-111249999D01*
X147994353Y-111249999D01*
X147994353Y-111250000D01*
X148014835Y-111392457D01*
X148014836Y-111392461D01*
X148074622Y-111523371D01*
X148074622Y-111523372D01*
X148074623Y-111523373D01*
X148168872Y-111632143D01*
X148289947Y-111709953D01*
X148428039Y-111750500D01*
X148571961Y-111750500D01*
X148710053Y-111709953D01*
X148831128Y-111632143D01*
X148925377Y-111523373D01*
X148936052Y-111499999D01*
X152744353Y-111499999D01*
X152744353Y-111500000D01*
X152764835Y-111642457D01*
X152764836Y-111642461D01*
X152824622Y-111773371D01*
X152824622Y-111773372D01*
X152824623Y-111773373D01*
X152918872Y-111882143D01*
X153039947Y-111959953D01*
X153178039Y-112000500D01*
X153321961Y-112000500D01*
X153460053Y-111959953D01*
X153581128Y-111882143D01*
X153675377Y-111773373D01*
X153735165Y-111642457D01*
X153755647Y-111500000D01*
X153735165Y-111357543D01*
X153675377Y-111226627D01*
X153581128Y-111117857D01*
X153581125Y-111117855D01*
X153581124Y-111117854D01*
X153460055Y-111040048D01*
X153460048Y-111040045D01*
X153371076Y-111013921D01*
X153321961Y-110999500D01*
X153178039Y-110999500D01*
X153039951Y-111040045D01*
X153039944Y-111040048D01*
X152918875Y-111117854D01*
X152918874Y-111117855D01*
X152824622Y-111226627D01*
X152824622Y-111226628D01*
X152764836Y-111357538D01*
X152764835Y-111357542D01*
X152744353Y-111499999D01*
X148936052Y-111499999D01*
X148985165Y-111392457D01*
X149005647Y-111250000D01*
X148985165Y-111107543D01*
X148925377Y-110976627D01*
X148831128Y-110867857D01*
X148831125Y-110867855D01*
X148831124Y-110867854D01*
X148710055Y-110790048D01*
X148710048Y-110790045D01*
X148621076Y-110763921D01*
X148571961Y-110749500D01*
X148428039Y-110749500D01*
X148289951Y-110790045D01*
X148289944Y-110790048D01*
X148168875Y-110867854D01*
X148168874Y-110867855D01*
X148074622Y-110976627D01*
X148074622Y-110976628D01*
X148014836Y-111107538D01*
X148014835Y-111107542D01*
X147994353Y-111249999D01*
X118500500Y-111249999D01*
X118500500Y-109710000D01*
X119894341Y-109710000D01*
X119914936Y-109945403D01*
X119976096Y-110173662D01*
X120075964Y-110387827D01*
X120075964Y-110387828D01*
X120211503Y-110581399D01*
X120211505Y-110581401D01*
X120378599Y-110748495D01*
X120572170Y-110884035D01*
X120786337Y-110983903D01*
X120786336Y-110983903D01*
X120824379Y-110994096D01*
X121014592Y-111045063D01*
X121250000Y-111065659D01*
X121485408Y-111045063D01*
X121713663Y-110983903D01*
X121927830Y-110884035D01*
X122121401Y-110748495D01*
X122288495Y-110581401D01*
X122424035Y-110387830D01*
X122523903Y-110173663D01*
X122585063Y-109945408D01*
X122605659Y-109710000D01*
X122585063Y-109474592D01*
X122523903Y-109246337D01*
X122424035Y-109032171D01*
X122288495Y-108838599D01*
X122121401Y-108671505D01*
X122121399Y-108671503D01*
X122005337Y-108590236D01*
X121927830Y-108535965D01*
X121927826Y-108535963D01*
X121713662Y-108436096D01*
X121713663Y-108436096D01*
X121571681Y-108398053D01*
X121485408Y-108374937D01*
X121485404Y-108374936D01*
X121250000Y-108354341D01*
X121014596Y-108374936D01*
X120786334Y-108436097D01*
X120572173Y-108535963D01*
X120572172Y-108535964D01*
X120378598Y-108671505D01*
X120211505Y-108838598D01*
X120075964Y-109032172D01*
X120075963Y-109032173D01*
X119976097Y-109246334D01*
X119914936Y-109474596D01*
X119894341Y-109710000D01*
X118500500Y-109710000D01*
X118500500Y-103597681D01*
X127650000Y-103597681D01*
X127650000Y-104397500D01*
X128125000Y-104397500D01*
X128125000Y-104522500D01*
X127650001Y-104522500D01*
X127650001Y-105322310D01*
X127657252Y-105358774D01*
X127684879Y-105400119D01*
X127684880Y-105400120D01*
X127726228Y-105427749D01*
X127762683Y-105434999D01*
X128562500Y-105434999D01*
X128562500Y-104960000D01*
X128687500Y-104960000D01*
X128687500Y-105434999D01*
X129487311Y-105434999D01*
X129523774Y-105427747D01*
X129565119Y-105400120D01*
X129565120Y-105400119D01*
X129592749Y-105358771D01*
X129599999Y-105322318D01*
X129600000Y-105322314D01*
X129600000Y-104830000D01*
X134444417Y-104830000D01*
X134464699Y-105035933D01*
X134524766Y-105233950D01*
X134622314Y-105416450D01*
X134622315Y-105416451D01*
X134753588Y-105576409D01*
X134753590Y-105576411D01*
X134913548Y-105707684D01*
X134913549Y-105707685D01*
X134999264Y-105753500D01*
X135096046Y-105805232D01*
X135294066Y-105865300D01*
X135500000Y-105885583D01*
X135705934Y-105865300D01*
X135903954Y-105805232D01*
X136086450Y-105707685D01*
X136246410Y-105576410D01*
X136377685Y-105416450D01*
X136475232Y-105233954D01*
X136535300Y-105035934D01*
X136555583Y-104830000D01*
X136547703Y-104749999D01*
X143994353Y-104749999D01*
X143994353Y-104750000D01*
X144014835Y-104892457D01*
X144014836Y-104892461D01*
X144074622Y-105023371D01*
X144074622Y-105023372D01*
X144074623Y-105023373D01*
X144168872Y-105132143D01*
X144289947Y-105209953D01*
X144428039Y-105250500D01*
X144571961Y-105250500D01*
X144710053Y-105209953D01*
X144831128Y-105132143D01*
X144925377Y-105023373D01*
X144985165Y-104892457D01*
X145005647Y-104750000D01*
X144985165Y-104607543D01*
X144925377Y-104476627D01*
X144831128Y-104367857D01*
X144831125Y-104367855D01*
X144831124Y-104367854D01*
X144710055Y-104290048D01*
X144710048Y-104290045D01*
X144621076Y-104263921D01*
X144571961Y-104249500D01*
X144428039Y-104249500D01*
X144289951Y-104290045D01*
X144289944Y-104290048D01*
X144168875Y-104367854D01*
X144168874Y-104367855D01*
X144168872Y-104367856D01*
X144168872Y-104367857D01*
X144149011Y-104390777D01*
X144074622Y-104476627D01*
X144074622Y-104476628D01*
X144014836Y-104607538D01*
X144014835Y-104607542D01*
X143994353Y-104749999D01*
X136547703Y-104749999D01*
X136535300Y-104624066D01*
X136485518Y-104459954D01*
X136475233Y-104426049D01*
X136475232Y-104426048D01*
X136475232Y-104426046D01*
X136402539Y-104290048D01*
X136377685Y-104243549D01*
X136377684Y-104243548D01*
X136246411Y-104083590D01*
X136246409Y-104083588D01*
X136144555Y-103999999D01*
X161244353Y-103999999D01*
X161244353Y-104000000D01*
X161264835Y-104142457D01*
X161264836Y-104142461D01*
X161324622Y-104273371D01*
X161324622Y-104273372D01*
X161324623Y-104273373D01*
X161418872Y-104382143D01*
X161539947Y-104459953D01*
X161678039Y-104500500D01*
X161821961Y-104500500D01*
X161960053Y-104459953D01*
X162081128Y-104382143D01*
X162175377Y-104273373D01*
X162235165Y-104142457D01*
X162255647Y-104000000D01*
X162235165Y-103857543D01*
X162175377Y-103726627D01*
X162081128Y-103617857D01*
X162081125Y-103617855D01*
X162081124Y-103617854D01*
X161960055Y-103540048D01*
X161960048Y-103540045D01*
X161871076Y-103513921D01*
X161821961Y-103499500D01*
X161678039Y-103499500D01*
X161539951Y-103540045D01*
X161539944Y-103540048D01*
X161418875Y-103617854D01*
X161418874Y-103617855D01*
X161324622Y-103726627D01*
X161324622Y-103726628D01*
X161264836Y-103857538D01*
X161264835Y-103857542D01*
X161244353Y-103999999D01*
X136144555Y-103999999D01*
X136086451Y-103952315D01*
X136086450Y-103952314D01*
X135926089Y-103866599D01*
X135903954Y-103854768D01*
X135903953Y-103854767D01*
X135903950Y-103854766D01*
X135705933Y-103794699D01*
X135500000Y-103774417D01*
X135294066Y-103794699D01*
X135096049Y-103854766D01*
X134913549Y-103952314D01*
X134913548Y-103952315D01*
X134753590Y-104083588D01*
X134753588Y-104083590D01*
X134622315Y-104243548D01*
X134622314Y-104243549D01*
X134524766Y-104426049D01*
X134464699Y-104624066D01*
X134444417Y-104830000D01*
X129600000Y-104830000D01*
X129600000Y-104522500D01*
X129125000Y-104522500D01*
X129125000Y-104397500D01*
X129599999Y-104397500D01*
X129599999Y-103597689D01*
X129592747Y-103561225D01*
X129565120Y-103519880D01*
X129565119Y-103519879D01*
X129523771Y-103492250D01*
X129487318Y-103485000D01*
X128687500Y-103485000D01*
X128687500Y-103960000D01*
X128562500Y-103960000D01*
X128562500Y-103485000D01*
X127762689Y-103485000D01*
X127726225Y-103492252D01*
X127684880Y-103519879D01*
X127684879Y-103519880D01*
X127657250Y-103561228D01*
X127650000Y-103597681D01*
X118500500Y-103597681D01*
X118500500Y-101920000D01*
X127569417Y-101920000D01*
X127589699Y-102125933D01*
X127649766Y-102323950D01*
X127747314Y-102506450D01*
X127747315Y-102506451D01*
X127878588Y-102666409D01*
X127878590Y-102666411D01*
X128038548Y-102797684D01*
X128038549Y-102797685D01*
X128124264Y-102843500D01*
X128221046Y-102895232D01*
X128419066Y-102955300D01*
X128625000Y-102975583D01*
X128830934Y-102955300D01*
X129028954Y-102895232D01*
X129211450Y-102797685D01*
X129337852Y-102693950D01*
X129371409Y-102666411D01*
X129371411Y-102666409D01*
X129502684Y-102506451D01*
X129502685Y-102506450D01*
X129508306Y-102495934D01*
X129600232Y-102323954D01*
X129610532Y-102290000D01*
X134444417Y-102290000D01*
X134464699Y-102495933D01*
X134524766Y-102693950D01*
X134622314Y-102876450D01*
X134622315Y-102876451D01*
X134753588Y-103036409D01*
X134753590Y-103036411D01*
X134913548Y-103167684D01*
X134913549Y-103167685D01*
X134999264Y-103213500D01*
X135096046Y-103265232D01*
X135294066Y-103325300D01*
X135500000Y-103345583D01*
X135705934Y-103325300D01*
X135903954Y-103265232D01*
X136086450Y-103167685D01*
X136246410Y-103036410D01*
X136377685Y-102876450D01*
X136475232Y-102693954D01*
X136535300Y-102495934D01*
X136555583Y-102290000D01*
X136535300Y-102084066D01*
X136500526Y-101969430D01*
X136475233Y-101886049D01*
X136475232Y-101886048D01*
X136475232Y-101886046D01*
X136415044Y-101773443D01*
X136377685Y-101703549D01*
X136377684Y-101703548D01*
X136246411Y-101543590D01*
X136246409Y-101543588D01*
X136086451Y-101412315D01*
X136086450Y-101412314D01*
X135903950Y-101314766D01*
X135705933Y-101254699D01*
X135500000Y-101234417D01*
X135294066Y-101254699D01*
X135096049Y-101314766D01*
X134913549Y-101412314D01*
X134913548Y-101412315D01*
X134753590Y-101543588D01*
X134753588Y-101543590D01*
X134622315Y-101703548D01*
X134622314Y-101703549D01*
X134524766Y-101886049D01*
X134464699Y-102084066D01*
X134444417Y-102290000D01*
X129610532Y-102290000D01*
X129660300Y-102125934D01*
X129680583Y-101920000D01*
X129660300Y-101714066D01*
X129600232Y-101516046D01*
X129515507Y-101357538D01*
X129502685Y-101333549D01*
X129502684Y-101333548D01*
X129371411Y-101173590D01*
X129371409Y-101173588D01*
X129211451Y-101042315D01*
X129211450Y-101042314D01*
X129042583Y-100952053D01*
X129028954Y-100944768D01*
X129028953Y-100944767D01*
X129028950Y-100944766D01*
X128830933Y-100884699D01*
X128625000Y-100864417D01*
X128419066Y-100884699D01*
X128221049Y-100944766D01*
X128038549Y-101042314D01*
X128038548Y-101042315D01*
X127878590Y-101173588D01*
X127878588Y-101173590D01*
X127747315Y-101333548D01*
X127747314Y-101333549D01*
X127649766Y-101516049D01*
X127589699Y-101714066D01*
X127569417Y-101920000D01*
X118500500Y-101920000D01*
X118500500Y-98880248D01*
X134449500Y-98880248D01*
X134449500Y-100619751D01*
X134461131Y-100678224D01*
X134461132Y-100678228D01*
X134461133Y-100678231D01*
X134505448Y-100744552D01*
X134571769Y-100788867D01*
X134630248Y-100800499D01*
X134630249Y-100800500D01*
X134630252Y-100800500D01*
X136369751Y-100800500D01*
X136369751Y-100800499D01*
X136428231Y-100788867D01*
X136494552Y-100744552D01*
X136538867Y-100678231D01*
X136550499Y-100619751D01*
X136550500Y-100619751D01*
X136550500Y-100499999D01*
X163744353Y-100499999D01*
X163744353Y-100500000D01*
X163764835Y-100642457D01*
X163764836Y-100642461D01*
X163824622Y-100773371D01*
X163824622Y-100773372D01*
X163824623Y-100773373D01*
X163918872Y-100882143D01*
X164039947Y-100959953D01*
X164178039Y-101000500D01*
X164321961Y-101000500D01*
X164460053Y-100959953D01*
X164581128Y-100882143D01*
X164675377Y-100773373D01*
X164735165Y-100642457D01*
X164755647Y-100500000D01*
X164735165Y-100357543D01*
X164675377Y-100226627D01*
X164581128Y-100117857D01*
X164581125Y-100117855D01*
X164581124Y-100117854D01*
X164460055Y-100040048D01*
X164460048Y-100040045D01*
X164349329Y-100007536D01*
X164321961Y-99999500D01*
X164178039Y-99999500D01*
X164039951Y-100040045D01*
X164039944Y-100040048D01*
X163918875Y-100117854D01*
X163918874Y-100117855D01*
X163824622Y-100226627D01*
X163824622Y-100226628D01*
X163764836Y-100357538D01*
X163764835Y-100357542D01*
X163744353Y-100499999D01*
X136550500Y-100499999D01*
X136550500Y-98880249D01*
X136550499Y-98880248D01*
X136538868Y-98821775D01*
X136538867Y-98821769D01*
X136494552Y-98755448D01*
X136428231Y-98711133D01*
X136428228Y-98711132D01*
X136428224Y-98711131D01*
X136369751Y-98699500D01*
X136369748Y-98699500D01*
X134630252Y-98699500D01*
X134630249Y-98699500D01*
X134571775Y-98711131D01*
X134571769Y-98711133D01*
X134505448Y-98755448D01*
X134461133Y-98821769D01*
X134461131Y-98821775D01*
X134449500Y-98880248D01*
X118500500Y-98880248D01*
X118500500Y-95847681D01*
X127650000Y-95847681D01*
X127650000Y-96647500D01*
X128125000Y-96647500D01*
X128125000Y-96772500D01*
X127650001Y-96772500D01*
X127650001Y-97572310D01*
X127657252Y-97608774D01*
X127684879Y-97650119D01*
X127684880Y-97650120D01*
X127726228Y-97677749D01*
X127762683Y-97684999D01*
X128562500Y-97684999D01*
X128562500Y-97210000D01*
X128687500Y-97210000D01*
X128687500Y-97684999D01*
X129487311Y-97684999D01*
X129523774Y-97677747D01*
X129565119Y-97650120D01*
X129565120Y-97650119D01*
X129592749Y-97608771D01*
X129599999Y-97572318D01*
X129600000Y-97572314D01*
X129600000Y-96772500D01*
X129125000Y-96772500D01*
X129125000Y-96647500D01*
X129599999Y-96647500D01*
X129599999Y-96249999D01*
X153744353Y-96249999D01*
X153744353Y-96250000D01*
X153764835Y-96392457D01*
X153764836Y-96392461D01*
X153824622Y-96523371D01*
X153824622Y-96523372D01*
X153824623Y-96523373D01*
X153918872Y-96632143D01*
X154039947Y-96709953D01*
X154178039Y-96750500D01*
X154321961Y-96750500D01*
X154460053Y-96709953D01*
X154581128Y-96632143D01*
X154675377Y-96523373D01*
X154735165Y-96392457D01*
X154755647Y-96250000D01*
X154735165Y-96107543D01*
X154675377Y-95976627D01*
X154581128Y-95867857D01*
X154581125Y-95867855D01*
X154581124Y-95867854D01*
X154460055Y-95790048D01*
X154460048Y-95790045D01*
X154371076Y-95763921D01*
X154321961Y-95749500D01*
X154178039Y-95749500D01*
X154039951Y-95790045D01*
X154039944Y-95790048D01*
X153918875Y-95867854D01*
X153918874Y-95867855D01*
X153824622Y-95976627D01*
X153824622Y-95976628D01*
X153764836Y-96107538D01*
X153764835Y-96107542D01*
X153744353Y-96249999D01*
X129599999Y-96249999D01*
X129599999Y-95847689D01*
X129592747Y-95811225D01*
X129565120Y-95769880D01*
X129565119Y-95769879D01*
X129523771Y-95742250D01*
X129487318Y-95735000D01*
X128687500Y-95735000D01*
X128687500Y-96210000D01*
X128562500Y-96210000D01*
X128562500Y-95735000D01*
X127762689Y-95735000D01*
X127726225Y-95742252D01*
X127684880Y-95769879D01*
X127684879Y-95769880D01*
X127657250Y-95811228D01*
X127650000Y-95847681D01*
X118500500Y-95847681D01*
X118500500Y-94170000D01*
X127569417Y-94170000D01*
X127589699Y-94375933D01*
X127649766Y-94573950D01*
X127747314Y-94756450D01*
X127747315Y-94756451D01*
X127878588Y-94916409D01*
X127878590Y-94916411D01*
X128038548Y-95047684D01*
X128038549Y-95047685D01*
X128124264Y-95093500D01*
X128221046Y-95145232D01*
X128419066Y-95205300D01*
X128625000Y-95225583D01*
X128830934Y-95205300D01*
X129028954Y-95145232D01*
X129211450Y-95047685D01*
X129371410Y-94916410D01*
X129502685Y-94756450D01*
X129600232Y-94573954D01*
X129610532Y-94540000D01*
X134444417Y-94540000D01*
X134464699Y-94745933D01*
X134524766Y-94943950D01*
X134622314Y-95126450D01*
X134622315Y-95126451D01*
X134753588Y-95286409D01*
X134753590Y-95286411D01*
X134913548Y-95417684D01*
X134913549Y-95417685D01*
X134999264Y-95463500D01*
X135096046Y-95515232D01*
X135294066Y-95575300D01*
X135500000Y-95595583D01*
X135705934Y-95575300D01*
X135903954Y-95515232D01*
X136086450Y-95417685D01*
X136246410Y-95286410D01*
X136374772Y-95130000D01*
X157944901Y-95130000D01*
X157963252Y-95316328D01*
X158017603Y-95495499D01*
X158105865Y-95660627D01*
X158224642Y-95805356D01*
X158224643Y-95805357D01*
X158369372Y-95924134D01*
X158369373Y-95924134D01*
X158369375Y-95924136D01*
X158534499Y-96012396D01*
X158713669Y-96066747D01*
X158900000Y-96085099D01*
X159086331Y-96066747D01*
X159265501Y-96012396D01*
X159430625Y-95924136D01*
X159575357Y-95805357D01*
X159694136Y-95660625D01*
X159782396Y-95495501D01*
X159836747Y-95316331D01*
X159855099Y-95130000D01*
X159836747Y-94943669D01*
X159782396Y-94764499D01*
X159694136Y-94599375D01*
X159673273Y-94573954D01*
X159575357Y-94454643D01*
X159575356Y-94454642D01*
X159430627Y-94335865D01*
X159265499Y-94247603D01*
X159149347Y-94212369D01*
X159086331Y-94193253D01*
X159086329Y-94193252D01*
X159086330Y-94193252D01*
X158900000Y-94174901D01*
X158713671Y-94193252D01*
X158534500Y-94247603D01*
X158369372Y-94335865D01*
X158224643Y-94454642D01*
X158224642Y-94454643D01*
X158105865Y-94599372D01*
X158017603Y-94764500D01*
X157963252Y-94943671D01*
X157944901Y-95130000D01*
X136374772Y-95130000D01*
X136377685Y-95126450D01*
X136475232Y-94943954D01*
X136535300Y-94745934D01*
X136555583Y-94540000D01*
X136535300Y-94334066D01*
X136475232Y-94136046D01*
X136383306Y-93964066D01*
X136377685Y-93953549D01*
X136377684Y-93953548D01*
X136246411Y-93793590D01*
X136246409Y-93793588D01*
X136086451Y-93662315D01*
X136086450Y-93662314D01*
X135903950Y-93564766D01*
X135705933Y-93504699D01*
X135500000Y-93484417D01*
X135294066Y-93504699D01*
X135096049Y-93564766D01*
X134913549Y-93662314D01*
X134913548Y-93662315D01*
X134753590Y-93793588D01*
X134753588Y-93793590D01*
X134622315Y-93953548D01*
X134622314Y-93953549D01*
X134524766Y-94136049D01*
X134464699Y-94334066D01*
X134444417Y-94540000D01*
X129610532Y-94540000D01*
X129660300Y-94375934D01*
X129680583Y-94170000D01*
X129660300Y-93964066D01*
X129600232Y-93766046D01*
X129544786Y-93662314D01*
X129502685Y-93583549D01*
X129502684Y-93583548D01*
X129371411Y-93423590D01*
X129371409Y-93423588D01*
X129211451Y-93292315D01*
X129211450Y-93292314D01*
X129028950Y-93194766D01*
X128830933Y-93134699D01*
X128625000Y-93114417D01*
X128419066Y-93134699D01*
X128221049Y-93194766D01*
X128038549Y-93292314D01*
X128038548Y-93292315D01*
X127878590Y-93423588D01*
X127878588Y-93423590D01*
X127747315Y-93583548D01*
X127747314Y-93583549D01*
X127649766Y-93766049D01*
X127589699Y-93964066D01*
X127569417Y-94170000D01*
X118500500Y-94170000D01*
X118500500Y-92000000D01*
X134444417Y-92000000D01*
X134464699Y-92205933D01*
X134524766Y-92403950D01*
X134622314Y-92586450D01*
X134622315Y-92586451D01*
X134753588Y-92746409D01*
X134753590Y-92746411D01*
X134913548Y-92877684D01*
X134913549Y-92877685D01*
X134969698Y-92907697D01*
X135096046Y-92975232D01*
X135294066Y-93035300D01*
X135500000Y-93055583D01*
X135705934Y-93035300D01*
X135903954Y-92975232D01*
X136086450Y-92877685D01*
X136246410Y-92746410D01*
X136262646Y-92726627D01*
X136351912Y-92617855D01*
X136377685Y-92586450D01*
X136475232Y-92403954D01*
X136535300Y-92205934D01*
X136555583Y-92000000D01*
X136535300Y-91794066D01*
X136475232Y-91596046D01*
X136411881Y-91477526D01*
X136377685Y-91413549D01*
X136377684Y-91413548D01*
X136246411Y-91253590D01*
X136246409Y-91253588D01*
X136086451Y-91122315D01*
X136086450Y-91122314D01*
X135903950Y-91024766D01*
X135705933Y-90964699D01*
X135500000Y-90944417D01*
X135294066Y-90964699D01*
X135096049Y-91024766D01*
X134913549Y-91122314D01*
X134913548Y-91122315D01*
X134753590Y-91253588D01*
X134753588Y-91253590D01*
X134622315Y-91413548D01*
X134622314Y-91413549D01*
X134524766Y-91596049D01*
X134464699Y-91794066D01*
X134444417Y-92000000D01*
X118500500Y-92000000D01*
X118500500Y-90624999D01*
X118994353Y-90624999D01*
X118994353Y-90625000D01*
X119014835Y-90767457D01*
X119014836Y-90767461D01*
X119074622Y-90898371D01*
X119074622Y-90898372D01*
X119074623Y-90898373D01*
X119168872Y-91007143D01*
X119289947Y-91084953D01*
X119428039Y-91125500D01*
X119571961Y-91125500D01*
X119710053Y-91084953D01*
X119831128Y-91007143D01*
X119925377Y-90898373D01*
X119985165Y-90767457D01*
X120005647Y-90625000D01*
X119985165Y-90482543D01*
X119925377Y-90351627D01*
X119831128Y-90242857D01*
X119831125Y-90242855D01*
X119831124Y-90242854D01*
X119710055Y-90165048D01*
X119710048Y-90165045D01*
X119621076Y-90138921D01*
X119571961Y-90124500D01*
X119428039Y-90124500D01*
X119289951Y-90165045D01*
X119289944Y-90165048D01*
X119168875Y-90242854D01*
X119168874Y-90242855D01*
X119074622Y-90351627D01*
X119074622Y-90351628D01*
X119014836Y-90482538D01*
X119014835Y-90482542D01*
X118994353Y-90624999D01*
X118500500Y-90624999D01*
X118500500Y-88590248D01*
X134449500Y-88590248D01*
X134449500Y-90329751D01*
X134461131Y-90388224D01*
X134461132Y-90388228D01*
X134461133Y-90388231D01*
X134505448Y-90454552D01*
X134571769Y-90498867D01*
X134630248Y-90510499D01*
X134630249Y-90510500D01*
X134630252Y-90510500D01*
X136369751Y-90510500D01*
X136369751Y-90510499D01*
X136428231Y-90498867D01*
X136494552Y-90454552D01*
X136538867Y-90388231D01*
X136550499Y-90329751D01*
X136550500Y-90329751D01*
X136550500Y-90250000D01*
X157944901Y-90250000D01*
X157963252Y-90436328D01*
X158017603Y-90615499D01*
X158105865Y-90780627D01*
X158224642Y-90925356D01*
X158224643Y-90925357D01*
X158369372Y-91044134D01*
X158369373Y-91044134D01*
X158369375Y-91044136D01*
X158534499Y-91132396D01*
X158713669Y-91186747D01*
X158900000Y-91205099D01*
X159086331Y-91186747D01*
X159265501Y-91132396D01*
X159430625Y-91044136D01*
X159575357Y-90925357D01*
X159694136Y-90780625D01*
X159782396Y-90615501D01*
X159836747Y-90436331D01*
X159855099Y-90250000D01*
X159836747Y-90063669D01*
X159782396Y-89884499D01*
X159694136Y-89719375D01*
X159691063Y-89715631D01*
X159575357Y-89574643D01*
X159575356Y-89574642D01*
X159430627Y-89455865D01*
X159265499Y-89367603D01*
X159149347Y-89332369D01*
X159086331Y-89313253D01*
X159086329Y-89313252D01*
X159086330Y-89313252D01*
X158900000Y-89294901D01*
X158713671Y-89313252D01*
X158534500Y-89367603D01*
X158369372Y-89455865D01*
X158224643Y-89574642D01*
X158224642Y-89574643D01*
X158105865Y-89719372D01*
X158017603Y-89884500D01*
X157963252Y-90063671D01*
X157944901Y-90250000D01*
X136550500Y-90250000D01*
X136550500Y-88590249D01*
X136550499Y-88590248D01*
X136540513Y-88540047D01*
X136538867Y-88531769D01*
X136517639Y-88499999D01*
X162994353Y-88499999D01*
X162994353Y-88500000D01*
X163014835Y-88642457D01*
X163014836Y-88642461D01*
X163074622Y-88773371D01*
X163074622Y-88773372D01*
X163074623Y-88773373D01*
X163168872Y-88882143D01*
X163289947Y-88959953D01*
X163428039Y-89000500D01*
X163571961Y-89000500D01*
X163710053Y-88959953D01*
X163831128Y-88882143D01*
X163925377Y-88773373D01*
X163985165Y-88642457D01*
X164005647Y-88500000D01*
X163985165Y-88357543D01*
X163925377Y-88226627D01*
X163831128Y-88117857D01*
X163831125Y-88117855D01*
X163831124Y-88117854D01*
X163710055Y-88040048D01*
X163710048Y-88040045D01*
X163621076Y-88013921D01*
X163571961Y-87999500D01*
X163428039Y-87999500D01*
X163289951Y-88040045D01*
X163289944Y-88040048D01*
X163168875Y-88117854D01*
X163168874Y-88117855D01*
X163074622Y-88226627D01*
X163074622Y-88226628D01*
X163014836Y-88357538D01*
X163014835Y-88357542D01*
X162994353Y-88499999D01*
X136517639Y-88499999D01*
X136494552Y-88465448D01*
X136428231Y-88421133D01*
X136428228Y-88421132D01*
X136428224Y-88421131D01*
X136369751Y-88409500D01*
X136369748Y-88409500D01*
X134630252Y-88409500D01*
X134630249Y-88409500D01*
X134571775Y-88421131D01*
X134571769Y-88421133D01*
X134505448Y-88465448D01*
X134461133Y-88531769D01*
X134461131Y-88531775D01*
X134449500Y-88590248D01*
X118500500Y-88590248D01*
X118500500Y-84999999D01*
X147244353Y-84999999D01*
X147244353Y-85000000D01*
X147264835Y-85142457D01*
X147264836Y-85142461D01*
X147324622Y-85273371D01*
X147324622Y-85273372D01*
X147324623Y-85273373D01*
X147418872Y-85382143D01*
X147539947Y-85459953D01*
X147678039Y-85500500D01*
X147821961Y-85500500D01*
X147960053Y-85459953D01*
X148081128Y-85382143D01*
X148175377Y-85273373D01*
X148235165Y-85142457D01*
X148255647Y-85000000D01*
X148235165Y-84857543D01*
X148175377Y-84726627D01*
X148081128Y-84617857D01*
X148081125Y-84617855D01*
X148081124Y-84617854D01*
X147960055Y-84540048D01*
X147960048Y-84540045D01*
X147871076Y-84513921D01*
X147821961Y-84499500D01*
X147678039Y-84499500D01*
X147539951Y-84540045D01*
X147539944Y-84540048D01*
X147418875Y-84617854D01*
X147418874Y-84617855D01*
X147324622Y-84726627D01*
X147324622Y-84726628D01*
X147264836Y-84857538D01*
X147264835Y-84857542D01*
X147244353Y-84999999D01*
X118500500Y-84999999D01*
X118500500Y-81830248D01*
X128509500Y-81830248D01*
X128509500Y-83569751D01*
X128521131Y-83628224D01*
X128521132Y-83628228D01*
X128521133Y-83628231D01*
X128565448Y-83694552D01*
X128631769Y-83738867D01*
X128690248Y-83750499D01*
X128690249Y-83750500D01*
X128690252Y-83750500D01*
X130429751Y-83750500D01*
X130429751Y-83750499D01*
X130488231Y-83738867D01*
X130554552Y-83694552D01*
X130598867Y-83628231D01*
X130610499Y-83569751D01*
X130610500Y-83569751D01*
X130610500Y-82700000D01*
X131044417Y-82700000D01*
X131064699Y-82905933D01*
X131124766Y-83103950D01*
X131222314Y-83286450D01*
X131222315Y-83286451D01*
X131353588Y-83446409D01*
X131353590Y-83446411D01*
X131513548Y-83577684D01*
X131513549Y-83577685D01*
X131599264Y-83623500D01*
X131696046Y-83675232D01*
X131894066Y-83735300D01*
X132100000Y-83755583D01*
X132305934Y-83735300D01*
X132503954Y-83675232D01*
X132686450Y-83577685D01*
X132846410Y-83446410D01*
X132977685Y-83286450D01*
X133075232Y-83103954D01*
X133135300Y-82905934D01*
X133155583Y-82700000D01*
X133584417Y-82700000D01*
X133604699Y-82905933D01*
X133664766Y-83103950D01*
X133762314Y-83286450D01*
X133762315Y-83286451D01*
X133893588Y-83446409D01*
X133893590Y-83446411D01*
X134053548Y-83577684D01*
X134053549Y-83577685D01*
X134139264Y-83623500D01*
X134236046Y-83675232D01*
X134434066Y-83735300D01*
X134640000Y-83755583D01*
X134845934Y-83735300D01*
X135043954Y-83675232D01*
X135226450Y-83577685D01*
X135386410Y-83446410D01*
X135517685Y-83286450D01*
X135615232Y-83103954D01*
X135675300Y-82905934D01*
X135695583Y-82700000D01*
X135675300Y-82494066D01*
X135615232Y-82296046D01*
X135563500Y-82199264D01*
X135517685Y-82113549D01*
X135517684Y-82113548D01*
X135386411Y-81953590D01*
X135386409Y-81953588D01*
X135226451Y-81822315D01*
X135226450Y-81822314D01*
X135043950Y-81724766D01*
X134845933Y-81664699D01*
X134640000Y-81644417D01*
X134434066Y-81664699D01*
X134236049Y-81724766D01*
X134053549Y-81822314D01*
X134053548Y-81822315D01*
X133893590Y-81953588D01*
X133893588Y-81953590D01*
X133762315Y-82113548D01*
X133762314Y-82113549D01*
X133664766Y-82296049D01*
X133604699Y-82494066D01*
X133584417Y-82700000D01*
X133155583Y-82700000D01*
X133135300Y-82494066D01*
X133075232Y-82296046D01*
X133023500Y-82199264D01*
X132977685Y-82113549D01*
X132977684Y-82113548D01*
X132846411Y-81953590D01*
X132846409Y-81953588D01*
X132686451Y-81822315D01*
X132686450Y-81822314D01*
X132503950Y-81724766D01*
X132305933Y-81664699D01*
X132100000Y-81644417D01*
X131894066Y-81664699D01*
X131696049Y-81724766D01*
X131513549Y-81822314D01*
X131513548Y-81822315D01*
X131353590Y-81953588D01*
X131353588Y-81953590D01*
X131222315Y-82113548D01*
X131222314Y-82113549D01*
X131124766Y-82296049D01*
X131064699Y-82494066D01*
X131044417Y-82700000D01*
X130610500Y-82700000D01*
X130610500Y-81830249D01*
X130610499Y-81830248D01*
X130598868Y-81771775D01*
X130598867Y-81771769D01*
X130554552Y-81705448D01*
X130488231Y-81661133D01*
X130488228Y-81661132D01*
X130488224Y-81661131D01*
X130429751Y-81649500D01*
X130429748Y-81649500D01*
X128690252Y-81649500D01*
X128690249Y-81649500D01*
X128631775Y-81661131D01*
X128631769Y-81661133D01*
X128565448Y-81705448D01*
X128521133Y-81771769D01*
X128521131Y-81771775D01*
X128509500Y-81830248D01*
X118500500Y-81830248D01*
X118500500Y-78334999D01*
X130550463Y-78334999D01*
X130550463Y-78335000D01*
X130570557Y-78526183D01*
X130629959Y-78709005D01*
X130629960Y-78709007D01*
X130629961Y-78709009D01*
X130726079Y-78875490D01*
X130854710Y-79018349D01*
X131010231Y-79131342D01*
X131185847Y-79209532D01*
X131373882Y-79249500D01*
X131373883Y-79249500D01*
X131566117Y-79249500D01*
X131566118Y-79249500D01*
X131754153Y-79209532D01*
X131929769Y-79131342D01*
X132085290Y-79018349D01*
X132213921Y-78875490D01*
X132310039Y-78709009D01*
X132369443Y-78526182D01*
X132389537Y-78335000D01*
X132389537Y-78334999D01*
X133050463Y-78334999D01*
X133050463Y-78335000D01*
X133070557Y-78526183D01*
X133129959Y-78709005D01*
X133129960Y-78709007D01*
X133129961Y-78709009D01*
X133226079Y-78875490D01*
X133354710Y-79018349D01*
X133510231Y-79131342D01*
X133685847Y-79209532D01*
X133873882Y-79249500D01*
X133873883Y-79249500D01*
X134066117Y-79249500D01*
X134066118Y-79249500D01*
X134254153Y-79209532D01*
X134429769Y-79131342D01*
X134585290Y-79018349D01*
X134713921Y-78875490D01*
X134810039Y-78709009D01*
X134869443Y-78526182D01*
X134889537Y-78335000D01*
X134869443Y-78143818D01*
X134810039Y-77960991D01*
X134713921Y-77794510D01*
X134673843Y-77749999D01*
X163744353Y-77749999D01*
X163744353Y-77750000D01*
X163764835Y-77892457D01*
X163764836Y-77892461D01*
X163824622Y-78023371D01*
X163824622Y-78023372D01*
X163824623Y-78023373D01*
X163918872Y-78132143D01*
X164039947Y-78209953D01*
X164178039Y-78250500D01*
X164321961Y-78250500D01*
X164460053Y-78209953D01*
X164581128Y-78132143D01*
X164675377Y-78023373D01*
X164735165Y-77892457D01*
X164755647Y-77750000D01*
X164735165Y-77607543D01*
X164675377Y-77476627D01*
X164581128Y-77367857D01*
X164581125Y-77367855D01*
X164581124Y-77367854D01*
X164460055Y-77290048D01*
X164460048Y-77290045D01*
X164371076Y-77263921D01*
X164321961Y-77249500D01*
X164178039Y-77249500D01*
X164039951Y-77290045D01*
X164039944Y-77290048D01*
X163918875Y-77367854D01*
X163918874Y-77367855D01*
X163824622Y-77476627D01*
X163824622Y-77476628D01*
X163764836Y-77607538D01*
X163764835Y-77607542D01*
X163744353Y-77749999D01*
X134673843Y-77749999D01*
X134585290Y-77651651D01*
X134524581Y-77607543D01*
X134429774Y-77538661D01*
X134429765Y-77538656D01*
X134254151Y-77460467D01*
X134066119Y-77420500D01*
X134066118Y-77420500D01*
X133873882Y-77420500D01*
X133873880Y-77420500D01*
X133685848Y-77460467D01*
X133510235Y-77538656D01*
X133510233Y-77538657D01*
X133510232Y-77538658D01*
X133415427Y-77607538D01*
X133354706Y-77651654D01*
X133226079Y-77794509D01*
X133129960Y-77960992D01*
X133129959Y-77960994D01*
X133070557Y-78143816D01*
X133050463Y-78334999D01*
X132389537Y-78334999D01*
X132369443Y-78143818D01*
X132310039Y-77960991D01*
X132213921Y-77794510D01*
X132085290Y-77651651D01*
X132024581Y-77607543D01*
X131929774Y-77538661D01*
X131929765Y-77538656D01*
X131754151Y-77460467D01*
X131566119Y-77420500D01*
X131566118Y-77420500D01*
X131373882Y-77420500D01*
X131373880Y-77420500D01*
X131185848Y-77460467D01*
X131010235Y-77538656D01*
X131010233Y-77538657D01*
X131010232Y-77538658D01*
X130915427Y-77607538D01*
X130854706Y-77651654D01*
X130726079Y-77794509D01*
X130629960Y-77960992D01*
X130629959Y-77960994D01*
X130570557Y-78143816D01*
X130550463Y-78334999D01*
X118500500Y-78334999D01*
X118500500Y-76334999D01*
X130626379Y-76334999D01*
X130626379Y-76335000D01*
X130644814Y-76510398D01*
X130699313Y-76678130D01*
X130787497Y-76830868D01*
X130834045Y-76882565D01*
X131100904Y-76615705D01*
X131101909Y-76617446D01*
X131187554Y-76703091D01*
X131189292Y-76704094D01*
X130920534Y-76972852D01*
X131048185Y-77065594D01*
X131048195Y-77065600D01*
X131209306Y-77137330D01*
X131209305Y-77137330D01*
X131381818Y-77173999D01*
X131381819Y-77174000D01*
X131558181Y-77174000D01*
X131558181Y-77173999D01*
X131730694Y-77137330D01*
X131891804Y-77065600D01*
X131891809Y-77065596D01*
X132019463Y-76972851D01*
X131750707Y-76704095D01*
X131752446Y-76703091D01*
X131838091Y-76617446D01*
X131839095Y-76615707D01*
X132105953Y-76882565D01*
X132105954Y-76882565D01*
X132152501Y-76830871D01*
X132240686Y-76678130D01*
X132295185Y-76510398D01*
X132313621Y-76335000D01*
X132313621Y-76334999D01*
X133050463Y-76334999D01*
X133050463Y-76335000D01*
X133070557Y-76526183D01*
X133129959Y-76709005D01*
X133129960Y-76709007D01*
X133129961Y-76709009D01*
X133226079Y-76875490D01*
X133354710Y-77018349D01*
X133510231Y-77131342D01*
X133685847Y-77209532D01*
X133873882Y-77249500D01*
X133873883Y-77249500D01*
X134066117Y-77249500D01*
X134066118Y-77249500D01*
X134254153Y-77209532D01*
X134429769Y-77131342D01*
X134585290Y-77018349D01*
X134713921Y-76875490D01*
X134810039Y-76709009D01*
X134869443Y-76526182D01*
X134889537Y-76335000D01*
X134869443Y-76143818D01*
X134810039Y-75960991D01*
X134713921Y-75794510D01*
X134585290Y-75651651D01*
X134520262Y-75604405D01*
X134429774Y-75538661D01*
X134429765Y-75538656D01*
X134254151Y-75460467D01*
X134066119Y-75420500D01*
X134066118Y-75420500D01*
X133873882Y-75420500D01*
X133873880Y-75420500D01*
X133685848Y-75460467D01*
X133510235Y-75538656D01*
X133510233Y-75538657D01*
X133510232Y-75538658D01*
X133354710Y-75651651D01*
X133354706Y-75651654D01*
X133226079Y-75794509D01*
X133129960Y-75960992D01*
X133129959Y-75960994D01*
X133070557Y-76143816D01*
X133050463Y-76334999D01*
X132313621Y-76334999D01*
X132295185Y-76159601D01*
X132240686Y-75991869D01*
X132152502Y-75839131D01*
X132105953Y-75787433D01*
X131839094Y-76054292D01*
X131838091Y-76052554D01*
X131752446Y-75966909D01*
X131750705Y-75965904D01*
X132019464Y-75697146D01*
X131891814Y-75604405D01*
X131891804Y-75604399D01*
X131730693Y-75532669D01*
X131730694Y-75532669D01*
X131558181Y-75496000D01*
X131381818Y-75496000D01*
X131209305Y-75532669D01*
X131048196Y-75604399D01*
X131048185Y-75604406D01*
X130920535Y-75697147D01*
X131189292Y-75965904D01*
X131187554Y-75966909D01*
X131101909Y-76052554D01*
X131100904Y-76054292D01*
X130834045Y-75787433D01*
X130787496Y-75839131D01*
X130699313Y-75991869D01*
X130644814Y-76159601D01*
X130626379Y-76334999D01*
X118500500Y-76334999D01*
X118500500Y-73624999D01*
X124912000Y-73624999D01*
X124912000Y-73625000D01*
X124931969Y-73891487D01*
X124931970Y-73891489D01*
X124991434Y-74152016D01*
X125089065Y-74400778D01*
X125089067Y-74400781D01*
X125222684Y-74632214D01*
X125389298Y-74841144D01*
X125389304Y-74841150D01*
X125392498Y-74844112D01*
X125842632Y-74393978D01*
X125931020Y-74482366D01*
X125484193Y-74929193D01*
X125585196Y-75022911D01*
X125585198Y-75022912D01*
X125805996Y-75173450D01*
X126046765Y-75289399D01*
X126302137Y-75368171D01*
X126302136Y-75368171D01*
X126566381Y-75407999D01*
X126566383Y-75408000D01*
X126833617Y-75408000D01*
X126833618Y-75407999D01*
X127097862Y-75368171D01*
X127353234Y-75289399D01*
X127594003Y-75173450D01*
X127814801Y-75022912D01*
X127814810Y-75022905D01*
X127915805Y-74929194D01*
X127915806Y-74929194D01*
X127468979Y-74482367D01*
X127557367Y-74393979D01*
X128007500Y-74844112D01*
X128007502Y-74844113D01*
X128010692Y-74841154D01*
X128010700Y-74841146D01*
X128177315Y-74632214D01*
X128310932Y-74400781D01*
X128310934Y-74400778D01*
X128408565Y-74152016D01*
X128468029Y-73891489D01*
X128468030Y-73891487D01*
X128488000Y-73625000D01*
X128488000Y-73624999D01*
X136952000Y-73624999D01*
X136952000Y-73625000D01*
X136971969Y-73891487D01*
X136971970Y-73891489D01*
X137031434Y-74152016D01*
X137129065Y-74400778D01*
X137129067Y-74400781D01*
X137262684Y-74632214D01*
X137429298Y-74841144D01*
X137429304Y-74841150D01*
X137432498Y-74844112D01*
X137882632Y-74393978D01*
X137971020Y-74482366D01*
X137524193Y-74929193D01*
X137625196Y-75022911D01*
X137625198Y-75022912D01*
X137845996Y-75173450D01*
X138086765Y-75289399D01*
X138342137Y-75368171D01*
X138342136Y-75368171D01*
X138606381Y-75407999D01*
X138606383Y-75408000D01*
X138873617Y-75408000D01*
X138873618Y-75407999D01*
X139137862Y-75368171D01*
X139393234Y-75289399D01*
X139634003Y-75173450D01*
X139854801Y-75022912D01*
X139854810Y-75022905D01*
X139955805Y-74929194D01*
X139955806Y-74929194D01*
X139508979Y-74482367D01*
X139597367Y-74393979D01*
X140047500Y-74844112D01*
X140047502Y-74844113D01*
X140050692Y-74841154D01*
X140050700Y-74841146D01*
X140217315Y-74632214D01*
X140350932Y-74400781D01*
X140350934Y-74400778D01*
X140448565Y-74152016D01*
X140508029Y-73891489D01*
X140508030Y-73891487D01*
X140528000Y-73625000D01*
X140528000Y-73624999D01*
X140508030Y-73358512D01*
X140508029Y-73358510D01*
X140448565Y-73097983D01*
X140350934Y-72849221D01*
X140350932Y-72849218D01*
X140300970Y-72762681D01*
X142000000Y-72762681D01*
X142000000Y-73562500D01*
X142475000Y-73562500D01*
X142475000Y-73687500D01*
X142000001Y-73687500D01*
X142000001Y-74487310D01*
X142007252Y-74523774D01*
X142034879Y-74565119D01*
X142034880Y-74565120D01*
X142076228Y-74592749D01*
X142112683Y-74599999D01*
X142912500Y-74599999D01*
X142912500Y-74125000D01*
X143037500Y-74125000D01*
X143037500Y-74599999D01*
X143837311Y-74599999D01*
X143873774Y-74592747D01*
X143915119Y-74565120D01*
X143915120Y-74565119D01*
X143942749Y-74523771D01*
X143949999Y-74487318D01*
X143950000Y-74487314D01*
X143950000Y-73687500D01*
X143475000Y-73687500D01*
X143475000Y-73625000D01*
X144459417Y-73625000D01*
X144479699Y-73830933D01*
X144539766Y-74028950D01*
X144637314Y-74211450D01*
X144637315Y-74211451D01*
X144768588Y-74371409D01*
X144768590Y-74371411D01*
X144928548Y-74502684D01*
X144928549Y-74502685D01*
X144968004Y-74523774D01*
X145111046Y-74600232D01*
X145309066Y-74660300D01*
X145515000Y-74680583D01*
X145720934Y-74660300D01*
X145918954Y-74600232D01*
X146101450Y-74502685D01*
X146261410Y-74371410D01*
X146392685Y-74211450D01*
X146490232Y-74028954D01*
X146550300Y-73830934D01*
X146570583Y-73625000D01*
X146550300Y-73419066D01*
X146490232Y-73221046D01*
X146422029Y-73093448D01*
X146392685Y-73038549D01*
X146392684Y-73038548D01*
X146261411Y-72878590D01*
X146261409Y-72878588D01*
X146120175Y-72762681D01*
X152750000Y-72762681D01*
X152750000Y-73562500D01*
X153225000Y-73562500D01*
X153225000Y-73687500D01*
X152750001Y-73687500D01*
X152750001Y-74487310D01*
X152757252Y-74523774D01*
X152784879Y-74565119D01*
X152784880Y-74565120D01*
X152826228Y-74592749D01*
X152862683Y-74599999D01*
X153662500Y-74599999D01*
X153662500Y-74125000D01*
X153787500Y-74125000D01*
X153787500Y-74599999D01*
X154587311Y-74599999D01*
X154623774Y-74592747D01*
X154665119Y-74565120D01*
X154665120Y-74565119D01*
X154692749Y-74523771D01*
X154699999Y-74487318D01*
X154700000Y-74487314D01*
X154700000Y-73687500D01*
X154225000Y-73687500D01*
X154225000Y-73562500D01*
X154699999Y-73562500D01*
X154699999Y-72762689D01*
X154692747Y-72726225D01*
X154665120Y-72684880D01*
X154665119Y-72684879D01*
X154623771Y-72657250D01*
X154587318Y-72650000D01*
X153787500Y-72650000D01*
X153787500Y-73125000D01*
X153662500Y-73125000D01*
X153662500Y-72650000D01*
X152862689Y-72650000D01*
X152826225Y-72657252D01*
X152784880Y-72684879D01*
X152784879Y-72684880D01*
X152757250Y-72726228D01*
X152750000Y-72762681D01*
X146120175Y-72762681D01*
X146101451Y-72747315D01*
X146101450Y-72747314D01*
X145918950Y-72649766D01*
X145720933Y-72589699D01*
X145515000Y-72569417D01*
X145309066Y-72589699D01*
X145111049Y-72649766D01*
X144928549Y-72747314D01*
X144928548Y-72747315D01*
X144768590Y-72878588D01*
X144768588Y-72878590D01*
X144637315Y-73038548D01*
X144637314Y-73038549D01*
X144539766Y-73221049D01*
X144479699Y-73419066D01*
X144459417Y-73625000D01*
X143475000Y-73625000D01*
X143475000Y-73562500D01*
X143949999Y-73562500D01*
X143949999Y-72762689D01*
X143942747Y-72726225D01*
X143915120Y-72684880D01*
X143915119Y-72684879D01*
X143873771Y-72657250D01*
X143837318Y-72650000D01*
X143037500Y-72650000D01*
X143037500Y-73125000D01*
X142912500Y-73125000D01*
X142912500Y-72650000D01*
X142112689Y-72650000D01*
X142076225Y-72657252D01*
X142034880Y-72684879D01*
X142034879Y-72684880D01*
X142007250Y-72726228D01*
X142000000Y-72762681D01*
X140300970Y-72762681D01*
X140217315Y-72617785D01*
X140050701Y-72408855D01*
X140050694Y-72408848D01*
X140047501Y-72405886D01*
X139597366Y-72856020D01*
X139508978Y-72767632D01*
X139955806Y-72320805D01*
X139854803Y-72227088D01*
X139854801Y-72227087D01*
X139634003Y-72076549D01*
X139393234Y-71960600D01*
X139137862Y-71881828D01*
X139137863Y-71881828D01*
X138873618Y-71842000D01*
X138606381Y-71842000D01*
X138342137Y-71881828D01*
X138086765Y-71960600D01*
X137845996Y-72076549D01*
X137625201Y-72227083D01*
X137524193Y-72320805D01*
X137971021Y-72767633D01*
X137882633Y-72856021D01*
X137432497Y-72405885D01*
X137429302Y-72408850D01*
X137262684Y-72617785D01*
X137129067Y-72849218D01*
X137129065Y-72849221D01*
X137031434Y-73097983D01*
X136971970Y-73358510D01*
X136971969Y-73358512D01*
X136952000Y-73624999D01*
X128488000Y-73624999D01*
X128468030Y-73358512D01*
X128468029Y-73358510D01*
X128408565Y-73097983D01*
X128310934Y-72849221D01*
X128310932Y-72849218D01*
X128177315Y-72617785D01*
X128010701Y-72408855D01*
X128010694Y-72408848D01*
X128007501Y-72405886D01*
X127557366Y-72856020D01*
X127468978Y-72767632D01*
X127915806Y-72320805D01*
X127814803Y-72227088D01*
X127814801Y-72227087D01*
X127594003Y-72076549D01*
X127353234Y-71960600D01*
X127097862Y-71881828D01*
X127097863Y-71881828D01*
X126833618Y-71842000D01*
X126566381Y-71842000D01*
X126302137Y-71881828D01*
X126046765Y-71960600D01*
X125805996Y-72076549D01*
X125585201Y-72227083D01*
X125484193Y-72320805D01*
X125931021Y-72767633D01*
X125842633Y-72856021D01*
X125392497Y-72405885D01*
X125389302Y-72408850D01*
X125222684Y-72617785D01*
X125089067Y-72849218D01*
X125089065Y-72849221D01*
X124991434Y-73097983D01*
X124931970Y-73358510D01*
X124931969Y-73358512D01*
X124912000Y-73624999D01*
X118500500Y-73624999D01*
X118500500Y-66301720D01*
X118500597Y-66298272D01*
X118506944Y-66185262D01*
X119549500Y-66185262D01*
X119549500Y-66414737D01*
X119579453Y-66642248D01*
X119638839Y-66863878D01*
X119638842Y-66863887D01*
X119726656Y-67075888D01*
X119784022Y-67175250D01*
X119841390Y-67274615D01*
X119841391Y-67274616D01*
X119981079Y-67456659D01*
X120143340Y-67618920D01*
X120325383Y-67758608D01*
X120325384Y-67758609D01*
X120367379Y-67782854D01*
X120524112Y-67873344D01*
X120736113Y-67961158D01*
X120793444Y-67976519D01*
X120957753Y-68020546D01*
X120957749Y-68020546D01*
X120957759Y-68020547D01*
X120957762Y-68020548D01*
X121185266Y-68050500D01*
X121185269Y-68050500D01*
X121414731Y-68050500D01*
X121414734Y-68050500D01*
X121642238Y-68020548D01*
X121642243Y-68020546D01*
X121642248Y-68020546D01*
X121780279Y-67983560D01*
X121863887Y-67961158D01*
X122075888Y-67873344D01*
X122274612Y-67758611D01*
X122456661Y-67618919D01*
X122618919Y-67456661D01*
X122758611Y-67274612D01*
X122873344Y-67075888D01*
X122961158Y-66863887D01*
X122983560Y-66780279D01*
X123020546Y-66642248D01*
X123020546Y-66642243D01*
X123020548Y-66642238D01*
X123050500Y-66414734D01*
X123050500Y-66185266D01*
X123050499Y-66185262D01*
X176949500Y-66185262D01*
X176949500Y-66414737D01*
X176979453Y-66642248D01*
X177038839Y-66863878D01*
X177038842Y-66863887D01*
X177126656Y-67075888D01*
X177184022Y-67175250D01*
X177241390Y-67274615D01*
X177241391Y-67274616D01*
X177381079Y-67456659D01*
X177543340Y-67618920D01*
X177725383Y-67758608D01*
X177725384Y-67758609D01*
X177767379Y-67782854D01*
X177924112Y-67873344D01*
X178136113Y-67961158D01*
X178193444Y-67976519D01*
X178357753Y-68020546D01*
X178357749Y-68020546D01*
X178357759Y-68020547D01*
X178357762Y-68020548D01*
X178585266Y-68050500D01*
X178585269Y-68050500D01*
X178814731Y-68050500D01*
X178814734Y-68050500D01*
X179042238Y-68020548D01*
X179042243Y-68020546D01*
X179042248Y-68020546D01*
X179180279Y-67983560D01*
X179263887Y-67961158D01*
X179475888Y-67873344D01*
X179674612Y-67758611D01*
X179856661Y-67618919D01*
X180018919Y-67456661D01*
X180158611Y-67274612D01*
X180273344Y-67075888D01*
X180361158Y-66863887D01*
X180383560Y-66780279D01*
X180420546Y-66642248D01*
X180420546Y-66642243D01*
X180420548Y-66642238D01*
X180450500Y-66414734D01*
X180450500Y-66185266D01*
X180420548Y-65957762D01*
X180420546Y-65957757D01*
X180420546Y-65957751D01*
X180361160Y-65736121D01*
X180361158Y-65736113D01*
X180273344Y-65524112D01*
X180158611Y-65325388D01*
X180158609Y-65325384D01*
X180158608Y-65325383D01*
X180018920Y-65143340D01*
X179856659Y-64981079D01*
X179674616Y-64841391D01*
X179674615Y-64841390D01*
X179575250Y-64784022D01*
X179475888Y-64726656D01*
X179263887Y-64638842D01*
X179263878Y-64638839D01*
X179042246Y-64579453D01*
X179042250Y-64579453D01*
X178814737Y-64549500D01*
X178814734Y-64549500D01*
X178585266Y-64549500D01*
X178585262Y-64549500D01*
X178357751Y-64579453D01*
X178136121Y-64638839D01*
X178136112Y-64638842D01*
X177924114Y-64726655D01*
X177725384Y-64841390D01*
X177725383Y-64841391D01*
X177543340Y-64981079D01*
X177381079Y-65143340D01*
X177241391Y-65325383D01*
X177241390Y-65325384D01*
X177126655Y-65524114D01*
X177038842Y-65736112D01*
X177038839Y-65736121D01*
X176979453Y-65957751D01*
X176949500Y-66185262D01*
X123050499Y-66185262D01*
X123020548Y-65957762D01*
X123020546Y-65957757D01*
X123020546Y-65957751D01*
X122961160Y-65736121D01*
X122961158Y-65736113D01*
X122873344Y-65524112D01*
X122758611Y-65325388D01*
X122758609Y-65325384D01*
X122758608Y-65325383D01*
X122618920Y-65143340D01*
X122456659Y-64981079D01*
X122274616Y-64841391D01*
X122274615Y-64841390D01*
X122175250Y-64784022D01*
X122075888Y-64726656D01*
X121863887Y-64638842D01*
X121863878Y-64638839D01*
X121642246Y-64579453D01*
X121642250Y-64579453D01*
X121414737Y-64549500D01*
X121414734Y-64549500D01*
X121185266Y-64549500D01*
X121185262Y-64549500D01*
X120957751Y-64579453D01*
X120736121Y-64638839D01*
X120736112Y-64638842D01*
X120524114Y-64726655D01*
X120325384Y-64841390D01*
X120325383Y-64841391D01*
X120143340Y-64981079D01*
X119981079Y-65143340D01*
X119841391Y-65325383D01*
X119841390Y-65325384D01*
X119726655Y-65524114D01*
X119638842Y-65736112D01*
X119638839Y-65736121D01*
X119579453Y-65957751D01*
X119549500Y-66185262D01*
X118506944Y-66185262D01*
X118517909Y-65990005D01*
X118518681Y-65983152D01*
X118522997Y-65957751D01*
X118570113Y-65680442D01*
X118571640Y-65673748D01*
X118656644Y-65378696D01*
X118658914Y-65372208D01*
X118776423Y-65088515D01*
X118779403Y-65082328D01*
X118927936Y-64813579D01*
X118931582Y-64807776D01*
X119109272Y-64557345D01*
X119113555Y-64551975D01*
X119318160Y-64323022D01*
X119323022Y-64318160D01*
X119551975Y-64113555D01*
X119557345Y-64109272D01*
X119807776Y-63931582D01*
X119813579Y-63927936D01*
X120082328Y-63779403D01*
X120088515Y-63776423D01*
X120372208Y-63658914D01*
X120378696Y-63656644D01*
X120673748Y-63571640D01*
X120680442Y-63570113D01*
X120983155Y-63518680D01*
X120990000Y-63517909D01*
X121298273Y-63500597D01*
X121301721Y-63500500D01*
X121365892Y-63500500D01*
X178634108Y-63500500D01*
X178698279Y-63500500D01*
X178701727Y-63500597D01*
G37*
%TD.AperFunction*%
%TD*%
M02*
